<?xml version="1.0" encoding="utf-8"?>
<!-- Generator: Adobe Illustrator 17.0.0, SVG Export Plug-In . SVG Version: 6.00 Build 0)  -->
<!DOCTYPE svg PUBLIC "-//W3C//DTD SVG 1.1//EN" "http://www.w3.org/Graphics/SVG/1.1/DTD/svg11.dtd">
<svg version="1.1" id="Layer_2" xmlns="http://www.w3.org/2000/svg" xmlns:xlink="http://www.w3.org/1999/xlink" x="0px" y="0px"
	 width="1400px" height="980px" viewBox="0 0 1400 980" enable-background="new 0 0 1400 980" xml:space="preserve">
<rect fill="#BCBCBC" width="1400" height="980"/>
<g>
	<g>
		<linearGradient id="SVGID_1_" gradientUnits="userSpaceOnUse" x1="163.4474" y1="215.953" x2="105.1862" y2="346.3471">
			<stop  offset="0" style="stop-color:#270707"/>
			<stop  offset="1" style="stop-color:#890B0B"/>
		</linearGradient>
		<path fill="url(#SVGID_1_)" d="M141.268,144.842c0,0,35.697,70.22,36.806,142.353s-14.981,135.943-14.981,135.943
			s-38.841-0.555-66.029-17.756c0,0,13.618-46.361,18.461-121.392c4.843-75.031-8.196-148.829-8.196-148.829L141.268,144.842z"/>
		<linearGradient id="SVGID_2_" gradientUnits="userSpaceOnUse" x1="128.586" y1="159.0222" x2="103.6169" y2="273.88">
			<stop  offset="0" style="stop-color:#420707"/>
			<stop  offset="1" style="stop-color:#890B0B"/>
		</linearGradient>
		<path fill="url(#SVGID_2_)" d="M98.358,132.202c0,0,14.057,78.421-5.179,150.924c0,0,15.166,11.097,43.28,5.549
			c0,0,4.809-65.105-3.329-106.905s-25.801-56.597-25.801-56.597L98.358,132.202z"/>
		<linearGradient id="SVGID_3_" gradientUnits="userSpaceOnUse" x1="185.8278" y1="98.4387" x2="181.3888" y2="166.5026">
			<stop  offset="0" style="stop-color:#420707"/>
			<stop  offset="1" style="stop-color:#890B0B"/>
		</linearGradient>
		<path fill="url(#SVGID_3_)" d="M259.085,126.838v25.247c0,0-25.801,20.808-82.398,15.814s-69.359-42.725-69.359-42.725
			l8.878-4.162c0,0,19.42,15.259,65.752,17.756C228.29,141.265,259.085,126.838,259.085,126.838z"/>
		
			<linearGradient id="SVGID_4_" gradientUnits="userSpaceOnUse" x1="239.7775" y1="215.953" x2="181.5163" y2="346.3471" gradientTransform="matrix(-1 0 0 1 594.5 0)">
			<stop  offset="0" style="stop-color:#270707"/>
			<stop  offset="1" style="stop-color:#890B0B"/>
		</linearGradient>
		<path fill="url(#SVGID_4_)" d="M376.902,144.842c0,0-35.697,70.22-36.806,142.353s14.981,135.943,14.981,135.943
			s38.841-0.555,66.029-17.756c0,0-13.618-46.361-18.461-121.392s8.196-148.829,8.196-148.829L376.902,144.842z"/>
		
			<linearGradient id="SVGID_5_" gradientUnits="userSpaceOnUse" x1="204.9161" y1="159.0222" x2="179.947" y2="273.88" gradientTransform="matrix(-1 0 0 1 594.5 0)">
			<stop  offset="0" style="stop-color:#420707"/>
			<stop  offset="1" style="stop-color:#890B0B"/>
		</linearGradient>
		<path fill="url(#SVGID_5_)" d="M419.812,132.202c0,0-14.057,78.421,5.179,150.924c0,0-15.166,11.097-43.28,5.549
			c0,0-4.809-65.105,3.329-106.905c8.138-41.8,25.801-56.597,25.801-56.597L419.812,132.202z"/>
		
			<linearGradient id="SVGID_6_" gradientUnits="userSpaceOnUse" x1="262.1579" y1="98.4387" x2="257.719" y2="166.5026" gradientTransform="matrix(-1 0 0 1 594.5 0)">
			<stop  offset="0" style="stop-color:#420707"/>
			<stop  offset="1" style="stop-color:#890B0B"/>
		</linearGradient>
		<path fill="url(#SVGID_6_)" d="M259.085,126.838v25.247c0,0,25.801,20.808,82.398,15.814s69.359-42.725,69.359-42.725
			l-8.878-4.162c0,0-19.42,15.259-65.752,17.756C289.88,141.265,259.085,126.838,259.085,126.838z"/>
	</g>
	<g>
		
			<linearGradient id="SVGID_7_" gradientUnits="userSpaceOnUse" x1="440.1396" y1="172.1715" x2="425.713" y2="321.9861" gradientTransform="matrix(-1 0 0 1 1243 0)">
			<stop  offset="0" style="stop-color:#270707"/>
			<stop  offset="0.5484" style="stop-color:#890B0B"/>
			<stop  offset="1" style="stop-color:#630909"/>
		</linearGradient>
		<path fill="url(#SVGID_7_)" d="M847.338,164.662c0,0,10.543,84.34-16.646,172.564H816.82c0,0-54.377-79.96-61.036-186.188
			L847.338,164.662z"/>
		
			<linearGradient id="SVGID_8_" gradientUnits="userSpaceOnUse" x1="403.4052" y1="362.5919" x2="419.6263" y2="437.2094" gradientTransform="matrix(-1 0 0 1 1243 0)">
			<stop  offset="0" style="stop-color:#420707"/>
			<stop  offset="1" style="stop-color:#890B0B"/>
		</linearGradient>
		<path fill="url(#SVGID_8_)" d="M831.524,341.85c0,0-0.462,24.044,6.566,51.788c7.028,27.743,11.259,51.048,11.259,51.048
			s-24.946,5.549-43.072-3.329c0,0,10.727-74.907,10.727-101.818L831.524,341.85z"/>
		<path fill="#3A0808" d="M813.491,339.538c0,1.277,1.035,2.312,2.312,2.312h15.721c1.277,0,2.312-1.035,2.312-2.312l0,0
			c0-1.277-1.035-2.312-2.312-2.312h-15.721C814.526,337.226,813.491,338.261,813.491,339.538L813.491,339.538z"/>
		<linearGradient id="SVGID_9_" gradientUnits="userSpaceOnUse" x1="598.8453" y1="172.1715" x2="584.4188" y2="321.9861">
			<stop  offset="0" style="stop-color:#270707"/>
			<stop  offset="0.5484" style="stop-color:#890B0B"/>
			<stop  offset="1" style="stop-color:#630909"/>
		</linearGradient>
		<path fill="url(#SVGID_9_)" d="M554.368,164.662c0,0-10.542,84.34,16.646,172.564h13.872c0,0,54.377-79.96,61.036-186.188
			L554.368,164.662z"/>
		<linearGradient id="SVGID_10_" gradientUnits="userSpaceOnUse" x1="645.3594" y1="90.925" x2="585.4336" y2="196.35">
			<stop  offset="0" style="stop-color:#270707"/>
			<stop  offset="1" style="stop-color:#890B0B"/>
		</linearGradient>
		<path fill="url(#SVGID_10_)" d="M634.639,121.012h-81.103c0,0,3.607,26.449-9.71,47.256c0,0,31.073,13.317,79.901,3.329
			S690.31,143.3,690.31,143.3L634.639,121.012z"/>
		<linearGradient id="SVGID_11_" gradientUnits="userSpaceOnUse" x1="711.3954" y1="148.1623" x2="857.8807" y2="148.1623">
			<stop  offset="0" style="stop-color:#270707"/>
			<stop  offset="1" style="stop-color:#890B0B"/>
		</linearGradient>
		<path fill="url(#SVGID_11_)" d="M767.067,121.012h81.103c0,0-3.607,26.449,9.71,47.256c0,0-31.073,13.317-79.901,3.329
			c-48.828-9.988-66.584-28.298-66.584-28.298L767.067,121.012z"/>
		<linearGradient id="SVGID_12_" gradientUnits="userSpaceOnUse" x1="700.8529" y1="110.2849" x2="700.8529" y2="142.3501">
			<stop  offset="0" style="stop-color:#270707"/>
			<stop  offset="1" style="stop-color:#890B0B"/>
		</linearGradient>
		<path fill="url(#SVGID_12_)" d="M700.853,121.012h-66.214c0,0,29.223,33.292,66.214,33.292s66.214-33.292,66.214-33.292H700.853z"
			/>
		<linearGradient id="SVGID_13_" gradientUnits="userSpaceOnUse" x1="562.111" y1="362.5919" x2="578.3322" y2="437.2094">
			<stop  offset="0" style="stop-color:#420707"/>
			<stop  offset="1" style="stop-color:#890B0B"/>
		</linearGradient>
		<path fill="url(#SVGID_13_)" d="M570.181,341.85c0,0,0.462,24.044-6.566,51.788c-7.028,27.743-11.259,51.048-11.259,51.048
			s24.946,5.549,43.072-3.329c0,0-10.727-74.907-10.727-101.818L570.181,341.85z"/>
		<path fill="#3A0808" d="M588.215,339.538c0,1.277-1.035,2.312-2.312,2.312h-15.721c-1.277,0-2.312-1.035-2.312-2.312l0,0
			c0-1.277,1.035-2.312,2.312-2.312h15.721C587.179,337.226,588.215,338.261,588.215,339.538L588.215,339.538z"/>
	</g>
	<g>
		<linearGradient id="SVGID_14_" gradientUnits="userSpaceOnUse" x1="141.6988" y1="457.0046" x2="116.088" y2="849.7036">
			<stop  offset="0" style="stop-color:#420707"/>
			<stop  offset="1" style="stop-color:#890B0B"/>
		</linearGradient>
		<path fill="url(#SVGID_14_)" d="M102.982,643.144v215.844h23.304l-11.652-62.145c0,0,18.311-39.396,32.737-106.535
			c14.427-67.139,9.988-95.992,9.988-95.992L102.982,643.144z"/>
		
			<linearGradient id="SVGID_15_" gradientUnits="userSpaceOnUse" x1="211.1955" y1="457.0046" x2="185.5847" y2="849.7036" gradientTransform="matrix(-1 0 0 1 587.6667 0)">
			<stop  offset="0" style="stop-color:#420707"/>
			<stop  offset="1" style="stop-color:#890B0B"/>
		</linearGradient>
		<path fill="url(#SVGID_15_)" d="M415.188,643.144v215.844h-23.304l11.652-62.145c0,0-18.311-39.396-32.737-106.535
			c-14.427-67.139-9.988-95.992-9.988-95.992L415.188,643.144z"/>
		<linearGradient id="SVGID_16_" gradientUnits="userSpaceOnUse" x1="259.0849" y1="567.1268" x2="259.0849" y2="623.3906">
			<stop  offset="0" style="stop-color:#270707"/>
			<stop  offset="1" style="stop-color:#890B0B"/>
		</linearGradient>
		<path fill="url(#SVGID_16_)" d="M259.085,582.108l-157.953-2.035l1.85,63.07c0,0,37.454-4.439,58.539-38.009
			c0,0,27.466,22.195,61.313-7.213c0,0,18.403,13.039,36.251-0.832c17.848,13.872,36.251,0.832,36.251,0.832
			c33.847,29.408,61.313,7.213,61.313,7.213c21.085,33.57,58.539,38.009,58.539,38.009l1.85-63.07L259.085,582.108z"/>
		<linearGradient id="SVGID_17_" gradientUnits="userSpaceOnUse" x1="259.085" y1="535.6842" x2="259.085" y2="578.2241">
			<stop  offset="0" style="stop-color:#270707"/>
			<stop  offset="1" style="stop-color:#890B0B"/>
		</linearGradient>
		<path fill="url(#SVGID_17_)" d="M417.038,580.074c0,0-60.296,7.398-157.953,7.398c-82.49,0-157.953-7.398-157.953-7.398v-22.195
			h315.905V580.074z"/>
	</g>
	<g>
		<linearGradient id="SVGID_18_" gradientUnits="userSpaceOnUse" x1="1029.7549" y1="131.9248" x2="1029.7549" y2="420.6414">
			<stop  offset="0" style="stop-color:#270707"/>
			<stop  offset="1" style="stop-color:#890B0B"/>
		</linearGradient>
		<path fill="url(#SVGID_18_)" d="M992.806,164.107v256.534h48.828l-24.414-77.312c0,0,30.518-52.158,40.783-116.522
			c10.265-64.365,8.6-94.883,8.6-94.883L992.806,164.107z"/>
		<path fill="#3A0808" d="M1021.959,343.713c0,1.678-1.636,3.038-3.654,3.038h-24.847c-2.018,0-3.654-1.36-3.654-3.038l0,0
			c0-1.678,1.636-3.038,3.654-3.038h24.847C1020.323,340.675,1021.959,342.036,1021.959,343.713L1021.959,343.713z"/>
		
			<linearGradient id="SVGID_19_" gradientUnits="userSpaceOnUse" x1="106.0335" y1="131.9248" x2="106.0335" y2="420.6414" gradientTransform="matrix(-1 0 0 1 1347.8334 0)">
			<stop  offset="0" style="stop-color:#270707"/>
			<stop  offset="1" style="stop-color:#890B0B"/>
		</linearGradient>
		<path fill="url(#SVGID_19_)" d="M1278.749,164.107v256.534h-48.828l24.414-77.312c0,0-30.518-52.158-40.783-116.522
			c-10.265-64.365-8.6-94.883-8.6-94.883L1278.749,164.107z"/>
		<linearGradient id="SVGID_20_" gradientUnits="userSpaceOnUse" x1="1135.7775" y1="109.6221" x2="1135.7775" y2="159.121">
			<stop  offset="0" style="stop-color:#270707"/>
			<stop  offset="1" style="stop-color:#890B0B"/>
		</linearGradient>
		<path fill="url(#SVGID_20_)" d="M1280.228,121.012h-144.451H991.327l-11.097,55.487c0,0,62.515-4.809,85.82-38.101
			c0,0,10.912,12.577,35.512,11.097c24.599-1.48,34.217-16.831,34.217-16.831s9.618,15.351,34.217,16.831
			c24.599,1.48,35.512-11.097,35.512-11.097c23.304,33.292,85.82,38.101,85.82,38.101L1280.228,121.012z"/>
		<path fill="#3A0808" d="M1249.596,343.713c0,1.678,1.636,3.038,3.654,3.038h24.847c2.018,0,3.654-1.36,3.654-3.038l0,0
			c0-1.678-1.636-3.038-3.654-3.038h-24.847C1251.232,340.675,1249.596,342.036,1249.596,343.713L1249.596,343.713z"/>
	</g>
	<g>
		<linearGradient id="SVGID_21_" gradientUnits="userSpaceOnUse" x1="581.0938" y1="584.6976" x2="581.0938" y2="858.9877">
			<stop  offset="0" style="stop-color:#270707"/>
			<stop  offset="1" style="stop-color:#890B0B"/>
		</linearGradient>
		<path fill="url(#SVGID_21_)" d="M548.911,616.51c0,0,8.138,58.816,8.138,98.767c0,39.951-8.138,143.711-8.138,143.711h49.753
			l-13.317-36.621c0,0,7.953,12.392,27.928,4.994c0,0-11.837-27.743-16.276-43.65c0,0,10.727-0.37,16.276-7.398
			c0,0-26.264-58.816-32.182-101.726c-5.919-42.91,0-89.889,0-89.889h-21.455L548.911,616.51z"/>
		
			<linearGradient id="SVGID_22_" gradientUnits="userSpaceOnUse" x1="571.3879" y1="584.6976" x2="571.3879" y2="858.9877" gradientTransform="matrix(-1 0 0 1 1392 0)">
			<stop  offset="0" style="stop-color:#270707"/>
			<stop  offset="1" style="stop-color:#890B0B"/>
		</linearGradient>
		<path fill="url(#SVGID_22_)" d="M852.794,616.51c0,0-8.138,58.816-8.138,98.767c0,39.951,8.138,143.711,8.138,143.711h-49.753
			l13.317-36.621c0,0-7.953,12.392-27.928,4.994c0,0,11.837-27.743,16.276-43.65c0,0-10.727-0.37-16.276-7.398
			c0,0,26.264-58.816,32.182-101.726c5.919-42.91,0-89.889,0-89.889h21.455L852.794,616.51z"/>
		<linearGradient id="SVGID_23_" gradientUnits="userSpaceOnUse" x1="700.8529" y1="544.5354" x2="700.8529" y2="597.8073">
			<stop  offset="0" style="stop-color:#270707"/>
			<stop  offset="1" style="stop-color:#890B0B"/>
		</linearGradient>
		<path fill="url(#SVGID_23_)" d="M856.678,568.052c-1.85-7.398-7.399-12.213-13.502-11.097c0,0-63.206,12.567-142.324,12.577
			c-79.118-0.01-142.324-12.577-142.324-12.577c-6.102-1.116-11.652,3.699-13.502,11.097c-1.85,7.398-11.652,33.292-11.652,33.292
			c6.843,6.658,14.611,4.994,14.611,4.994l0.925,10.173l19.235-2.952l1.11-23.682c59.107,24.295,128.868,23.708,131.596,23.675
			c2.729,0.033,72.49,0.62,131.596-23.675l1.11,23.682l19.235,2.952l0.925-10.173c0,0,7.768,1.665,14.612-4.994
			C868.331,601.344,858.528,575.45,856.678,568.052z"/>
	</g>
	<g>
		<linearGradient id="SVGID_24_" gradientUnits="userSpaceOnUse" x1="1008.4746" y1="570.271" x2="1008.4746" y2="858.9877">
			<stop  offset="0" style="stop-color:#270707"/>
			<stop  offset="1" style="stop-color:#890B0B"/>
		</linearGradient>
		<path fill="url(#SVGID_24_)" d="M975.79,606.337c0,0,0.74,67.694,2.959,129.839c2.219,62.145,4.439,122.811,4.439,122.811h24.414
			c0,0-1.85-10.358,7.398-10.173c9.248,0.185,17.016-2.774,15.166-14.242c-1.85-11.467-9.248-35.142-31.443-47.349
			c0,0,15.715-41.06,31.717-102.096c16.002-61.036,9.343-108.649,9.343-108.649l-49.938-6.208L975.79,606.337z"/>
		
			<linearGradient id="SVGID_25_" gradientUnits="userSpaceOnUse" x1="911.6631" y1="570.271" x2="911.6631" y2="858.9877" gradientTransform="matrix(-1 0 0 1 2174.7434 0)">
			<stop  offset="0" style="stop-color:#270707"/>
			<stop  offset="1" style="stop-color:#890B0B"/>
		</linearGradient>
		<path fill="url(#SVGID_25_)" d="M1295.765,606.337c0,0-0.74,67.694-2.959,129.839s-4.439,122.811-4.439,122.811h-24.414
			c0,0,1.849-10.358-7.398-10.173c-9.248,0.185-17.016-2.774-15.166-14.242s9.248-35.142,31.443-47.349
			c0,0-15.715-41.06-31.717-102.096c-16.002-61.036-9.343-108.649-9.343-108.649l49.938-6.208L1295.765,606.337z"/>
		<linearGradient id="SVGID_26_" gradientUnits="userSpaceOnUse" x1="1135.7775" y1="531.4773" x2="1135.7775" y2="597.2889">
			<stop  offset="0" style="stop-color:#270707"/>
			<stop  offset="1" style="stop-color:#890B0B"/>
		</linearGradient>
		<path fill="url(#SVGID_26_)" d="M1306.492,577.484c-0.74-15.906-4.994-30.863-11.837-30.863c-6.844,0-158.877,0-158.877,0
			s-152.034,0-158.877,0c-6.843,0-11.097,14.957-11.837,30.863c-0.74,15.906,0,42.91,0,42.91c4.809-2.959,12.762-0.74,19.05-0.925
			s9.433-0.925,9.433-10.727c0-9.803,2.404-27.004,2.404-27.004s0.185,11.837,4.809,21.64s15.351,8.323,20.345,3.699
			c4.994-4.624,7.861-15.166,7.861-15.166s7.768,3.884,19.975,1.665c12.207-2.219,29.685-13.317,29.685-13.317
			s12.484,5.549,26.634,5.549s30.518-5.549,30.518-5.549s16.369,5.549,30.518,5.549c14.149,0,26.634-5.549,26.634-5.549
			s17.478,11.097,29.685,13.317s19.975-1.665,19.975-1.665s2.867,10.543,7.861,15.166c4.994,4.624,15.721,6.104,20.345-3.699
			c4.624-9.803,4.809-21.64,4.809-21.64s2.405,17.201,2.405,27.004c0,9.803,3.144,10.542,9.433,10.727
			c6.288,0.185,14.242-2.034,19.05,0.925C1306.492,620.394,1307.232,593.391,1306.492,577.484z"/>
	</g>
</g>
</svg>
