<?xml version="1.0" encoding="utf-8"?>
<!-- Generator: Adobe Illustrator 22.1.0, SVG Export Plug-In . SVG Version: 6.00 Build 0)  -->
<svg version="1.1" id="Layer_2" xmlns="http://www.w3.org/2000/svg" xmlns:xlink="http://www.w3.org/1999/xlink" x="0px" y="0px"
	 viewBox="0 0 55 264.7" style="enable-background:new 0 0 55 264.7;" xml:space="preserve">
<style type="text/css">
	.st0{display:none;fill:#BCBCBC;}
	.st1{display:none;}
	.st2{display:inline;fill:url(#SVGID_1_);}
	.st3{display:inline;fill:url(#SVGID_2_);}
	.st4{display:inline;fill:url(#SVGID_3_);}
	.st5{display:inline;fill:url(#SVGID_4_);}
	.st6{display:inline;fill:url(#SVGID_5_);}
	.st7{display:inline;fill:url(#SVGID_6_);}
	.st8{display:inline;fill:url(#SVGID_7_);}
	.st9{display:inline;fill:url(#SVGID_8_);}
	.st10{display:inline;fill:#3A0808;}
	.st11{display:inline;fill:url(#SVGID_9_);}
	.st12{display:inline;fill:url(#SVGID_10_);}
	.st13{display:inline;}
	.st14{opacity:0.4;fill:url(#SVGID_11_);}
	.st15{opacity:0.4;fill:url(#SVGID_12_);}
	.st16{opacity:0.4;fill:url(#SVGID_13_);}
	.st17{opacity:0.4;fill:url(#SVGID_14_);}
	.st18{display:inline;fill:url(#SVGID_15_);}
	.st19{display:inline;fill:url(#SVGID_16_);}
	.st20{display:inline;fill:url(#SVGID_17_);}
	.st21{fill:url(#SVGID_18_);}
	.st22{display:none;fill:url(#SVGID_19_);}
	.st23{display:inline;opacity:0.4;fill:url(#SVGID_20_);}
	.st24{display:inline;opacity:0.4;fill:url(#SVGID_21_);}
	.st25{opacity:0.4;fill:url(#SVGID_22_);}
	.st26{opacity:0.4;fill:url(#SVGID_23_);}
	.st27{display:none;fill:url(#SVGID_24_);}
	.st28{display:none;fill:url(#SVGID_25_);}
	.st29{display:inline;fill:url(#SVGID_26_);}
	.st30{display:inline;fill:url(#SVGID_27_);}
	.st31{opacity:0.4;fill:url(#SVGID_28_);}
	.st32{opacity:0.4;fill:url(#SVGID_29_);}
	.st33{opacity:0.4;fill:url(#SVGID_30_);}
	.st34{opacity:0.4;fill:url(#SVGID_31_);}
	.st35{display:inline;fill:url(#SVGID_32_);}
	.st36{display:inline;fill:url(#SVGID_33_);}
	.st37{display:inline;fill:url(#SVGID_34_);}
	.st38{display:inline;fill:url(#SVGID_35_);}
	.st39{opacity:0.4;fill:url(#SVGID_36_);}
	.st40{opacity:0.4;fill:url(#SVGID_37_);}
	.st41{opacity:0.4;fill:url(#SVGID_38_);}
	.st42{opacity:0.4;fill:url(#SVGID_39_);}
	.st43{display:inline;opacity:0.4;fill:url(#SVGID_40_);}
	.st44{display:inline;fill:url(#SVGID_41_);}
	.st45{display:inline;fill:url(#SVGID_42_);}
	.st46{opacity:0.4;fill:url(#SVGID_43_);}
	.st47{opacity:0.4;fill:url(#SVGID_44_);}
	.st48{opacity:0.4;fill:url(#SVGID_45_);}
	.st49{opacity:0.4;fill:url(#SVGID_46_);}
	.st50{display:inline;fill:url(#SVGID_47_);}
	.st51{display:inline;opacity:0.4;fill:url(#SVGID_48_);}
	.st52{display:inline;opacity:0.4;fill:url(#SVGID_49_);}
	.st53{display:inline;opacity:0.4;fill:url(#SVGID_50_);}
	.st54{display:inline;opacity:0.4;fill:url(#SVGID_51_);}
</style>
<rect x="-103" y="-594.3" class="st0" width="1400" height="980"/>
<g>
	<g class="st1">
		<linearGradient id="SVGID_1_" gradientUnits="userSpaceOnUse" x1="60.4655" y1="-378.3623" x2="2.2043" y2="-247.9682">
			<stop  offset="0" style="stop-color:#270707"/>
			<stop  offset="1" style="stop-color:#890B0B"/>
		</linearGradient>
		<path class="st2" d="M38.3-449.5c0,0,35.7,70.2,36.8,142.4c1.1,72.1-15,135.9-15,135.9s-38.8-0.6-66-17.8
			c0,0,13.6-46.4,18.5-121.4S4.3-459.2,4.3-459.2L38.3-449.5z"/>
		<linearGradient id="SVGID_2_" gradientUnits="userSpaceOnUse" x1="25.6041" y1="-435.2932" x2="0.635" y2="-320.4354">
			<stop  offset="0" style="stop-color:#420707"/>
			<stop  offset="1" style="stop-color:#890B0B"/>
		</linearGradient>
		<path class="st3" d="M-4.6-462.1c0,0,14.1,78.4-5.2,150.9c0,0,15.2,11.1,43.3,5.5c0,0,4.8-65.1-3.3-106.9S4.3-469.1,4.3-469.1
			L-4.6-462.1z"/>
		<linearGradient id="SVGID_3_" gradientUnits="userSpaceOnUse" x1="82.8459" y1="-495.8767" x2="78.4069" y2="-427.8128">
			<stop  offset="0" style="stop-color:#420707"/>
			<stop  offset="1" style="stop-color:#890B0B"/>
		</linearGradient>
		<path class="st4" d="M156.1-467.5v25.2c0,0-25.8,20.8-82.4,15.8c-56.6-5-69.4-42.7-69.4-42.7l8.9-4.2c0,0,19.4,15.3,65.8,17.8
			C125.3-453.1,156.1-467.5,156.1-467.5z"/>
		
			<linearGradient id="SVGID_4_" gradientUnits="userSpaceOnUse" x1="136.7956" y1="-378.3623" x2="78.5344" y2="-247.9682" gradientTransform="matrix(-1 0 0 1 388.5362 0)">
			<stop  offset="0" style="stop-color:#270707"/>
			<stop  offset="1" style="stop-color:#890B0B"/>
		</linearGradient>
		<path class="st5" d="M273.9-449.5c0,0-35.7,70.2-36.8,142.4c-1.1,72.1,15,135.9,15,135.9s38.8-0.6,66-17.8
			c0,0-13.6-46.4-18.5-121.4c-4.8-75,8.2-148.8,8.2-148.8L273.9-449.5z"/>
		
			<linearGradient id="SVGID_5_" gradientUnits="userSpaceOnUse" x1="101.9342" y1="-435.2932" x2="76.9651" y2="-320.4354" gradientTransform="matrix(-1 0 0 1 388.5362 0)">
			<stop  offset="0" style="stop-color:#420707"/>
			<stop  offset="1" style="stop-color:#890B0B"/>
		</linearGradient>
		<path class="st6" d="M316.8-462.1c0,0-14.1,78.4,5.2,150.9c0,0-15.2,11.1-43.3,5.5c0,0-4.8-65.1,3.3-106.9s25.8-56.6,25.8-56.6
			L316.8-462.1z"/>
		
			<linearGradient id="SVGID_6_" gradientUnits="userSpaceOnUse" x1="159.176" y1="-495.8767" x2="154.7371" y2="-427.8128" gradientTransform="matrix(-1 0 0 1 388.5362 0)">
			<stop  offset="0" style="stop-color:#420707"/>
			<stop  offset="1" style="stop-color:#890B0B"/>
		</linearGradient>
		<path class="st7" d="M156.1-467.5v25.2c0,0,25.8,20.8,82.4,15.8c56.6-5,69.4-42.7,69.4-42.7l-8.9-4.2c0,0-19.4,15.3-65.8,17.8
			C186.9-453.1,156.1-467.5,156.1-467.5z"/>
	</g>
	<g class="st1">
		
			<linearGradient id="SVGID_7_" gradientUnits="userSpaceOnUse" x1="337.1577" y1="-422.1438" x2="322.731" y2="-272.3293" gradientTransform="matrix(-1 0 0 1 1037.0363 0)">
			<stop  offset="0" style="stop-color:#270707"/>
			<stop  offset="0.5484" style="stop-color:#890B0B"/>
			<stop  offset="1" style="stop-color:#630909"/>
		</linearGradient>
		<path class="st8" d="M744.4-429.7c0,0,10.5,84.3-16.6,172.6h-13.9c0,0-54.4-80-61-186.2L744.4-429.7z"/>
		
			<linearGradient id="SVGID_8_" gradientUnits="userSpaceOnUse" x1="300.4232" y1="-231.7234" x2="316.6445" y2="-157.1059" gradientTransform="matrix(-1 0 0 1 1037.0363 0)">
			<stop  offset="0" style="stop-color:#420707"/>
			<stop  offset="1" style="stop-color:#890B0B"/>
		</linearGradient>
		<path class="st9" d="M728.5-252.5c0,0-0.5,24,6.6,51.8s11.3,51,11.3,51s-24.9,5.5-43.1-3.3c0,0,10.7-74.9,10.7-101.8L728.5-252.5z
			"/>
		<path class="st10" d="M710.5-254.8c0,1.3,1,2.3,2.3,2.3h15.7c1.3,0,2.3-1,2.3-2.3l0,0c0-1.3-1-2.3-2.3-2.3h-15.7
			C711.5-257.1,710.5-256.1,710.5-254.8L710.5-254.8z"/>
		<linearGradient id="SVGID_9_" gradientUnits="userSpaceOnUse" x1="495.8634" y1="-422.1438" x2="481.4368" y2="-272.3293">
			<stop  offset="0" style="stop-color:#270707"/>
			<stop  offset="0.5484" style="stop-color:#890B0B"/>
			<stop  offset="1" style="stop-color:#630909"/>
		</linearGradient>
		<path class="st11" d="M451.4-429.7c0,0-10.5,84.3,16.6,172.6h13.9c0,0,54.4-80,61-186.2L451.4-429.7z"/>
		<linearGradient id="SVGID_10_" gradientUnits="userSpaceOnUse" x1="459.129" y1="-231.7234" x2="475.3503" y2="-157.1059">
			<stop  offset="0" style="stop-color:#420707"/>
			<stop  offset="1" style="stop-color:#890B0B"/>
		</linearGradient>
		<path class="st12" d="M467.2-252.5c0,0,0.5,24-6.6,51.8c-7,27.7-11.3,51-11.3,51s24.9,5.5,43.1-3.3c0,0-10.7-74.9-10.7-101.8
			L467.2-252.5z"/>
		<path class="st10" d="M485.2-254.8c0,1.3-1,2.3-2.3,2.3h-15.7c-1.3,0-2.3-1-2.3-2.3l0,0c0-1.3,1-2.3,2.3-2.3h15.7
			C484.2-257.1,485.2-256.1,485.2-254.8L485.2-254.8z"/>
		<g class="st13">
			<linearGradient id="SVGID_11_" gradientUnits="userSpaceOnUse" x1="697.3981" y1="-432.2977" x2="697.3981" y2="-361.8367">
				<stop  offset="0" style="stop-color:#270707"/>
				<stop  offset="1" style="stop-color:#890B0B"/>
			</linearGradient>
			<path class="st14" d="M691.6-432.3c0,0,3.1,58.2,11.5,70.5c0,0-8-50.2-0.3-70.5H691.6z"/>
			<linearGradient id="SVGID_12_" gradientUnits="userSpaceOnUse" x1="716.0383" y1="-425.6427" x2="716.0383" y2="-355.1817">
				<stop  offset="0" style="stop-color:#270707"/>
				<stop  offset="1" style="stop-color:#890B0B"/>
			</linearGradient>
			<path class="st15" d="M710.3-425.6c0,0,3.1,58.2,11.5,70.5c0,0-8-50.2-0.3-70.5H710.3z"/>
		</g>
		<g class="st13">
			
				<linearGradient id="SVGID_13_" gradientUnits="userSpaceOnUse" x1="56.0617" y1="-425.6427" x2="56.0617" y2="-355.1817" gradientTransform="matrix(-1 0 0 1 562.2873 0)">
				<stop  offset="0" style="stop-color:#270707"/>
				<stop  offset="1" style="stop-color:#890B0B"/>
			</linearGradient>
			<path class="st16" d="M512-425.6c0,0-3.1,58.2-11.5,70.5c0,0,8-50.2,0.3-70.5H512z"/>
			
				<linearGradient id="SVGID_14_" gradientUnits="userSpaceOnUse" x1="74.7018" y1="-418.9877" x2="74.7018" y2="-348.5267" gradientTransform="matrix(-1 0 0 1 562.2873 0)">
				<stop  offset="0" style="stop-color:#270707"/>
				<stop  offset="1" style="stop-color:#890B0B"/>
			</linearGradient>
			<path class="st17" d="M493.4-419c0,0-3.1,58.2-11.5,70.5c0,0,8-50.2,0.3-70.5H493.4z"/>
		</g>
		<linearGradient id="SVGID_15_" gradientUnits="userSpaceOnUse" x1="542.3775" y1="-503.3904" x2="482.4517" y2="-397.9653">
			<stop  offset="0" style="stop-color:#270707"/>
			<stop  offset="1" style="stop-color:#890B0B"/>
		</linearGradient>
		<path class="st18" d="M531.7-473.3h-81.1c0,0,3.6,26.4-9.7,47.3c0,0,31.1,13.3,79.9,3.3s66.6-28.3,66.6-28.3L531.7-473.3z"/>
		<linearGradient id="SVGID_16_" gradientUnits="userSpaceOnUse" x1="608.4135" y1="-446.153" x2="754.8988" y2="-446.153">
			<stop  offset="0" style="stop-color:#270707"/>
			<stop  offset="1" style="stop-color:#890B0B"/>
		</linearGradient>
		<path class="st19" d="M664.1-473.3h81.1c0,0-3.6,26.4,9.7,47.3c0,0-31.1,13.3-79.9,3.3S608.4-451,608.4-451L664.1-473.3z"/>
		<linearGradient id="SVGID_17_" gradientUnits="userSpaceOnUse" x1="597.871" y1="-484.0304" x2="597.871" y2="-451.9652">
			<stop  offset="0" style="stop-color:#270707"/>
			<stop  offset="1" style="stop-color:#890B0B"/>
		</linearGradient>
		<path class="st20" d="M597.9-473.3h-66.2c0,0,29.2,33.3,66.2,33.3c37,0,66.2-33.3,66.2-33.3H597.9z"/>
	</g>
	<g>
		<linearGradient id="SVGID_18_" gradientUnits="userSpaceOnUse" x1="38.7169" y1="-137.3107" x2="13.1061" y2="255.3883">
			<stop  offset="0" style="stop-color:#420707"/>
			<stop  offset="1" style="stop-color:#890B0B"/>
		</linearGradient>
		<path class="st21" d="M0,48.8v215.8h23.3l-11.7-62.1c0,0,18.3-39.4,32.7-106.5s10-96,10-96L0,48.8z"/>
		
			<linearGradient id="SVGID_19_" gradientUnits="userSpaceOnUse" x1="108.2136" y1="-137.3107" x2="82.6028" y2="255.3883" gradientTransform="matrix(-1 0 0 1 381.7029 0)">
			<stop  offset="0" style="stop-color:#420707"/>
			<stop  offset="1" style="stop-color:#890B0B"/>
		</linearGradient>
		<path class="st22" d="M312.2,48.8v215.8h-23.3l11.7-62.1c0,0-18.3-39.4-32.7-106.5c-14.4-67.1-10-96-10-96L312.2,48.8z"/>
		<g class="st1">
			<linearGradient id="SVGID_20_" gradientUnits="userSpaceOnUse" x1="271.8236" y1="25.9937" x2="271.8236" y2="96.4547">
				<stop  offset="0" style="stop-color:#270707"/>
				<stop  offset="1" style="stop-color:#890B0B"/>
			</linearGradient>
			<path class="st23" d="M266.1,26c0,0,3.1,58.2,11.5,70.5c0,0-8-50.2-0.3-70.5H266.1z"/>
			<linearGradient id="SVGID_21_" gradientUnits="userSpaceOnUse" x1="290.4637" y1="32.6487" x2="290.4637" y2="103.1097">
				<stop  offset="0" style="stop-color:#270707"/>
				<stop  offset="1" style="stop-color:#890B0B"/>
			</linearGradient>
			<path class="st24" d="M284.7,32.6c0,0,3.1,58.2,11.5,70.5c0,0-8-50.2-0.3-70.5H284.7z"/>
		</g>
		<g>
			
				<linearGradient id="SVGID_22_" gradientUnits="userSpaceOnUse" x1="525.4565" y1="22.6662" x2="525.4565" y2="93.1272" gradientTransform="matrix(-1 0 0 1 562.2873 0)">
				<stop  offset="0" style="stop-color:#270707"/>
				<stop  offset="1" style="stop-color:#890B0B"/>
			</linearGradient>
			<path class="st25" d="M42.6,22.7c0,0-3.1,58.2-11.5,70.5c0,0,8-50.2,0.3-70.5H42.6z"/>
			
				<linearGradient id="SVGID_23_" gradientUnits="userSpaceOnUse" x1="544.0967" y1="29.3212" x2="544.0967" y2="99.7822" gradientTransform="matrix(-1 0 0 1 562.2873 0)">
				<stop  offset="0" style="stop-color:#270707"/>
				<stop  offset="1" style="stop-color:#890B0B"/>
			</linearGradient>
			<path class="st26" d="M24,29.3c0,0-3.1,58.2-11.5,70.5c0,0,8-50.2,0.3-70.5H24z"/>
		</g>
		<linearGradient id="SVGID_24_" gradientUnits="userSpaceOnUse" x1="156.103" y1="-27.1886" x2="156.103" y2="29.0752">
			<stop  offset="0" style="stop-color:#270707"/>
			<stop  offset="1" style="stop-color:#890B0B"/>
		</linearGradient>
		<path class="st27" d="M156.1-12.2l-158-2L0,48.8c0,0,37.5-4.4,58.5-38c0,0,27.5,22.2,61.3-7.2c0,0,18.4,13,36.3-0.8
			c17.8,13.9,36.3,0.8,36.3,0.8c33.8,29.4,61.3,7.2,61.3,7.2c21.1,33.6,58.5,38,58.5,38l1.8-63.1L156.1-12.2z"/>
		<linearGradient id="SVGID_25_" gradientUnits="userSpaceOnUse" x1="156.1031" y1="-58.6311" x2="156.1031" y2="-16.0912">
			<stop  offset="0" style="stop-color:#270707"/>
			<stop  offset="1" style="stop-color:#890B0B"/>
		</linearGradient>
		<path class="st28" d="M314.1-14.2c0,0-60.3,7.4-158,7.4c-82.5,0-158-7.4-158-7.4v-22.2h315.9V-14.2z"/>
	</g>
	<g class="st1">
		<linearGradient id="SVGID_26_" gradientUnits="userSpaceOnUse" x1="926.773" y1="-462.3906" x2="926.773" y2="-173.6739">
			<stop  offset="0" style="stop-color:#270707"/>
			<stop  offset="1" style="stop-color:#890B0B"/>
		</linearGradient>
		<path class="st29" d="M889.8-430.2v256.5h48.8L914.2-251c0,0,30.5-52.2,40.8-116.5s8.6-94.9,8.6-94.9L889.8-430.2z"/>
		<path class="st10" d="M919-250.6c0,1.7-1.6,3-3.7,3h-24.8c-2,0-3.7-1.4-3.7-3l0,0c0-1.7,1.6-3,3.7-3h24.8
			C917.3-253.6,919-252.3,919-250.6L919-250.6z"/>
		
			<linearGradient id="SVGID_27_" gradientUnits="userSpaceOnUse" x1="3.0516" y1="-462.3906" x2="3.0516" y2="-173.6739" gradientTransform="matrix(-1 0 0 1 1141.8695 0)">
			<stop  offset="0" style="stop-color:#270707"/>
			<stop  offset="1" style="stop-color:#890B0B"/>
		</linearGradient>
		<path class="st30" d="M1175.8-430.2v256.5h-48.8l24.4-77.3c0,0-30.5-52.2-40.8-116.5c-10.3-64.4-8.6-94.9-8.6-94.9L1175.8-430.2z"
			/>
		<path class="st10" d="M1146.6-250.6c0,1.7,1.6,3,3.7,3h24.8c2,0,3.7-1.4,3.7-3l0,0c0-1.7-1.6-3-3.7-3h-24.8
			C1148.2-253.6,1146.6-252.3,1146.6-250.6L1146.6-250.6z"/>
		<g class="st13">
			<linearGradient id="SVGID_28_" gradientUnits="userSpaceOnUse" x1="1137.2937" y1="-435.6252" x2="1137.2937" y2="-365.1642">
				<stop  offset="0" style="stop-color:#270707"/>
				<stop  offset="1" style="stop-color:#890B0B"/>
			</linearGradient>
			<path class="st31" d="M1131.5-435.6c0,0,3.1,58.2,11.5,70.5c0,0-8-50.2-0.3-70.5H1131.5z"/>
			<linearGradient id="SVGID_29_" gradientUnits="userSpaceOnUse" x1="1155.9338" y1="-428.9702" x2="1155.9338" y2="-358.5092">
				<stop  offset="0" style="stop-color:#270707"/>
				<stop  offset="1" style="stop-color:#890B0B"/>
			</linearGradient>
			<path class="st32" d="M1150.2-429c0,0,3.1,58.2,11.5,70.5c0,0-8-50.2-0.3-70.5H1150.2z"/>
		</g>
		<g class="st13">
			
				<linearGradient id="SVGID_30_" gradientUnits="userSpaceOnUse" x1="-367.6138" y1="-437.2889" x2="-367.6138" y2="-366.8279" gradientTransform="matrix(-1 0 0 1 562.2873 0)">
				<stop  offset="0" style="stop-color:#270707"/>
				<stop  offset="1" style="stop-color:#890B0B"/>
			</linearGradient>
			<path class="st33" d="M935.7-437.3c0,0-3.1,58.2-11.5,70.5c0,0,8-50.2,0.3-70.5H935.7z"/>
			
				<linearGradient id="SVGID_31_" gradientUnits="userSpaceOnUse" x1="-348.9737" y1="-430.6339" x2="-348.9737" y2="-360.173" gradientTransform="matrix(-1 0 0 1 562.2873 0)">
				<stop  offset="0" style="stop-color:#270707"/>
				<stop  offset="1" style="stop-color:#890B0B"/>
			</linearGradient>
			<path class="st34" d="M917-430.6c0,0-3.1,58.2-11.5,70.5c0,0,8-50.2,0.3-70.5H917z"/>
		</g>
		<linearGradient id="SVGID_32_" gradientUnits="userSpaceOnUse" x1="1032.7955" y1="-484.6932" x2="1032.7955" y2="-435.1943">
			<stop  offset="0" style="stop-color:#270707"/>
			<stop  offset="1" style="stop-color:#890B0B"/>
		</linearGradient>
		<path class="st35" d="M1177.2-473.3h-144.5H888.3l-11.1,55.5c0,0,62.5-4.8,85.8-38.1c0,0,10.9,12.6,35.5,11.1
			c24.6-1.5,34.2-16.8,34.2-16.8s9.6,15.4,34.2,16.8c24.6,1.5,35.5-11.1,35.5-11.1c23.3,33.3,85.8,38.1,85.8,38.1L1177.2-473.3z"/>
	</g>
	<g class="st1">
		<linearGradient id="SVGID_33_" gradientUnits="userSpaceOnUse" x1="478.1118" y1="-9.6177" x2="478.1118" y2="264.6724">
			<stop  offset="0" style="stop-color:#270707"/>
			<stop  offset="1" style="stop-color:#890B0B"/>
		</linearGradient>
		<path class="st36" d="M445.9,22.2c0,0,8.1,58.8,8.1,98.8s-8.1,143.7-8.1,143.7h49.8l-13.3-36.6c0,0,8,12.4,27.9,5
			c0,0-11.8-27.7-16.3-43.6c0,0,10.7-0.4,16.3-7.4c0,0-26.3-58.8-32.2-101.7c-5.9-42.9,0-89.9,0-89.9h-21.5L445.9,22.2z"/>
		
			<linearGradient id="SVGID_34_" gradientUnits="userSpaceOnUse" x1="468.4061" y1="-9.6177" x2="468.4061" y2="264.6724" gradientTransform="matrix(-1 0 0 1 1186.0361 0)">
			<stop  offset="0" style="stop-color:#270707"/>
			<stop  offset="1" style="stop-color:#890B0B"/>
		</linearGradient>
		<path class="st37" d="M749.8,22.2c0,0-8.1,58.8-8.1,98.8s8.1,143.7,8.1,143.7h-49.8l13.3-36.6c0,0-8,12.4-27.9,5
			c0,0,11.8-27.7,16.3-43.6c0,0-10.7-0.4-16.3-7.4c0,0,26.3-58.8,32.2-101.7s0-89.9,0-89.9h21.5L749.8,22.2z"/>
		<linearGradient id="SVGID_35_" gradientUnits="userSpaceOnUse" x1="597.871" y1="-49.7799" x2="597.871" y2="3.4919">
			<stop  offset="0" style="stop-color:#270707"/>
			<stop  offset="1" style="stop-color:#890B0B"/>
		</linearGradient>
		<path class="st38" d="M753.7-26.3c-1.8-7.4-7.4-12.2-13.5-11.1c0,0-63.2,12.6-142.3,12.6c-79.1,0-142.3-12.6-142.3-12.6
			c-6.1-1.1-11.7,3.7-13.5,11.1C440.2-18.9,430.4,7,430.4,7c6.8,6.7,14.6,5,14.6,5l0.9,10.2l19.2-3l1.1-23.7
			c59.1,24.3,128.9,23.7,131.6,23.7c2.7,0,72.5,0.6,131.6-23.7l1.1,23.7l19.2,3l0.9-10.2c0,0,7.8,1.7,14.6-5
			C765.3,7,755.5-18.9,753.7-26.3z"/>
		<g class="st13">
			<linearGradient id="SVGID_36_" gradientUnits="userSpaceOnUse" x1="715.2199" y1="132.3362" x2="715.2199" y2="235.3021">
				<stop  offset="0" style="stop-color:#270707"/>
				<stop  offset="1" style="stop-color:#890B0B"/>
			</linearGradient>
			<path class="st39" d="M713.4,228.1c0,0,13.3-38.1,17.5-95.7c0,0-24.7,96.6-31.3,103C699.6,235.3,711.6,233.7,713.4,228.1z"/>
			<linearGradient id="SVGID_37_" gradientUnits="userSpaceOnUse" x1="706.7182" y1="132.3362" x2="706.7182" y2="189.5107">
				<stop  offset="0" style="stop-color:#270707"/>
				<stop  offset="1" style="stop-color:#890B0B"/>
			</linearGradient>
			<path class="st40" d="M701.7,189.4c0,0,16.6-28.4,19-57.1c0,0-22.2,51.6-27.9,55C692.8,187.3,694.4,190.1,701.7,189.4z"/>
		</g>
		<g class="st13">
			
				<linearGradient id="SVGID_38_" gradientUnits="userSpaceOnUse" x1="941.7917" y1="132.3362" x2="941.7917" y2="235.3021" gradientTransform="matrix(-1 0 0 1 1423.609 0)">
				<stop  offset="0" style="stop-color:#270707"/>
				<stop  offset="1" style="stop-color:#890B0B"/>
			</linearGradient>
			<path class="st41" d="M483.7,228.1c0,0-13.3-38.1-17.5-95.7c0,0,24.7,96.6,31.3,103C497.5,235.3,485.4,233.7,483.7,228.1z"/>
			
				<linearGradient id="SVGID_39_" gradientUnits="userSpaceOnUse" x1="933.29" y1="132.3362" x2="933.29" y2="189.5107" gradientTransform="matrix(-1 0 0 1 1423.609 0)">
				<stop  offset="0" style="stop-color:#270707"/>
				<stop  offset="1" style="stop-color:#890B0B"/>
			</linearGradient>
			<path class="st42" d="M495.3,189.4c0,0-16.6-28.4-19-57.1c0,0,22.2,51.6,27.9,55C504.3,187.3,502.6,190.1,495.3,189.4z"/>
		</g>
		<linearGradient id="SVGID_40_" gradientUnits="userSpaceOnUse" x1="597.871" y1="-36.4364" x2="597.871" y2="0.3987">
			<stop  offset="0" style="stop-color:#270707"/>
			<stop  offset="1" style="stop-color:#890B0B"/>
		</linearGradient>
		<path class="st43" d="M449.4-36.4c0,0,144.3,64.9,297,0C746.4-36.4,614.7,46.4,449.4-36.4z"/>
	</g>
	<g class="st1">
		<linearGradient id="SVGID_41_" gradientUnits="userSpaceOnUse" x1="905.4927" y1="-24.0443" x2="905.4927" y2="264.6724">
			<stop  offset="0" style="stop-color:#270707"/>
			<stop  offset="1" style="stop-color:#890B0B"/>
		</linearGradient>
		<path class="st44" d="M872.8,12c0,0,0.7,67.7,3,129.8s4.4,122.8,4.4,122.8h24.4c0,0-1.8-10.4,7.4-10.2c9.2,0.2,17-2.8,15.2-14.2
			s-9.2-35.1-31.4-47.3c0,0,15.7-41.1,31.7-102.1s9.3-108.6,9.3-108.6L886.9-24L872.8,12z"/>
		
			<linearGradient id="SVGID_42_" gradientUnits="userSpaceOnUse" x1="808.6812" y1="-24.0443" x2="808.6812" y2="264.6724" gradientTransform="matrix(-1 0 0 1 1968.7795 0)">
			<stop  offset="0" style="stop-color:#270707"/>
			<stop  offset="1" style="stop-color:#890B0B"/>
		</linearGradient>
		<path class="st45" d="M1192.8,12c0,0-0.7,67.7-3,129.8s-4.4,122.8-4.4,122.8H1161c0,0,1.8-10.4-7.4-10.2
			c-9.2,0.2-17-2.8-15.2-14.2c1.8-11.5,9.2-35.1,31.4-47.3c0,0-15.7-41.1-31.7-102.1c-16-61-9.3-108.6-9.3-108.6l49.9-6.2L1192.8,12
			z"/>
		<g class="st13">
			<linearGradient id="SVGID_43_" gradientUnits="userSpaceOnUse" x1="1161.5134" y1="-1.020453e-09" x2="1161.5134" y2="192.9093">
				<stop  offset="0" style="stop-color:#270707"/>
				<stop  offset="1" style="stop-color:#890B0B"/>
			</linearGradient>
			<path class="st46" d="M1154,0c0,0-6.3,123.1,15.8,192.9c0,0-22.5-139.6-7.2-192.9L1154,0z"/>
			<linearGradient id="SVGID_44_" gradientUnits="userSpaceOnUse" x1="1161.1343" y1="192.9093" x2="1161.1343" y2="254.4998">
				<stop  offset="0" style="stop-color:#270707"/>
				<stop  offset="1" style="stop-color:#890B0B"/>
			</linearGradient>
			<path class="st47" d="M1169.8,192.9c0,0-22.7,27.4-16.3,61.6h6.5C1160.1,254.5,1157.7,215.1,1169.8,192.9z"/>
		</g>
		<g class="st13">
			
				<linearGradient id="SVGID_45_" gradientUnits="userSpaceOnUse" x1="1419.7479" y1="4.036501e-07" x2="1419.7479" y2="192.9093" gradientTransform="matrix(-1 0 0 1 2322.2686 0)">
				<stop  offset="0" style="stop-color:#270707"/>
				<stop  offset="1" style="stop-color:#890B0B"/>
			</linearGradient>
			<path class="st48" d="M910,0c0,0,6.3,123.1-15.8,192.9c0,0,22.5-139.6,7.2-192.9L910,0z"/>
			
				<linearGradient id="SVGID_46_" gradientUnits="userSpaceOnUse" x1="1419.3688" y1="192.9093" x2="1419.3688" y2="254.4998" gradientTransform="matrix(-1 0 0 1 2322.2686 0)">
				<stop  offset="0" style="stop-color:#270707"/>
				<stop  offset="1" style="stop-color:#890B0B"/>
			</linearGradient>
			<path class="st49" d="M894.2,192.9c0,0,22.7,27.4,16.3,61.6h-6.5C903.9,254.5,906.4,215.1,894.2,192.9z"/>
		</g>
		<linearGradient id="SVGID_47_" gradientUnits="userSpaceOnUse" x1="1032.7955" y1="-62.838" x2="1032.7955" y2="2.9735">
			<stop  offset="0" style="stop-color:#270707"/>
			<stop  offset="1" style="stop-color:#890B0B"/>
		</linearGradient>
		<path class="st50" d="M1203.5-16.8c-0.7-15.9-5-30.9-11.8-30.9c-6.8,0-158.9,0-158.9,0s-152,0-158.9,0c-6.8,0-11.1,15-11.8,30.9
			c-0.7,15.9,0,42.9,0,42.9c4.8-3,12.8-0.7,19.1-0.9c6.3-0.2,9.4-0.9,9.4-10.7c0-9.8,2.4-27,2.4-27s0.2,11.8,4.8,21.6
			c4.6,9.8,15.4,8.3,20.3,3.7c5-4.6,7.9-15.2,7.9-15.2s7.8,3.9,20,1.7c12.2-2.2,29.7-13.3,29.7-13.3s12.5,5.5,26.6,5.5
			s30.5-5.5,30.5-5.5s16.4,5.5,30.5,5.5s26.6-5.5,26.6-5.5s17.5,11.1,29.7,13.3c12.2,2.2,20-1.7,20-1.7s2.9,10.5,7.9,15.2
			c5,4.6,15.7,6.1,20.3-3.7c4.6-9.8,4.8-21.6,4.8-21.6s2.4,17.2,2.4,27c0,9.8,3.1,10.5,9.4,10.7c6.3,0.2,14.2-2,19.1,0.9
			C1203.5,26.1,1204.3-0.9,1203.5-16.8z"/>
	</g>
	<g class="st1">
		<linearGradient id="SVGID_48_" gradientUnits="userSpaceOnUse" x1="262.0541" y1="-340.1441" x2="262.0541" y2="-244.0517">
			<stop  offset="0" style="stop-color:#270707"/>
			<stop  offset="1" style="stop-color:#890B0B"/>
		</linearGradient>
		<path class="st51" d="M258-318c0,0-10.9,75.4,10.8,107.7C268.8-210.3,256-280.7,258-318z"/>
		<linearGradient id="SVGID_49_" gradientUnits="userSpaceOnUse" x1="279.6954" y1="-340.1441" x2="279.6954" y2="-244.0517">
			<stop  offset="0" style="stop-color:#270707"/>
			<stop  offset="1" style="stop-color:#890B0B"/>
		</linearGradient>
		<path class="st52" d="M275.7-318c0,0-10.9,75.4,10.8,107.7C286.5-210.3,273.7-280.7,275.7-318z"/>
	</g>
	<g class="st1">
		
			<linearGradient id="SVGID_50_" gradientUnits="userSpaceOnUse" x1="490.3299" y1="-340.1441" x2="490.3299" y2="-244.0517" gradientTransform="matrix(-1 0 0 1 541.7495 0)">
			<stop  offset="0" style="stop-color:#270707"/>
			<stop  offset="1" style="stop-color:#890B0B"/>
		</linearGradient>
		<path class="st53" d="M55.5-318c0,0,10.9,75.4-10.8,107.7C44.7-210.3,57.5-280.7,55.5-318z"/>
		
			<linearGradient id="SVGID_51_" gradientUnits="userSpaceOnUse" x1="507.9712" y1="-340.1441" x2="507.9712" y2="-244.0517" gradientTransform="matrix(-1 0 0 1 541.7495 0)">
			<stop  offset="0" style="stop-color:#270707"/>
			<stop  offset="1" style="stop-color:#890B0B"/>
		</linearGradient>
		<path class="st54" d="M37.8-318c0,0,10.9,75.4-10.8,107.7C27-210.3,39.8-280.7,37.8-318z"/>
	</g>
</g>
</svg>
