<?xml version="1.0" encoding="utf-8"?>
<!-- Generator: Adobe Illustrator 22.1.0, SVG Export Plug-In . SVG Version: 6.00 Build 0)  -->
<svg version="1.1" id="Layer_2" xmlns="http://www.w3.org/2000/svg" xmlns:xlink="http://www.w3.org/1999/xlink" x="0px" y="0px"
	 viewBox="0 0 309.3 61" style="enable-background:new 0 0 309.3 61;" xml:space="preserve">
<style type="text/css">
	.st0{display:none;fill:#BCBCBC;}
	.st1{display:none;}
	.st2{display:inline;fill:url(#SVGID_1_);}
	.st3{display:inline;fill:url(#SVGID_2_);}
	.st4{display:inline;fill:url(#SVGID_3_);}
	.st5{display:inline;fill:url(#SVGID_4_);}
	.st6{display:inline;fill:url(#SVGID_5_);}
	.st7{display:inline;fill:url(#SVGID_6_);}
	.st8{display:inline;fill:url(#SVGID_7_);}
	.st9{display:inline;fill:url(#SVGID_8_);}
	.st10{display:inline;fill:#3A0808;}
	.st11{display:inline;fill:url(#SVGID_9_);}
	.st12{display:inline;fill:url(#SVGID_10_);}
	.st13{display:inline;}
	.st14{opacity:0.4;fill:url(#SVGID_11_);}
	.st15{opacity:0.4;fill:url(#SVGID_12_);}
	.st16{opacity:0.4;fill:url(#SVGID_13_);}
	.st17{opacity:0.4;fill:url(#SVGID_14_);}
	.st18{display:inline;fill:url(#SVGID_15_);}
	.st19{display:inline;fill:url(#SVGID_16_);}
	.st20{display:inline;fill:url(#SVGID_17_);}
	.st21{display:none;fill:url(#SVGID_18_);}
	.st22{display:none;fill:url(#SVGID_19_);}
	.st23{display:inline;opacity:0.4;fill:url(#SVGID_20_);}
	.st24{display:inline;opacity:0.4;fill:url(#SVGID_21_);}
	.st25{display:inline;opacity:0.4;fill:url(#SVGID_22_);}
	.st26{display:inline;opacity:0.4;fill:url(#SVGID_23_);}
	.st27{fill:url(#SVGID_24_);}
	.st28{display:none;fill:url(#SVGID_25_);}
	.st29{display:inline;fill:url(#SVGID_26_);}
	.st30{display:inline;fill:url(#SVGID_27_);}
	.st31{opacity:0.4;fill:url(#SVGID_28_);}
	.st32{opacity:0.4;fill:url(#SVGID_29_);}
	.st33{opacity:0.4;fill:url(#SVGID_30_);}
	.st34{opacity:0.4;fill:url(#SVGID_31_);}
	.st35{display:inline;fill:url(#SVGID_32_);}
	.st36{display:inline;fill:url(#SVGID_33_);}
	.st37{display:inline;fill:url(#SVGID_34_);}
	.st38{display:inline;fill:url(#SVGID_35_);}
	.st39{opacity:0.4;fill:url(#SVGID_36_);}
	.st40{opacity:0.4;fill:url(#SVGID_37_);}
	.st41{opacity:0.4;fill:url(#SVGID_38_);}
	.st42{opacity:0.4;fill:url(#SVGID_39_);}
	.st43{display:inline;opacity:0.4;fill:url(#SVGID_40_);}
	.st44{display:inline;fill:url(#SVGID_41_);}
	.st45{display:inline;fill:url(#SVGID_42_);}
	.st46{opacity:0.4;fill:url(#SVGID_43_);}
	.st47{opacity:0.4;fill:url(#SVGID_44_);}
	.st48{opacity:0.4;fill:url(#SVGID_45_);}
	.st49{opacity:0.4;fill:url(#SVGID_46_);}
	.st50{display:inline;fill:url(#SVGID_47_);}
	.st51{display:inline;opacity:0.4;fill:url(#SVGID_48_);}
	.st52{display:inline;opacity:0.4;fill:url(#SVGID_49_);}
	.st53{display:inline;opacity:0.4;fill:url(#SVGID_50_);}
	.st54{display:inline;opacity:0.4;fill:url(#SVGID_51_);}
</style>
<rect x="-104.7" y="-582.1" class="st0" width="1400" height="980"/>
<g>
	<g class="st1">
		<linearGradient id="SVGID_1_" gradientUnits="userSpaceOnUse" x1="58.7807" y1="-366.1552" x2="0.5195" y2="-235.7611">
			<stop  offset="0" style="stop-color:#270707"/>
			<stop  offset="1" style="stop-color:#890B0B"/>
		</linearGradient>
		<path class="st2" d="M36.6-437.3c0,0,35.7,70.2,36.8,142.4c1.1,72.1-15,135.9-15,135.9s-38.8-0.6-66-17.8
			c0,0,13.6-46.4,18.5-121.4S2.7-446.9,2.7-446.9L36.6-437.3z"/>
		<linearGradient id="SVGID_2_" gradientUnits="userSpaceOnUse" x1="23.9193" y1="-423.0861" x2="-1.0498" y2="-308.2282">
			<stop  offset="0" style="stop-color:#420707"/>
			<stop  offset="1" style="stop-color:#890B0B"/>
		</linearGradient>
		<path class="st3" d="M-6.3-449.9c0,0,14.1,78.4-5.2,150.9c0,0,15.2,11.1,43.3,5.5c0,0,4.8-65.1-3.3-106.9S2.7-456.9,2.7-456.9
			L-6.3-449.9z"/>
		<linearGradient id="SVGID_3_" gradientUnits="userSpaceOnUse" x1="81.1611" y1="-483.6696" x2="76.7222" y2="-415.6057">
			<stop  offset="0" style="stop-color:#420707"/>
			<stop  offset="1" style="stop-color:#890B0B"/>
		</linearGradient>
		<path class="st4" d="M154.4-455.3v25.2c0,0-25.8,20.8-82.4,15.8c-56.6-5-69.4-42.7-69.4-42.7l8.9-4.2c0,0,19.4,15.3,65.8,17.8
			S154.4-455.3,154.4-455.3z"/>
		
			<linearGradient id="SVGID_4_" gradientUnits="userSpaceOnUse" x1="135.1109" y1="-366.1552" x2="76.8497" y2="-235.7611" gradientTransform="matrix(-1 0 0 1 385.1667 0)">
			<stop  offset="0" style="stop-color:#270707"/>
			<stop  offset="1" style="stop-color:#890B0B"/>
		</linearGradient>
		<path class="st5" d="M272.2-437.3c0,0-35.7,70.2-36.8,142.4c-1.1,72.1,15,135.9,15,135.9s38.8-0.6,66-17.8
			c0,0-13.6-46.4-18.5-121.4c-4.8-75,8.2-148.8,8.2-148.8L272.2-437.3z"/>
		
			<linearGradient id="SVGID_5_" gradientUnits="userSpaceOnUse" x1="100.2494" y1="-423.0861" x2="75.2803" y2="-308.2282" gradientTransform="matrix(-1 0 0 1 385.1667 0)">
			<stop  offset="0" style="stop-color:#420707"/>
			<stop  offset="1" style="stop-color:#890B0B"/>
		</linearGradient>
		<path class="st6" d="M315.1-449.9c0,0-14.1,78.4,5.2,150.9c0,0-15.2,11.1-43.3,5.5c0,0-4.8-65.1,3.3-106.9
			c8.1-41.8,25.8-56.6,25.8-56.6L315.1-449.9z"/>
		
			<linearGradient id="SVGID_6_" gradientUnits="userSpaceOnUse" x1="157.4912" y1="-483.6696" x2="153.0523" y2="-415.6057" gradientTransform="matrix(-1 0 0 1 385.1667 0)">
			<stop  offset="0" style="stop-color:#420707"/>
			<stop  offset="1" style="stop-color:#890B0B"/>
		</linearGradient>
		<path class="st7" d="M154.4-455.3v25.2c0,0,25.8,20.8,82.4,15.8c56.6-5,69.4-42.7,69.4-42.7l-8.9-4.2c0,0-19.4,15.3-65.8,17.8
			S154.4-455.3,154.4-455.3z"/>
	</g>
	<g class="st1">
		
			<linearGradient id="SVGID_7_" gradientUnits="userSpaceOnUse" x1="335.4729" y1="-409.9367" x2="321.0463" y2="-260.1222" gradientTransform="matrix(-1 0 0 1 1033.6666 0)">
			<stop  offset="0" style="stop-color:#270707"/>
			<stop  offset="0.5484" style="stop-color:#890B0B"/>
			<stop  offset="1" style="stop-color:#630909"/>
		</linearGradient>
		<path class="st8" d="M742.7-417.4c0,0,10.5,84.3-16.6,172.6h-13.9c0,0-54.4-80-61-186.2L742.7-417.4z"/>
		
			<linearGradient id="SVGID_8_" gradientUnits="userSpaceOnUse" x1="298.7385" y1="-219.5163" x2="314.9597" y2="-144.8988" gradientTransform="matrix(-1 0 0 1 1033.6666 0)">
			<stop  offset="0" style="stop-color:#420707"/>
			<stop  offset="1" style="stop-color:#890B0B"/>
		</linearGradient>
		<path class="st9" d="M726.9-240.3c0,0-0.5,24,6.6,51.8c7,27.7,11.3,51,11.3,51s-24.9,5.5-43.1-3.3c0,0,10.7-74.9,10.7-101.8
			L726.9-240.3z"/>
		<path class="st10" d="M708.8-242.6c0,1.3,1,2.3,2.3,2.3h15.7c1.3,0,2.3-1,2.3-2.3l0,0c0-1.3-1-2.3-2.3-2.3h-15.7
			C709.9-244.9,708.8-243.8,708.8-242.6L708.8-242.6z"/>
		<linearGradient id="SVGID_9_" gradientUnits="userSpaceOnUse" x1="494.1786" y1="-409.9367" x2="479.7521" y2="-260.1222">
			<stop  offset="0" style="stop-color:#270707"/>
			<stop  offset="0.5484" style="stop-color:#890B0B"/>
			<stop  offset="1" style="stop-color:#630909"/>
		</linearGradient>
		<path class="st11" d="M449.7-417.4c0,0-10.5,84.3,16.6,172.6h13.9c0,0,54.4-80,61-186.2L449.7-417.4z"/>
		<linearGradient id="SVGID_10_" gradientUnits="userSpaceOnUse" x1="457.4443" y1="-219.5163" x2="473.6655" y2="-144.8988">
			<stop  offset="0" style="stop-color:#420707"/>
			<stop  offset="1" style="stop-color:#890B0B"/>
		</linearGradient>
		<path class="st12" d="M465.5-240.3c0,0,0.5,24-6.6,51.8c-7,27.7-11.3,51-11.3,51s24.9,5.5,43.1-3.3c0,0-10.7-74.9-10.7-101.8
			L465.5-240.3z"/>
		<path class="st10" d="M483.5-242.6c0,1.3-1,2.3-2.3,2.3h-15.7c-1.3,0-2.3-1-2.3-2.3l0,0c0-1.3,1-2.3,2.3-2.3h15.7
			C482.5-244.9,483.5-243.8,483.5-242.6L483.5-242.6z"/>
		<g class="st13">
			<linearGradient id="SVGID_11_" gradientUnits="userSpaceOnUse" x1="695.7134" y1="-420.0906" x2="695.7134" y2="-349.6296">
				<stop  offset="0" style="stop-color:#270707"/>
				<stop  offset="1" style="stop-color:#890B0B"/>
			</linearGradient>
			<path class="st14" d="M689.9-420.1c0,0,3.1,58.2,11.5,70.5c0,0-8-50.2-0.3-70.5H689.9z"/>
			<linearGradient id="SVGID_12_" gradientUnits="userSpaceOnUse" x1="714.3535" y1="-413.4356" x2="714.3535" y2="-342.9746">
				<stop  offset="0" style="stop-color:#270707"/>
				<stop  offset="1" style="stop-color:#890B0B"/>
			</linearGradient>
			<path class="st15" d="M708.6-413.4c0,0,3.1,58.2,11.5,70.5c0,0-8-50.2-0.3-70.5H708.6z"/>
		</g>
		<g class="st13">
			
				<linearGradient id="SVGID_13_" gradientUnits="userSpaceOnUse" x1="54.3769" y1="-413.4356" x2="54.3769" y2="-342.9746" gradientTransform="matrix(-1 0 0 1 558.9177 0)">
				<stop  offset="0" style="stop-color:#270707"/>
				<stop  offset="1" style="stop-color:#890B0B"/>
			</linearGradient>
			<path class="st16" d="M510.3-413.4c0,0-3.1,58.2-11.5,70.5c0,0,8-50.2,0.3-70.5H510.3z"/>
			
				<linearGradient id="SVGID_14_" gradientUnits="userSpaceOnUse" x1="73.017" y1="-406.7806" x2="73.017" y2="-336.3196" gradientTransform="matrix(-1 0 0 1 558.9177 0)">
				<stop  offset="0" style="stop-color:#270707"/>
				<stop  offset="1" style="stop-color:#890B0B"/>
			</linearGradient>
			<path class="st17" d="M491.7-406.8c0,0-3.1,58.2-11.5,70.5c0,0,8-50.2,0.3-70.5H491.7z"/>
		</g>
		<linearGradient id="SVGID_15_" gradientUnits="userSpaceOnUse" x1="540.6927" y1="-491.1833" x2="480.7669" y2="-385.7582">
			<stop  offset="0" style="stop-color:#270707"/>
			<stop  offset="1" style="stop-color:#890B0B"/>
		</linearGradient>
		<path class="st18" d="M530-461.1h-81.1c0,0,3.6,26.4-9.7,47.3c0,0,31.1,13.3,79.9,3.3c48.8-10,66.6-28.3,66.6-28.3L530-461.1z"/>
		<linearGradient id="SVGID_16_" gradientUnits="userSpaceOnUse" x1="606.7287" y1="-433.9459" x2="753.2141" y2="-433.9459">
			<stop  offset="0" style="stop-color:#270707"/>
			<stop  offset="1" style="stop-color:#890B0B"/>
		</linearGradient>
		<path class="st19" d="M662.4-461.1h81.1c0,0-3.6,26.4,9.7,47.3c0,0-31.1,13.3-79.9,3.3c-48.8-10-66.6-28.3-66.6-28.3L662.4-461.1z
			"/>
		<linearGradient id="SVGID_17_" gradientUnits="userSpaceOnUse" x1="596.1862" y1="-471.8233" x2="596.1862" y2="-439.7581">
			<stop  offset="0" style="stop-color:#270707"/>
			<stop  offset="1" style="stop-color:#890B0B"/>
		</linearGradient>
		<path class="st20" d="M596.2-461.1H530c0,0,29.2,33.3,66.2,33.3s66.2-33.3,66.2-33.3H596.2z"/>
	</g>
	<g>
		<linearGradient id="SVGID_18_" gradientUnits="userSpaceOnUse" x1="37.0321" y1="-125.1036" x2="11.4213" y2="267.5954">
			<stop  offset="0" style="stop-color:#420707"/>
			<stop  offset="1" style="stop-color:#890B0B"/>
		</linearGradient>
		<path class="st21" d="M-1.7,61v215.8h23.3L10,214.7c0,0,18.3-39.4,32.7-106.5s10-96,10-96L-1.7,61z"/>
		
			<linearGradient id="SVGID_19_" gradientUnits="userSpaceOnUse" x1="106.5289" y1="-125.1036" x2="80.9181" y2="267.5954" gradientTransform="matrix(-1 0 0 1 378.3333 0)">
			<stop  offset="0" style="stop-color:#420707"/>
			<stop  offset="1" style="stop-color:#890B0B"/>
		</linearGradient>
		<path class="st22" d="M310.5,61v215.8h-23.3l11.7-62.1c0,0-18.3-39.4-32.7-106.5c-14.4-67.1-10-96-10-96L310.5,61z"/>
		<g class="st1">
			<linearGradient id="SVGID_20_" gradientUnits="userSpaceOnUse" x1="270.1388" y1="38.2008" x2="270.1388" y2="108.6618">
				<stop  offset="0" style="stop-color:#270707"/>
				<stop  offset="1" style="stop-color:#890B0B"/>
			</linearGradient>
			<path class="st23" d="M264.4,38.2c0,0,3.1,58.2,11.5,70.5c0,0-8-50.2-0.3-70.5H264.4z"/>
			<linearGradient id="SVGID_21_" gradientUnits="userSpaceOnUse" x1="288.7789" y1="44.8558" x2="288.7789" y2="115.3168">
				<stop  offset="0" style="stop-color:#270707"/>
				<stop  offset="1" style="stop-color:#890B0B"/>
			</linearGradient>
			<path class="st24" d="M283,44.9c0,0,3.1,58.2,11.5,70.5c0,0-8-50.2-0.3-70.5H283z"/>
		</g>
		<g class="st1">
			
				<linearGradient id="SVGID_22_" gradientUnits="userSpaceOnUse" x1="523.7718" y1="34.8733" x2="523.7718" y2="105.3343" gradientTransform="matrix(-1 0 0 1 558.9177 0)">
				<stop  offset="0" style="stop-color:#270707"/>
				<stop  offset="1" style="stop-color:#890B0B"/>
			</linearGradient>
			<path class="st25" d="M40.9,34.9c0,0-3.1,58.2-11.5,70.5c0,0,8-50.2,0.3-70.5H40.9z"/>
			
				<linearGradient id="SVGID_23_" gradientUnits="userSpaceOnUse" x1="542.4119" y1="41.5283" x2="542.4119" y2="111.9893" gradientTransform="matrix(-1 0 0 1 558.9177 0)">
				<stop  offset="0" style="stop-color:#270707"/>
				<stop  offset="1" style="stop-color:#890B0B"/>
			</linearGradient>
			<path class="st26" d="M22.3,41.5c0,0-3.1,58.2-11.5,70.5c0,0,8-50.2,0.3-70.5H22.3z"/>
		</g>
		<linearGradient id="SVGID_24_" gradientUnits="userSpaceOnUse" x1="154.4183" y1="-14.9815" x2="154.4183" y2="41.2823">
			<stop  offset="0" style="stop-color:#270707"/>
			<stop  offset="1" style="stop-color:#890B0B"/>
		</linearGradient>
		<path class="st27" d="M154.4,0l-158-2L-1.7,61c0,0,37.5-4.4,58.5-38c0,0,27.5,22.2,61.3-7.2c0,0,18.4,13,36.3-0.8
			c17.8,13.9,36.3,0.8,36.3,0.8C224.5,45.2,252,23,252,23c21.1,33.6,58.5,38,58.5,38L312.4-2L154.4,0z"/>
		<linearGradient id="SVGID_25_" gradientUnits="userSpaceOnUse" x1="154.4183" y1="-46.424" x2="154.4183" y2="-3.8841">
			<stop  offset="0" style="stop-color:#270707"/>
			<stop  offset="1" style="stop-color:#890B0B"/>
		</linearGradient>
		<path class="st28" d="M312.4-2c0,0-60.3,7.4-158,7.4C71.9,5.4-3.5-2-3.5-2v-22.2h315.9V-2z"/>
	</g>
	<g class="st1">
		<linearGradient id="SVGID_26_" gradientUnits="userSpaceOnUse" x1="925.0883" y1="-450.1834" x2="925.0883" y2="-161.4668">
			<stop  offset="0" style="stop-color:#270707"/>
			<stop  offset="1" style="stop-color:#890B0B"/>
		</linearGradient>
		<path class="st29" d="M888.1-418v256.5H937l-24.4-77.3c0,0,30.5-52.2,40.8-116.5s8.6-94.9,8.6-94.9L888.1-418z"/>
		<path class="st10" d="M917.3-238.4c0,1.7-1.6,3-3.7,3h-24.8c-2,0-3.7-1.4-3.7-3l0,0c0-1.7,1.6-3,3.7-3h24.8
			C915.7-241.4,917.3-240.1,917.3-238.4L917.3-238.4z"/>
		
			<linearGradient id="SVGID_27_" gradientUnits="userSpaceOnUse" x1="1.3668" y1="-450.1834" x2="1.3668" y2="-161.4668" gradientTransform="matrix(-1 0 0 1 1138.5 0)">
			<stop  offset="0" style="stop-color:#270707"/>
			<stop  offset="1" style="stop-color:#890B0B"/>
		</linearGradient>
		<path class="st30" d="M1174.1-418v256.5h-48.8l24.4-77.3c0,0-30.5-52.2-40.8-116.5c-10.3-64.4-8.6-94.9-8.6-94.9L1174.1-418z"/>
		<path class="st10" d="M1144.9-238.4c0,1.7,1.6,3,3.7,3h24.8c2,0,3.7-1.4,3.7-3l0,0c0-1.7-1.6-3-3.7-3h-24.8
			C1146.6-241.4,1144.9-240.1,1144.9-238.4L1144.9-238.4z"/>
		<g class="st13">
			<linearGradient id="SVGID_28_" gradientUnits="userSpaceOnUse" x1="1135.609" y1="-423.4181" x2="1135.609" y2="-352.9571">
				<stop  offset="0" style="stop-color:#270707"/>
				<stop  offset="1" style="stop-color:#890B0B"/>
			</linearGradient>
			<path class="st31" d="M1129.8-423.4c0,0,3.1,58.2,11.5,70.5c0,0-8-50.2-0.3-70.5H1129.8z"/>
			<linearGradient id="SVGID_29_" gradientUnits="userSpaceOnUse" x1="1154.2491" y1="-416.7631" x2="1154.2491" y2="-346.3021">
				<stop  offset="0" style="stop-color:#270707"/>
				<stop  offset="1" style="stop-color:#890B0B"/>
			</linearGradient>
			<path class="st32" d="M1148.5-416.8c0,0,3.1,58.2,11.5,70.5c0,0-8-50.2-0.3-70.5H1148.5z"/>
		</g>
		<g class="st13">
			
				<linearGradient id="SVGID_30_" gradientUnits="userSpaceOnUse" x1="-369.2985" y1="-425.0818" x2="-369.2985" y2="-354.6208" gradientTransform="matrix(-1 0 0 1 558.9177 0)">
				<stop  offset="0" style="stop-color:#270707"/>
				<stop  offset="1" style="stop-color:#890B0B"/>
			</linearGradient>
			<path class="st33" d="M934-425.1c0,0-3.1,58.2-11.5,70.5c0,0,8-50.2,0.3-70.5H934z"/>
			
				<linearGradient id="SVGID_31_" gradientUnits="userSpaceOnUse" x1="-350.6584" y1="-418.4268" x2="-350.6584" y2="-347.9659" gradientTransform="matrix(-1 0 0 1 558.9177 0)">
				<stop  offset="0" style="stop-color:#270707"/>
				<stop  offset="1" style="stop-color:#890B0B"/>
			</linearGradient>
			<path class="st34" d="M915.3-418.4c0,0-3.1,58.2-11.5,70.5c0,0,8-50.2,0.3-70.5H915.3z"/>
		</g>
		<linearGradient id="SVGID_32_" gradientUnits="userSpaceOnUse" x1="1031.1107" y1="-472.4861" x2="1031.1107" y2="-422.9872">
			<stop  offset="0" style="stop-color:#270707"/>
			<stop  offset="1" style="stop-color:#890B0B"/>
		</linearGradient>
		<path class="st35" d="M1175.6-461.1h-144.5H886.7l-11.1,55.5c0,0,62.5-4.8,85.8-38.1c0,0,10.9,12.6,35.5,11.1
			c24.6-1.5,34.2-16.8,34.2-16.8s9.6,15.4,34.2,16.8c24.6,1.5,35.5-11.1,35.5-11.1c23.3,33.3,85.8,38.1,85.8,38.1L1175.6-461.1z"/>
	</g>
	<g class="st1">
		<linearGradient id="SVGID_33_" gradientUnits="userSpaceOnUse" x1="476.4271" y1="2.5894" x2="476.4271" y2="276.8795">
			<stop  offset="0" style="stop-color:#270707"/>
			<stop  offset="1" style="stop-color:#890B0B"/>
		</linearGradient>
		<path class="st36" d="M444.2,34.4c0,0,8.1,58.8,8.1,98.8s-8.1,143.7-8.1,143.7H494l-13.3-36.6c0,0,8,12.4,27.9,5
			c0,0-11.8-27.7-16.3-43.6c0,0,10.7-0.4,16.3-7.4c0,0-26.3-58.8-32.2-101.7c-5.9-42.9,0-89.9,0-89.9H455L444.2,34.4z"/>
		
			<linearGradient id="SVGID_34_" gradientUnits="userSpaceOnUse" x1="466.7213" y1="2.5894" x2="466.7213" y2="276.8795" gradientTransform="matrix(-1 0 0 1 1182.6666 0)">
			<stop  offset="0" style="stop-color:#270707"/>
			<stop  offset="1" style="stop-color:#890B0B"/>
		</linearGradient>
		<path class="st37" d="M748.1,34.4c0,0-8.1,58.8-8.1,98.8s8.1,143.7,8.1,143.7h-49.8l13.3-36.6c0,0-8,12.4-27.9,5
			c0,0,11.8-27.7,16.3-43.6c0,0-10.7-0.4-16.3-7.4c0,0,26.3-58.8,32.2-101.7c5.9-42.9,0-89.9,0-89.9h21.5L748.1,34.4z"/>
		<linearGradient id="SVGID_35_" gradientUnits="userSpaceOnUse" x1="596.1862" y1="-37.5728" x2="596.1862" y2="15.699">
			<stop  offset="0" style="stop-color:#270707"/>
			<stop  offset="1" style="stop-color:#890B0B"/>
		</linearGradient>
		<path class="st38" d="M752-14.1c-1.8-7.4-7.4-12.2-13.5-11.1c0,0-63.2,12.6-142.3,12.6c-79.1,0-142.3-12.6-142.3-12.6
			c-6.1-1.1-11.7,3.7-13.5,11.1c-1.8,7.4-11.7,33.3-11.7,33.3c6.8,6.7,14.6,5,14.6,5l0.9,10.2l19.2-3l1.1-23.7
			c59.1,24.3,128.9,23.7,131.6,23.7c2.7,0,72.5,0.6,131.6-23.7l1.1,23.7l19.2,3l0.9-10.2c0,0,7.8,1.7,14.6-5
			C763.7,19.2,753.9-6.7,752-14.1z"/>
		<g class="st13">
			<linearGradient id="SVGID_36_" gradientUnits="userSpaceOnUse" x1="713.5352" y1="144.5433" x2="713.5352" y2="247.5092">
				<stop  offset="0" style="stop-color:#270707"/>
				<stop  offset="1" style="stop-color:#890B0B"/>
			</linearGradient>
			<path class="st39" d="M711.7,240.3c0,0,13.3-38.1,17.5-95.7c0,0-24.7,96.6-31.3,103C697.9,247.5,709.9,245.9,711.7,240.3z"/>
			<linearGradient id="SVGID_37_" gradientUnits="userSpaceOnUse" x1="705.0334" y1="144.5433" x2="705.0334" y2="201.7178">
				<stop  offset="0" style="stop-color:#270707"/>
				<stop  offset="1" style="stop-color:#890B0B"/>
			</linearGradient>
			<path class="st40" d="M700,201.6c0,0,16.6-28.4,19-57.1c0,0-22.2,51.6-27.9,55C691.1,199.5,692.7,202.3,700,201.6z"/>
		</g>
		<g class="st13">
			
				<linearGradient id="SVGID_38_" gradientUnits="userSpaceOnUse" x1="940.107" y1="144.5433" x2="940.107" y2="247.5092" gradientTransform="matrix(-1 0 0 1 1420.2395 0)">
				<stop  offset="0" style="stop-color:#270707"/>
				<stop  offset="1" style="stop-color:#890B0B"/>
			</linearGradient>
			<path class="st41" d="M482,240.3c0,0-13.3-38.1-17.5-95.7c0,0,24.7,96.6,31.3,103C495.8,247.5,483.8,245.9,482,240.3z"/>
			
				<linearGradient id="SVGID_39_" gradientUnits="userSpaceOnUse" x1="931.6053" y1="144.5433" x2="931.6053" y2="201.7178" gradientTransform="matrix(-1 0 0 1 1420.2395 0)">
				<stop  offset="0" style="stop-color:#270707"/>
				<stop  offset="1" style="stop-color:#890B0B"/>
			</linearGradient>
			<path class="st42" d="M493.6,201.6c0,0-16.6-28.4-19-57.1c0,0,22.2,51.6,27.9,55C502.6,199.5,500.9,202.3,493.6,201.6z"/>
		</g>
		<linearGradient id="SVGID_40_" gradientUnits="userSpaceOnUse" x1="596.1862" y1="-24.2293" x2="596.1862" y2="12.6058">
			<stop  offset="0" style="stop-color:#270707"/>
			<stop  offset="1" style="stop-color:#890B0B"/>
		</linearGradient>
		<path class="st43" d="M447.7-24.2c0,0,144.3,64.9,297,0C744.7-24.2,613,58.6,447.7-24.2z"/>
	</g>
	<g class="st1">
		<linearGradient id="SVGID_41_" gradientUnits="userSpaceOnUse" x1="903.8079" y1="-11.8372" x2="903.8079" y2="276.8795">
			<stop  offset="0" style="stop-color:#270707"/>
			<stop  offset="1" style="stop-color:#890B0B"/>
		</linearGradient>
		<path class="st44" d="M871.1,24.2c0,0,0.7,67.7,3,129.8s4.4,122.8,4.4,122.8h24.4c0,0-1.8-10.4,7.4-10.2c9.2,0.2,17-2.8,15.2-14.2
			c-1.8-11.5-9.2-35.1-31.4-47.3c0,0,15.7-41.1,31.7-102.1c16-61,9.3-108.6,9.3-108.6l-49.9-6.2L871.1,24.2z"/>
		
			<linearGradient id="SVGID_42_" gradientUnits="userSpaceOnUse" x1="806.9964" y1="-11.8372" x2="806.9964" y2="276.8795" gradientTransform="matrix(-1 0 0 1 1965.41 0)">
			<stop  offset="0" style="stop-color:#270707"/>
			<stop  offset="1" style="stop-color:#890B0B"/>
		</linearGradient>
		<path class="st45" d="M1191.1,24.2c0,0-0.7,67.7-3,129.8c-2.2,62.1-4.4,122.8-4.4,122.8h-24.4c0,0,1.8-10.4-7.4-10.2
			c-9.2,0.2-17-2.8-15.2-14.2c1.8-11.5,9.2-35.1,31.4-47.3c0,0-15.7-41.1-31.7-102.1s-9.3-108.6-9.3-108.6l49.9-6.2L1191.1,24.2z"/>
		<g class="st13">
			<linearGradient id="SVGID_43_" gradientUnits="userSpaceOnUse" x1="1159.8287" y1="12.2071" x2="1159.8287" y2="205.1165">
				<stop  offset="0" style="stop-color:#270707"/>
				<stop  offset="1" style="stop-color:#890B0B"/>
			</linearGradient>
			<path class="st46" d="M1152.3,12.2c0,0-6.3,123.1,15.8,192.9c0,0-22.5-139.6-7.2-192.9H1152.3z"/>
			<linearGradient id="SVGID_44_" gradientUnits="userSpaceOnUse" x1="1159.4496" y1="205.1165" x2="1159.4496" y2="266.7069">
				<stop  offset="0" style="stop-color:#270707"/>
				<stop  offset="1" style="stop-color:#890B0B"/>
			</linearGradient>
			<path class="st47" d="M1168.2,205.1c0,0-22.7,27.4-16.3,61.6h6.5C1158.4,266.7,1156,227.3,1168.2,205.1z"/>
		</g>
		<g class="st13">
			
				<linearGradient id="SVGID_45_" gradientUnits="userSpaceOnUse" x1="1418.0631" y1="12.2071" x2="1418.0631" y2="205.1165" gradientTransform="matrix(-1 0 0 1 2318.8992 0)">
				<stop  offset="0" style="stop-color:#270707"/>
				<stop  offset="1" style="stop-color:#890B0B"/>
			</linearGradient>
			<path class="st48" d="M908.3,12.2c0,0,6.3,123.1-15.8,192.9c0,0,22.5-139.6,7.2-192.9H908.3z"/>
			
				<linearGradient id="SVGID_46_" gradientUnits="userSpaceOnUse" x1="1417.684" y1="205.1165" x2="1417.684" y2="266.7069" gradientTransform="matrix(-1 0 0 1 2318.8992 0)">
				<stop  offset="0" style="stop-color:#270707"/>
				<stop  offset="1" style="stop-color:#890B0B"/>
			</linearGradient>
			<path class="st49" d="M892.5,205.1c0,0,22.7,27.4,16.3,61.6h-6.5C902.3,266.7,904.7,227.3,892.5,205.1z"/>
		</g>
		<linearGradient id="SVGID_47_" gradientUnits="userSpaceOnUse" x1="1031.1107" y1="-50.6309" x2="1031.1107" y2="15.1806">
			<stop  offset="0" style="stop-color:#270707"/>
			<stop  offset="1" style="stop-color:#890B0B"/>
		</linearGradient>
		<path class="st50" d="M1201.8-4.6c-0.7-15.9-5-30.9-11.8-30.9c-6.8,0-158.9,0-158.9,0s-152,0-158.9,0c-6.8,0-11.1,15-11.8,30.9
			c-0.7,15.9,0,42.9,0,42.9c4.8-3,12.8-0.7,19.1-0.9c6.3-0.2,9.4-0.9,9.4-10.7c0-9.8,2.4-27,2.4-27s0.2,11.8,4.8,21.6
			c4.6,9.8,15.4,8.3,20.3,3.7c5-4.6,7.9-15.2,7.9-15.2s7.8,3.9,20,1.7C956.5,9.2,974-1.8,974-1.8s12.5,5.5,26.6,5.5
			c14.1,0,30.5-5.5,30.5-5.5s16.4,5.5,30.5,5.5s26.6-5.5,26.6-5.5s17.5,11.1,29.7,13.3c12.2,2.2,20-1.7,20-1.7s2.9,10.5,7.9,15.2
			c5,4.6,15.7,6.1,20.3-3.7c4.6-9.8,4.8-21.6,4.8-21.6s2.4,17.2,2.4,27c0,9.8,3.1,10.5,9.4,10.7c6.3,0.2,14.2-2,19.1,0.9
			C1201.8,38.3,1202.6,11.3,1201.8-4.6z"/>
	</g>
	<g class="st1">
		<linearGradient id="SVGID_48_" gradientUnits="userSpaceOnUse" x1="260.3693" y1="-327.937" x2="260.3693" y2="-231.8446">
			<stop  offset="0" style="stop-color:#270707"/>
			<stop  offset="1" style="stop-color:#890B0B"/>
		</linearGradient>
		<path class="st51" d="M256.3-305.8c0,0-10.9,75.4,10.8,107.7C267.1-198.1,254.3-268.5,256.3-305.8z"/>
		<linearGradient id="SVGID_49_" gradientUnits="userSpaceOnUse" x1="278.0107" y1="-327.937" x2="278.0107" y2="-231.8446">
			<stop  offset="0" style="stop-color:#270707"/>
			<stop  offset="1" style="stop-color:#890B0B"/>
		</linearGradient>
		<path class="st52" d="M274-305.8c0,0-10.9,75.4,10.8,107.7C284.8-198.1,272-268.5,274-305.8z"/>
	</g>
	<g class="st1">
		
			<linearGradient id="SVGID_50_" gradientUnits="userSpaceOnUse" x1="488.6451" y1="-327.937" x2="488.6451" y2="-231.8446" gradientTransform="matrix(-1 0 0 1 538.38 0)">
			<stop  offset="0" style="stop-color:#270707"/>
			<stop  offset="1" style="stop-color:#890B0B"/>
		</linearGradient>
		<path class="st53" d="M53.8-305.8c0,0,10.9,75.4-10.8,107.7C43-198.1,55.8-268.5,53.8-305.8z"/>
		
			<linearGradient id="SVGID_51_" gradientUnits="userSpaceOnUse" x1="506.2864" y1="-327.937" x2="506.2864" y2="-231.8446" gradientTransform="matrix(-1 0 0 1 538.38 0)">
			<stop  offset="0" style="stop-color:#270707"/>
			<stop  offset="1" style="stop-color:#890B0B"/>
		</linearGradient>
		<path class="st54" d="M36.1-305.8c0,0,10.9,75.4-10.8,107.7C25.3-198.1,38.1-268.5,36.1-305.8z"/>
	</g>
</g>
</svg>
