<?xml version="1.0" encoding="utf-8"?>
<!-- Generator: Adobe Illustrator 22.1.0, SVG Export Plug-In . SVG Version: 6.00 Build 0)  -->
<svg version="1.1" id="Layer_1" xmlns="http://www.w3.org/2000/svg" xmlns:xlink="http://www.w3.org/1999/xlink" x="0px" y="0px"
	 viewBox="0 0 270.9 411.1" style="enable-background:new 0 0 270.9 411.1;" xml:space="preserve">
<style type="text/css">
	.st0{display:none;fill:#FFFFFF;}
	.st1{fill:#B2B2B2;}
	.st2{fill:#FFCC7A;}
	.st3{display:none;}
	.st4{display:inline;}
	.st5{display:inline;clip-path:url(#SVGID_2_);fill:#FFF9D9;}
	.st6{display:inline;clip-path:url(#SVGID_2_);}
	.st7{fill:#CE2E2C;}
	.st8{fill:#5C7095;}
	.st9{fill:#506282;}
	.st10{fill:#546788;}
	.st11{fill:#364867;}
	.st12{fill:#677FA7;}
	.st13{fill:#F2AF1D;}
	.st14{fill:#F3B734;}
	.st15{fill:#E8A109;}
	.st16{fill:#DB9800;}
	.st17{fill:#E06B92;}
	.st18{fill:#CE6286;}
	.st19{fill:#BB597A;}
	.st20{fill:#C15C7E;}
	.st21{fill:#A03D5E;}
	.st22{fill:#F9B233;}
	.st23{fill:#BF0806;}
	.st24{fill:#EB922A;}
	.st25{fill:#FFA845;}
	.st26{fill:#F5A547;}
	.st27{fill:#D93F0D;}
	.st28{fill:#E94915;}
	.st29{fill:#B17F4A;}
	.st30{fill:#936037;}
	.st31{fill:#7D4E24;}
	.st32{fill:#F33634;}
	.st33{display:inline;fill:#B2B2B2;}
	.st34{fill:#FFFFFF;}
	.st35{fill:#9D9D9C;}
	.st36{fill:#FFB909;}
	.st37{clip-path:url(#SVGID_4_);fill:#E0F1FF;}
	.st38{clip-path:url(#SVGID_4_);}
	.st39{fill:#EBAD28;}
	.st40{fill:#D42F2D;}
	.st41{fill:#E13230;}
	.st42{fill:#B31815;}
	.st43{fill:#C98912;}
	.st44{fill:#A34C39;}
	.st45{fill:#581F18;}
	.st46{fill:#575756;}
	.st47{fill:#7C3426;}
	.st48{fill:#C37358;}
	.st49{fill:#2898C6;}
	.st50{fill:#2BA5D7;}
	.st51{fill:#2281A8;}
	.st52{fill:#61AEA6;}
	.st53{fill:#72CCC2;}
	.st54{fill:#7CDDD2;}
	.st55{fill:#E1A308;}
	.st56{fill:#D04827;}
	.st57{fill:#EE522C;}
	.st58{fill:#FF582F;}
	.st59{fill:#3D887C;}
	.st60{fill:#F39200;}
</style>
<rect x="-48.7" y="-46.5" class="st0" width="648" height="500"/>
<g>
	<path class="st1" d="M19.4,411.1h23c0-7.6,6.5-13.8,14.6-13.8c8.1,0,14.6,6.2,14.6,13.8h13.5c0-7.6,6.5-13.8,14.6-13.8
		c8.1,0,14.6,6.2,14.6,13.8h13.5c0-7.6,6.5-13.8,14.6-13.8c8.1,0,14.6,6.2,14.6,13.8h13.5c0-7.6,6.5-13.8,14.6-13.8
		c8.1,0,14.6,6.2,14.6,13.8h13.5c0-7.6,6.6-13.8,14.6-13.8c8.1,0,14.6,6.2,14.6,13.8h13.7c1.1-6.6,7.1-11.6,14.4-11.6v-13.7
		c-8.1,0-14.6-6.2-14.6-13.8c0-7.6,6.5-13.8,14.6-13.8v-13.7c-8.1,0-14.6-6.2-14.6-13.8c0-7.6,6.5-13.8,14.6-13.8v-13.7
		c-8.1,0-14.6-6.2-14.6-13.8c0-7.6,6.5-13.8,14.6-13.8v-13.7c-8.1,0-14.6-6.2-14.6-13.8c0-7.6,6.6-13.8,14.6-13.8v-12.8
		c-8.1,0-14.6-6.2-14.6-13.8c0-7.6,6.6-13.8,14.6-13.8v-12.8c-8.1,0-14.6-6.2-14.6-13.8c0-7.6,6.6-13.8,14.6-13.8v-12.8
		c-8.1,0-14.6-6.2-14.6-13.8c0-7.6,6.6-13.8,14.6-13.8v-12.8c-8.1,0-14.6-6.2-14.6-13.8c0-7.6,6.6-13.8,14.6-13.8V60.1
		c-8.1,0-14.6-6.2-14.6-13.8c0-7.6,6.6-13.8,14.6-13.8V19.8c-8.1,0-14.6-6.2-14.6-13.8c0-0.7,0.1-1.3,0.2-2h-13.8
		c0.1,0.6,0.2,1.3,0.2,2c0,7.6-6.6,13.8-14.6,13.8c-8.1,0-14.6-6.2-14.6-13.8c0-0.7,0.1-1.3,0.2-2h-13.8c0.1,0.6,0.2,1.3,0.2,2
		c0,7.6-6.5,13.8-14.6,13.8c-8.1,0-14.6-6.2-14.6-13.8c0-0.7,0.1-1.3,0.2-2H157c0.1,0.6,0.2,1.3,0.2,2c0,7.6-6.5,13.8-14.6,13.8
		c-8.1,0-14.6-6.2-14.6-13.8c0-0.7,0.1-1.3,0.2-2h-13.8c0.1,0.6,0.2,1.3,0.2,2c0,7.6-6.5,13.8-14.6,13.8c-8.1,0-14.6-6.2-14.6-13.8
		c0-0.7,0.1-1.3,0.2-2H71.5c0.1,0.6,0.2,1.3,0.2,2c0,7.6-6.6,13.8-14.6,13.8c-8.1,0-14.6-6.2-14.6-13.8c0-0.7,0.1-1.3,0.2-2H19.5
		c0.1,0.6,0.2,1.3,0.2,2c0,7.6-6.5,13.8-14.6,13.8v12.8c8.1,0,14.6,6.2,14.6,13.8c0,7.6-6.5,13.8-14.6,13.8v12.8
		c8.1,0,14.6,6.2,14.6,13.8c0,7.6-6.5,13.8-14.6,13.8v12.8c8.1,0,14.6,6.2,14.6,13.8c0,7.6-6.5,13.8-14.6,13.8v12.8
		c8.1,0,14.6,6.2,14.6,13.8c0,7.6-6.5,13.8-14.6,13.8v12.8c8.1,0,14.6,6.2,14.6,13.8c0,7.6-6.5,13.8-14.6,13.8v12.8
		c8.1,0,14.6,6.2,14.6,13.8c0,7.6-6.5,13.8-14.6,13.8v13.7c8.1,0,14.6,6.2,14.6,13.8c0,7.6-6.5,13.8-14.6,13.8v13.7
		c8.1,0,14.6,6.2,14.6,13.8c0,7.6-6.5,13.8-14.6,13.8v13.7c8.1,0,14.6,6.2,14.6,13.8c0,7.6-6.5,13.8-14.6,13.8v13.7
		C12.3,399.5,18.3,404.5,19.4,411.1z"/>
	<g>
		<path class="st2" d="M14.4,407.1h23c0-7.6,6.5-13.8,14.6-13.8c8.1,0,14.6,6.2,14.6,13.8h13.5c0-7.6,6.5-13.8,14.6-13.8
			c8.1,0,14.6,6.2,14.6,13.8h13.5c0-7.6,6.5-13.8,14.6-13.8c8.1,0,14.6,6.2,14.6,13.8h13.5c0-7.6,6.5-13.8,14.6-13.8
			c8.1,0,14.6,6.2,14.6,13.8h13.5c0-7.6,6.6-13.8,14.6-13.8c8.1,0,14.6,6.2,14.6,13.8h13.7c1.1-6.6,7.1-11.6,14.4-11.6v-13.7
			c-8.1,0-14.6-6.2-14.6-13.8c0-7.6,6.5-13.8,14.6-13.8v-13.7c-8.1,0-14.6-6.2-14.6-13.8c0-7.6,6.5-13.8,14.6-13.8v-13.7
			c-8.1,0-14.6-6.2-14.6-13.8c0-7.6,6.5-13.8,14.6-13.8v-13.7c-8.1,0-14.6-6.2-14.6-13.8c0-7.6,6.6-13.8,14.6-13.8v-12.8
			c-8.1,0-14.6-6.2-14.6-13.8c0-7.6,6.6-13.8,14.6-13.8v-12.8c-8.1,0-14.6-6.2-14.6-13.8c0-7.6,6.6-13.8,14.6-13.8v-12.8
			c-8.1,0-14.6-6.2-14.6-13.8c0-7.6,6.6-13.8,14.6-13.8V96.5c-8.1,0-14.6-6.2-14.6-13.8c0-7.6,6.6-13.8,14.6-13.8V56.1
			c-8.1,0-14.6-6.2-14.6-13.8c0-7.6,6.6-13.8,14.6-13.8V15.8c-8.1,0-14.6-6.2-14.6-13.8c0-0.7,0.1-1.3,0.2-2h-13.8
			c0.1,0.6,0.2,1.3,0.2,2c0,7.6-6.6,13.8-14.6,13.8c-8.1,0-14.6-6.2-14.6-13.8c0-0.7,0.1-1.3,0.2-2h-13.8c0.1,0.6,0.2,1.3,0.2,2
			c0,7.6-6.5,13.8-14.6,13.8c-8.1,0-14.6-6.2-14.6-13.8c0-0.7,0.1-1.3,0.2-2H152c0.1,0.6,0.2,1.3,0.2,2c0,7.6-6.5,13.8-14.6,13.8
			c-8.1,0-14.6-6.2-14.6-13.8c0-0.7,0.1-1.3,0.2-2h-13.8c0.1,0.6,0.2,1.3,0.2,2c0,7.6-6.5,13.8-14.6,13.8c-8.1,0-14.6-6.2-14.6-13.8
			c0-0.7,0.1-1.3,0.2-2H66.5c0.1,0.6,0.2,1.3,0.2,2c0,7.6-6.6,13.8-14.6,13.8c-8.1,0-14.6-6.2-14.6-13.8c0-0.7,0.1-1.3,0.2-2H14.5
			c0.1,0.6,0.2,1.3,0.2,2c0,7.6-6.5,13.8-14.6,13.8v12.8c8.1,0,14.6,6.2,14.6,13.8c0,7.6-6.5,13.8-14.6,13.8v12.8
			c8.1,0,14.6,6.2,14.6,13.8c0,7.6-6.5,13.8-14.6,13.8v12.8c8.1,0,14.6,6.2,14.6,13.8c0,7.6-6.5,13.8-14.6,13.8v12.8
			c8.1,0,14.6,6.2,14.6,13.8c0,7.6-6.5,13.8-14.6,13.8v12.8c8.1,0,14.6,6.2,14.6,13.8c0,7.6-6.5,13.8-14.6,13.8v12.8
			c8.1,0,14.6,6.2,14.6,13.8c0,7.6-6.5,13.8-14.6,13.8v13.7c8.1,0,14.6,6.2,14.6,13.8c0,7.6-6.5,13.8-14.6,13.8v13.7
			c8.1,0,14.6,6.2,14.6,13.8c0,7.6-6.5,13.8-14.6,13.8v13.7c8.1,0,14.6,6.2,14.6,13.8c0,7.6-6.5,13.8-14.6,13.8v13.7
			C7.3,395.5,13.3,400.5,14.4,407.1z"/>
		<rect x="28.6" y="32.6" class="st0" width="208.6" height="341.9"/>
	</g>
	<g class="st3">
		<defs>
			<rect id="SVGID_1_" x="28.6" y="32.6" width="208.6" height="341.9"/>
		</defs>
		<clipPath id="SVGID_2_" class="st4">
			<use xlink:href="#SVGID_1_"  style="overflow:visible;"/>
		</clipPath>
		<path class="st5" d="M246.2,173.8c-2.1-7.7-9.8-14.3-18.1-13.8c-4.5,0.3-9.1,0.7-13.6,1.1c10.7-5.8,20.7-13.8,21.3-26.6
			c0.4-8.6-4.7-15.2-11.5-19.3c1.7-1.7,3.3-3.6,4.7-5.6c5.7-8.1,6.6-19.5,1.6-28.1c-9.2-15.6-29.6-13.3-44.6-10.7
			c-5.1,0.9-10.1,2.1-15.1,3.4c0-0.3,0-0.6-0.1-0.9c-0.9-9.5-4.9-17.9-13.4-22.8c-5.9-3.4-13.1-4.5-19.8-3.9
			c-19.7,1.7-38.3,10.5-56,18.7c-7.6,3.5-15,7.2-22.5,10.8c-2.2,1-4.4,2.1-6.6,3.1c-0.2,0.1-0.4,0.1-0.5,0.2c-0.7,0.2-1.5,0.4-2,0.5
			c0.3,0,0.7-0.1,1.4-0.2c-0.1,0.1-0.3,0.1-0.4,0.2c-0.9,0.4-0.3,0.2,0.5-0.2c0.8-0.1,1.9-0.2,3.3-0.4c-10.2,1.2-18.8,7.7-18.8,18.8
			c0,5.6,3.1,11.7,7.8,15.4c-8.4,6.6-16,14.5-20.3,24.1c-2.2,4.8-3.3,9.2-1.9,14.5c1.4,4.9,5,9.5,9.6,11.8
			c-8.3,8.1-14.1,18-11.9,30.7c1.6,9.2,10.4,15.6,18.9,18.7c-1.3,2.2-2.5,4.5-3.4,7c-5.5,14.5,4.8,29.1,18.8,33
			c4.6,1.3,9.5,1.4,14.3,0.7c-1.6,8.9,5.7,18,13.9,20.5c20.8,6.3,42-5.1,60-14.2c1.7-0.8,3.3-1.7,5-2.5c0.3-0.2,1-0.4,1.5-0.7
			c1-0.4,2-0.8,3-1.2c2-0.8,4-1.5,6-2.1c0.6,3.4,2.2,6.6,5.1,9.5c6.6,6.6,20.2,8,26.6,0c1.1-1.4,2.4-2.6,3.7-3.8
			c0.7-0.5,2-1.5,2.4-1.9c1.3-1,2.7-1.9,4-2.9c6.9-5.1,13-10.1,17.7-17.4c6.5-10.2,0.6-22.3-9.2-26.6c10.3-4.6,20.5-9.5,30-15.5
			C244.7,190.5,248.5,182.2,246.2,173.8z"/>
		<g class="st6">
			<g>
				<g>
					<path class="st7" d="M193.6,223.7c-2.3-1.6-5.4-2.2-8.1-2.8c-4.7-1-9.4-1.7-14.2-2.2c-10-1.1-19.9-1-30-0.6
						c-10.1,0.3-20.3,0.2-30.4,0.8c-5.6,0.4-11.2,0.8-16.8,1.5c-3.3,0.4-7.6,0-9,3.5c0,0.1,0,1.4,0,1.4c0,0-0.1,0-0.1,0
						c-0.4,0-0.4,0.7,0,0.6c2-0.2,3,1.6,4.4,2.7c1.6,1.2,3.7,1.7,5.5,2.2c4.5,1.2,8.7,2.8,13.1,4.3c9,2.9,18.4,4.7,27.8,5.4
						c9.5,0.7,19,0.3,28.4-1.3c4.8-0.8,9.6-2,14.3-3.4c3.6-1.1,7.2-2.3,10.9-3.3c2.2-0.6,5-1.3,6.2-3.4
						C196.8,227,195.2,224.8,193.6,223.7z"/>
					<g>
						<path class="st8" d="M117.3,232.3c-0.7,3.6-1.4,7.1-2,10.7c3.9,0.7,7.8,1.2,11.7,1.6c0.5-3.6,0.9-7.2,1.2-10.8
							C124.6,233.4,121,233,117.3,232.3z"/>
						<path class="st9" d="M139.9,234.2c-3.9,0-7.7-0.2-11.6-0.5c-0.3,3.6-0.7,7.2-1.2,10.8c8.4,0.7,16.9,0.6,25.3-0.3
							c-0.5-3.4-1.1-6.8-1.7-10.2C147.1,234.2,143.5,234.2,139.9,234.2z"/>
						<path class="st10" d="M197.5,232.1c-0.2-0.6-0.3-1.2-0.5-1.9c-0.1-0.6-0.3-1.1-0.5-1.7c-0.1-0.2-0.5-2.6-1.8-3.7
							c0.8,1.2-2.4,2-3.9,2.4c-1.5,0.4-3.1,0.9-4.6,1.3c0.5,2.5,1.1,4.9,1.7,7.4C191.3,234.7,194.4,233.5,197.5,232.1z"/>
						<path class="st11" d="M186.4,228.5c-0.7,0.2-1.3,0.4-2,0.6c-4.8,1.3-9.6,2.3-14.4,3c-6.4,1-12.8,1.6-19.3,1.9
							c0.6,3.4,1.2,6.8,1.7,10.2c12.2-1.3,24.3-4.1,35.7-8.3C187.5,233.5,186.9,231,186.4,228.5z"/>
						<path class="st12" d="M110.1,230.8c-5.5-1.4-11.4-2-16.9-3.8c-0.4,3-0.9,6-1.5,9c7.6,3.3,15.5,5.6,23.6,7.1
							c0.6-3.6,1.3-7.1,2-10.7C114.9,231.9,112.5,231.4,110.1,230.8z"/>
						<path class="st10" d="M87.3,224.4c-0.5-0.3-1-0.6-1.4-1c-0.3-0.3,0.1-0.8,0-0.7c-0.1,0-0.6,0.8-0.6,1c-0.8,2.6-1.5,5.3-2.2,8
							c2.8,1.6,5.7,3,8.7,4.2c0.6-3,1.1-5.9,1.5-9C91.2,226.3,89.2,225.5,87.3,224.4z"/>
						<path class="st13" d="M83,231.7c-2.6,10.6-4.3,21.4-5.9,31.8c2.1,1.2,4.2,2.3,6.3,3.4c3-10.3,6.2-20.5,8.3-31
							C88.8,234.6,85.9,233.2,83,231.7z"/>
						<path class="st14" d="M91.7,235.9c-2.1,10.5-5.3,20.7-8.3,31c7,3.6,14.3,6.4,22.1,6.8c1.8,0,3.6,0.1,5.3,0.1
							c1.3-10.3,2.7-20.5,4.5-30.8C107.2,241.5,99.3,239.2,91.7,235.9z"/>
						<path class="st13" d="M115.4,243c-1.8,10.3-3.2,20.5-4.5,30.8c3.7,0.1,7.4,0.1,11.1,0.2c1.7-9.9,3.7-19.6,5.1-29.4
							C123.2,244.2,119.2,243.7,115.4,243z"/>
						<path class="st15" d="M127.1,244.6c-1.4,9.8-3.3,19.5-5.1,29.4c11.6,0.1,23.3,0.1,34.8-0.8c-1.5-9.6-2.9-19.2-4.5-28.9
							C143.9,245.1,135.5,245.3,127.1,244.6z"/>
						<path class="st15" d="M203.1,262.7c-0.6-2.9-1.1-5.8-1.6-8.7c-0.7-4.5-1.4-9-2.2-13.4c-0.4-2.3-0.9-4.6-1.4-6.9
							c-0.1-0.5-0.2-1-0.4-1.6c-3.1,1.4-6.2,2.7-9.5,3.8c2.5,9.9,5.4,19.6,8.4,29.3C198.7,264.5,200.9,263.6,203.1,262.7z"/>
						<path class="st16" d="M188.1,235.9c-11.4,4.2-23.5,7.1-35.7,8.3c1.5,9.6,3,19.2,4.5,28.9c13.6-1.1,26.9-3.3,39.7-7.9
							C193.4,255.5,190.5,245.8,188.1,235.9z"/>
						<path class="st17" d="M105.6,273.7c-7.8-0.4-15.1-3.2-22.1-6.8c-0.6,2-1.2,4-1.7,6c6.9,2.9,14.1,4.6,21.3,5.8
							c2.4,0.3,4.8,0.6,7.1,0.8c0.2-1.9,0.5-3.8,0.7-5.7C109.1,273.7,107.3,273.7,105.6,273.7z"/>
						<path class="st18" d="M122,274c-3.7,0-7.4-0.1-11.1-0.2c-0.2,1.9-0.5,3.8-0.7,5.7c3.6,0.4,7.2,0.6,10.9,0.9
							c0.1-0.8,0.1-1.5,0.2-2.3C121.5,276.7,121.8,275.3,122,274z"/>
						<path class="st19" d="M122,274c-0.2,1.4-0.5,2.8-0.7,4.1c-0.1,0.8-0.2,1.5-0.2,2.3c12.3,0.7,24.7,0.6,36.9-0.7
							c-0.4-2.2-0.7-4.4-1.1-6.6C145.3,274,133.6,274.1,122,274z"/>
						<path class="st20" d="M204.7,268.2c0-0.1-1-3.6-1.6-5.5c-2.2,0.9-4.4,1.8-6.6,2.6c0.6,1.8,1.1,3.6,1.7,5.4
							C200.2,269.9,202.8,269,204.7,268.2z"/>
						<path class="st21" d="M196.5,265.3c-12.8,4.5-26.1,6.8-39.7,7.9c0.3,2.2,0.7,4.4,1.1,6.6c13.8-1.4,27.4-4.3,40.3-9.1
							C197.6,268.8,197.1,267,196.5,265.3z"/>
						<path class="st20" d="M77.1,263.5c-0.3,2.3-0.7,4.6-1,6.8c1.8,1,3.7,1.8,5.6,2.6c0.6-2,1.1-4,1.7-6
							C81.3,265.8,79.2,264.7,77.1,263.5z"/>
						<path class="st12" d="M103,278.7c-7.2-1.2-14.4-2.9-21.3-5.8c-1,3.5-1.9,7.1-2.8,10.6c1.1,0.3,2.1,0.6,3,0.8
							c4.1,1.2,8.1,2.4,12.2,3.4c4.9,1.2,9.8,2.1,14.7,2.8c0.5-3.7,0.9-7.3,1.4-11C107.8,279.3,105.4,279,103,278.7z"/>
						<path class="st8" d="M110.2,279.5c-0.5,3.7-0.9,7.3-1.4,11c3.9,0.5,7.9,0.9,11.9,1.1c0-3.8,0.1-7.5,0.4-11.3
							C117.4,280.2,113.8,279.9,110.2,279.5z"/>
						<path class="st9" d="M121.1,280.4c-0.3,3.8-0.4,7.5-0.4,11.3c0.9,0,1.7,0.1,2.6,0.1c12.2,0.4,24.4,0.2,36.6-1
							c-0.7-3.7-1.3-7.4-2-11.1C145.8,281,133.4,281.1,121.1,280.4z"/>
						<path class="st11" d="M157.9,279.7c0.6,3.7,1.3,7.4,2,11.1c7.8-0.7,15.5-1.9,23.2-3.5c4.3-0.9,8.5-1.8,12.9-2.6
							c2.1-0.4,4.2-0.7,6.3-1.4c-1.4-4.2-2.7-8.5-4.1-12.7C185.3,275.4,171.7,278.3,157.9,279.7z"/>
						<path class="st10" d="M204.7,268.2c-2,0.8-4.5,1.7-6.5,2.4c1.3,4.2,2.7,8.4,4.1,12.7c1.6-0.5,3.2-1.2,4.6-2.1
							C208.5,280.2,206.2,272.5,204.7,268.2z"/>
						<path class="st10" d="M76.1,270.3c-0.5,3.5-1.4,6.3-1.8,9c-0.6,3.4,3.2,3.8,4.6,4.2c0.8-3.6,1.8-7.1,2.8-10.6
							C79.8,272.1,78,271.3,76.1,270.3z"/>
					</g>
				</g>
				<path class="st22" d="M84,270.1c0,0.8-0.7,1.5-1.5,1.5c-0.8,0-1.5-0.7-1.5-1.5c0-0.8,0.7-1.5,1.5-1.5
					C83.4,268.5,84,269.2,84,270.1z"/>
				<path class="st22" d="M91.9,273.2c0,0.8-0.7,1.5-1.5,1.5c-0.8,0-1.5-0.7-1.5-1.5c0-0.8,0.7-1.5,1.5-1.5
					C91.2,271.7,91.9,272.4,91.9,273.2z"/>
				<path class="st22" d="M101.6,275.8c0,0.8-0.7,1.5-1.5,1.5c-0.8,0-1.5-0.7-1.5-1.5c0-0.8,0.7-1.5,1.5-1.5
					C100.9,274.3,101.6,275,101.6,275.8z"/>
				<path class="st22" d="M111.7,277c0,0.8-0.7,1.5-1.5,1.5c-0.8,0-1.5-0.7-1.5-1.5c0-0.8,0.7-1.5,1.5-1.5
					C111,275.5,111.7,276.1,111.7,277z"/>
				<path class="st22" d="M122.6,277.3c0,0.8-0.7,1.5-1.5,1.5c-0.8,0-1.5-0.7-1.5-1.5c0-0.8,0.7-1.5,1.5-1.5
					C121.9,275.8,122.6,276.5,122.6,277.3z"/>
				<path class="st22" d="M133,277.3c0,0.8-0.7,1.5-1.5,1.5c-0.8,0-1.5-0.7-1.5-1.5c0-0.8,0.7-1.5,1.5-1.5
					C132.4,275.8,133,276.5,133,277.3z"/>
				<path class="st22" d="M142.7,277.3c0,0.8-0.7,1.5-1.5,1.5c-0.8,0-1.5-0.7-1.5-1.5c0-0.8,0.7-1.5,1.5-1.5
					C142.1,275.8,142.7,276.5,142.7,277.3z"/>
				<path class="st22" d="M153.7,277.1c0,0.8-0.7,1.5-1.5,1.5c-0.8,0-1.5-0.7-1.5-1.5c0-0.8,0.7-1.5,1.5-1.5
					C153,275.6,153.7,276.2,153.7,277.1z"/>
				<path class="st22" d="M162.9,275.8c0,0.8-0.7,1.5-1.5,1.5c-0.8,0-1.5-0.7-1.5-1.5c0-0.8,0.7-1.5,1.5-1.5
					C162.2,274.3,162.9,275,162.9,275.8z"/>
				<path class="st22" d="M172.4,274.7c0,0.8-0.7,1.5-1.5,1.5c-0.8,0-1.5-0.7-1.5-1.5c0-0.8,0.7-1.5,1.5-1.5
					C171.7,273.2,172.4,273.9,172.4,274.7z"/>
				<path class="st22" d="M181.6,272.9c0,0.8-0.7,1.5-1.5,1.5c-0.8,0-1.5-0.7-1.5-1.5c0-0.8,0.7-1.5,1.5-1.5
					C180.9,271.4,181.6,272.1,181.6,272.9z"/>
				<path class="st22" d="M191.1,270.6c0,0.8-0.7,1.5-1.5,1.5c-0.8,0-1.5-0.7-1.5-1.5c0-0.8,0.7-1.5,1.5-1.5
					C190.4,269.1,191.1,269.8,191.1,270.6z"/>
				<path class="st22" d="M199,268.2c0,0.8-0.7,1.5-1.5,1.5c-0.8,0-1.5-0.7-1.5-1.5c0-0.8,0.7-1.5,1.5-1.5
					C198.4,266.7,199,267.4,199,268.2z"/>
				<path class="st7" d="M196.4,233.1c-0.3-0.3-0.7,0.1-0.4,0.4c0.8,0.9,0.9,2.6,0.6,3.7c-0.3,1.5-2.2,0.9-2.9,0.3
					c-0.5-0.4-0.8-1-1-1.6c0-0.2-0.1-0.5-0.1-0.7c-0.1-0.4-0.7-0.2-0.6,0.2c0,0.2,0.1,0.4,0.1,0.6c0.2,1.1,0.2,2.3-0.9,3
					c-1,0.7-1.9-0.1-2.2-1.1c0-0.2,0-0.4-0.1-0.6c-0.1-0.3-0.6-0.3-0.6,0.1c0,0.2,0,0.5,0.1,0.7c0.1,2.3-2.8,3-3.8,1.7
					c0-0.3-0.1-0.6-0.3-0.9c0-0.1,0-0.3,0-0.4c0-0.4-0.6-0.4-0.6,0c0,0.2,0,0.3,0,0.5c0,0,0,0,0,0.1c0,0.4,0.1,0.7,0.3,0.9
					c-0.1,1.7-3.3,3.6-4.1,1.5c0-0.5,0-0.9-0.2-1.4c-0.1-0.3-0.6-0.3-0.6,0.1c0,0.5,0,0.9,0.1,1.3c-0.2,2.2-3,3.2-3.8,0.9
					c0-0.2-0.1-0.4-0.1-0.5c-0.1-0.4-0.7-0.2-0.6,0.2c0,0.2,0.1,0.4,0.1,0.5c0.4,2.8-3.8,3-4,0.5c0-0.1,0-0.2,0-0.3
					c0-0.4-0.6-0.4-0.6,0c0,0.1,0,0.3,0,0.4c0,1.2-0.3,2.8-1.7,2.8c-1.4,0.1-2.2-1.7-2.5-2.8c-0.1-0.4-0.7-0.2-0.6,0.2
					c0,0.1,0,0.2,0.1,0.3c-0.1,0.1-0.1,0.2-0.1,0.3c0.7,3.4-4.2,5.3-4.7,2c0-0.3,0-0.6,0-0.8c-0.1-0.4-0.6-0.4-0.6,0
					c0,0.3,0,0.6,0,0.9c-0.1,1-0.5,1.9-1.6,2.2c-1.5,0.4-2.2-1.2-2.4-2.4c0-0.1,0-0.2,0-0.3c0-0.4-0.6-0.4-0.6,0c0,0.1,0,0.3,0,0.4
					c0,1.1-0.3,2.1-1.5,2.5c-1.6,0.5-2.2-1.2-2.1-2.4c0-0.4-0.6-0.4-0.6,0c-0.1,1.2-0.5,3.3-2.1,2.9c-0.6-0.2-1-0.6-1.2-1.2
					c0.1-0.5,0-1-0.1-1.4c0-0.1-0.1-0.2-0.2-0.2c0-0.1,0-0.3,0-0.4c0-0.4-0.6-0.4-0.6,0c0,0.6,0.1,1.4,0.3,2.1
					c-0.1,0.7-0.6,1.3-1.5,1.6c-1.7,0.5-2.3-1.1-2.2-2.5c0-0.1,0-0.2,0-0.4c0-0.4-0.6-0.4-0.6-0.1c0,0,0,0.1,0,0.1h0
					c0,0,0,0.1,0,0.1c0,0.1,0,0.1,0,0.2c-0.2,1.3-0.8,2.7-2.4,2.7c-1.6,0-2.1-1.9-2.1-3.2c0-0.4-0.6-0.4-0.6,0
					c0,1.2-0.4,2.6-1.9,2.3c-1.2-0.2-1.8-1.6-2-2.7c0-0.4-0.7-0.4-0.6,0c0,0,0,0.1,0,0.1c0,0,0,0.1,0,0.1c0.1,1.5-0.5,3.4-2.3,3.5
					c-1.9,0.1-2.2-2.1-2.1-3.5c0-0.4-0.6-0.4-0.6-0.1c-0.2,1.2-0.8,3.1-2.4,2.8c-1.4-0.2-1.7-1.9-1.8-3.1c0-0.2,0-0.4,0-0.6
					c0-0.4-0.6-0.4-0.6,0c0,0.2,0,0.4,0,0.7c-0.1,1.2-0.6,2.2-1.9,2.3c-1.5,0-2-1.4-1.8-2.7c0-0.2,0.1-0.4,0.1-0.5c0,0,0,0,0,0
					c0,0,0,0,0,0c0,0,0,0,0-0.1c0,0,0,0,0,0c0,0,0,0,0,0c0-0.1-0.1-0.2-0.2-0.2c0,0,0,0,0,0c0,0,0,0-0.1,0c-0.1,0-0.3,0-0.3,0.2
					c-0.1,0.2-0.1,0.5-0.1,0.7c-0.3,1.3-1.3,2.2-2.7,2.2c-1.9,0-1.9-2.2-1.5-3.6c0.1-0.4-0.5-0.5-0.6-0.2c-0.5,1.3-1.6,2.5-3.1,2.6
					c-1.4,0.1-1.8-1.1-1.8-2.2c0.1-0.3,0.2-0.7,0.1-1.2c0-0.3-0.5-0.5-0.6-0.1c-0.1,0.3-0.1,0.7-0.1,1.1c-0.8,2-5,1.3-3.7-2.1
					c0.1-0.3-0.1-0.4-0.4-0.4c-0.1-0.4-0.7-0.2-0.6,0.2c0.4,2.3-3,3.1-3.7,0.9c-0.3-0.9,0-1.9,0.1-2.8c0,0,0,0,0,0h0
					c0,0,0-0.1,0-0.1c0-0.4-0.5-0.4-0.6-0.1c-0.9,2.9-4.4,2.6-4.2-0.1c0.1-0.3,0.2-0.7,0.2-1.1c0-0.4-0.5-0.4-0.6-0.1
					c-0.1,0.3-0.2,0.7-0.2,1c-0.4,0.9-1.4,1.1-2.5,0.5c-1.4-0.7-1.4-2.1-1.3-3.4c0,0,0,0,0,0c0-0.1,0-0.1,0-0.2c0,0,0-0.1,0-0.1
					c0-0.4-0.6-0.4-0.6,0c0,0,0,0.1,0,0.1c-0.5,1.2-1.6,3.5-3.3,2.5c-1.5-0.9-0.8-3.5-0.2-4.7c0.2-0.4-0.3-0.7-0.5-0.3
					c-0.6,1-1.2,1.9-2.2,2.5c-1.4,0.8-1.5-1.7-1.3-2.4c0.2-0.7,0.4-1.3,0.5-2c0-0.4-0.6-0.4-0.6,0c-0.1,1.4-1.6,4.4,0.6,5.1
					c0.9,0.3,1.7-0.4,2.4-1.2c-0.2,1.4-0.1,2.9,1.3,3.7c1.5,0.9,2.7-0.4,3.4-1.8c0.1,1.3,0.6,2.4,2.2,3c1,0.3,1.8,0.2,2.3-0.3
					c0.2,0.8,0.7,1.5,1.6,1.9c1.2,0.4,2.3-0.2,3-1.1c-0.1,1.3,0.1,2.7,1.5,3.1c1.2,0.3,2.3,0,2.9-0.8c0.4,2.1,3.3,2.6,4.6,1.4
					c0.2,1,0.8,1.8,2,2c1.3,0.2,2.4-0.5,3.2-1.5c0,1.3,0.6,2.5,2.2,2.7c1.3,0.1,2.4-0.5,3-1.5c0.2,1,0.9,1.8,2.1,1.9
					c1.2,0.2,2.1-0.5,2.5-1.4c0.3,1,0.9,1.9,2,2.2c1.3,0.4,2.1-0.5,2.7-1.6c0.3,1.3,1.1,2.3,2.6,2.4c1.6,0.1,2.5-1.3,2.8-2.6
					c0.4,0.8,1.2,1.5,2.2,1.7c1.1,0.2,1.7-0.4,2.1-1.3c0.4,1.1,1.2,2,2.5,2.1c1.2,0.1,2.1-0.7,2.5-1.7c0.3,1,1,1.7,2.3,1.6
					c1.1-0.1,1.8-0.7,2.2-1.5c0.4,0.5,0.9,0.9,1.6,1c1.3,0.1,2-0.7,2.3-1.8c0.4,0.8,1,1.3,2,1.3c1.2,0,1.9-0.8,2.2-1.7
					c0.4,0.9,1.2,1.6,2.5,1.5c1.1-0.1,1.8-0.7,2.1-1.6c0.5,0.9,1.4,1.4,2.8,1.2c1.6-0.3,2.7-1.7,2.9-3.3c0.5,0.9,1.3,1.5,2.4,1.6
					c1.3,0.1,2-1,2.2-2.2c1.2,1.5,4.2,1.1,4.7-0.8c0.6,0.7,1.5,1,2.6,0.7c1-0.3,1.5-1,1.8-1.8c1.3,1.3,4.2,0,4.8-1.8
					c1.3,1,3.8,0.4,4.4-1.5c0.4,0.5,1.1,0.9,2,0.7c1.3-0.2,1.8-1.3,1.9-2.4c0.9,1.2,2.4,2,3.8,1C198,237.3,197.4,234.3,196.4,233.1z
					"/>
				<path class="st23" d="M169.5,219.7c0-0.1,0-0.3-0.2-0.3c-7.4-2.8-15.6-2.1-23.4-1.5c-3.9,0.3-7.9,0.3-11.7,0.9
					c-2.2,0.3-4.4,0.9-6.6,1.1c-2.3,0.3-4.6,0.4-6.9,0.4c-3.8,0.1-7.6-0.2-11.3-0.1c-2.9,0-6,0.4-8.2,2.6c-1.5,1.4-1.8,3.9,0.8,4.1
					c3.4,0.3,8.7-2.6,15,0.7c1,0.5,1.7,1.8,2.9,1.9c3.2,0.4,6.6-0.8,9.6-1.8c1.9-0.6,3.9-1.2,5.9-1c1.5,0.2,2.5,1.6,3.8,2.2
					c3.5,1.4,6.8,1.9,10.6,1.1c1.7-0.4,3.4-0.9,5-1.7c1.7-0.8,4-2.2,5.9-1.2c0.9,0.5,2,1.4,3.1,1.4c1.2,0,1.9-0.8,2.8-1.5
					c1.2-1.1,2.3-1.2,3.8-1.6c0.9-0.2,2-0.7,2.3-1.6C173,222.3,170.3,220.7,169.5,219.7z"/>
				<g>
					<path class="st24" d="M136.8,192c-3.4-4.9-8.8-8.8-14.6-6.8c-4.9,1.5-6.3,7.8-7.8,12.6c-0.9,4.6,3.8,6.6,7.6,5.2
						c-0.4-2.2,0-4.5,1.1-6.4c1.9-3.1,5.3-2.6,7.9-0.6c2.7,2.1,4.3,5.6,5.4,8.7c0.5,1.3,0.8,2.6,1.2,4c0,0,0,0.1,0,0.1
						c0,0.1,0.1,0.2,0.1,0.4c0,0.1,0,0.1,0,0.2c0,0.1,0,0.2,0,0.2c0.8,4.2-3.6,7.5-3.9,11.7c-0.1,1.9,1,3.8,3,4.3
						c0.8,0.2,1.7-0.1,2.5-0.5c-0.6-0.8-1.1-1.5-1.1-2.3C139.5,212.2,143.1,201.8,136.8,192z"/>
					<path class="st24" d="M139.7,222.2c-0.4,1.1,0.1,2,0.6,3c1.1,1.1,2.7,1.5,4.2,1.2c0.5-0.1,0.9-0.3,1.3-0.5
						c-0.3-2.1-1.3-4.2-2.7-5.6C141.7,219.3,140.2,220.7,139.7,222.2z"/>
					<path class="st24" d="M151.9,222.2c-1-1.5-3.9-3.9-4.9-1.9c-0.9,1.3-1,3-0.3,4.7c0.1-0.1,0.1-0.2,0.2-0.3c1.7,1,3.1,2,5,1
						c0.3-0.1,0.5-0.3,0.7-0.5C152.6,224.1,152.4,223.1,151.9,222.2z"/>
					<path class="st24" d="M144.6,215.9c0.9,2.2,4.8,1.6,6.3-0.5c-0.5-0.4-0.9-0.8-1.4-1.2c-0.4-0.3-0.8-0.6-1.2-0.8
						c-0.3-0.2-0.5-0.5-0.7-0.7c-0.7-1.7-1.2-3.5-1.6-5.4C145.1,210.2,143.8,213.2,144.6,215.9z"/>
					<path class="st24" d="M139.2,186.7v-0.5c1.6,2.8,4.6,4.3,6.4,7c3.7,1.1,7.7,6,5,10c-1.2,1.7,1.6,5.9,2.4,8.3
						c0.2,1.2,0.2,2.2-0.2,3.3c3.9-7.6,6.6-17.4,1.6-25.2c0-1.9-0.1-4,0.3-5.9c-3.7-2.7-7.8-4.9-12-6.9c-2-0.9-4-1.9-6-2.7
						C135.6,178.3,136.8,183.1,139.2,186.7z"/>
					<path class="st25" d="M150.9,215.3c-1.6,2.2-5.5,2.7-6.3,0.5c-0.8-2.7,0.6-5.6,1.4-8.7c-1-4.6-1.3-9.5-0.5-14c0,0,0,0,0.1,0
						c-1.8-2.7-4.7-4.1-6.4-7v0.5c-2.5-3.5-3.7-8.3-2.6-12.6c-7.7-3.4-15.6-6.5-23.4-9.8c-0.3-0.1-0.5,0.3-0.2,0.4
						c0.1,0.1,0.2,0.1,0.4,0.2c-1,3.4-0.9,6.9-0.9,10.5c0,1.4-0.1,2.8-0.2,4.2c5,10-6.9,23.2-6,34.4c0.5,4.3,3.5,7.7,7.3,9.5
						c0.1,0,0.1,0,0.2,0c2.8-0.6,5.2,0,7.7,1c0.1,0.1,0.3,0.1,0.5,0.2c0.6-0.1,1.2-0.2,1.8-0.4c-0.6,0.2-1.2,0.3-1.8,0.4
						c3.4,1.3,7.8,2.8,10.3-0.8c1.1-1.5,0-3.5-1.1-4.8c-0.1-0.1-0.2-0.2-0.3-0.3c-3.8-1-8.1,2.3-12.5,1.6c-1.9-0.5-4.4,0-5.4-1.9
						c-0.5-1.5,1.5-1.8,2.4-1.9c3.5-0.5,6.8,0,9.7-1.9c1.9-1.4,3-3.3,3.5-5.2c0.6-3,0-6.2-6.5-5.7c0-0.2-0.1-0.3-0.1-0.5
						c-3.8,1.4-8.5-0.6-7.6-5.2c1.5-4.9,2.9-11.2,7.8-12.6c5.8-1.9,11.2,1.9,14.6,6.8c6.3,9.7,2.7,20.2,1.5,30.6
						c-0.1,0.7,0.4,1.5,1.1,2.3c0.2-0.1,0.8,0,1,0.2c-0.5-1-1-1.8-0.6-3c0.5-1.5,1.9-2.9,3.4-1.9c1.4,1.4,2.3,3.5,2.7,5.6
						c0.4-0.2,0.7-0.5,1-0.9c-0.7-1.7-0.6-3.4,0.3-4.7c1-1.9,3.9,0.5,4.9,1.9c0.6,0.9,0.8,1.9,0.8,3c0.4-0.3,0.7-0.7,0.9-1.2
						c0.1,0,0.2,0,0.3,0c0.6-2.9-0.4-5.8-2.4-8.2C151.3,215.7,151.1,215.5,150.9,215.3z"/>
					<path class="st25" d="M164.7,215.2c-1.3-0.5-2.6-0.5-3.8-1.3c-1.3-0.8-0.5-1.9-0.6-3c1.1-3.4,3-11.7,2.3-16
						c0.2,0,0.3-0.3,0.1-0.4c-1.5-1.5-1.8-3.7-2.7-5.5c-1-1.9-2.9-3.3-4.6-4.6c-0.3-0.2-0.7-0.5-1-0.7c-0.4,1.9-0.3,4-0.3,5.9
						c5,7.7,2.4,17.6-1.6,25.2c0,0,0,0,0,0c-0.1,0.4-0.3,0.9-0.4,1.3c0,0.1,0.1,0.2,0.1,0.2c2.9,1.9,8.8,1,7.3,5.8
						c1-2.4,5.4-5.4,6.3-2.9c0.6,1.3,0.6,2.6,0.2,3.9c1.7-0.3,3.3-1.4,3.5-3.1C170,217.6,166.5,215.9,164.7,215.2z"/>
					<path class="st25" d="M103.2,220.2c-0.5-0.5-1-1-1.4-1.4c-5.4,1.1-11.1,0.2-16.1-2.2c-5.6-2.7-10.4-6.4-13.4-11.9
						c-1.5-2.7-2.6-5.7-3.1-8.8c-1.4-7.7,0.5-11.6,0.9-13.7c0.3-1.6,0.8-3.6,0.3-5.2c-0.2-0.5-0.5-0.9-1-1.1
						c-0.3-0.1-0.4,0.3-0.2,0.4c-1.4,2.9-2.2,4.6-2.9,7.8c-0.8,3.3-1.3,7.9-1,11.3c0.1,0.8,0.2,1.5,0.3,2.2c1.9,3.7,4.4,7.2,7,10.5
						C79.4,216.8,92,223.6,103.2,220.2z"/>
					<path class="st24" d="M106.1,213.9c-0.9-11.3,11-24.5,6-34.4c-0.2,2.3-0.8,4.6-1.8,6.7c-2.5,5.2-6.3,9.6-8.9,14.7
						c-2.4,4.7-3.5,9.8-1.4,14.8c0.5,1.2,1.2,2.2,1.9,3c-0.1,0-0.1,0-0.2,0c0.4,0.5,0.9,1,1.4,1.4c-11.2,3.4-23.8-3.4-30.6-12.2
						c-2.6-3.3-5.1-6.8-7-10.5c0.9,4.9,3.6,9,6.7,13.1c3.4,4.5,7,7.7,12.3,9.6c5.3,1.8,11.4,3.6,16.8,2.1c0.7-0.2,1.5-0.5,2.2-0.8
						c0,0.3,0,0.6,0,0.9c0.1,1.7,0.2,2.8,2.1,2.9c1.2,0.1,2.5-0.5,3.7-0.8c1.3-0.4,2.6-0.8,4-1.2
						C109.6,221.6,106.7,218.2,106.1,213.9z"/>
					<path class="st24" d="M124.3,216.9c1.1-0.7,3.1-2.7,3.4-3.9c0.3-1.1,0.6-2.1,0.9-3.8c-0.5,1.9-1.6,3.7-3.5,5.2
						c-2.9,1.9-6.2,1.5-9.7,1.9c-1,0.1-2.9,0.5-2.4,1.9c1,1.9,3.4,1.5,5.4,1.9c4.3,0.8,8.6-2.5,12.5-1.6
						C129.3,217.2,123.5,217.4,124.3,216.9z"/>
					<path class="st24" d="M166,219.3c-1-2.4-5.4,0.5-6.3,2.9c1.5-4.9-4.4-3.9-7.3-5.8c0-0.1,0-0.2-0.1-0.2
						c-0.1,0.2-0.1,0.3-0.2,0.5c-0.1-0.1-0.2-0.2-0.2-0.3c0,0,0,0,0,0c0,0,0,0,0,0c0,0,0,0,0,0c-0.1-0.1-0.3-0.3-0.4-0.4
						c1.9,2.4,3,5.3,2.4,8.2c1.1,0.1,2.5-0.8,3.4-1.2c0,0,0.1,0,0.1-0.1c0.5,0.5,1.1,0.9,1.8,1.2c1.7,0.7,3.2,0,4.6-1c0,0,0,0,0,0
						c0.1,0,0.2,0.1,0.3,0.1c0.6,0.2,1.4,0.2,2.1,0.1C166.6,221.9,166.6,220.6,166,219.3z"/>
					<path class="st26" d="M164.4,85.9c-0.5-3-2.6-6.2-5.8-6.7c-3.1-0.5-6.7,1.6-7.8,4.5c-0.3,0.3-0.5,0.7-0.3,1.2
						c0.8,2,0.2,4.7,0.5,6.9c0.3,2.2,1.3,4.4,1.6,6.6c0.1,0.7,0.6,1,1.1,1.1c0.1,0.1,0.3,0.1,0.5,0.1c2.9,0.2,5.4-2.9,7.1-4.9
						C163.8,92.1,165,89.7,164.4,85.9z"/>
					<path class="st27" d="M168.9,184.2c-6.8-2.4-13.1,4.4-19.9,1.5c-6.3-2.9-2.9-9.7-4.9-14.6c-0.5-1-1.9-0.5-2.9-0.5
						c-9.2,2.4-21.4,17-26.8,6.8c-3.4-6.8,9.2-11.7,12.6-19.5c0.5-1.9-1-4.4-2.9-4.9c-3.9-1-7.3,1.5-9.7,3.9
						c-6.3,5.4-13.6,11.6-21.7,9.5c0,0.3,0.1,0.6,0.4,0.9c2.3,2.2,5.3,3.6,7.9,5.3c3.4,2.3,6.3,5.2,9.5,7.7
						c5.4,4.2,11.2,7.5,18.1,8.6c8.2,1.3,16.6,1.5,24.6,3.6c6.7,1.7,11.6,7,16.9,11.1c0.7,0.5,1.6-0.1,1.8-0.7
						c0.9-2.9,2.4-5.7,3.9-8.5c-0.1-0.8-0.3-1.6-0.5-2.4C174.2,188.6,172.3,185.7,168.9,184.2z"/>
					<path class="st28" d="M181.2,174.6c-0.4-2.2-1.6-4.6-3.3-6c-1.7-1.4-4.1-1.4-6.1-2c-3.3-0.9-6.4-2.7-9.5-4.1
						c-2.8-1.3-5.7-2-8.5-3.2c-5.6-2.5-9.1-8.1-11.8-13.3c-1.7-3.3-3.1-6.8-4.2-10.4c-13.2,2.1-26.9-2.7-30.7-17
						c-4.4-17.5,8.8-39.4,28.2-37.5c8.1,0.7,15.6,6.5,20.1,13.5c1.2-3.9,1.6-7.8-0.6-11.8c-1.5-2.6-4.2-4.2-6.4-6.2
						c-1.2-1.1-2.6-2.7-1.6-4.2c0.2-0.3,0.4-0.6,0.7-0.9c-10.5,1.5-21.1,7.6-30.7,11.5c-2.9,1-5.8,1.5-8.8-0.5
						c-3.4-2.4-0.5-7.3,2.4-8.8c8.3-3.4,17,0,25.3-2.4c7.4-2.5,9.9-10.9,7.3-17.5c-3.5-1.8-7.7-2.2-11.6-2.1
						c-5.1,0.1-10.4,1.5-14.9,4c-2.2,1.3-4.1,3.1-5.8,4.9c-2.3,2.5-4.8,5.3-6.4,8.3c-0.6,1.2-0.9,2.3-2.3,2.6
						c-1.2,0.3-2.6,0.2-3.9,0.1c-2.7-0.1-5.3-0.4-8.1-0.3c-5.9,0.1-11.7,1.7-16.8,4.7c-7.2,4.2-12.6,11.6-16.6,18.7
						c-2.1,3.7-3.8,7.6-4.8,11.7c-1.1,4.1-0.7,8-0.9,12.2c0,0.6,0.6,1.3,1.2,1.2c1.7-0.1,3.3-0.5,4.9-0.4
						c1.2-15.4,9.3-30.7,21.6-40.3c3.4-2.4,4.9,1.5,4.4,4.4c-1.5,5.8-8.8,9.7-6.8,16.1c0.5,1.5,2.4,1.5,3.4,1
						c6.8-4.4,10.2-12.2,18-15.6c1-0.5,1.9,0.5,1.9,0.5c1,13.6-16.1,17-25.3,24.3c-5.1,3.6-9.2,8.6-11.5,14.5
						c1.6,2.8,2.8,6.1,4.3,8.7c0.1,0.2,0.2,0.3,0.4,0.4c1.2,2.3,2.5,4.6,3.7,6.9c0.9,1.7,1.6,2.9,3.7,3.1c0.9,0.1,1.9-0.6,2.9-1.3
						c-2-5.9-2.1-12.4,2.8-16.6c5.4-4.4,12.6-4.9,17,1c2.9,3.4,0.5,8.3,0,11.7c-0.5,2.9,3.9,2.4,6.3,1.5c5.8-1,10.7-4.9,17-3.9
						c4.9,1,8.3,5.8,5.4,10.2c-6.3,8.8-17,1.9-24.3-2.4c-2.8-1.5-6.1-1.9-9.2-1.4c1.7,2.7,2.4,6.3,2.8,9.1c0.3,2.1,0.2,4.1,0.1,6.2
						c-0.2,2.4-0.5,6-2.6,7.5c-0.5,0.4-0.6,0.9-0.5,1.4c-0.1,0.1-0.1,0.3-0.1,0.4c8.1,2,15.4-4.1,21.7-9.5c2.4-2.4,5.8-4.9,9.7-3.9
						c1.9,0.5,3.4,2.9,2.9,4.9c-3.4,7.8-16.1,12.6-12.6,19.5c5.4,10.2,17.5-4.4,26.8-6.8c1,0,2.4-0.5,2.9,0.5
						c1.9,4.9-1.5,11.7,4.9,14.6c6.8,2.9,13.1-3.9,19.9-1.5c3.4,1.5,5.4,4.4,6.3,7.8c0.2,0.8,0.4,1.6,0.5,2.4
						C179,188.2,182.6,181.9,181.2,174.6z"/>
					<path class="st27" d="M102.3,143.4c7.3,4.4,18,11.2,24.3,2.4c2.9-4.4-0.5-9.2-5.4-10.2c-6.3-1-11.2,2.9-17,3.9
						c-2.4,1-6.8,1.5-6.3-1.5c0.5-3.4,2.9-8.3,0-11.7c-4.4-5.8-11.7-5.4-17-1c-4.9,4.2-4.8,10.8-2.8,16.6c0.6-0.4,1.2-0.9,1.7-1.1
						c2.6-1.2,5.9-3,8.9-2.3c1.9,0.4,3.4,1.7,4.4,3.4C96.2,141.5,99.4,141.9,102.3,143.4z"/>
					<path class="st27" d="M99.8,85.5c0,0-1-1-1.9-0.5c-7.8,3.4-11.2,11.2-18,15.6c-1,0.5-2.9,0.5-3.4-1c-1.9-6.3,5.4-10.2,6.8-16.1
						c0.5-2.9-1-6.8-4.4-4.4c-12.3,9.5-20.4,24.9-21.6,40.3c1.2,0.1,2.3,0.4,3.3,1.4c1,1,1.8,2.2,2.5,3.4
						c2.2-5.8,6.4-10.9,11.5-14.5C83.8,102.5,100.8,99.1,99.8,85.5z"/>
					<path class="st27" d="M135.3,81.1c-19.5-1.9-32.6,19.9-28.2,37.5c3.7,14.3,17.5,19.1,30.7,17c-0.6-2.1-1.1-4.2-1.5-6.4
						c-1.1-6.4,3.8-12.2,7.1-17.3c2.4-3.7,5-9.2,9.1-11.4c0.2-0.1,0.4-0.3,0.5-0.5c0.2-0.1,0.4-0.3,0.6-0.6c0.7-1.6,1.4-3.3,1.9-4.9
						C151,87.6,143.4,81.8,135.3,81.1z"/>
					<path class="st27" d="M108.1,82.6c2.9,1.9,5.8,1.5,8.8,0.5c9.6-3.9,20.2-10.1,30.7-11.5c0.7-1,1.4-2,1.9-3.2
						c2.2-5,0.2-9.7-3.9-12.9c-0.8-0.6-1.6-1.1-2.5-1.6c2.6,6.6,0.1,15-7.3,17.5c-8.3,2.4-17-1-25.3,2.4
						C107.6,75.3,104.7,80.1,108.1,82.6z"/>
					<g>
						<path class="st24" d="M140,149c-2.9-8.1,1.7-17.8-2.9-24.8c-2.3-3.5-6.9,2.3-11.5,1.2c-5.2-1.2-4.6-5.8-4.6-10.4
							c-0.6-2.3-3.5-2.9-5.2-1.7c-0.7,1.1-1.7,1.5-2.5,2.3c3.3-1.2,2.8,4.2,2.8,6.2c0,1.4-0.1,2.7,0.2,4.1c0.3,1.6,1.7,2.9,3.1,3.7
							c1.7,1,3.8,1.1,5.7,1.3c1.7,0.2,3.9,0.6,5.5-0.2c0,0,0,0,0,0c-0.8,22.2,12.3,33,13.1,33.5c0,0.1,0,0.2,0.1,0.3
							c10.3,6.1,22.8,6.6,34.4,4.5C162.1,170.1,145.9,165.3,140,149z"/>
					</g>
					<g>
						<path class="st25" d="M195.3,90.2c-1.7-1.4-1.7-3.8-0.7-6c-1.1,0.4-2.1,0.8-3.2,1.2c-7.6,2.7-15.1,5.5-22.9,7.6
							c-3.4,0.9-6.9,1.9-10.4,2.4c-2.7,0.4-6.1,0.6-8.7-0.8c0-0.1,0-0.1-0.1-0.2c-2.7-3.3-6.2-6.1-10.3-7.6c-3.7-1.3-7.8-1-11.4,0.4
							c-3.5,1.3-6.5,3.8-8.4,6.9c-0.9,1.5-1.6,3.1-1.8,4.8c-0.2,1.5-0.1,4-1.5,5.1c-1.4-0.8-6.6-3.3-8.6-3.9
							c-4.1-1.1-8.2-0.8-12.1,1.2c-3.8,2-6.6,6.2-5.7,10.7c0.9,4.7,5.6,7.5,10.1,8.1c2.2,0.3,4.4,0,6.5-0.8c2.4-0.9,4.5-2.4,6.8-3.5
							c0.2-0.1,0.3-0.1,0.4-0.2c0.8-0.8,1.7-1.2,2.5-2.3c1.7-1.2,4.6-0.6,5.2,1.7c0,4.6-0.6,9.2,4.6,10.4c4.6,1.2,9.2-4.6,11.5-1.2
							c4.6,6.9,0,16.7,2.9,24.8c5.9,16.3,22,21.1,38.1,20c1-0.2,1.9-0.4,2.9-0.6c4.1-0.9,9-2.4,11.5-6c2-2.9,1.2-7.5-2.5-8.4
							c-3.8-0.9-8.2,1-12,1.6c-6.3,1-13,1-18.9-1.6c-5-2.2-9.1-6.3-9.8-11.9c-0.6-4.7,1.4-9.6,4.7-12.9c1.8-1.8,4-3,6.4-3.7
							c3.3-0.9,7.1-0.4,10.4,0.2c6.6,1.1,13,3.2,19.8,3.2c4.7,0,9.3-0.9,13-3.9c4.1-3.3,6.2-8.3,8.9-12.7c0.6-1,1.3-2,2-3
							C210.1,102,203,96,195.3,90.2z"/>
					</g>
					<path class="st29" d="M207.4,83.4c-2.4,1-3.4,4.9-1.9,5.8c5.3,3.3,10.7,4.8,16,6.9c0-0.1,0.1-0.3,0.1-0.4
						c0.9-3.1,1-6.8-0.4-9.8C216.9,83.6,212.2,81.6,207.4,83.4z"/>
					<path class="st30" d="M205.5,89.2c-1.5-1-0.5-4.9,1.9-5.8c4.7-1.8,9.5,0.2,13.8,2.5c-0.5-1.1-1.2-2.1-2.1-2.9
						c-3-2.7-7.4-3-11.2-2.6c-4.6,0.5-9,2.1-13.3,3.8c-1,2.2-1,4.6,0.7,6c7.7,5.7,14.8,11.8,19.2,19.3c2.8-4.2,5.5-8.5,7-13.3
						C216.2,94,210.7,92.5,205.5,89.2z"/>
					<path class="st24" d="M111.7,107.8c0,0-0.1-0.1-0.2-0.3c-0.1-0.2-0.4-0.4-0.7-0.7c-0.6-0.5-1.8-1-3.1-1.1
						c-1.4-0.2-3-0.1-4.7,0.4c-0.8,0.2-1.6,0.6-2.3,1.1c-0.3,0.2-0.6,0.5-0.9,0.9c-0.1,0.1-0.1,0.2-0.2,0.2
						c-0.1,0.1-0.1,0.2-0.1,0.3c0,0.1-0.1,0.2-0.1,0.2l-0.1,0.3c-0.1,0.2-0.1,0.4-0.2,0.6c0,0.2,0,0.4-0.1,0.6c0,0.4,0.1,0.7,0.2,1
						c0.2,0.3,0.4,0.5,0.7,0.7c0.3,0.2,0.6,0.3,1,0.4c1.4,0.4,3,0.2,3.9-0.3c0.5-0.2,0.8-0.5,0.8-0.8c0.1-0.2,0.1-0.4,0.1-0.6
						c0-0.1-0.1-0.2-0.1-0.3c0-0.1-0.1-0.2-0.1-0.2c-0.1-0.1-0.1-0.2-0.1-0.2l-0.1-0.1c-0.3-0.7,0-1.6,0.7-1.9
						c0.7-0.3,1.6,0,1.9,0.7c0,0,0,0.1,0.1,0.1c0,0,0.1,0.1,0.2,0.4c0,0.1,0.1,0.3,0.2,0.5c0,0.2,0.1,0.5,0.1,0.8
						c0.1,0.6-0.1,1.5-0.6,2.2c-0.5,0.8-1.3,1.3-2.1,1.7c-0.8,0.3-1.8,0.5-2.7,0.5c-0.9,0-1.9-0.2-2.9-0.6c-0.5-0.2-1-0.5-1.4-0.8
						c-0.4-0.4-0.8-0.9-1.1-1.4c-0.2-0.6-0.3-1.2-0.3-1.8c0-0.3,0.1-0.6,0.2-0.8c0.1-0.3,0.2-0.6,0.3-0.8l0.2-0.3
						c0.1-0.2,0.1-0.3,0.2-0.4c0.1-0.1,0.2-0.2,0.2-0.3c0.1-0.1,0.2-0.2,0.3-0.3c0.4-0.4,0.8-0.7,1.2-1c0.9-0.5,1.8-0.8,2.7-1
						c1.8-0.4,3.6-0.3,5,0c1.4,0.3,2.5,0.9,3.2,1.5c0.3,0.3,0.5,0.6,0.6,0.7C111.7,107.7,111.7,107.8,111.7,107.8z"/>
					<path class="st31" d="M129.8,102.2c-0.5-1.6-0.9-3.3-1.5-4.8c-0.6-1.4-2.9-0.8-2.3,0.6c0.6,1.6,1,3.2,1.5,4.8
						C127.9,104.3,130.3,103.7,129.8,102.2z"/>
					<path class="st31" d="M147.6,95.2c-0.4-1.4-0.7-2.8-1.4-4c-0.8-1.3-2.9-0.1-2.1,1.2c0.6,1,0.8,2.3,1.1,3.4
						C145.7,97.4,148,96.8,147.6,95.2z"/>
					<path class="st25" d="M195.3,101.8c-5.4,0.8-10.8,1.8-15.9,3.7c-4.8,1.8-9.2,4.7-14.1,6.3c-0.3,0.1-0.2,0.6,0.1,0.5
						c4.8-1.5,9.1-4.2,13.7-6.1c5.2-2.1,10.8-3.1,16.3-3.9C195.7,102.2,195.6,101.8,195.3,101.8z"/>
					<path class="st30" d="M187,98.2C187,98.3,187,98.3,187,98.2c-0.1,0.1-0.1,0.1-0.2,0.2c-0.4,0.7-0.3,1.7,0.4,2.1
						c0.7,0.4,1.9-0.1,2.2-0.8C190,98.3,188,97,187,98.2z M189,99.4c-0.1,0.6-0.9,0.9-1.4,0.7c-0.6-0.2-0.6-1-0.3-1.4c0,0,0,0,0,0
						c0,0,0.1,0,0.1-0.1c0.3-0.4,0.7-0.5,1.1-0.2C188.8,98.6,189.1,99,189,99.4z"/>
					<path class="st30" d="M199.7,107c-0.1-0.8-0.7-1.2-1.5-1.2c-0.1,0-0.2,0.1-0.2,0.1c-0.8,0.2-1.2,1.1-1.1,1.9
						c0.2,0.8,1.2,1.2,1.9,0.8C199.4,108.4,199.7,107.7,199.7,107z M198.8,108.2c-0.4,0.4-1.2,0.2-1.4-0.3c-0.2-0.6,0.2-1.3,0.8-1.4
						c0.1,0,0.1,0,0.1-0.1c0.4,0,0.7,0.2,0.8,0.6C199.3,107.4,199.1,107.9,198.8,108.2z"/>
					<path class="st30" d="M186.1,110.3c-0.6-0.4-1.3-0.4-1.7,0.1c-0.1,0-0.2,0-0.3,0.1c-0.6,0.7-0.6,1.7,0.3,2.2
						c0.7,0.4,2,0.1,2.4-0.7C187.1,111.4,186.6,110.7,186.1,110.3z M186.4,111.7c-0.1,0.6-1.1,0.8-1.6,0.7c-0.7-0.2-0.7-0.9-0.4-1.4
						c0.1,0,0.2,0,0.3-0.1C185.2,110.1,186.5,110.8,186.4,111.7z"/>
					<path class="st28" d="M77.1,160.6c0-0.1-0.2-0.2-0.3-0.2c-0.5,0.1-0.9,0.3-1.3,0.5c-2.1,6.2-4.4,13-2.7,18.6
						c0.8-0.7,1.6-1.5,2.3-2.4c0.6-0.7,1.2-1.6,1.5-2.5c0.5-1.4,0.1-3-0.2-4.4c-0.5-2-0.5-3.6,0.2-5.5
						C77.1,163.4,77.4,162.1,77.1,160.6z"/>
					<path class="st27" d="M75.5,161c-1.2,0.7-2.2,1.8-3.1,2.9c-0.7,0.8-1.4,1.7-2.3,2.4c-0.8,0.6-1.6,0.7-2.4,1
						c-1.8,0.7-1.4,3.6-1.1,5c0.4,1.8,2.2,4,1.4,6.2c-0.5,1.4-0.1,1.3,0.3,2c0.3,0.6,0.8,1.3,1.6,1.1c0.8-0.2,1.7-0.9,2.4-1.5
						c0.2-0.1,0.4-0.3,0.5-0.5C71.1,173.9,73.4,167.1,75.5,161z"/>
				</g>
			</g>
		</g>
		<g class="st6">
			<g>
				<g>
					<path class="st32" d="M208.2,327.6c-2.6,0.7-5.6,2.4-8.2,4.5c-0.3-0.4-0.6-0.9-0.9-1.3c-1.8-2.4-3.9-4.6-6-6.8
						c0.4-4-0.1-8.2-2.7-11.3c-3.8-4.6-8.7-0.3-7.3,4.6c1.1,3.8,4.4,7.1,7.6,10.2c-0.2,1-0.4,2-0.6,2.9c-1.4,6-3.9,15-10.4,17.1
						c-7.8,2.5-3.7-19.9-2.7-23.2c0.4-1.4-2.8-1.5-3.6-0.6c-2.9,3.5-2.8,8.8-2.7,14c-2.8,3.4-7.2,9.9-9.3,8.7
						c-2.4-1.5-0.6-8.2-0.3-10.2c0.6-3.8,1.4-7.6,1.3-11.4c0-1.8-3.3-1.2-3.5,0.2c-0.5,2.2-1.1,4.4-1.6,6.5c-0.9,2-2.2,3.8-3.2,5.4
						c-2.2,3.3-4.8,5.6-8,7.5c-4.3,1.4-9.2,0.3-11.2-4.1c-1.5-3.4-0.9-7.5-0.2-11c0.8-3.5,2.3-7.3,4.5-10.2c1.1-1.4,3-2.4,4.8-2.8
						c3.3-0.8,4.8,1.8,5.4,4.6c0.2,1,1.5-0.2,1.5-0.9c-0.4-5.9-6.2-7.2-11-5.4c-4.9,1.9-7.4,7.8-8.6,12.4c-1.2,4.5-1.7,9.4-0.3,13.9
						c-3,4.9-12.7,13.8-16.2,3.8c-2.3-6.6,4.6-11.7,3.5-17.9c-0.7-4.1-6.8-5.1-10-7.2c-0.1-2.7-0.6-5.2-1.5-7.6
						c-0.8-2.1-1.8-4.7-4-5.7c-1.8-0.8-3.7,1.8-4.1,3.1c-1.4,5.3,3.3,10.8,7.7,13.9c-0.1,2.2-0.4,4.4-0.8,6.5
						c-0.9,6-1.9,11.8-5.1,17c-1.3,2.1-3.3,6.4-6,6.5c-3,0.1-4.3-6.7-4.6-8.8c-1.1-6.7,0.8-13.7,3.5-19.7c0.5-1.2-0.7-2.4-1.8-1.5
						c-3,2.6-4.6,6.5-5.4,10.6c-1.8,2.9-4,7.2-6.4,9.6c-4.2,4.1-11.9,4.6-14.8-1.8c-2-4.3-1.1-9.6,0-13.9c0.5-2.1,1.4-4.3,2.7-6.1
						c0.9-1.3,2-2.2,3.3-3.2c3.3-2.4,9.1-1.4,8.3,3.6c-0.2,1,1.2,0.2,1.4-0.3c1.4-3.5-2.5-6.3-5.6-6.8c-3.9-0.6-7.7,2.4-10.2,5.1
						c-4.6,5-5.9,13.8-4.4,20.3c1.6,6.9,7.3,10.6,14.2,8.1c4.7-1.8,8.3-5.7,11.1-10.1c-0.1,2.3,0,4.5,0.2,6.5
						c0.6,5.4,4.6,12.7,10.7,8.7c5.1-3.3,7.9-10.6,9.3-16.2c1-3.9,1.9-8.5,2.2-13c0.1,0.1,0.2,0.1,0.3,0.2c1.5,0.8,6,1.6,5.9,4
						c-0.2,2.1-1.8,4.3-2.7,6.2c-1.4,3.4-2.2,8.9-0.8,12.1c3.1,7.3,12.8,4.8,17.5-0.4c1.1-1.3,2.4-2.4,3.2-3.9
						c0.1,0.3,0.3,0.6,0.4,0.9c3,5.6,9.4,4.9,14.4,2.1c3-1.7,6.1-4.8,8-7.1c0.7-0.8,1.3-1.7,1.9-2.5c-0.3,1.7-0.5,3.4-0.5,5.2
						c0,2.2,0.7,7.3,3.8,7.5c2.5,0.2,4.6-1.8,6.3-3.4c1.6-1.5,3.4-3.3,4.9-5.2c0.2,2.3,0.7,4.4,1.5,6.2c2.5,5.8,8.8,2.8,11.9-0.6
						c4.1-4.5,6.4-10.4,7.9-16.3c0-0.1,0.1-0.3,0.1-0.4c1.1,1.1,2.2,2.3,3.1,3.4c0.6,0.7,1.2,1.5,1.7,2.3c-1.4,1.4-2.5,2.8-3.4,4.2
						c-2,3.2-4,10,0.2,12.4c3.8,2.2,9.9-0.4,10.8-4.8c1-4.5-1-8.9-3.5-12.7c2.5-1.6,5.2-2.9,7.2-5
						C208.7,328.5,209.1,327.4,208.2,327.6z M102.2,312.9c-0.2-0.3-1.9-5.7,0-4.4c1,0.7,1.7,2.2,2.2,3.3c0.9,1.9,1.4,3.9,1.7,6
						C104.7,316.3,103.4,314.6,102.2,312.9z M187,317.8c-1.8-2-1.3-6.2,1.8-3.6c1.2,1,1.7,2.7,2,4.1c0.3,1.2,0.4,2.6,0.3,3.9
						C189.8,320.8,188.3,319.4,187,317.8z M200.5,341.6c0.6,1.9,0.5,3.5-0.1,5.3c-0.7,2.2-4.2,4.7-6.2,2.8c-4.3-4,0.5-10.5,3.6-13.4
						c0,0,0.1-0.1,0.1-0.1C198.9,338,199.8,339.7,200.5,341.6z"/>
					<path class="st32" d="M95.1,314.6c-1-1.5-3.7-0.3-3.4,1.5c0.1,0.4,0.2,0.7,0.4,1.1c0.6,0.9,1.8,1,2.7,0.4
						C95.7,316.8,95.9,315.5,95.1,314.6z"/>
				</g>
			</g>
		</g>
	</g>
</g>
<g class="st3">
	<path class="st33" d="M310.8,411.1h23c0-7.6,6.5-13.8,14.6-13.8c8.1,0,14.6,6.2,14.6,13.8h13.5c0-7.6,6.5-13.8,14.6-13.8
		c8.1,0,14.6,6.2,14.6,13.8h13.5c0-7.6,6.5-13.8,14.6-13.8c8.1,0,14.6,6.2,14.6,13.8h13.5c0-7.6,6.5-13.8,14.6-13.8
		c8.1,0,14.6,6.2,14.6,13.8h13.5c0-7.6,6.6-13.8,14.6-13.8c8.1,0,14.6,6.2,14.6,13.8h13.7c1.1-6.6,7.1-11.6,14.4-11.6v-13.7
		c-8.1,0-14.6-6.2-14.6-13.8c0-7.6,6.5-13.8,14.6-13.8v-13.7c-8.1,0-14.6-6.2-14.6-13.8c0-7.6,6.5-13.8,14.6-13.8v-13.7
		c-8.1,0-14.6-6.2-14.6-13.8c0-7.6,6.5-13.8,14.6-13.8v-13.7c-8.1,0-14.6-6.2-14.6-13.8c0-7.6,6.6-13.8,14.6-13.8v-12.8
		c-8.1,0-14.6-6.2-14.6-13.8c0-7.6,6.6-13.8,14.6-13.8v-12.8c-8.1,0-14.6-6.2-14.6-13.8c0-7.6,6.6-13.8,14.6-13.8v-12.8
		c-8.1,0-14.6-6.2-14.6-13.8c0-7.6,6.6-13.8,14.6-13.8v-12.8c-8.1,0-14.6-6.2-14.6-13.8c0-7.6,6.6-13.8,14.6-13.8V60.1
		c-8.1,0-14.6-6.2-14.6-13.8c0-7.6,6.6-13.8,14.6-13.8V19.8c-8.1,0-14.6-6.2-14.6-13.8c0-0.7,0.1-1.3,0.2-2h-13.8
		c0.1,0.6,0.2,1.3,0.2,2c0,7.6-6.6,13.8-14.6,13.8c-8.1,0-14.6-6.2-14.6-13.8c0-0.7,0.1-1.3,0.2-2h-13.8c0.1,0.6,0.2,1.3,0.2,2
		c0,7.6-6.5,13.8-14.6,13.8c-8.1,0-14.6-6.2-14.6-13.8c0-0.7,0.1-1.3,0.2-2h-13.8c0.1,0.6,0.2,1.3,0.2,2c0,7.6-6.5,13.8-14.6,13.8
		c-8.1,0-14.6-6.2-14.6-13.8c0-0.7,0.1-1.3,0.2-2h-13.8c0.1,0.6,0.2,1.3,0.2,2c0,7.6-6.5,13.8-14.6,13.8c-8.1,0-14.6-6.2-14.6-13.8
		c0-0.7,0.1-1.3,0.2-2h-13.8c0.1,0.6,0.2,1.3,0.2,2c0,7.6-6.6,13.8-14.6,13.8c-8.1,0-14.6-6.2-14.6-13.8c0-0.7,0.1-1.3,0.2-2h-23.1
		c0.1,0.6,0.2,1.3,0.2,2c0,7.6-6.5,13.8-14.6,13.8v12.8c8.1,0,14.6,6.2,14.6,13.8c0,7.6-6.5,13.8-14.6,13.8v12.8
		c8.1,0,14.6,6.2,14.6,13.8c0,7.6-6.5,13.8-14.6,13.8v12.8c8.1,0,14.6,6.2,14.6,13.8c0,7.6-6.5,13.8-14.6,13.8v12.8
		c8.1,0,14.6,6.2,14.6,13.8c0,7.6-6.5,13.8-14.6,13.8v12.8c8.1,0,14.6,6.2,14.6,13.8c0,7.6-6.5,13.8-14.6,13.8v12.8
		c8.1,0,14.6,6.2,14.6,13.8c0,7.6-6.5,13.8-14.6,13.8v13.7c8.1,0,14.6,6.2,14.6,13.8c0,7.6-6.5,13.8-14.6,13.8v13.7
		c8.1,0,14.6,6.2,14.6,13.8c0,7.6-6.5,13.8-14.6,13.8v13.7c8.1,0,14.6,6.2,14.6,13.8c0,7.6-6.5,13.8-14.6,13.8v13.7
		C303.6,399.5,309.7,404.5,310.8,411.1z"/>
	<g class="st4">
		<path class="st2" d="M305.8,407.1h23c0-7.6,6.5-13.8,14.6-13.8c8.1,0,14.6,6.2,14.6,13.8h13.5c0-7.6,6.5-13.8,14.6-13.8
			c8.1,0,14.6,6.2,14.6,13.8h13.5c0-7.6,6.5-13.8,14.6-13.8c8.1,0,14.6,6.2,14.6,13.8h13.5c0-7.6,6.5-13.8,14.6-13.8
			c8.1,0,14.6,6.2,14.6,13.8h13.5c0-7.6,6.6-13.8,14.6-13.8c8.1,0,14.6,6.2,14.6,13.8h13.7c1.1-6.6,7.1-11.6,14.4-11.6v-13.7
			c-8.1,0-14.6-6.2-14.6-13.8c0-7.6,6.5-13.8,14.6-13.8v-13.7c-8.1,0-14.6-6.2-14.6-13.8c0-7.6,6.5-13.8,14.6-13.8v-13.7
			c-8.1,0-14.6-6.2-14.6-13.8c0-7.6,6.5-13.8,14.6-13.8v-13.7c-8.1,0-14.6-6.2-14.6-13.8c0-7.6,6.6-13.8,14.6-13.8v-12.8
			c-8.1,0-14.6-6.2-14.6-13.8c0-7.6,6.6-13.8,14.6-13.8v-12.8c-8.1,0-14.6-6.2-14.6-13.8c0-7.6,6.6-13.8,14.6-13.8v-12.8
			c-8.1,0-14.6-6.2-14.6-13.8c0-7.6,6.6-13.8,14.6-13.8V96.5c-8.1,0-14.6-6.2-14.6-13.8c0-7.6,6.6-13.8,14.6-13.8V56.1
			c-8.1,0-14.6-6.2-14.6-13.8c0-7.6,6.6-13.8,14.6-13.8V15.8c-8.1,0-14.6-6.2-14.6-13.8c0-0.7,0.1-1.3,0.2-2h-13.8
			c0.1,0.6,0.2,1.3,0.2,2c0,7.6-6.6,13.8-14.6,13.8c-8.1,0-14.6-6.2-14.6-13.8c0-0.7,0.1-1.3,0.2-2h-13.8c0.1,0.6,0.2,1.3,0.2,2
			c0,7.6-6.5,13.8-14.6,13.8c-8.1,0-14.6-6.2-14.6-13.8c0-0.7,0.1-1.3,0.2-2h-13.8c0.1,0.6,0.2,1.3,0.2,2c0,7.6-6.5,13.8-14.6,13.8
			c-8.1,0-14.6-6.2-14.6-13.8c0-0.7,0.1-1.3,0.2-2h-13.8c0.1,0.6,0.2,1.3,0.2,2c0,7.6-6.5,13.8-14.6,13.8c-8.1,0-14.6-6.2-14.6-13.8
			c0-0.7,0.1-1.3,0.2-2h-13.8c0.1,0.6,0.2,1.3,0.2,2c0,7.6-6.6,13.8-14.6,13.8c-8.1,0-14.6-6.2-14.6-13.8c0-0.7,0.1-1.3,0.2-2h-23.1
			c0.1,0.6,0.2,1.3,0.2,2c0,7.6-6.5,13.8-14.6,13.8v12.8c8.1,0,14.6,6.2,14.6,13.8c0,7.6-6.5,13.8-14.6,13.8v12.8
			c8.1,0,14.6,6.2,14.6,13.8c0,7.6-6.5,13.8-14.6,13.8v12.8c8.1,0,14.6,6.2,14.6,13.8c0,7.6-6.5,13.8-14.6,13.8v12.8
			c8.1,0,14.6,6.2,14.6,13.8c0,7.6-6.5,13.8-14.6,13.8v12.8c8.1,0,14.6,6.2,14.6,13.8c0,7.6-6.5,13.8-14.6,13.8v12.8
			c8.1,0,14.6,6.2,14.6,13.8c0,7.6-6.5,13.8-14.6,13.8v13.7c8.1,0,14.6,6.2,14.6,13.8c0,7.6-6.5,13.8-14.6,13.8v13.7
			c8.1,0,14.6,6.2,14.6,13.8c0,7.6-6.5,13.8-14.6,13.8v13.7c8.1,0,14.6,6.2,14.6,13.8c0,7.6-6.5,13.8-14.6,13.8v13.7
			C298.6,395.5,304.7,400.5,305.8,407.1z"/>
		<rect x="320" y="32.6" class="st34" width="208.6" height="341.9"/>
	</g>
	<g class="st4">
		<path class="st35" d="M482.3,165.2c-4.5,0-8.4-3.2-9.2-7.6c-0.1-0.5-0.3-1.4-0.2-4.1c-1-0.5-2-1.1-3.1-1.7c-3.1-1.9-4.9-5.4-4.5-9
			c0.4-3.6,2.8-6.6,6.3-7.9c1-0.4,1.8-0.7,2.8-1.1c0.3-0.1,0.5-0.2,0.8-0.3c0.2-1.1,0.3-2.3,0.5-3.6c0.5-4.8,4.5-8.4,9.3-8.4
			c1.9,0,3.7,0.6,5.3,1.7c1.6,1.1,3.1,2.4,4.6,4c1.3-0.3,2.5-0.6,3.7-0.6l0.3,0l0.4,0c3.1,0,6,1.6,7.8,4.2c1.8,2.8,2.2,6.4,0.9,9.3
			c-0.7,1.6-1.5,3-2.4,4.3c0.5,1,1.1,2.2,1.9,3.8c1.4,2.9,1.2,6.3-0.6,9c-1.7,2.7-4.7,4.3-7.9,4.3l0,0c-0.9,0-1.8-0.1-2.6-0.4
			c-1.2-0.3-2.2-0.5-3.5-0.7c-0.3-0.1-0.6-0.1-1-0.2c-1.4,1.3-3.1,2.7-5.3,3.9C485.4,164.9,483.9,165.2,482.3,165.2z"/>
		<path class="st34" d="M478.3,161.2c-4.5,0-8.4-3.2-9.2-7.6c-0.1-0.5-0.3-1.4-0.2-4.1c-1-0.5-2-1.1-3.1-1.7c-3.1-1.9-4.9-5.4-4.5-9
			c0.4-3.6,2.8-6.6,6.3-7.9c1-0.4,1.8-0.7,2.8-1.1c0.3-0.1,0.5-0.2,0.8-0.3c0.2-1.1,0.3-2.3,0.5-3.6c0.5-4.8,4.5-8.4,9.3-8.4
			c1.9,0,3.7,0.6,5.3,1.7c1.6,1.1,3.1,2.4,4.6,4c1.3-0.3,2.5-0.6,3.7-0.6l0.3,0l0.4,0c3.1,0,6,1.6,7.8,4.2c1.8,2.8,2.2,6.4,0.9,9.3
			c-0.7,1.6-1.5,3-2.4,4.3c0.5,1,1.1,2.2,1.9,3.8c1.4,2.9,1.2,6.3-0.6,9c-1.7,2.7-4.7,4.3-7.9,4.3l0,0c-0.9,0-1.8-0.1-2.6-0.4
			c-1.2-0.3-2.2-0.5-3.5-0.7c-0.3-0.1-0.6-0.1-1-0.2c-1.4,1.3-3.1,2.7-5.3,3.9C481.4,160.9,479.9,161.2,478.3,161.2z"/>
		<path class="st36" d="M495.6,147.9c-2.3-4.9-2.8-5.3-4.1-7.4c1.2-3,3.4-5.7,4.4-8c0.1-0.3-0.1-1.2-0.5-1.2
			c-2.1,0.2-5.7,1.4-7.6,2.2c-1.7-2.7-3.8-5.2-6.5-7.1c-0.3-0.2-0.6,0.1-0.7,0.4c-0.4,3.4-0.8,5.8-1.4,9.2c-3.6,1.1-5.5,2.2-8.6,3.3
			c-0.5,0.2-0.6,0.6-0.1,0.9c2.3,1.4,3.9,2.2,7.7,3.3c-0.2,1.8-0.5,7.5-0.4,8.5c0.1,0.3,0.4,0.4,0.7,0.3c2.6-1.4,4.5-3.9,7.1-5.7
			c3.5,1.1,5.8,1,9.4,2C495.4,148.7,495.7,148.3,495.6,147.9z"/>
	</g>
	<g class="st4">
		<defs>
			<rect id="SVGID_3_" x="320" y="32.6" width="208.6" height="341.9"/>
		</defs>
		<clipPath id="SVGID_4_">
			<use xlink:href="#SVGID_3_"  style="overflow:visible;"/>
		</clipPath>
		<path class="st37" d="M540.1,169.6c-4.6-1.6-9.5-2.5-14.4-2.8c0.5-0.2,1.1-0.4,1.6-0.6c10.8-4.2,20-10.3,26.8-19.1
			c5.1-6.6,3.1-17.4-3.2-22.8c-15.5-13-37.2-9.9-55.9-5.8c0,0-0.1,0-0.1,0c1.8-1.4,3.4-2.8,4.9-4.4c3.1-3.2,6.4-7.1,7.7-11.3
			c1.8-5.9-0.1-10.9-3-16.1c-3-5.4-11.1-9.9-17.8-9.3c-31.5,2.6-60.8,12.9-88.6,26c-1,0.5-2,1-3.1,1.5c4.9-5.2,9.8-11.2,9.5-18.4
			c-0.4-7.7-5.9-16.8-15.1-18.1c-17.2-2.5-32.2,1.1-47.3,8.8c-5,2.6-9.9,5.5-14.9,8.2c-1.8,1-3.7,1.9-5.6,2.7
			c-0.5,0.2-1,0.4-1.4,0.5c-1.2,0.4-2.5,0.6-3.8,0.8c-11.1,1.7-17.1,14-14.4,23.1c2.1,7,7.7,11.3,14.5,12.8
			c-7.7,7.7-15.2,15.8-20.9,24.6c-8.1,12.5-10.4,32.1,6.9,39.6c5.1,2.2,10.1,3.1,15.1,2.9c-4.2,6.4-6.9,13.7-7.5,21.9
			c-0.6,9.9,9.8,19.2,20.6,18.8c6.4-0.2,12-1.7,17.2-3.9c-8.5,8.5-16,17.9-20.8,28.3c-3,6.4-4.1,12.6,0,19
			c3.4,5.3,10.7,9.9,17.8,9.3c11.7-0.9,22.4-4.4,32.6-9.3c2.9,9.4,13.6,17,25.2,13.5c17.8-5.4,33.8-15.3,50.7-22.6
			c1.3-0.6,2.6-1.1,3.9-1.6c-0.2,0.1,2.8-1,4.4-1.6c0.5,1.5,1.1,2.9,2,4.3c5.8,9,18.3,11.7,28.1,6.7c7.9-3.9,16.1-7.4,23.9-11.3
			c9.8-4.9,12.9-17,7.4-25.7c-3.9-6.1-10.9-9.2-18-9.2c-1.3-0.7-2.5-1.3-3.8-1.9c3.3-1.6,6.7-3.3,10.1-4.8
			c13-6.2,27.6-11.1,37.8-21.2c5-5,7.3-11.6,5.3-18.3C552.4,176,547,172,540.1,169.6z"/>
		<g class="st38">
			<g>
				<g>
					<path class="st39" d="M495.2,264c-2.9-1.9-6.6-2.6-9.9-3.4c-5.7-1.3-11.5-2.1-17.3-2.7c-12.2-1.3-24.3-1.2-36.5-0.8
						c-12.4,0.4-24.7,0.2-37.1,1c-6.8,0.4-13.7,1-20.4,1.8c-4.1,0.5-9.2,0-11,4.2c0,0.1,0,1.7,0,1.8c0,0-0.1,0-0.1,0
						c-0.5,0.1-0.5,0.8,0,0.8c2.4-0.3,3.6,2,5.3,3.2c1.9,1.5,4.5,2.1,6.8,2.7c5.5,1.4,10.6,3.5,16,5.2c11,3.5,22.4,5.7,33.9,6.6
						c11.5,0.9,23.2,0.4,34.6-1.6c5.9-1,11.7-2.5,17.4-4.2c4.4-1.3,8.8-2.8,13.2-4c2.7-0.7,6.1-1.6,7.6-4.2
						C499.1,267.9,497.2,265.3,495.2,264z"/>
					<g>
						<path class="st8" d="M402.3,274.4c-0.9,4.3-1.7,8.7-2.4,13c4.7,0.9,9.5,1.5,14.3,1.9c0.6-4.4,1.1-8.8,1.5-13.2
							C411.2,275.8,406.7,275.2,402.3,274.4z"/>
						<path class="st9" d="M429.8,276.7c-4.7,0-9.4-0.2-14.1-0.6c-0.4,4.4-0.9,8.8-1.5,13.2c10.2,0.9,20.5,0.7,30.8-0.4
							c-0.7-4.2-1.4-8.3-2.1-12.5C438.5,276.7,434.1,276.7,429.8,276.7z"/>
						<path class="st10" d="M500,274.1c-0.2-0.8-0.4-1.5-0.6-2.3c-0.2-0.7-0.4-1.4-0.6-2.1c-0.7-2.8-1.9-4.6-2.1-4.4
							c0.9,1.3-3,2.3-4.8,2.9c-1.9,0.5-3.7,1.1-5.6,1.6c0.7,3,1.4,6,2.1,9C492.4,277.4,496.2,275.8,500,274.1z"/>
						<path class="st11" d="M486.4,269.8c-0.8,0.2-1.6,0.5-2.5,0.7c-5.8,1.5-11.7,2.7-17.6,3.7c-7.8,1.2-15.6,1.9-23.5,2.3
							c0.7,4.2,1.4,8.3,2.1,12.5c14.9-1.6,29.6-5.1,43.5-10.2C487.7,275.8,487,272.8,486.4,269.8z"/>
						<path class="st12" d="M393.5,272.5c-6.7-1.7-13.9-2.5-20.5-4.6c-0.5,3.7-1.1,7.3-1.9,10.9c9.2,4,18.9,6.8,28.8,8.6
							c0.7-4.3,1.5-8.7,2.4-13C399.4,273.9,396.4,273.3,393.5,272.5z"/>
						<path class="st10" d="M365.7,264.7c-0.6-0.4-1.2-0.8-1.8-1.2c-0.2-0.1-0.3-0.1-0.4,0.1c-0.1,0-0.3,0.1-0.3,0.3
							c-1,3.2-1.8,6.5-2.6,9.7c3.5,1.9,7,3.6,10.6,5.2c0.7-3.6,1.4-7.2,1.9-10.9C370.4,267.1,368,266.1,365.7,264.7z"/>
						<path class="st40" d="M360.5,273.6c-3.2,13-5.3,26.1-7.2,38.7c2.5,1.4,5.1,2.9,7.7,4.2c3.7-12.5,7.5-25,10.1-37.7
							C367.5,277.2,364,275.5,360.5,273.6z"/>
						<path class="st32" d="M371.1,278.8c-2.6,12.7-6.4,25.2-10.1,37.7c8.5,4.4,17.4,7.8,26.9,8.3c2.2,0,4.3,0.1,6.5,0.1
							c1.6-12.5,3.3-25,5.4-37.5C390,285.6,380.4,282.8,371.1,278.8z"/>
						<path class="st41" d="M399.9,287.4c-2.1,12.5-3.9,25-5.4,37.5c4.5,0.1,9,0.2,13.5,0.2c2.1-12,4.5-23.9,6.2-35.8
							C409.4,288.9,404.6,288.3,399.9,287.4z"/>
						<path class="st7" d="M414.2,289.3c-1.7,11.9-4.1,23.8-6.2,35.8c14.2,0.2,28.4,0.1,42.4-1c-1.9-11.7-3.6-23.4-5.5-35.2
							C434.7,290,424.4,290.2,414.2,289.3z"/>
						<path class="st40" d="M506.8,311.4c-0.7-3.5-1.4-7-2-10.6c-0.9-5.5-1.7-10.9-2.7-16.4c-0.5-2.8-1.1-5.6-1.7-8.5
							c-0.1-0.6-0.3-1.3-0.4-1.9c-3.8,1.7-7.6,3.2-11.5,4.7c3,12,6.5,23.9,10.3,35.7C501.4,313.6,504.1,312.5,506.8,311.4z"/>
						<path class="st42" d="M488.5,278.8c-13.9,5.1-28.6,8.6-43.5,10.2c1.9,11.7,3.6,23.4,5.5,35.2c16.5-1.3,32.8-4.1,48.3-9.6
							C495,302.7,491.5,290.8,488.5,278.8z"/>
						<path class="st17" d="M388,324.8c-9.5-0.5-18.4-3.9-26.9-8.3c-0.7,2.4-1.4,4.9-2.1,7.3c8.4,3.5,17.2,5.6,26,7.1
							c2.9,0.4,5.8,0.7,8.7,1c0.3-2.3,0.6-4.7,0.9-7C392.3,324.9,390.1,324.8,388,324.8z"/>
						<path class="st18" d="M408,325.1c-4.5-0.1-9-0.1-13.5-0.2c-0.3,2.3-0.6,4.7-0.9,7c4.4,0.4,8.8,0.8,13.3,1
							c0.1-0.9,0.2-1.8,0.3-2.8C407.4,328.5,407.7,326.8,408,325.1z"/>
						<path class="st19" d="M408,325.1c-0.3,1.7-0.6,3.4-0.9,5c-0.1,0.9-0.2,1.8-0.3,2.8c15,0.9,30.1,0.7,44.9-0.8
							c-0.4-2.7-0.9-5.3-1.3-8C436.4,325.2,422.1,325.3,408,325.1z"/>
						<path class="st20" d="M508,318.2c0-0.2-0.1-0.4-0.1-0.5c-0.3-2.1-0.7-4.2-1.1-6.3c-2.7,1.1-5.4,2.2-8.1,3.1
							c0.7,2.2,1.4,4.4,2.1,6.5C503.2,320.2,505.6,319.2,508,318.2z"/>
						<path class="st21" d="M498.7,314.5c-15.6,5.5-31.8,8.3-48.3,9.6c0.4,2.7,0.9,5.3,1.3,8c16.8-1.7,33.3-5.3,49.1-11
							C500.1,318.9,499.4,316.7,498.7,314.5z"/>
						<path class="st20" d="M353.3,312.3c-0.4,2.8-0.8,5.6-1.2,8.3c2.2,1.2,4.5,2.2,6.8,3.2c0.7-2.5,1.4-4.9,2.1-7.3
							C358.4,315.2,355.9,313.8,353.3,312.3z"/>
						<path class="st12" d="M384.9,330.9c-8.8-1.5-17.6-3.6-26-7.1c-1.2,4.3-2.3,8.6-3.4,12.9c1.3,0.4,2.6,0.7,3.6,1
							c4.9,1.4,9.9,2.9,14.9,4.1c5.9,1.4,11.9,2.6,17.9,3.4c0.6-4.5,1.1-8.9,1.7-13.4C390.7,331.6,387.8,331.3,384.9,330.9z"/>
						<path class="st8" d="M393.6,331.9c-0.6,4.5-1.1,8.9-1.7,13.4c4.8,0.7,9.6,1.1,14.4,1.3c0-4.6,0.1-9.1,0.5-13.7
							C402.4,332.7,398,332.3,393.6,331.9z"/>
						<path class="st9" d="M406.8,332.9c-0.4,4.6-0.5,9.1-0.5,13.7c1.1,0.1,2.1,0.1,3.2,0.1c14.9,0.5,29.8,0.2,44.6-1.2
							c-0.8-4.5-1.6-9-2.4-13.5C436.9,333.7,421.9,333.8,406.8,332.9z"/>
						<path class="st11" d="M451.7,332.1c0.8,4.5,1.6,9,2.4,13.5c9.5-0.9,18.9-2.3,28.3-4.3c5.2-1.1,10.4-2.2,15.7-3.1
							c2.5-0.4,5.2-0.9,7.7-1.7c-1.7-5.2-3.3-10.3-5-15.5C485.1,326.8,468.6,330.4,451.7,332.1z"/>
						<path class="st10" d="M508,318.2c-2.4,1-4.8,1.9-7.2,2.8c1.6,5.1,3.3,10.3,5,15.5c2-0.6,6-2.5,5.7-5.2
							C511.1,328.6,509.4,323.1,508,318.2z"/>
						<path class="st10" d="M352.1,320.7c-0.6,4.2-1.5,10-1.5,10c-0.9,4.6,3.2,5.6,5,6.1c1-4.3,2.2-8.6,3.4-12.9
							C356.6,322.9,354.3,321.9,352.1,320.7z"/>
					</g>
				</g>
				<path class="st43" d="M488.5,261.3c-0.2-0.1-8.4-1.3-8.5-1.1c-3.8-2.6-0.4-5.8-4.8-6.9c-5.6-1.3-11.1-3.1-16.7-4.4
					c-5.6-1.3-11.3-2.3-17.1-2.8c-6-0.5-11.9-0.2-17.9,0.4c-10.6,1.1-21.5,1.7-31.4,6c-4.9,2.1-9.4,5.2-14.2,7.5
					c-2.5,1.2-5.1,2.1-7.8,2.5c-1.5,0.3-5.3,0.3-5.2,0c7.5,3.9,16.3,9.3,23.3,4.4c1.1-0.8,2.3-1.6,3.7-1.7c1.1,0,2.2,0.4,3.2,0.8
					c2.4,0.8,4.7,1.9,6.9,2.9c4.2,1.9,8.3,3.4,13.1,3.2c2.5-0.1,4.8-0.9,7.1-1.6c3-1,5.8-1.5,9-1.4c6,0.2,11.4,2.3,17.1,3.9
					c4.6,1.3,9.5,2.2,14.4,1.4c1.8-0.3,3.6-1,4.7-2.5c0.5-0.7,0.7-1.6,1.1-2.4c0.8-1.5,3.1-1.3,4.5-1.2c5.7,0.5,10.8,4,16,0
					C492.6,265.4,492.7,264,488.5,261.3z"/>
				<path class="st44" d="M377.4,252.2c-0.8,1.7-3.4,8.9-11.1,8.1c-1.1-0.1-2.9,0.1-3.7,0.9c7.3,2.7,14.4,3.7,19.2-3.9
					c0.3-0.6,0.6-1.2,0.9-1.8c-0.9-2.8-2.4-6-3.5-9.1C378.8,248.4,378.2,250.4,377.4,252.2z"/>
				<path class="st45" d="M380.9,227c-0.1,0-0.3-0.1-0.4-0.1c0,5.9,0.1,13.2-1.2,19.5c1.1,3.2,2.6,6.4,3.5,9.1
					C386.8,246.7,386.2,235.4,380.9,227z"/>
				<path class="st46" d="M378.3,226.8c0,0,0.1,0,0.1,0c0.7-0.1,1.4,0,2.1,0.2c0-0.1,0-0.1,0-0.2C380.5,226.4,378,226.7,378.3,226.8
					z"/>
				<path class="st47" d="M382.9,262.1c1.1-1.6,0.7-3.9-0.2-6.6c-0.3,0.6-0.6,1.2-0.9,1.8c-4.8,7.6-11.9,6.7-19.2,3.9
					c-0.5,0.5-0.6,1.2,0.3,2.1c1.8,2.1,5.2,2.4,7.8,2.7c2.3,0.3,4.5,0.6,6.7,0.6C379.8,265.9,381.8,264.4,382.9,262.1z"/>
				<path class="st45" d="M387.3,235.1c-1.2-3-3.2-7-6.5-8.1c5.3,8.4,5.9,19.7,1.9,28.5c0.9,2.7,1.2,5,0.2,6.6
					c-1.2,2.3-3.1,3.8-5.5,4.5c1.9,0,3.8-0.2,5.7-0.8c5.6-1.8,6.9-6.6,7.2-11.9C390.7,247.6,389.6,241,387.3,235.1z"/>
				<path class="st22" d="M361.7,320.4c0,1-0.8,1.8-1.8,1.8c-1,0-1.8-0.8-1.8-1.8c0-1,0.8-1.8,1.8-1.8
					C360.9,318.5,361.7,319.4,361.7,320.4z"/>
				<path class="st22" d="M371.3,324.2c0,1-0.8,1.8-1.8,1.8c-1,0-1.8-0.8-1.8-1.8c0-1,0.8-1.8,1.8-1.8
					C370.5,322.4,371.3,323.2,371.3,324.2z"/>
				<path class="st22" d="M383.1,327.4c0,1-0.8,1.8-1.8,1.8c-1,0-1.8-0.8-1.8-1.8c0-1,0.8-1.8,1.8-1.8
					C382.3,325.5,383.1,326.4,383.1,327.4z"/>
				<path class="st22" d="M395.4,328.8c0,1-0.8,1.8-1.8,1.8c-1,0-1.8-0.8-1.8-1.8c0-1,0.8-1.8,1.8-1.8
					C394.6,327,395.4,327.8,395.4,328.8z"/>
				<path class="st22" d="M408.7,329.2c0,1-0.8,1.8-1.8,1.8c-1,0-1.8-0.8-1.8-1.8c0-1,0.8-1.8,1.8-1.8
					C407.9,327.4,408.7,328.2,408.7,329.2z"/>
				<path class="st22" d="M421.4,329.2c0,1-0.8,1.8-1.8,1.8c-1,0-1.8-0.8-1.8-1.8c0-1,0.8-1.8,1.8-1.8
					C420.6,327.4,421.4,328.2,421.4,329.2z"/>
				<path class="st22" d="M433.3,329.2c0,1-0.8,1.8-1.8,1.8c-1,0-1.8-0.8-1.8-1.8c0-1,0.8-1.8,1.8-1.8
					C432.4,327.4,433.3,328.2,433.3,329.2z"/>
				<path class="st22" d="M446.6,328.9c0,1-0.8,1.8-1.8,1.8c-1,0-1.8-0.8-1.8-1.8c0-1,0.8-1.8,1.8-1.8
					C445.7,327.1,446.6,327.9,446.6,328.9z"/>
				<path class="st22" d="M457.8,327.4c0,1-0.8,1.8-1.8,1.8s-1.8-0.8-1.8-1.8c0-1,0.8-1.8,1.8-1.8S457.8,326.4,457.8,327.4z"/>
				<path class="st22" d="M469.4,326.1c0,1-0.8,1.8-1.8,1.8c-1,0-1.8-0.8-1.8-1.8c0-1,0.8-1.8,1.8-1.8
					C468.5,324.2,469.4,325,469.4,326.1z"/>
				<path class="st22" d="M480.6,323.9c0,1-0.8,1.8-1.8,1.8c-1,0-1.8-0.8-1.8-1.8c0-1,0.8-1.8,1.8-1.8
					C479.8,322,480.6,322.9,480.6,323.9z"/>
				<path class="st22" d="M492.2,321.1c0,1-0.8,1.8-1.8,1.8c-1,0-1.8-0.8-1.8-1.8c0-1,0.8-1.8,1.8-1.8
					C491.3,319.2,492.2,320,492.2,321.1z"/>
				<path class="st22" d="M501.8,318.1c0,1-0.8,1.8-1.8,1.8c-1,0-1.8-0.8-1.8-1.8c0-1,0.8-1.8,1.8-1.8
					C501,316.3,501.8,317.1,501.8,318.1z"/>
				<path class="st45" d="M418.6,228.9c-0.8,0-2.3,3.8-1.5,5.4c0.8,4.1,0.7,8.4-0.2,12.6c0.8,5.5,1.3,10.6-1.7,15.2
					c-4.9,6.8-13.1,6.5-20.8,3.8c-0.4-0.1-0.7-0.1-1.1-0.2c-1.2-0.2-2.3-0.5-3.3-0.9c3.9,2.6,8.8,3.5,13.4,3.6
					c5.2,0.1,10.8-0.9,15.3-3.6c1.2-0.2,2.4-0.9,3.5-1.4c2-0.9,4.1-1.5,6.2-1.8C428.1,249.7,432.6,231.7,418.6,228.9z"/>
				<path class="st47" d="M415.2,262.1c3-4.6,2.6-9.7,1.7-15.2c-2.4,11.3-10.7,21-22.5,19C402,268.6,410.3,268.9,415.2,262.1z"/>
				<path class="st44" d="M473.1,239.7c3-5.5,2.6-11.8-0.1-16.6c-3.1-1.9-6.3-3.4-9.6-4.7c-3.3-1.4-6.8-2.7-10.2-4.2
					c-6.2-0.1-12.3,0.6-18.5-0.5c-13-1.5-17.6-15.3-14.6-27.6c6.1-21.5,19.2-48.3-3.8-65.2c-2-1.3-3.4-5.5-2.3-9.1
					c-0.2-0.1-0.3-0.2-0.5-0.3c-2.9-1.5-6.6-1-9.3,0.6c-3.2,1.9-4.1,5.6-4.4,9.1c-0.3,3-1.7,10.4-1.9,12.5
					c3.8,8.7,18.5,10.3,23.7,15.5c6.9,7.7-0.8,23-10.7,30.7c-7.7,6-15.9,11.8-23.6,17.9c-0.7,1.6-1.4,3.3-2,5
					c4.4-3.1,9.5-4.6,14.9-3.6c7.7,1.5,9.2,10.7,7.7,17.6c-3.1,12.3-11.5,23.8-7.7,36.8c1.5,3.7,6.6,8.2,11.1,5.6
					c5.2-6.5,7.5-16.3,5.8-24.8c-0.8-1.5,0.8-5.4,1.5-5.4c14,2.8,9.5,20.8,9.7,32.7c0.4-0.1,0.8-0.1,1.1-0.2
					c5.7-0.8,11.6-0.9,17.4-0.8c0.1,0,0.3,0,0.4,0c-0.4-0.4-0.7-0.7-1.1-1.1c-2.5-3.8-0.9-8.6,2.3-10.6c-0.8,0.2-1.6,0.4-2.3,0.7
					c0.8-0.3,1.5-0.5,2.3-0.7c0.7-0.4,1.5-0.7,2.3-0.9c1.3-0.2,2.6-0.3,3.8-0.2C461.9,246.9,469.3,246.2,473.1,239.7z"/>
				<path class="st48" d="M416.3,120.8c23,16.9,10,43.7,3.8,65.2c-3.1,12.3,1.5,26.1,14.6,27.6c6.2,1,12.3,0.3,18.5,0.5
					c-6.8-3-13.2-6.7-17.9-12.4c-6.1-7.4-7.3-17.3-6.9-26.5c0.8-16.6,11.2-49.8-8.6-57c-1-0.8-2-1.7-2.8-3c-0.8-1.4-1.7-2.5-3.1-3.4
					C413,115.3,414.4,119.4,416.3,120.8z"/>
				<path class="st48" d="M473,223c2.7,4.9,3.1,11.1,0.1,16.6c-3.8,6.6-11.2,7.3-18.5,8.3c6.8,0.5,12.7,5.2,19.2,3.2
					c8.8-2.3,10.4-10,10.4-17.9C481.4,229,477.4,225.7,473,223z"/>
				<path class="st48" d="M400.2,253.5c-3.8-13,4.6-24.5,7.7-36.8c1.5-6.9,0-16.1-7.7-17.6c-5.4-1-10.5,0.6-14.9,3.6
					c-1.1,2.7-2,5.5-3,8.2c-1.7,5.1-3.1,10.3-3.6,15.6c-0.5,4.6,0.1,9.3,0.7,13.8c1.1,7.9,2.9,16.6,8.5,22.6
					c-0.1,0.1-0.1,0.3,0.1,0.4c0.6,0.6,1.3,1.1,1.9,1.5c1.1,0.3,2.2,0.6,3.3,0.9c7.6,1.7,13.7-1.4,18-6.6
					C406.8,261.6,401.7,257.2,400.2,253.5z"/>
				<path class="st45" d="M487.7,244.4c0-0.2,0-0.3,0-0.5c-1.7,5.6-4.1,10.7-10.2,13.3c-9.1,4.9-18.9,0.7-27.3-4.2
					c-1.3-0.6-2.2-1.8-2.7-3.2c0,0,0,0-0.1,0.1c-0.6,1.2-0.6,2.4,0.3,3.2c7.2,7.9,25.9,13.4,35.9,6.7c-0.4-0.1-0.7-0.2-1-0.3
					c-1.5-0.6-0.7-2.8-0.2-3.8C484.2,251.6,487.5,249,487.7,244.4z"/>
				<path class="st47" d="M450.2,253c8.4,4.9,18.2,9.1,27.3,4.2c6.1-2.5,8.5-7.7,10.2-13.3c0.1-3.8-1.4-7.5-3.5-10.7c0,0,0,0,0,0
					c0.1,7.9-1.6,15.6-10.4,17.9c-7.7,2.3-14.6-4.6-23-3.1c-1.3,0.2-2.4,0.8-3.3,1.7C448,251.2,449,252.4,450.2,253z"/>
				<path class="st44" d="M488,261.6c-0.9-1.1-2-1.5-3.3-1.7c-0.3-0.1-0.7-0.1-1-0.2c-10.1,6.8-28.7,1.2-35.9-6.7
					c-0.9-0.9-0.8-2-0.3-3.2c-2.5,2.3-3.5,6.4-1.2,9.8c0.4,0.4,0.7,0.7,1.1,1.1c6,0.2,11.7,1.1,17.6,2.5c3.2,0.8,6.4,1.8,9.7,2.4
					c2.6,0.5,5.3,0.9,7.9,1c1.8,0.1,4.4,0.2,5.9-1C489.8,264.4,488.9,262.8,488,261.6z"/>
				<path class="st47" d="M421.7,149.1c-5.2-5.2-19.8-6.8-23.7-15.5c0,0.5-0.1,1-0.1,1.5c-0.1,3.7,1.3,10,2.8,13.4
					c2.4,5.3,5.2,10.1,4,16.1c-1.1,5.7-5,10.7-7.9,15.5c-3,4.8-5.9,9.7-8.3,14.8c-0.4,0.9-0.8,1.8-1.2,2.7
					c7.8-6.1,15.9-11.9,23.6-17.9C420.9,172.2,428.6,156.8,421.7,149.1z"/>
				<path class="st48" d="M433.2,266.5c-13.5-9.8-15.3-29.1-11.7-45.1c-1.5,1.4-4.6,5.2-4.6,11.2c0.1,3.8,2,19.3,2.3,23.1
					c0.3,3.4,1.3,6.2,3.4,8.9c4.2,5.4,11.3,8.4,17.9,9.9c3.7,0.8,7.7,1.6,11.3,0.4c1.1-0.4,2.1-0.9,3.1-1.5
					C447.2,273.3,439.5,271.2,433.2,266.5z"/>
				<path class="st45" d="M460.1,271.3c1-0.2,2-0.3,3-0.3c0.2,0,0.3-0.1,0.4-0.3c0.4-1.7-1.4-2.7-2.8-3.3c-2.6-1-5.4-1.5-8.1-2.1
					c-3.1-0.7-6.2-1.9-8.9-3.4c-4-2.3-5.3-6.1-6.4-10.3c-1.9-7.2-3-15-5.8-22c0.5,10.4,2.7,20.7,7.6,30.4
					C443,268.1,452.3,268.1,460.1,271.3z"/>
				<path class="st47" d="M439,260c-4.9-9.8-7.1-20.1-7.6-30.4c-0.4-1-0.8-1.9-1.3-2.9c-1.1-2.2-4.7-8.9-7.6-6.2
					c-0.1,0-0.2,0.1-0.3,0.2c0,0,0,0,0,0.1c0,0-0.3,0.3-0.7,0.7c-3.6,15.9-1.8,35.3,11.7,45.1c6.3,4.7,13.9,6.8,21.7,6.8
					c0.6-0.3,1.1-0.6,1.7-0.9c1.1-0.5,2.3-0.9,3.5-1.1C452.3,268.1,443,268.1,439,260z"/>
				<path class="st45" d="M407.9,110.6c-0.1,0.1-0.2,0.2-0.2,0.3c0,0.7,0.2,1.3,0.6,1.9c-1.5,1.1-2.4,3-3.1,4.6
					c-1,2.2-1.6,4.7-1.7,7.2c0,0,0,0,0,0c-0.2-0.1-0.4-0.2-0.6-0.3c-0.4-0.2-0.8,0.4-0.4,0.7c1,0.5,2.2,1.4,3.4,1.1
					c0.5-0.1,0.3-0.9-0.2-0.7c-0.5,0.1-1.1-0.1-1.6-0.4c0.1-0.1,0.2-0.2,0.2-0.3c0.1-2,0.6-4.1,1.3-6c0.6-1.7,1.6-4,3.3-5.2
					c2.5,2.4,8,2.9,7.9-1.3C416.7,108.1,409.2,107.1,407.9,110.6z"/>
				<g>
					<g>
						<path class="st45" d="M423,122.3c-1.1-1.1-3.1-1.5-4.5-0.8c-1.5,0.7-0.4,2.6,0.6,3.2c1.3,0.8,3.2,0.5,4.2-0.6
							c0.4,1,0.5,2.3,0.4,3.4c0,0.5,0.7,0.5,0.8,0C424.6,125.7,424.5,123.7,423,122.3z"/>
					</g>
				</g>
				<g>
					<path class="st49" d="M404,51.4c-0.2,0.1-0.4,0.2-0.7,0.3V51v0.8C403.5,51.6,403.7,51.5,404,51.4c0.3-0.2,0.6-0.3,0.9-0.5
						C404.5,51.1,404.2,51.3,404,51.4c4.1-1.9,9.1-2.7,13.4-1.8c3.5-0.7,7.1-0.9,10.6-0.3c-0.3-0.5-0.7-1.1-1.1-1.6
						c-3.2-1.4-6.5-2.4-8.6-2.4c-22.7,0-30,10.5-33.3,25c-0.7,3.2-0.9,6.3-0.7,9.3c0.6,1.1,1.2,2.1,2,3.1c0.8-5.2,2.8-10.3,5.7-14.9
						C390.9,60.8,397.3,55,404,51.4z"/>
					<path class="st50" d="M404.6,55c3.2-2.4,7.8-4.4,12.7-5.4c-4.3-0.9-9.3-0.1-13.4,1.8c-6.7,3.5-13,9.4-12,16.5
						C395.2,62.9,399.5,58.5,404.6,55z"/>
					<path class="st51" d="M385.9,87.8c0-1.7,0.1-3.3,0.4-5c-0.7-1-1.4-2-2-3.1C384.5,82.5,385,85.2,385.9,87.8z"/>
					<path class="st49" d="M433.1,50.9c-1.8-1.1-4-2.2-6.2-3.1c0.4,0.5,0.7,1.1,1.1,1.6C429.7,49.7,431.4,50.2,433.1,50.9z"/>
					<path class="st52" d="M435.2,52.3c-0.7-0.5-1.4-0.9-2.1-1.4c-1.6-0.7-3.4-1.2-5.1-1.5c0.9,1.5,1.8,3.1,2.6,4.7
						C432.1,53.4,433.6,52.8,435.2,52.3z"/>
					<path class="st53" d="M425.5,56.3c0,0,0,0.1,0,0.1c1.6-0.9,3.3-1.7,5-2.4c-0.8-1.6-1.6-3.2-2.6-4.7c-3.5-0.6-7.2-0.4-10.6,0.3
						C421,50.4,424.2,52.5,425.5,56.3z"/>
					<path class="st53" d="M392.6,70.1c-0.3-0.8-0.5-1.5-0.6-2.2c-2.9,4.6-4.9,9.7-5.7,14.9c1.5,2.1,3.4,4,5.5,5.7
						c0.8,0.5,1.5,1,2.3,1.4c2.3-4.2,4.8-8.2,7.6-12C397.5,76.7,393.9,73.8,392.6,70.1z"/>
					<path class="st54" d="M425.6,56.5c0,0,0-0.1,0-0.1c-1.4-3.8-4.5-5.9-8.2-6.7c-4.9,1-9.5,3-12.7,5.4c-5.2,3.5-9.5,7.9-12.7,12.9
						c0.1,0.7,0.3,1.5,0.6,2.2c1.4,3.7,5,6.5,9.1,7.9C408.1,69.2,415.9,61.7,425.6,56.5z"/>
					<path class="st52" d="M386.3,82.8c-0.2,1.6-0.4,3.3-0.4,5c1.1,3.2,2.7,6.2,4.8,8.8c1.1-2.2,2.2-4.4,3.4-6.6
						c-0.8-0.4-1.6-0.9-2.3-1.4C389.6,86.9,387.8,84.9,386.3,82.8z"/>
					<path class="st55" d="M440.7,56.9c-0.8-0.8-1.6-1.6-2.5-2.3c-1.2,3.7-2.5,7.3-4.1,10.7c1.4,9.1-1,18.3-10.1,24.1
						c-3.1,1.9-6.5,3.2-9.9,3.9c-4.4,4.1-9.3,7.8-14.5,11c0.8,0.4,1.5,0.9,2.3,1.3c2.2,0.3,4.3,0.5,6.5,0.3
						C433.5,103,443.6,79.9,440.7,56.9z"/>
					<path class="st36" d="M434.1,65.3c-4.9,10.9-11.7,20.3-20,28c3.4-0.7,6.8-2,9.9-3.9C433.1,83.5,435.5,74.4,434.1,65.3z"/>
					<path class="st56" d="M438.2,54.6c-1-0.8-1.9-1.6-3-2.3c-1.6,0.5-3.1,1.1-4.7,1.8c1.7,3.6,3,7.4,3.6,11.2
						C435.7,61.8,437,58.3,438.2,54.6z"/>
					<path class="st56" d="M394.1,90c-1.2,2.2-2.3,4.4-3.4,6.6c2.4,3,5.4,5.6,8.9,7.7c5.2-3.2,10-6.8,14.5-11
						C407.4,94.6,400.4,93.6,394.1,90z"/>
					<path class="st57" d="M430.6,54c-1.7,0.7-3.4,1.5-5,2.4c3.7,9.9-6.2,19.1-15.4,22.1c-2.8,0.6-5.8,0.4-8.5-0.5
						c-2.8,3.8-5.3,7.8-7.6,12c6.3,3.6,13.3,4.6,20,3.3c8.3-7.7,15.1-17.1,20-28C433.5,61.4,432.3,57.6,430.6,54z"/>
					<path class="st58" d="M410.2,78.6c9.2-3.1,19.1-12.2,15.4-22.1c-9.7,5.2-17.5,12.8-23.9,21.6C404.4,78.9,407.4,79.2,410.2,78.6
						z"/>
					<path class="st59" d="M446.5,65.3c-1.6-3.3-3.6-6.1-5.8-8.4c3,23-7.2,46.1-32.2,48.9c-2.2,0.1-4.3,0-6.5-0.3
						c1.1,0.5,2.2,0.9,3.3,1.3c16.2,5.5,35.6-3.5,42.1-19.1C450.3,80.7,449.8,72.1,446.5,65.3z"/>
				</g>
				<path class="st60" d="M498.6,275.4c-0.3-0.4-0.9,0.2-0.5,0.5c0.9,1.1,1.1,3.2,0.8,4.5c-0.4,1.9-2.7,1.1-3.6,0.3
					c-0.6-0.5-1-1.2-1.2-1.9c-0.1-0.3-0.1-0.6-0.2-0.8c-0.1-0.5-0.8-0.3-0.7,0.2c0,0.2,0.1,0.5,0.2,0.7c0.3,1.3,0.2,2.8-1,3.6
					c-1.3,0.8-2.3-0.2-2.7-1.3c0-0.2-0.1-0.5-0.1-0.7c-0.1-0.4-0.8-0.3-0.8,0.1c0,0.3,0.1,0.6,0.1,0.8c0.1,2.8-3.5,3.7-4.6,2
					c0-0.4-0.1-0.7-0.4-1.1c0-0.2,0-0.3,0-0.5c0-0.5-0.7-0.5-0.8,0c0,0.2,0,0.4,0,0.6c0,0,0,0.1,0,0.1c0,0.4,0.1,0.8,0.3,1.1
					c-0.1,2.1-4,4.3-5,1.8c0-0.6-0.1-1.1-0.2-1.6c-0.1-0.4-0.7-0.3-0.8,0.1c0,0.6,0,1.1,0.2,1.6c-0.3,2.7-3.7,3.9-4.7,1.1
					c0-0.2-0.1-0.4-0.2-0.7c-0.2-0.5-0.8-0.3-0.7,0.2c0,0.2,0.1,0.4,0.2,0.7c0.5,3.4-4.6,3.7-4.9,0.7c0-0.1,0-0.2,0-0.4
					c0-0.5-0.7-0.5-0.8,0c0,0.2,0,0.3,0,0.5c0,1.5-0.3,3.4-2.1,3.5c-1.7,0.1-2.7-2-3-3.4c-0.1-0.5-0.8-0.3-0.7,0.2
					c0,0.1,0.1,0.2,0.1,0.3c-0.1,0.1-0.1,0.2-0.1,0.3c0.8,4.2-5.2,6.5-5.7,2.4c0-0.3,0-0.7,0-1c-0.1-0.5-0.7-0.5-0.8,0
					c0,0.4,0,0.7,0,1.1c-0.1,1.2-0.6,2.3-2,2.6c-1.8,0.5-2.7-1.4-2.9-2.9c0-0.1,0-0.3,0-0.4c-0.1-0.5-0.8-0.5-0.8,0
					c0,0.2,0,0.4,0,0.5c0.1,1.3-0.4,2.6-1.8,3c-1.9,0.6-2.6-1.5-2.5-2.9c0-0.5-0.7-0.5-0.8,0c-0.1,1.5-0.6,4-2.6,3.5
					c-0.8-0.2-1.2-0.8-1.5-1.5c0.1-0.6,0-1.2-0.2-1.7c0-0.1-0.1-0.2-0.2-0.2c0-0.2,0-0.3,0-0.5c0-0.5-0.7-0.5-0.8,0
					c0,0.8,0.1,1.7,0.4,2.5c-0.2,0.9-0.7,1.6-1.8,2c-2.1,0.7-2.8-1.4-2.7-3c0-0.2,0-0.3,0-0.4c0-0.4-0.7-0.5-0.8-0.1
					c0,0,0,0.1,0,0.1l0,0c0,0,0,0.1,0,0.1c0,0.1,0,0.1,0,0.2c-0.2,1.6-1,3.3-2.9,3.3c-2,0-2.6-2.3-2.6-3.9c0-0.5-0.7-0.5-0.8,0
					c-0.1,1.4-0.5,3.2-2.3,2.8c-1.5-0.3-2.3-1.9-2.4-3.3c0-0.5-0.8-0.5-0.8,0c0,0,0,0.1,0,0.1c0,0,0,0.1,0,0.1
					c0.1,1.9-0.6,4.1-2.8,4.3c-2.3,0.1-2.7-2.6-2.5-4.3c0-0.4-0.7-0.5-0.8-0.1c-0.3,1.5-1,3.8-2.9,3.4c-1.6-0.3-2.1-2.3-2.2-3.8
					c0-0.3,0-0.5,0-0.8c0-0.5-0.7-0.5-0.8,0c0,0.3,0,0.5,0,0.8c-0.1,1.4-0.7,2.7-2.4,2.8c-1.9,0-2.4-1.7-2.2-3.2
					c0.1-0.2,0.1-0.4,0.1-0.6c0,0,0,0,0,0c0,0,0,0,0,0c0,0,0-0.1,0-0.1c0,0,0,0,0,0c0,0,0,0,0,0c0-0.2-0.1-0.3-0.3-0.3c0,0,0,0,0,0
					c0,0,0,0-0.1,0c-0.2,0-0.3,0.1-0.4,0.3c-0.1,0.3-0.1,0.6-0.2,0.9c-0.4,1.5-1.6,2.7-3.3,2.7c-2.4,0-2.4-2.7-1.9-4.4
					c0.1-0.5-0.6-0.7-0.7-0.2c-0.6,1.6-1.9,3.1-3.8,3.1c-1.7,0.1-2.1-1.3-2.1-2.7c0.1-0.4,0.2-0.9,0.2-1.4c0-0.4-0.7-0.6-0.8-0.1
					c-0.1,0.4-0.2,0.9-0.2,1.3c-1,2.4-6.1,1.5-4.5-2.6c0.1-0.3-0.2-0.5-0.4-0.4c-0.1-0.4-0.8-0.2-0.7,0.2c0.4,2.8-3.6,3.8-4.5,1.1
					c-0.3-1,0-2.4,0.2-3.4c0,0,0,0,0,0c0,0,0,0,0,0c0,0,0-0.1,0-0.1c0-0.4-0.6-0.5-0.8-0.1c-1.1,3.6-5.4,3.1-5.2-0.1
					c0.1-0.4,0.2-0.8,0.3-1.3c0-0.5-0.6-0.5-0.8-0.1c-0.1,0.4-0.2,0.8-0.3,1.2c-0.5,1.1-1.7,1.4-3.1,0.6c-1.7-0.9-1.7-2.5-1.6-4.2
					c0,0,0,0,0,0c0-0.1,0-0.1,0-0.2c0,0,0-0.1,0-0.1c0-0.5-0.7-0.5-0.8,0c0,0.1,0,0.1,0,0.2c-0.6,1.5-2,4.2-4,3.1
					c-1.9-1.1-0.9-4.3-0.3-5.7c0.2-0.4-0.4-0.8-0.7-0.4c-0.7,1.2-1.5,2.3-2.7,3c-1.7,1-1.8-2.1-1.6-3c0.2-0.8,0.5-1.5,0.6-2.4
					c0.1-0.5-0.7-0.5-0.8,0c-0.2,1.8-2,5.4,0.7,6.3c1,0.4,2.1-0.5,3-1.5c-0.3,1.7-0.1,3.5,1.5,4.5c1.8,1,3.3-0.5,4.2-2.1
					c0.1,1.6,0.7,3,2.6,3.6c1.2,0.4,2.1,0.2,2.8-0.4c0.2,1,0.8,1.9,2,2.3c1.5,0.5,2.8-0.2,3.7-1.3c-0.1,1.6,0.1,3.2,1.9,3.7
					c1.4,0.4,2.7,0,3.5-0.9c0.5,2.6,4,3.2,5.7,1.7c0.2,1.2,0.9,2.2,2.4,2.4c1.6,0.2,2.9-0.6,3.9-1.8c0,1.6,0.7,3.1,2.6,3.3
					c1.6,0.2,2.9-0.6,3.7-1.8c0.3,1.2,1.1,2.1,2.6,2.4c1.5,0.2,2.5-0.6,3-1.7c0.4,1.2,1.1,2.3,2.4,2.7c1.5,0.5,2.6-0.6,3.2-1.9
					c0.3,1.5,1.3,2.8,3.2,2.9c1.9,0.1,3-1.5,3.4-3.2c0.5,1,1.4,1.8,2.6,2c1.3,0.3,2.1-0.5,2.6-1.5c0.5,1.3,1.4,2.4,3,2.6
					c1.5,0.2,2.5-0.8,3.1-2.1c0.4,1.2,1.3,2,2.8,1.9c1.3-0.1,2.2-0.8,2.6-1.8c0.4,0.7,1.1,1.1,1.9,1.2c1.5,0.2,2.4-0.9,2.8-2.1
					c0.4,0.9,1.2,1.6,2.5,1.6c1.4,0,2.3-0.9,2.7-2.1c0.5,1.1,1.5,1.9,3,1.8c1.3-0.1,2.2-0.9,2.6-2c0.6,1.1,1.7,1.8,3.4,1.4
					c2-0.4,3.2-2.1,3.5-4c0.6,1.1,1.6,1.9,3,2c1.6,0.1,2.4-1.2,2.7-2.7c1.5,1.8,5.1,1.4,5.7-1c0.7,0.8,1.8,1.2,3.2,0.8
					c1.2-0.4,1.9-1.2,2.2-2.2c1.6,1.6,5.1,0,5.9-2.2c1.6,1.2,4.6,0.5,5.4-1.8c0.5,0.7,1.4,1,2.4,0.9c1.6-0.2,2.2-1.5,2.3-3
					c1.1,1.5,2.9,2.4,4.6,1.2C500.6,280.5,499.8,276.8,498.6,275.4z"/>
			</g>
		</g>
	</g>
</g>
</svg>
