<svg height="128" viewBox="0 0 70 128" width="70" xmlns="http://www.w3.org/2000/svg"><g fill="#fff" fill-rule="evenodd"><path d="m34.718.454c22.9361147 0 34.404 17.0608294 34.404 51.183 0 16.4500822-2.8669713 28.9519572-8.601 37.506s-14.1469445 12.831-25.239 12.831c-22.9361147 0-34.404-16.8728313-34.404-50.619 0-16.6380832 2.86697133-29.2809568 8.601-37.929 5.7340287-8.64804324 14.1469445-12.972 25.239-12.972zm.141 13.536c-2.8200141 0-5.2639897.5404946-7.332 1.6215s-3.7364937 2.725989-5.0055 4.935-2.2794962 4.417989-3.0315 6.627-1.2924984 5.0054831-1.6215 8.3895-.5404995 6.180489-.6345 8.3895-.141 5.0054831-.141 8.3895c0 12.6900634 1.4334857 21.9019713 4.3005 27.636s7.4494685 8.601 13.7475 8.601c2.4440122 0 4.6294904-.4934951 6.5565-1.4805s3.5014939-2.185493 4.7235-3.5955c1.2220061-1.4100071 2.2559958-3.2899883 3.102-5.64.8460042-2.3500118 1.4804979-4.4884904 1.9035-6.4155s.7519988-4.3239857.987-7.191.3759998-5.0759922.423-6.627.0705-3.5484878.0705-5.9925c0-3.196016-.0234998-5.6634913-.0705-7.4025s-.2114986-4.3709824-.4935-7.896-.822496-6.3684892-1.6215-8.5305-1.8329937-4.4179883-3.102-6.768c-1.2690063-2.3500118-2.9844892-4.1124941-5.1465-5.2875s-4.6999854-1.7625-7.614-1.7625z"/><path d="m19.9575 112.164v1.449c.7280036-1.176006 1.9039919-1.764 3.528-1.764 1.4980075 0 2.6949955.524995 3.591 1.575s1.344 2.449991 1.344 4.2c0 1.708009-.4374956 3.076495-1.3125 4.1055s-2.0404927 1.5435-3.4965 1.5435c-1.5400077 0-2.7159959-.566994-3.528-1.701v5.439h-2.373v-14.847zm3.045 1.617c-.9380047 0-1.6729973.335997-2.205 1.008s-.798 1.602994-.798 2.793c0 1.176006.2694973 2.099997.8085 2.772s1.2844952 1.008 2.2365 1.008c.9100046 0 1.6309973-.335997 2.163-1.008s.798-1.581994.798-2.73c0-1.176006-.2694973-2.110497-.8085-2.8035s-1.2704954-1.0395-2.1945-1.0395zm17.052-1.617-4.011 10.626c-.0420002.098-.1189994.304498-.231.6195s-.1889998.528499-.231.6405-.1224994.307999-.2415.588-.2134996.475999-.2835.588l-.315.504c-.1400007.224001-.2694994.385-.3885.483s-.2659991.220499-.441.3675-.3534991.252-.5355.315-.3884988.119-.6195.168-.4794987.0735-.7455.0735c-.4480022 0-1.0009967-.042-1.659-.126v-2.016c.5040025.098.9239983.147 1.26.147.1680008 0 .3219993-.0245.462-.0735s.2659994-.132999.378-.252.2099996-.230999.294-.336.1644996-.251999.2415-.441.1364998-.335999.1785-.441.0979997-.269499.168-.4935.1119999-.364.126-.42l-4.158-10.521h2.625l2.898 7.98 2.73-7.98zm11.76 5.544c0 1.694008-.4759952 3.048495-1.428 4.0635s-2.2189921 1.5225-3.801 1.5225c-2.4360122 0-4.0739958-1.00099-4.914-3.003-.3640018-.840004-.546-1.980993-.546-3.423 0-2.842014.4549955-4.962993 1.365-6.363.4760024-.728004 1.0569966-1.270498 1.743-1.6275s1.5539948-.5705 2.604-.6405c.1260006-.014.2974989-.028.5145-.042s.3709995-.0245.462-.0315.2099993-.021.357-.042.2519997-.042.315-.063.1364996-.049.2205-.084.1469998-.0805.189-.1365.0839998-.119.126-.189h2.394c-.0420002.252001-.1014996.482999-.1785.693s-.1574996.391999-.2415.546-.2064992.293999-.3675.42-.2939995.231-.399.315-.2694989.161-.4935.231-.3989994.1225-.525.1575-.3289986.07-.609.105-.4864993.0595-.6195.0735-.3639984.0315-.693.0525-.5634993.0385-.7035.0525c-1.9320097.154001-3.198997 1.511987-3.801 4.074h.063c.4620023-.742004 1.0009969-1.298498 1.617-1.6695s1.427995-.5565 2.436-.5565c1.400007 0 2.5689953.510995 3.507 1.533s1.407 2.365992 1.407 4.032zm-2.394 0c0-1.106006-.2694973-1.994997-.8085-2.667s-1.2494956-1.008-2.1315-1.008-1.5924973.332497-2.1315.9975-.8085 1.557494-.8085 2.6775.2694973 2.015997.8085 2.688 1.2494956 1.008 2.1315 1.008 1.5924973-.335997 2.1315-1.008.8085-1.567994.8085-2.688z" opacity=".4"/></g></svg>