<svg height="67" viewBox="0 0 73 67" width="73" xmlns="http://www.w3.org/2000/svg"><path d="m62.3226616 0-1.42059.36741114-13.1519147 3.53633218c-.0801938.01722276-.1489321.02296319-.2291274.04592639l-32.7652228 8.81786729-13.33521662 3.5822585-1.42059008.3674112.36660389 1.4237181 3.16195857 11.6653036v.0918528l4.94915254 18.3246303v18.1409249h64.522285v-38.2107581h-3.1161331l-7.1946014-26.77508654zm-2.1079723 3.58225857 1.6497175 6.20006291c-.3035935-.07463001-.6186441-.17796513-.9165098-.22963195-.9279653-.14926004-1.8043788-.2353724-2.5204017-.32148475s-1.2659287-.24111282-1.3289391-.27555835c-.0572811-.03444406-.4525271-.41907796-.9165097-1.01038062-.4639827-.59130267-1.0597141-1.34334623-1.787194-2.06668764-.183302-.18370557-.3837888-.378892-.5957313-.5511167zm-10.5856874 3.03114187c1.1685499-.00574043 1.9017577.53389394 2.7037037 1.33186537.5327209.53389394 1.0138885 1.20556852 1.512241 1.83705567.4983526.63148862.9680631 1.26871622 1.787194 1.74520292.819131.4707462 1.6096199.5396358 2.4287508.6429695.8191309.1033351 1.6726303.1492615 2.4287508.2755583.7561205.1262983 1.3804924.3157443 1.787194.5511167.3723317.2181511.5613629.4075971.6873823.7807487.0114571.0344455.0343698.0516668.0458254.0918528l3.8035154 14.2831079h-17.4136848c.0572825-1.5614974-.1202916-3.1689211-.5499059-4.7763448-1.5523387-5.8039481-6.1005175-10.0291762-11.2730697-10.9764077-.8592271-.1550019-1.7299113-.2181496-2.6120527-.1837055-.8821399.0344455-1.770009.1722247-2.6578782.4133375-6.4843064 1.7452029-10.3279194 8.4849016-9.3942247 15.5231205h-14.4350283v8.7719408l-2.15379786-7.9911922c-.05155331-.3272251-.01145564-.5798203.18330194-.9185278.23485526-.4075971.69311012-.9357506 1.28311363-1.4237182.5900035-.4879675 1.31175418-.9242682 1.97049592-1.4237181.65874177-.4994499 1.27165797-.9701947 1.74136847-1.7911293h.0458255c.4754398-.8209346.5269931-1.5959414.6415568-2.3881724.1145637-.7922295.2176718-1.6131641.4124294-2.342246.3952444-1.4581622.9165097-2.4857656 2.9328311-3.0311418l32.7652229-8.81786729c.5040803-.13777918.9394224-.18370557 1.3289391-.18370557zm-14.5725047 8.49638256c4.7601228-.155002 9.4629629 3.473183 10.9522912 9.0474992.3608761 1.3548285.5155375 2.6981762.4582549 3.9955961h-20.5756434c-.9680631-5.8900591 2.1308851-11.3725225 7.1487759-12.7216106.6759266-.1837056 1.3346669-.2985216 2.0163214-.3214847zm21.7671061 1.7452028c-2.8182675 0-5.1324545 2.3192828-5.1324545 5.1437559s2.314187 5.1437559 5.1324545 5.1437559c2.8182674 0 5.1324545-2.3192828 5.1324545-5.1437559s-2.3141871-5.1437559-5.1324545-5.1437559zm-46.83364724.2755584c-.09737879.2525952-.16038921.4879675-.22912743.7348223-.2692251.9931578-.34941897 1.9174276-.45825487 2.6637307-.1088359.7463046-.28640856 1.3203845-.32077841 1.3777918-.03436838.0631491-.43534212.4822271-1.0081607.9185278s-1.28884144.9185278-2.0163214 1.5155709c-.24631236.2009284-.49262325.4133376-.73320779.6429695l-1.64971751-6.1541365zm46.83364724 2.6637307c1.2315603 0 2.1996233.9701947 2.1996233 2.2044668 0 1.2342722-.968063 2.2044669-2.1996233 2.2044669-1.2315604 0-2.1996234-.9701947-2.1996234-2.2044669 0-1.2342721.968063-2.2044668 2.1996234-2.2044668zm-45.4130572 11.2978924h6.6446956c-.1603892.2181511-.2806808.4650044-.4124294.6888959-.515536.8898242-.893597 1.7911293-1.1914626 2.4800252-.2978657.6888959-.5957314 1.1481598-.6415569 1.1940862-.0515533.0516668-.5212652.3731516-1.1914626.6429695s-1.4836005.5798203-2.3370998.9644542c-.2864086.1320387-.5785464.304262-.8706843.4592639zm12.3728814 0h33.91086c2.0907875 0 2.8640929.8496383 3.6202134 2.1585405.378061.6544518.6931102 1.4237181 1.0081607 2.1585404.3150506.7348223.5670908 1.4868673 1.2372882 2.1585404.6644695.6659327 1.437775.9300102 2.1996233 1.2400126.7618484.3100039 1.5466109.6027835 2.2454489.9185278.6988394.3157443 1.271658.6774151 1.603892 1.0103807.3322355.332967.4582549.5396358.4582549 1.0103806v14.6964454c0 .2066688-.017185.2468547-.183302.4133375s-.5499058.3903744-1.0081607.5970431c-.4582549.2066688-.968063.4248199-1.512241.6429695-.5441781.2181511-1.1399094.4075971-1.695543.9644542-.5613615.5625991-.7389356 1.0907526-.9623353 1.6074238-.2233996.5166726-.4467977 1.0505665-.6873823 1.4696445-.4868954.8381574-.8134016 1.285939-2.1079723 1.285939h-42.3427496c-1.2945692 0-1.6210769-.4477816-2.1079723-1.285939-.2405831-.419078-.4639827-.9472315-.6873823-1.4696445-.2233997-.5224131-.4009723-1.0448247-.9623353-1.6074238-.5556336-.5568571-1.1513649-.7463031-1.695543-.9644542-.544178-.2181496-1.0539861-.4363007-1.512241-.6429695-.4582549-.2066687-.8420437-.4305603-1.0081607-.5970431s-.183302-.2066687-.183302-.4133375v-8.4504561h.0458255l-.0458255-.1837056v-6.0622837c0-.4707448.1260209-.6774136.4582549-1.0103806.3322355-.3329656.9050541-.6946364 1.603892-1.0103807.6988394-.3157443 1.4836005-.6085239 2.2454489-.9185278.7618483-.3100024 1.5351538-.5740799 2.1996233-1.2400126.6701974-.6716731.9165098-1.4237181 1.2372882-2.1585404s.6301011-1.5040886 1.0081607-2.1585404c.7561205-1.3089022 1.5294259-2.1585405 3.6202134-2.1585405zm39.6390458 0h6.6446956v6.4296949c-.2864086-.1550019-.5842743-.3272252-.8706843-.4592639-.8534993-.3846339-1.6669024-.6946363-2.3370998-.9644542s-1.1399093-.5913027-1.1914626-.6429695c-.0458255-.0459264-.3436912-.5051903-.6415569-1.1940862-.2978656-.6888959-.6759251-1.590201-1.1914626-2.4800252-.1317486-.2238915-.2520402-.4707448-.4124294-.6888959zm-22.6836158 1.4696446c-7.3721755 0-13.1977401 6.6880305-13.1977401 14.6964454 0 8.008415 5.8255646 14.6964454 13.1977401 14.6964454s13.1977401-6.6880304 13.1977401-14.6964454c0-8.0084149-5.8255646-14.6964454-13.1977401-14.6964454zm0 2.9392891c5.5849815 0 10.264909 5.1609786 10.264909 11.7571563s-4.6799275 11.7571564-10.264909 11.7571564-10.264909-5.1609787-10.264909-11.7571564 4.6799275-11.7571563 10.264909-11.7571563zm-21.2630257 7.3482227c-2.8182675 0-5.1324545 2.3192828-5.1324545 5.1437559s2.314187 5.1437559 5.1324545 5.1437559c2.8182674 0 5.1324545-2.3192828 5.1324545-5.1437559s-2.3141871-5.1437559-5.1324545-5.1437559zm42.5260514 0c-2.8182674 0-5.1324544 2.3192828-5.1324544 5.1437559s2.314187 5.1437559 5.1324544 5.1437559c2.8182675 0 5.1324545-2.3192828 5.1324545-5.1437559s-2.314187-5.1437559-5.1324545-5.1437559zm-42.5260514 2.9392891c1.2315603 0 2.1996233.9701946 2.1996233 2.2044668 0 1.2342721-.968063 2.2044668-2.1996233 2.2044668-1.2315604 0-2.1996234-.9701947-2.1996234-2.2044668 0-1.2342722.968063-2.2044668 2.1996234-2.2044668zm42.5260514 0c1.2315604 0 2.1996234.9701946 2.1996234 2.2044668 0 1.2342721-.968063 2.2044668-2.1996234 2.2044668-1.2315603 0-2.1996233-.9701947-2.1996233-2.2044668 0-1.2342722.968063-2.2044668 2.1996233-2.2044668zm-50.5913371 14.3749607c.6014592.2698179 1.1628221.4650043 1.6038921.6429694.4467992.1837056.7503927.3846339.6873823.3214848-.0630104-.0631492.1603892.2640775.3666039.7348223.1833019.4248198.4181572.9816769.7332077 1.5614973h-3.391086zm58.6566228 0v3.2607738h-3.391086c.3150505-.5798204.5499058-1.1366775.7332077-1.5614973.2062147-.4707448.4296143-.7979715.3666039-.7348223-.0630104.0631491.2348553-.1377792.6873823-.3214848.44107-.1779651 1.0024329-.3731515 1.6038921-.6429694z" fill="#fff"/></svg>