<svg height="61" viewBox="0 0 45 61" width="45" xmlns="http://www.w3.org/2000/svg"><path d="m27.4767857 1.2641844c-.0564735.01019569-.1129458.02548726-.1642857.04078014h-22.7125c-2.51562434 0-4.6 2.0339099-4.6 4.52659574v50.15957452c0 2.9412674 2.45401851 5.3421985 5.42142857 5.3421985h33.84285713c2.9674114 0 5.4214286-2.4009311 5.4214286-5.3421985v-37.4769504c.0359378-.173315.0359378-.3568256 0-.5301418v-.3670213c.0102685-.3466312-.1232143-.6881652-.3696429-.9379433l-15.1142857-15.00709218c-.2515622-.24468086-.5955357-.37721566-.9446428-.36702128h-.4107143c-.1180807-.03058445-.2464286-.04587733-.3696429-.04078014zm-22.8767857 2.65070922h21.6857143v10.88829788c0 2.6252219 2.1613836 4.7712766 4.8053571 4.7712766h10.9660715v36.4166667c0 1.5241581-1.2424101 2.7322695-2.7928572 2.7322695h-33.84285713c-1.55044577 0-2.79285714-1.2081114-2.79285714-2.7322695v-50.15957452c0-1.07557656.8676336-1.91666666 1.97142857-1.91666666zm24.3142857 1.22340425 11.9107143 11.82624113h-9.7339286c-1.2270092 0-2.1767857-.9430404-2.1767857-2.1613475zm-17.0857143 24.87588653v2.6099291h21.0285715v-2.6099291zm0 5.2198582v2.609929h21.0285715v-2.609929zm0 5.2198581v2.6099291h21.0285715v-2.6099291zm0 5.2198582v2.609929h11.8285715v-2.609929z" fill="#fff" transform="translate(0 -1)"/></svg>