<svg height="65" viewBox="0 0 66 65" width="66" xmlns="http://www.w3.org/2000/svg"><path d="m1.25543478 1.43478261c-.72299556.08967391-1.26103904.70618278-1.25543478 1.43478261v58.82608698c0 2.3595445 1.94480335 4.3043478 4.30434783 4.3043478h43.04347827c.3811141.01121.756624-.1345109 1.03125-.4035326l17.2173913-17.2173913c.2690217-.274626.4147426-.6501359.4035326-1.03125v-44.47826088c-.0056043-.58288044-.3586957-1.1041097-.9023434-1.32269022-.5380435-.21297483-1.1601566-.08406965-1.5636892.33627717l-3.138587 3.22826087-3.2730978-3.27309782c-.504415-.51002074-1.3114803-.56606622-1.8831522-.13451087l-5.0217391 3.67663043-4.8872283-3.67663043c-.504415-.37550987-1.1993878-.37550987-1.7038043 0l-4.8872283 3.67663043-4.8872282-3.67663043c-.5044151-.37550987-1.1993879-.37550987-1.7038044 0l-4.8872282 3.67663043-4.8872283-3.67663043c-.504415-.37550987-1.1993879-.37550987-1.7038043 0l-4.8872283 3.67663043-4.8872283-3.67663043c-.5716704-.43155535-1.37873566-.37550987-1.88315214.13451087l-3.27309783 3.27309782-3.27309782-3.27309782c-.31946296-.3138587-.76783252-.46518379-1.21059783-.40353261zm20.26630432 3.22826087 4.8872283 3.67663043c.5044165.37550987 1.1993893.37550987 1.7038043 0l4.8872283-3.67663043 4.8872283 3.67663043c.5044164.37550987 1.1993893.37550987 1.7038043 0l4.8872283-3.67663043 4.8872282 3.67663043c.5044165.37550987 1.1993893.37550987 1.7038044 0l4.8872282-3.58695652 3.4524457 3.45244565c.5716719.53804348 1.468411.52122926 2.017663-.04483695l1.7038044-1.74864131v39.50135872h-17.2173913v17.2173913h-41.60869567c-.79585526 0-1.43478261-.6389259-1.43478261-1.4347826v-55.32880437l1.83831521 1.83831521c.26902174.2802317.64453161.43716105 1.03125.43716105.3867184 0 .76222827-.15692935 1.03125-.43716105l3.40760867-3.40760869 4.7527174 3.54211956c.5044165.37550987 1.1993893.37550987 1.7038044 0zm-12.91304345 9.68478262v8.6086956h48.78260865v-8.6086956zm2.86956525 2.8695652h43.0434782v2.8695652h-43.0434782zm-2.86956525 11.4782609v20.0869565h21.52173915v-20.0869565zm27.26086955 0v2.8695652h21.5217391v-2.8695652zm-24.3913043 2.8695652h15.7826087v14.3478261h-15.7826087zm4.5733695 2.8695652-1.7038043 1.7038044v5.0217391l1.7038043 1.6141304h6.6358696l1.7038043-1.6141304v-3.4076087h-3.3179347l-1.7038044 1.7038043h3.3179348v1.7038044h-6.6358696zm0 1.7038044h1.6141305v5.0217391l1.7038043-1.7038044v-3.3179347h5.0217391l-1.7038043-1.7038044h-5.0217391zm19.8179348-1.7038044v2.8695652h21.5217391v-2.8695652zm0 5.7391304v2.8695653h21.5217391v-2.8695653zm0 5.7391305v2.8695652h8.6086957v-2.8695652zm12.9130435 2.8695652h12.2853261l-12.2853261 12.2853261zm-40.17391305 2.8695652v2.8695652h21.52173915v-2.8695652zm27.26086955 0v2.8695652h8.6086957v-2.8695652z" fill="#fff" transform="translate(0 -1)"/></svg>