<svg height="67" viewBox="0 0 64 67" width="64" xmlns="http://www.w3.org/2000/svg"><path d="m24.2911336 55.6513082c0 1.3495142-.2720754 2.611944-.8162344 3.7873273-.5441589 1.1753833-1.2733209 2.1983868-2.187508 3.0690411v6.9216671c0 .2176635-.054415.4244408-.1632468.620338-.1088318.1958973-.272077.3591425-.4897406.4897406h.0652987c-.1741308.0870655-.3373761.1523636-.4897406.1958963s-.3156097.0870648-.4897406.1305975c-.0435327 0-.1088308-.0326491-.1958962-.0979481-.0870654-.0652991-.1741296-.0979482-.261195-.0979482l-4.0485222-1.3712736-4.1138211 1.3712736c-.0870654.0870655-.1850125.1414805-.2938443.1632469s-.2067789.0326494-.2938444.0326494c-.1741308 0-.326493-.0326491-.4570912-.0979481-.13059814-.0652991-.23942829-.1414802-.32649372-.2285457-.17413086-.1305981-.31561006-.3047264-.42444185-.5223899-.10883179-.2176636-.16324687-.4570899-.16324687-.7182862v-6.7910696h-.06529874c-.91418702-.8706543-1.64334906-1.8936578-2.187508-3.0690411s-.81623433-2.4378131-.81623433-3.7873273c0-2.5248975.89240728-4.6797345 2.6772486-6.4645759 1.78484131-1.7848413 3.93967841-2.6772485 6.46457591-2.6772485 2.5248974 0 4.6688515.8924072 6.4319265 2.6772485 1.7630749 1.7848414 2.6445992 3.9396784 2.6445992 6.4645759zm-6.0727834 8.5209991c-.4156774.20165-.8509984.3541748-1.3059749.4575785-.4788599.1088318-.9794786.1632469-1.5018712.1632469h-.261195c-.5223926-.0435327-1.0447773-.1197138-1.5671699-.2285456s-1.0012453-.250311-1.4365724-.4244419v3.0690411l2.6119498-.9141825c.0435327-.0435327.1088308-.0761817.1958963-.0979481.0870654-.0217663.1741295-.0326494.261195-.0326494.0870654 0 .1632465.0108831.2285456.0326494.065299.0217664.1414801.0544154.2285456.0979481l2.5466511.9141825zm-3.0037423-2.4482157c1.6542431 0 3.0799182-.5876828 4.2770678-1.7630661 1.1971497-1.1753833 1.7957155-2.6119414 1.7957155-4.3097173 0-1.6542432-.5985658-3.0799182-1.7957155-4.2770679-1.1971496-1.1971496-2.6228247-1.7957155-4.2770678-1.7957155-1.6977759 0-3.134334.5985659-4.3097173 1.7957155-1.1753833 1.1971497-1.76306614 2.6228247-1.76306614 4.2770679 0 1.6977759.58768284 3.134334 1.76306614 4.3097173s2.6119414 1.7630661 4.3097173 1.7630661zm3.0037423-6.0727834c0 .8271216-.2938414 1.5454006-.8815331 2.1548586-.5876916.609458-1.2950877.9141825-2.1222092.9141825-.8706543 0-1.5998164-.3047245-2.187508-.9141825-.5876917-.609458-.8815331-1.327737-.8815331-2.1548586s.2938414-1.5345176.8815331-2.1222092c.5876916-.5876917 1.3168537-.8815331 2.187508-.8815331.8271215 0 1.5345176.2938414 2.1222092.8815331.5876917.5876916.8815331 1.2950876.8815331 2.1222092zm44.0766536-23.3769511c.4788599.4353271.8488824.9685949 1.1100787 1.5998193.2611963.6312243.3917925 1.3168543.3917925 2.0569105 0 .6965234-.1305962 1.3603874-.3917925 1.9916117-.2611963.6312244-.6312188 1.1644922-1.1100787 1.5998193l-17.1735702 17.1735703c-.0870654.1741308-.1958956.293844-.3264937.3591431-.1305982.065299-.2611944.0979481-.3917925.0979481h-.0652988l-7.5746545 1.5671699h-4.8321072c-.4353272 0-.8053497-.1523622-1.1100787-.4570912s-.4570912-.6747516-.4570912-1.1100787c0-.3917945.1523622-.740051.4570912-1.04478s.6747515-.4570912 1.1100787-.4570912h3.330236l1.1753775-6.3992771h.0652987c.0435327-.1305982.0979478-.2611943.1632469-.3917925.065299-.1305981.1414802-.2394283.2285456-.3264937l8.8153307-8.8153307c0-.1741309-.021766-.3047271-.0652987-.3917925-.0435327-.0870655-.0652988-.2176616-.0652988-.3917925v-18.2183502c0-.8271216-.2938414-1.5454006-.8815331-2.1548586-.5876916-.609458-1.3168536-.9141825-2.1875079-.9141825h-3.0037424c-1.2624487 0-2.3398672-.4353206-3.2322879-1.3059749s-1.3386243-1.9371898-1.3386243-3.1996385v-3.0690411c0-.82712159-.2938414-1.5345176-.8815331-2.12220926-.5876916-.58769165-1.2950876-.88153307-2.1222092-.88153307h-27.36017467c-.04353271 0-.06529874-.01088302-.06529874-.03264937 0-.02176636-.02176604-.03264938-.06529875-.03264938-.39179444 0-.72916792.14147921-1.01213057.42444185-.28296264.28296265-.42444185.62033613-.42444185 1.01213057 0 .04353271.01088302.06529875.03264938.06529875.02176635 0 .03264937.02176603.03264937.06529874v54.65505057c0 .0435327-.01088302.0652987-.03264937.0652987-.02176636 0-.03264938.021766-.03264938.0652988 0 .3917944.14147921.7291679.42444185 1.0121305.28296265.2829627.62033613.4244419 1.01213057.4244419h1.63246865c.43532715 0 .79446667.1414792 1.07742931.4244418.28296265.2829627.42444185.6421022.42444185 1.0774293 0 .4353272-.1414792.7944667-.42444185 1.0774293-.28296264.2829627-.64210216.4244419-1.07742931.4244419h-1.50187116c-1.26244874 0-2.33986727-.4462036-3.23228793-1.3386243s-1.3386243-1.9698392-1.3386243-3.2322879v-54.65505057c0-1.26244874.44620364-2.33986727 1.3386243-3.23228793s1.96983919-1.3386243 3.23228793-1.3386243h29.51503327c1.0012524 0 1.9480748.2067773 2.8404955.62033809.8924206.41356079 1.6433487.96859458 2.2528067 1.66511803l7.1828621 7.11756328c.6965234.6529908 1.2515572 1.4365679 1.665118 2.3507549s.6203381 1.8718924.6203381 2.8731448v18.2183502l5.4197959-5.4850947c.4788599-.4788598 1.0338937-.8488824 1.665118-1.1100786.6312244-.2611963 1.2950884-.3917925 1.9916118-.3917925.7400562 0 1.4148031.1305962 2.0242611.3917925.609458.2611962 1.1536088.6312188 1.6324687 1.1100786zm-24.4649525-23.22427639c.0361734.14163635.0723466.27575695.1085202.40236459.0435327.15236451.0652988.31560974.0652988.4897406v3.2649373c0 .3917944.1305962.7291679.3917924 1.0121306.2611963.2829626.6094528.4244418 1.04478.4244418h3.9832235zm1.0880014 43.59748519-.4570912 2.5466511 2.5466511-.4570912zm21.2220925-15.2146079c.2176636-.2176635.3809088-.4570899.4897406-.7182862s.1632469-.5223886.1632469-.7835849c0-.304729-.0544151-.5876874-.1632469-.8488837s-.272077-.5006227-.4897406-.7182862l-.9141824-.9141825c-.1741309-.1741308-.3917912-.304727-.6529875-.3917925-.2611963-.0870654-.5441547-.1305975-.8488837-.1305975s-.5768044.0435321-.8162343.1305975c-.23943.0870655-.4679733.2176617-.6856369.3917925l-16.1287903 16.1287903 3.9832236 3.9832235zm-12.9291517 19.7202214c.3917944 0 .7291679.1414792 1.0121305.4244418.2829627.2829627.4244419.6203362.4244419 1.0121306v4.636211c0 1.2624487-.4462036 2.3398672-1.3386243 3.2322879s-1.9698392 1.3386243-3.2322879 1.3386243h-19.7855201c-.3917945 0-.740051-.1414792-1.04478-.4244419-.304729-.2829626-.4570912-.6421021-.4570912-1.0774293 0-.4353271.1523622-.7944666.4570912-1.0774293.304729-.2829626.6529855-.4244418 1.04478-.4244418h19.8508188c.3917944 0 .7291679-.1414792 1.0121306-.4244419.2829626-.2829626.4244418-.6203361.4244418-1.0121305v-4.7668085c0-.3917944.1414792-.7291679.4244419-1.0121306.2829626-.2829626.6203361-.4244418 1.0121305-.4244418zm-41.13821011-33.4329581v.0652988-.1305975c0-.3917944.1414792-.7291679.42444185-1.0121306.28296265-.2829626.62033613-.4244418 1.01213057-.4244418h15.27990659c.4353272 0 .7944667.1523622 1.0774293.4570912.2829627.304729.4244419.6529855.4244419 1.0447799 0 .4353272-.1414792.8053497-.4244419 1.1100787-.2829626.304729-.6421021.4570912-1.0774293.4570912h-15.27990659c-.39179444 0-.72916792-.1414792-1.01213057-.4244418s-.42444185-.6203361-.42444185-1.0121306zm31.93108691 4.5709123c.3917944 0 .7400509.1523622 1.0447799.4570912s.4570912.6747515.4570912 1.1100787c0 .3917944-.1523622.7400509-.4570912 1.0447799s-.6529855.4570912-1.0447799.4570912h-18.283649c-.3917944 0-.7400509-.1523622-1.0447799-.4570912s-.4570912-.6529855-.4570912-1.0447799c0-.4353272.1523622-.8053497.4570912-1.1100787s.6529855-.4570912 1.0447799-.4570912zm0-6.0727834c.3917944 0 .7400509.1523622 1.0447799.4570912s.4570912.6529855.4570912 1.0447799c0 .4353272-.1523622.8053497-.4570912 1.1100787s-.6529855.4570912-1.0447799.4570912h-9.1418245c-.4353271 0-.7944667-.1523622-1.0774293-.4570912-.2829627-.304729-.4244419-.6747515-.4244419-1.1100787 0-.3917944.1414792-.7400509.4244419-1.0447799.2829626-.304729.6421022-.4570912 1.0774293-.4570912zm-9.011227-6.0727834c.3917944 0 .7182849.1414792.9794812.4244418.2611963.2829627.3917925.6203362.3917925 1.0121306v.1958962c0 .3917945-.1305962.729168-.3917925 1.0121306-.2611963.2829627-.5876868.4244419-.9794812.4244419h-9.272422.0652988-.1305975c-.3917944 0-.7291679-.1414792-1.0121306-.4244419-.2829626-.2829626-.4244418-.6203361-.4244418-1.0121306v-.1958962c0-.3917944.1414792-.7291679.4244418-1.0121306.2829627-.2829626.6203362-.4244418 1.0121306-.4244418zm-21.41798875 21.2873912c-.39179443 0-.74005093-.1523622-1.04477993-.4570912-.30472901-.304729-.45709123-.6529855-.45709123-1.0447799 0-.4353272.15236222-.8053497.45709123-1.1100787.304729-.304729.6529855-.4570912 1.04477993-.4570912h13.71273665c.3917945 0 .740051.1523622 1.04478.4570912s.4570912.6747515.4570912 1.1100787c0 .3917944-.1523622.7400509-.4570912 1.0447799s-.6529855.4570912-1.04478.4570912zm0 6.0727834c-.39179443 0-.74005093-.1523622-1.04477993-.4570912-.30472901-.304729-.45709123-.6529855-.45709123-1.0447799 0-.4353272.15236222-.8053497.45709123-1.1100787.304729-.304729.6529855-.4570912 1.04477993-.4570912h6.07278335c.4353272 0 .8053497.1523622 1.1100787.4570912s.4570913.6747515.4570913 1.1100787c0 .3917944-.1523623.7400509-.4570913 1.0447799s-.6747515.4570912-1.1100787.4570912zm0-12.1455668c-.39179443 0-.74005093-.1523622-1.04477993-.4570912-.30472901-.304729-.45709123-.6529855-.45709123-1.0447799 0-.4353272.15236222-.8053497.45709123-1.1100787.304729-.304729.6529855-.4570912 1.04477993-.4570912h6.07278335c.4353272 0 .8053497.1523622 1.1100787.4570912s.4570913.6747515.4570913 1.1100787c0 .3917944-.1523623.7400509-.4570913 1.0447799s-.6747515.4570912-1.1100787.4570912zm31.93108685 4.636211c0 .3917945-.1414792.7291679-.4244418 1.0121306-.2829627.2829626-.6203362.4244418-1.0121306.4244418h-10.7089944c-.4353271 0-.7944666-.1523622-1.0774293-.4570912-.2829626-.304729-.4244418-.6529855-.4244418-1.0447799 0-.4353272.1414792-.8053497.4244418-1.1100787.2829627-.304729.6421022-.4570912 1.0774293-.4570912h10.7089944c.3917944 0 .7291679.1414792 1.0121306.4244418.2829626.2829627.4244418.6203361.4244418 1.0121306zm-19.7855201 4.4403148h12.2108656c.3917944 0 .7400509.1523622 1.0447799.4570912s.4570912.6747515.4570912 1.1100787c0 .3917944-.1523622.7400509-.4570912 1.0447799s-.6529855.4570912-1.0447799.4570912h-12.2108656c-.3917944 0-.7400509-.1523622-1.0447799-.4570912s-.4570912-.6529855-.4570912-1.0447799c0-.4353272.1523622-.8053497.4570912-1.1100787s.6529855-.4570912 1.0447799-.4570912z" fill="#fff" fill-rule="evenodd" transform="translate(0 -4)"/></svg>