<svg height="54" viewBox="0 0 43 54" width="43" xmlns="http://www.w3.org/2000/svg"><path d="m40.155642 7.6770428c-1.8404669.23424125-4.1661478.58560311-6.6424124.58560311-3.8649806 0-7.3618677-.95369649-10.9089494-1.70661478-3.5972763-.76964981-7.3116732-1.55603113-11.2435798-1.55603113-7.84708172 0-10.50739301 1.68988327-10.77509729 1.87392996l-.56887159.40155642v.43501946 27.05486376 23.7754864h2.6770428v-23.9762646c1.00389105-.4182879 3.64747082-1.1544747 8.68365758-1.1544747 3.6474708 0 7.0607004 1.388716 10.6914397 2.1750973 3.6809338.7863813 7.4957198 1.6062257 11.6284047 1.6062257 2.459533 0 4.6346303-.3346304 6.4750972-.5521401 1.0038911-.1171206 1.8906615-.2342412 2.6770428-.3680934v-26.2517509-2.76070044c-.7863813.15058366-1.6898832.2844358-2.6937743.41828794zm0 26.2684825c-1.8404669.2342412-3.9988327.5856031-6.4750973.5856031-3.8649805 0-7.5291828-.7863813-11.0762645-1.5392996-3.5972763-.7696498-7.2949417-2.2252918-11.2268483-2.2252918-4.29999999 0-7.01050583.5019455-8.68365758 1.003891v-22.97237353c1.00389105-.41828793 3.66420233-1.13774319 8.68365758-1.13774319 3.6474708 0 7.0607004.71945526 10.6914397 1.50583658 3.6809338.78638132 7.3284047 1.77354084 11.4610895 1.77354084 2.4595331 0 4.8019455-.3346303 6.6424124-.5521401z" fill="#fff" transform="translate(0 -5)"/></svg>