<svg height="61" viewBox="0 0 51 61" width="51" xmlns="http://www.w3.org/2000/svg"><path d="m20.732372.00049018c-.8292949-.01759638-1.6009991.43990069-2.0156466 1.15547111-.4319247.73316831-.4319247 1.64816096 0 2.38132777.4146475.71557042 1.1863517 1.1730675 2.0156466 1.15547111h2.3035969v4.80371177c-12.8886239 1.20825876-23.0359689 12.25855456-23.0359689 25.69604316 0 14.223443 11.37401 25.8074849 25.3395658 25.8074849 13.9655557 0 25.3395657-11.5840419 25.3395657-25.8074849 0-13.4374886-10.1531036-24.4877844-23.0359689-25.69604316v-4.80371177h2.3035969c.8292949.01759639 1.6010006-.43990069 2.015648-1.15547111.4319233-.73316681.4319233-1.64815946 0-2.38132777-.4146474-.71557042-1.1863531-1.17306749-2.015648-1.15547111zm23.0186915 9.3493487c-.955992.01759489-1.8025642.58653375-2.1423451 1.48393002-.3628154.8797999-.1439744 1.8886379.5240687 2.5455557l4.8951441 4.9855376c.5931751.6275915 1.4397473.862205 2.2460062.6627828.8120175-.2228821 1.4397488-.862205 1.6585898-1.6892172.1958064-.8211473-.0403134-1.6833523-.6334884-2.269886l-4.8951442-4.9855361c-.4492006-.45749708-1.0423772-.73316682-1.6528311-.73316682zm-18.4114977 4.72746122c11.4834312 0 20.7323719 9.4197328 20.7323719 21.115215 0 11.6954837-9.2489407 21.1152149-20.7323719 21.1152149-11.4834298 0-20.73237203-9.4197312-20.73237203-21.1152149 0-11.6954822 9.24894223-21.115215 20.73237203-21.115215zm-9.2489408 9.3493487c-.9387161.0175949-1.7852883.5865338-2.1250692 1.48393-.3628154.8797999-.1439745 1.888638.541346 2.5455558l9.2143875 9.3845399c.5758992.6217266 1.4224715.862205 2.2287304.6627843.8120175-.2228836 1.4397473-.862205 1.6585897-1.6892172.195805-.8211472-.0345547-1.6833522-.6507672-2.269886l-9.2143875-9.38454c-.4319234-.457497-1.0250999-.7331668-1.6528297-.7331668z" fill="#fff"/></svg>