<svg height="61" viewBox="0 0 58 61" width="58" xmlns="http://www.w3.org/2000/svg"><path d="m31.9 0c-7.187695 0-12.3986325 2.82070385-15.134375 6.978125-2.5714836 3.9082039-2.8207024 8.8755863-1.0875 13.4578125-.6400387.7929687-1.178125 1.8238288-1.0421875 3.44375v.090625c.2435551 1.7671875.7759762 3.0132812 1.45 3.896875.3285164.4304687.815625.4417976 1.2234375.6796875.2435551 1.5689449.7080074 3.1605476 1.359375 4.440625.3681637.725.7363288 1.3650387 1.1328125 1.903125.1755863.2378913.4078125.39082.5890625.5890625-.0169925 1.24043-.090625 2.35625-.18125 3.534375h-.0453125c-.2548825-.0056637-.5041012.0566414-.725.18125 0 0-2.4638675 1.5519538-4.4859375 4.3953125-8.9662113 2.0730476-14.953125 9.2720699-14.953125 15.859375 0 .7986324.65136755 1.45 1.45 1.45h24.1515625c.2775387.0849613.5833988.0849613.8609375 0h5.165625c.2775387.0849613.5833988.0849613.8609375 0h24.0609375c.7986325 0 1.45-.6513676 1.45-1.45 0-7.9410149-7.1650387-14.3414063-15.0890625-15.7234375-.3738274-.4984375-1.9087887-2.4978512-4.078125-4.078125-.02832-.0339836-.0566399-.062305-.090625-.090625-.0736324-.0509762-.1529301-.0849613-.2265625-.1359375-.2548825-.2039062-.5777336-.3171875-.90625-.3171875-.0849613-1.2234375-.118945-2.3732426-.1359375-3.5796875.1585937-.1925774.39082-.3228512.54375-.54375.3851563-.5494137.7816413-1.2234375 1.1328125-1.9484375.6230476-1.2800774 1.1101562-2.7867188 1.4046875-4.259375.4644538-.2378899.996875-.2548825 1.359375-.725.6966801-.9119137 1.1044925-2.2089837 1.26875-3.9875.090625-1.0535149.0169926-2.0050774-.3171875-2.809375-.1076175-.2548825-.2888676-.4927738-.453125-.725.4701175-1.0138676.7703125-2.175.90625-3.4890625.1982426-1.8804688.118945-3.9761712-.4078125-6.0265625-.5267574-2.0503899-1.5066399-4.0441399-3.08125-5.5734375-1.359375-1.3197262-3.2681637-2.1296875-5.4828125-2.35625l-1.1328125-2.265625c-.243555-.5041012-.75332-.8212887-1.3140625-.815625zm-.8609375 2.990625.996875 1.99375c.243555.5041012.7533199.8212887 1.3140625.815625 2.0164062 0 3.4097663.6740238 4.4859375 1.721875 1.0761726 1.0478512 1.8351562 2.5488288 2.265625 4.2140625.4304687 1.6652351.5210937 3.4494137.3625 4.984375-.1585938 1.5349613-.6400387 2.809375-.996875 3.2625-.2888675.3681637-.3794926.8609375-.2435551 1.3083988s.4757813.8042961.9232426.9572262c-.0056637.0113288-.02832.0283199 0 .090625.1019538.2492187.2378913.7646488.18125 1.45-.1302738 1.4103512-.481445 2.175-.725 2.4921875-.2435551.3171875-.3681637.271875-.3171875.271875-.7023438.0113288-1.29707.5267574-1.4046875 1.2234375-.1869137 1.2347663-.7589837 2.7583988-1.359375 3.9875-.300195.6173824-.5947262 1.1554687-.8609375 1.540625s-.5494137.6230476-.4078125.54375c-.4361325.2548825-.7136711.7193363-.725 1.2234375 0 1.9710938.1416012 3.2228512.271875 5.25625v.1359375.0453125.090625c0 .1472663-.0113274.3001949-.090625.453125-.0792962.1585938-.2152337.3058601-.4078125.4984375-.3794926.3738288-.9798825.7306637-1.63125 1.0421875-.5833988.2775387-1.1384762.4871101-1.5859375.634375-.0736325.0226563-.1585938.0679688-.2265625.090625-.2832024.0849613-.5890625.1585938-.6796875.18125h-2.35625c-.2435551-.062305-1.3253899-.3511711-2.4921875-.90625-.6513676-.3115238-1.2517575-.6683587-1.63125-1.0421875-.3794926-.3738274-.4984375-.6626949-.4984375-.9515625.0113288-.1982426-.0226563-.4021488-.090625-.5890625.1246101-1.8748051.2265625-3.05293.2265625-5.075.0056637-.5210937-.271875-1.0082024-.725-1.26875.1076175.062305-.1755863-.1246087-.453125-.4984375-.2775387-.3738274-.6060551-.8949211-.90625-1.4953125-.6060551-1.1951176-1.1498051-2.7300774-1.26875-3.9875-.0623051-.69668-.6173825-1.2517575-1.3140625-1.3140625.0509762.0113288.0169925 0-.090625 0-.0566399-.0339837-.1359375-.1019524-.2265625-.2265625-.2548825-.3341801-.6173825-1.1554688-.815625-2.4921875 0-.02832 0-.0169926 0-.0453125-.0056637-.0226563.0056637-.0226563 0-.0453125-.0226563-1.0988274.6570312-1.7105462.54375-1.63125.5664062-.3964837.7759762-1.1328125.4984375-1.7671875-1.7785149-4.0214837-1.5236325-8.3261712.634375-11.6 2.0503913-3.11523365 5.9189449-5.3525387 11.8265625-5.5734375zm-11.8265625 40.0109375c.1642575.6796875.3568363 1.3820312.5890625 2.2203125.5380863 1.9484375 1.2404301 4.2083988 1.9484375 6.3890625.87793 2.69043 1.63125 4.8314449 2.175 6.3890625h-4.3953125l-4.3953125-5.528125 2.809375-1.99375c.4984375-.3398438.7306637-.9572262.5890625-1.540625l-1.0421875-3.9421875c.6003914-.8269524 1.206445-1.5123051 1.721875-1.99375zm19.484375.3625c.8212887.7986324 1.45 1.5632812 1.7671875 1.9484375l-.996875 3.625c-.1416012.5833988.090625 1.2007812.5890625 1.540625l2.809375 1.99375-4.3953125 5.528125h-4.3953125c.54375-1.5576176 1.29707-3.6986325 2.175-6.3890625.7080075-2.1806637 1.4103512-4.440625 1.9484375-6.3890625.1925789-.7023438.3511726-1.26875.4984375-1.8578125zm-16.1765625.9515625c.51543.3681637 1.05918.6570313 1.5859375.90625.7816413.3738288 1.5349613.6287113 2.1296875.815625l1.3140625 3.2625-1.63125 5.61875c-.4474613-1.3027337-.8892574-2.6394524-1.4046875-4.2140625-.7023437-2.1523438-1.4273438-4.3783199-1.9484375-6.253125-.0169926-.0509762-.0339837-.0849613-.0453125-.1359375zm12.959375 0c-.0113274.0509762-.0283199.0849613-.0453125.1359375-.5210938 1.8748051-1.2460937 4.1007812-1.9484375 6.253125-.5154301 1.5746101-.9572262 2.9113288-1.4046875 4.2140625l-1.63125-5.61875 1.3140625-3.2625c.5947262-.1869137 1.3480476-.4417962 2.1296875-.815625.2662113-.1246086.5494137-.2548824.815625-.4078125.1529301-.0849613.3001949-.1755863.453125-.271875.1076176-.0679687.20957-.15293.3171875-.2265625zm-20.6171875 2.175.5890625 2.2203125-3.2625 2.3109375c-.3228512.2322262-.5324211.5890625-.5833988.9855476-.0509762.3908199.0623051.7873036.3115238 1.0988274l3.896875 4.89375h-12.596875c.79863245-4.4066399 5.01269495-9.696875 11.6453125-11.509375zm28.2296875.1359375c5.8226563 1.2914062 10.8070313 6.0265625 11.6453125 11.3734375h-12.5515625l3.896875-4.89375c.1585937-.18125.2662113-.4021488.3171875-.634375.0056637-.0623051.0056637-.118945 0-.18125.0339851-.4984375-.1869137-.9742188-.5890625-1.26875l-3.2625-2.3109375z" fill="#fff"/></svg>