<?xml version="1.0" encoding="utf-8"?>
<!-- Generator: Adobe Illustrator 22.1.0, SVG Export Plug-In . SVG Version: 6.00 Build 0)  -->
<svg version="1.1" id="Layer_1" xmlns="http://www.w3.org/2000/svg" xmlns:xlink="http://www.w3.org/1999/xlink" x="0px" y="0px"
	 viewBox="0 0 180.7 295.5" style="enable-background:new 0 0 180.7 295.5;" xml:space="preserve">
<style type="text/css">
	.st0{display:none;}
	.st1{display:inline;fill:url(#SVGID_1_);}
	.st2{display:inline;fill:url(#SVGID_2_);}
	.st3{display:inline;fill:url(#SVGID_3_);}
	.st4{display:inline;fill:url(#SVGID_4_);}
	.st5{display:inline;fill:url(#SVGID_5_);}
	.st6{display:inline;}
	.st7{fill:#FFFFFF;}
	.st8{fill:#D83725;}
	.st9{fill:#F73B2D;}
	.st10{fill:none;stroke:#FBB024;stroke-width:1.8068;stroke-linecap:round;stroke-linejoin:round;stroke-miterlimit:10;}
	.st11{opacity:0.3;fill:#593725;}
	.st12{fill:#FBB024;}
	.st13{opacity:0.8;fill:#FFFFFF;}
	.st14{fill:#FFC088;}
	.st15{fill:#C68981;}
	.st16{fill:#939598;}
	.st17{fill:#EAB08C;}
	.st18{fill:#E6E7E8;}
	.st19{fill:#BCC5CC;}
	.st20{fill:#DC966B;}
	.st21{fill:#0E8487;}
	.st22{fill:#0E72CC;}
	.st23{fill:#231F20;}
	.st24{fill:#0C5891;}
	.st25{fill:#FFD13E;}
	.st26{fill:#F49B0C;}
	.st27{fill:#A37E09;}
	.st28{fill:#F91925;}
	.st29{fill:#C60A13;}
	.st30{opacity:0.6;}
	.st31{fill:#9E0211;}
	.st32{fill:#80A851;}
	.st33{opacity:0.5;fill:#FFFFFF;}
	.st34{fill:#FFC50A;}
	.st35{opacity:0.7;}
	.st36{fill:#E08F24;}
	.st37{fill:#EC6000;}
	.st38{fill:#EE9F64;}
	.st39{opacity:0.4;fill:#EE9F64;}
	.st40{fill:#477D63;}
	.st41{opacity:0.3;fill:#FD5D05;}
	.st42{fill:#101207;}
	.st43{fill:#FFB522;}
	.st44{fill:#FAFAFA;}
	.st45{fill:#019BA5;}
	.st46{opacity:0.3;fill:#101207;}
	.st47{fill:none;stroke:#FFD13E;stroke-width:1.9287;stroke-linecap:round;stroke-linejoin:round;stroke-miterlimit:10;}
	.st48{display:inline;fill:#9EC143;}
	.st49{fill:#FCDB98;}
	.st50{fill:#86755B;}
	.st51{fill:#AA523E;}
	.st52{fill:#753A2D;}
	.st53{fill:#8E4835;}
	.st54{fill:#492320;}
	.st55{fill:#65312B;}
	.st56{fill:#CC933A;}
	.st57{fill:#281515;}
	.st58{fill:#F1F2F2;}
	.st59{fill:#D40A09;}
	.st60{fill:#B00A09;}
	.st61{fill:#A7A9AC;}
	.st62{fill:#D73B01;}
	.st63{fill:#400707;}
	.st64{fill:#9B432F;}
	.st65{opacity:0.2;fill:#400707;}
	.st66{fill:#F94141;}
	.st67{fill:#F1F2F2;stroke:#9B432F;stroke-width:6.4448;stroke-miterlimit:10;}
	.st68{fill:#9EC143;}
	.st69{opacity:0.4;fill:#6D6E71;}
	.st70{fill:#FFCC0F;}
	.st71{fill:#D02722;}
	.st72{fill:#31C3C3;}
	.st73{opacity:0.2;fill:#211F20;}
	.st74{opacity:0.4;fill:#211F20;}
	.st75{fill:#FFAD43;}
	.st76{fill:#A54838;}
	.st77{fill:#EF9B14;}
	.st78{fill:#C46B1A;}
	.st79{opacity:0.5;}
	.st80{fill:#A86B0B;}
	.st81{display:inline;opacity:0.4;fill:#6D6E71;}
	.st82{fill:#E81B22;}
	.st83{fill:#393738;}
	.st84{fill:#C45D39;}
	.st85{fill:#FFC057;}
	.st86{fill:#9BAFCC;}
	.st87{fill:#211F20;}
	.st88{fill:#E89256;}
	.st89{fill:#FFD939;}
	.st90{fill:#9E8185;}
	.st91{fill:#FA9F80;}
	.st92{fill:#FFD4B0;}
	.st93{opacity:0.5;fill:#C68981;}
	.st94{fill:#77575C;}
	.st95{opacity:0.4;fill:#77575C;}
	.st96{fill:#F09276;}
	.st97{fill:#E5CFC3;}
	.st98{fill:#AB9097;}
	.st99{fill:#FF603B;}
	.st100{opacity:0.2;fill:#EF4136;}
	.st101{display:inline;fill:#77575C;}
	.st102{display:inline;opacity:0.4;}
	.st103{fill:#967880;}
	.st104{display:inline;fill:#9E8185;}
</style>
<g class="st0">
	
		<linearGradient id="SVGID_1_" gradientUnits="userSpaceOnUse" x1="3066.8032" y1="704.2198" x2="3449.8328" y2="704.2198" gradientTransform="matrix(-0.1692 0 0 1 943.9438 0)">
		<stop  offset="0" style="stop-color:#FF5B33"/>
		<stop  offset="0.4062" style="stop-color:#FD5A33"/>
		<stop  offset="0.5525" style="stop-color:#F65831"/>
		<stop  offset="0.6568" style="stop-color:#EB532E"/>
		<stop  offset="0.7412" style="stop-color:#DA4D29"/>
		<stop  offset="0.8134" style="stop-color:#C44524"/>
		<stop  offset="0.8774" style="stop-color:#A83B1D"/>
		<stop  offset="0.9353" style="stop-color:#882F14"/>
		<stop  offset="0.9867" style="stop-color:#64210B"/>
		<stop  offset="1" style="stop-color:#591D08"/>
	</linearGradient>
	<polygon class="st1" points="360.2,737.2 425,737.2 402,704.5 425,671.3 360.2,671.3 	"/>
	
		<linearGradient id="SVGID_2_" gradientUnits="userSpaceOnUse" x1="7550.7515" y1="704.2203" x2="7933.7813" y2="704.2203" gradientTransform="matrix(0.1692 0 0 1 -1541.7379 0)">
		<stop  offset="0" style="stop-color:#FF5B33"/>
		<stop  offset="0.4062" style="stop-color:#FD5A33"/>
		<stop  offset="0.5525" style="stop-color:#F65831"/>
		<stop  offset="0.6568" style="stop-color:#EB532E"/>
		<stop  offset="0.7412" style="stop-color:#DA4D29"/>
		<stop  offset="0.8134" style="stop-color:#C44524"/>
		<stop  offset="0.8774" style="stop-color:#A83B1D"/>
		<stop  offset="0.9353" style="stop-color:#882F14"/>
		<stop  offset="0.9867" style="stop-color:#64210B"/>
		<stop  offset="1" style="stop-color:#591D08"/>
	</linearGradient>
	<polygon class="st2" points="-199.3,737.2 -264.2,737.2 -241.2,704.5 -264.2,671.3 -199.3,671.3 	"/>
	
		<linearGradient id="SVGID_3_" gradientUnits="userSpaceOnUse" x1="354.7633" y1="698.8207" x2="380.9938" y2="698.8207" gradientTransform="matrix(-1 0 0 1 741.2259 0)">
		<stop  offset="0" style="stop-color:#702C00"/>
		<stop  offset="1" style="stop-color:#D72C00"/>
	</linearGradient>
	<polygon class="st3" points="360.2,737.2 386.5,726.4 386.5,660.5 360.2,671.3 	"/>
	
		<linearGradient id="SVGID_4_" gradientUnits="userSpaceOnUse" x1="1113.4449" y1="698.8207" x2="1139.6774" y2="698.8207" gradientTransform="matrix(1 0 0 1 -1339.0195 0)">
		<stop  offset="0" style="stop-color:#702C00"/>
		<stop  offset="1" style="stop-color:#D72C00"/>
	</linearGradient>
	<polygon class="st4" points="-199.3,737.2 -225.6,726.4 -225.6,660.5 -199.3,671.3 	"/>
	<linearGradient id="SVGID_5_" gradientUnits="userSpaceOnUse" x1="80.5212" y1="726.3558" x2="80.5212" y2="660.4847">
		<stop  offset="0" style="stop-color:#EB3C00"/>
		<stop  offset="1" style="stop-color:#EB2C00"/>
	</linearGradient>
	<rect x="-225.6" y="660.5" class="st5" width="612.2" height="65.9"/>
	<g class="st6">
		<path class="st7" d="M6.2,690.3v-0.5c0-4.1-1.5-6.2-4.6-6.2c-1.8,0-3,0.8-3.8,2.4c-0.8,1.6-1.2,4-1.2,7.1c0,3.1,0.5,5.4,1.5,6.9
			c1,1.5,2.4,2.3,4.3,2.3c1,0,2.1-0.2,3.3-0.7c1.2-0.5,2.5-1.2,3.9-2.2c0.7,0.5,1.4,1.1,2,2c0.6,0.8,1,1.6,1.1,2.4
			c-0.6,0.6-1.4,1.2-2.2,1.7c-0.9,0.5-1.8,1-2.8,1.4c-1,0.4-2,0.7-3.1,0.9c-1.1,0.2-2.2,0.4-3.3,0.4c-2.2,0-4-0.4-5.5-1.2
			c-1.5-0.8-2.7-1.9-3.6-3.3c-0.9-1.4-1.6-3-2-4.7c-0.4-1.8-0.6-3.7-0.6-5.6c0-2.5,0.3-4.7,0.9-6.6c0.6-1.9,1.5-3.5,2.6-4.7
			c1.1-1.3,2.3-2.2,3.8-2.8c1.5-0.6,3-0.9,4.7-0.9c1.7,0,3.2,0.2,4.6,0.7c1.4,0.4,2.5,1.1,3.5,1.8c1,0.8,1.7,1.7,2.2,2.8
			c0.5,1.1,0.8,2.2,0.8,3.4c0,2.5-1.3,3.7-3.8,3.7C8,690.7,7.2,690.6,6.2,690.3z"/>
		<path class="st7" d="M23.7,691.4v16.1c-0.5,0.1-1,0.1-1.6,0.2c-0.6,0-1.1,0.1-1.7,0.1s-1.2,0-1.7-0.1c-0.6,0-1.1-0.1-1.6-0.2
			v-13.9c0-1.6-0.7-2.4-2-2.4h-0.6c-0.2-0.5-0.3-1.3-0.3-2.2c0-0.9,0.1-1.7,0.3-2.4c0.7-0.1,1.4-0.1,2-0.1c0.6,0,1.2-0.1,1.7-0.1
			h0.9c1.4,0,2.5,0.4,3.4,1.3C23.3,688.7,23.7,689.9,23.7,691.4z M16.3,678.2c0.8-0.4,1.9-0.7,3.1-0.7c1.3,0,2.3,0.2,3.1,0.7
			c0.3,0.8,0.5,1.6,0.5,2.4c0,0.9-0.2,1.7-0.5,2.4c-0.8,0.4-1.9,0.6-3.2,0.6c-1.3,0-2.3-0.2-3-0.6c-0.3-0.8-0.5-1.6-0.5-2.4
			C15.8,679.7,16,678.9,16.3,678.2z"/>
		<path class="st7" d="M27.4,689.6c0.1-0.6,0.4-1.2,0.8-1.9c0.4-0.7,0.8-1.2,1.2-1.5c2.6,0.2,4.4,1.5,5.4,3.8
			c1.1-2.5,2.8-3.8,5.3-3.8c0.7,0,1.7,0.1,2.8,0.3c0,0.9-0.1,1.9-0.4,3.1c-0.3,1.2-0.7,2.2-1.2,3c-0.5-0.2-1.2-0.3-2.1-0.4
			c-1.4,0-2.5,0.7-3.4,2.1v13.1c-0.9,0.2-2,0.3-3.3,0.3c-1.2,0-2.3-0.1-3.3-0.3V694C29,691.9,28.4,690.4,27.4,689.6z"/>
		<path class="st7" d="M55.1,695.9v-0.5c0-1.6-0.2-2.7-0.5-3.4c-0.3-0.7-1-1.1-1.9-1.1c-1,0-1.7,0.5-2.1,1.4c-0.4,1-0.6,2.6-0.6,4.8
			c0,1.1,0.1,2.1,0.2,2.8c0.2,0.8,0.4,1.4,0.7,1.8c0.3,0.5,0.7,0.8,1.1,1c0.4,0.2,1,0.3,1.6,0.3c0.6,0,1.4-0.1,2.1-0.4
			c0.8-0.3,1.6-0.7,2.5-1.3c0.3,0.1,0.5,0.3,0.8,0.6c0.3,0.3,0.5,0.6,0.7,0.9c0.2,0.3,0.4,0.7,0.6,1.1c0.2,0.4,0.3,0.7,0.4,1.1
			c-0.9,1-2.1,1.8-3.6,2.4c-1.5,0.6-3,0.9-4.5,0.9c-3,0-5.3-1-6.9-2.9c-1.6-2-2.4-4.7-2.4-8.4c0-1.8,0.3-3.5,0.8-4.8
			c0.5-1.4,1.2-2.5,2.1-3.4c0.9-0.9,1.8-1.6,2.9-2c1.1-0.4,2.3-0.7,3.5-0.7c1.2,0,2.4,0.2,3.4,0.5c1,0.3,1.9,0.8,2.6,1.4
			c0.7,0.6,1.3,1.4,1.7,2.2c0.4,0.9,0.6,1.8,0.6,2.8c0,1.2-0.3,2-1,2.5c-0.7,0.5-1.5,0.7-2.5,0.7C56.6,696.1,55.8,696.1,55.1,695.9z
			"/>
		<path class="st7" d="M64.5,700.5v-8.6c0-1.8-0.3-3.2-1-4.2c1-0.9,2.3-1.4,3.8-1.4c1.5,0,2.5,0.3,3,1c0.5,0.7,0.8,1.7,0.8,3.1v8.9
			c0,1,0.1,1.7,0.3,2.1c0.2,0.4,0.8,0.7,1.8,0.7c0.9,0,1.9-0.5,2.8-1.4v-14c0.9-0.2,2-0.3,3.2-0.3c1.2,0,2.3,0.1,3.3,0.3v15
			c0,1.5,0.4,2.5,1.2,3.1c-0.1,0.6-0.4,1.2-0.8,1.8c-0.4,0.7-0.8,1.1-1.2,1.4c-2.3-0.1-3.9-1.1-5-2.9c-2.2,2-4.3,3-6.3,3
			c-2,0-3.5-0.7-4.5-2C65,704.5,64.5,702.7,64.5,700.5z"/>
		<path class="st7" d="M86,706.1c0-0.7,0.2-1.5,0.6-2.4c0.3-0.9,0.8-1.6,1.2-2.1c2.2,1.2,4.2,1.8,5.8,1.8c0.8,0,1.4-0.1,1.8-0.4
			c0.4-0.3,0.6-0.6,0.6-1.1c0-0.8-0.6-1.5-1.9-1.9l-2.3-0.9c-3.5-1.3-5.3-3.4-5.3-6.3c0-2.1,0.7-3.8,2.2-5.1
			c1.5-1.2,3.5-1.9,5.9-1.9c1.2,0,2.6,0.2,4.1,0.5c1.5,0.4,2.7,0.8,3.7,1.2c0.1,0.8-0.1,1.6-0.5,2.6c-0.4,0.9-0.8,1.6-1.3,2
			c-2.4-1.1-4.3-1.6-5.9-1.6c-0.6,0-1,0.1-1.3,0.4c-0.3,0.3-0.4,0.6-0.4,1c0,0.7,0.5,1.2,1.6,1.6l2.6,0.9c3.7,1.3,5.6,3.6,5.6,6.8
			c0,2.1-0.8,3.8-2.3,5c-1.5,1.2-3.7,1.8-6.6,1.8C91.1,708.2,88.4,707.5,86,706.1z"/>
		<path class="st7" d="M113.6,705.1c0.1-0.9,0.4-1.8,0.9-2.8c0.5-0.9,1.1-1.7,1.7-2.3c3,1.8,5.8,2.7,8.5,2.7c1.2,0,2-0.3,2.6-0.8
			c0.5-0.5,0.8-1.2,0.8-2c0-1.3-0.9-2.4-2.6-3.1l-5-2.1c-1.9-0.9-3.4-1.9-4.5-3.1c-1-1.2-1.6-2.8-1.6-4.6c0-1.3,0.3-2.5,0.8-3.5
			c0.5-1.1,1.2-2,2.2-2.8c0.9-0.8,2.1-1.4,3.3-1.8c1.3-0.4,2.7-0.7,4.3-0.7c3.1,0,6.3,0.8,9.5,2.4c-0.1,2.2-0.9,3.8-2.3,5
			c-2.9-1.4-5.4-2.1-7.6-2.1c-1.1,0-2,0.3-2.5,0.8c-0.6,0.5-0.8,1.1-0.8,1.7c0,1.1,0.8,2,2.5,2.6l5,2.1c2.1,0.9,3.7,2,4.8,3.4
			c1.1,1.4,1.6,3,1.6,4.9c0,1.3-0.2,2.5-0.7,3.6c-0.5,1.1-1.2,2-2.1,2.8c-0.9,0.8-2.1,1.4-3.5,1.9c-1.4,0.4-3,0.7-4.9,0.7
			C120.4,708.2,116.9,707.2,113.6,705.1z"/>
		<path class="st7" d="M155.3,699.2h-10.9c0.1,1.2,0.4,2.2,1,2.9c0.6,0.7,1.5,1,2.9,1c0.7,0,1.4-0.1,2.3-0.3c0.9-0.2,1.9-0.5,3-0.9
			c0.9,1,1.5,2.2,1.7,3.9c-2.2,1.6-5,2.4-8.2,2.4c-1.8,0-3.2-0.3-4.4-0.8c-1.2-0.6-2.2-1.3-2.9-2.4c-0.7-1-1.3-2.2-1.6-3.6
			c-0.3-1.4-0.5-2.9-0.5-4.5c0-1.6,0.2-3,0.6-4.3c0.4-1.3,1-2.5,1.7-3.5c0.8-1,1.8-1.7,2.9-2.3c1.2-0.6,2.6-0.8,4.2-0.8
			c1.3,0,2.6,0.2,3.6,0.7c1.1,0.4,2,1.1,2.8,1.8c0.8,0.8,1.3,1.7,1.7,2.8c0.4,1.1,0.6,2.3,0.6,3.6
			C155.8,696.6,155.6,698,155.3,699.2z M144.3,694.7h5.5v-0.5c0-1-0.2-1.9-0.7-2.6c-0.5-0.7-1.1-1-2.1-1c-0.9,0-1.5,0.3-2,0.9
			C144.6,692.2,144.4,693.2,144.3,694.7z"/>
		<path class="st7" d="M172.1,686.6c0.2,0.8,0.3,1.6,0.3,2.3c0,0.8-0.1,1.5-0.3,2.3l-5-0.1v9.7c0,1.3,0.6,2,1.8,2h2.4
			c0.4,1,0.5,1.9,0.5,2.8c0,0.8-0.1,1.5-0.2,1.8c-2.1,0.3-4,0.4-5.7,0.4c-3.5,0-5.3-2-5.3-5.9v-10.8l-3.3,0
			c-0.2-0.7-0.3-1.5-0.3-2.3c0-0.8,0.1-1.6,0.3-2.4l3.3,0.1v-2.4c0-1.4,0.3-2.4,0.8-3c0.5-0.6,1.5-0.9,2.8-0.9h2.6l0.3,0.3v6.1
			L172.1,686.6z"/>
	</g>
</g>
<g class="st0">
	<g class="st6">
		<g>
			<path class="st8" d="M443.1,278.4l-4.1-17.2H263.2l-4.1,17.2c-0.2,0.6-0.3,1.3-0.3,2c0,6.3,7.5,8.5,10.7,9.4
				c4.6,1.4,11.2,2.6,19.5,3.6c16.6,2.1,38.7,3.2,62.1,3.2c23.4,0,45.5-1.1,62.1-3.2c8.3-1,14.8-2.2,19.5-3.6
				c3.2-0.9,10.7-3.1,10.7-9.4C443.3,279.7,443.2,279.1,443.1,278.4z"/>
			<g>
				<path class="st9" d="M333.1,261.2l0,35.2c5.8,0.1,11.8,0.2,17.9,0.2c17.9,0,34.9-0.7,49.4-1.9v-33.5H333.1z"/>
			</g>
			<polygon class="st10" points="438.2,261.7 442.1,284.2 433.7,268.2 433.4,289.1 423.9,271.3 421.4,291.9 410.8,273.2 405,293.4 
				395.2,274.8 389,294.2 378.5,275.2 370.5,295.8 360,276 351.2,295.4 351.1,295.4 342.4,276 331.8,295.8 323.8,275.2 313.3,294.2 
				307.1,274.8 297.3,293.4 291.5,273.2 281,291.9 278.4,271.3 268.9,289.1 268.6,268.2 260.2,284.2 263.8,261 			"/>
			<g>
				<path class="st11" d="M351.1,278.2c-22.4,0-43.6-1.1-59.5-3c-7.9-1-14.2-2.1-18.6-3.4c-3.1-0.9-10.2-3-10.2-8.9
					c0-6,7.2-8.1,10.2-8.9c4.5-1.3,10.7-2.5,18.6-3.4c15.9-2,37.1-3,59.5-3c22.4,0,43.6,1.1,59.5,3c7.9,1,14.2,2.1,18.6,3.4
					c3.1,0.9,10.2,3,10.2,8.9c0,6-7.2,8.1-10.2,8.9c-4.5,1.3-10.7,2.5-18.6,3.4C394.7,277.1,373.5,278.2,351.1,278.2z"/>
				<path class="st12" d="M351.1,276.6c-22.3,0-43.3-1.1-59.2-3c-7.9-1-14.1-2.1-18.5-3.4c-3-0.9-10.1-3-10.1-8.9
					c0-6,7.1-8.1,10.1-8.9c4.4-1.3,10.7-2.5,18.5-3.4c15.8-2,36.8-3,59.2-3c22.3,0,43.3,1.1,59.2,3c7.9,1,14.1,2.1,18.5,3.4
					c3,0.9,10.1,3,10.1,8.9c0,6-7.1,8.1-10.1,8.9c-4.4,1.3-10.7,2.5-18.5,3.4C394.4,275.6,373.4,276.6,351.1,276.6z"/>
				<path class="st13" d="M428.8,252.3c-4.4-1.3-10.7-2.5-18.5-3.4c-15.8-2-36.8-3-59.2-3c-22.3,0-43.3,1.1-59.2,3
					c-7.9,1-14.1,2.1-18.5,3.4c-2.7,0.8-8.4,2.5-9.8,6.9c1.4,4.4,7.2,6.1,9.8,6.9c4.4,1.3,10.7,2.5,18.5,3.4c15.8,2,36.8,3,59.2,3
					c22.3,0,43.3-1.1,59.2-3c7.9-1,14.1-2.1,18.5-3.4c2.7-0.8,8.4-2.5,9.8-6.9C437.2,254.7,431.4,253.1,428.8,252.3z"/>
				<path class="st14" d="M433.9,259.6c0,5.7-37.1,10.3-82.8,10.3c-45.7,0-82.8-4.6-82.8-10.3c0-5.7,37.1-10.3,82.8-10.3
					C396.8,249.4,433.9,254,433.9,259.6z"/>
				<g>
					<path class="st8" d="M432.9,261.2c0.7-0.5,1-1.1,1-1.6c0-5.7-37.1-10.3-82.8-10.3c-45.7,0-82.8,4.6-82.8,10.3
						c0,0.5,0.3,1.1,1,1.6c6.2-4.9,40.5-8.7,81.8-8.7C392.4,252.6,426.7,256.3,432.9,261.2z"/>
				</g>
			</g>
		</g>
		<path class="st15" d="M378.4,263.1c0,1.1-12.1,2-27,2c-14.9,0-27-0.9-27-2c0-1.1,12.1-2,27-2C366.3,261.1,378.4,262,378.4,263.1z"
			/>
	</g>
	<g class="st6">
		<g>
			<path class="st16" d="M309.3,127.2C309.3,127.2,309.3,127.1,309.3,127.2C309.3,127.1,309.3,127.2,309.3,127.2z"/>
			<path class="st16" d="M309.2,127.3C309.2,127.3,309.2,127.3,309.2,127.3C309.2,127.3,309.2,127.3,309.2,127.3z"/>
			<path class="st17" d="M306.4,126L306.4,126C306.4,126,306.4,126,306.4,126z"/>
			<path class="st18" d="M316,128.7C316,128.7,316,128.7,316,128.7c0-0.2,0-0.3,0.1-0.4c0-0.2,0.2-1.1,0.7-1.8
				c0.1-0.1,0.4-0.8,0.3-2c0-0.5-0.1-1.9-0.1-1.9v0c0-0.4,0-0.8,0-1.1c-0.1-0.5-0.9-0.7-1.4,0.1c-0.3,0.6-0.2,2.1-0.1,2.6
				c0,0,0,0.1,0,0.1c-0.1,0.5-0.2,1-0.1,1.4c0,0.8,0.2,1.7,0.1,2.3c-0.1,0.4-0.4,1.2-0.8,1.4c-0.3,0.2-1,0.4-1.4,0.3
				c-0.4-0.1-0.9-0.8-1.1-1.1c-0.1-0.2-0.2-0.9-0.2-0.9l0.2,0.8c0,0,0-1.3-0.1-1.8c0-0.4,0.1-1.7-0.1-1.7c-0.3,0-0.1,1.3-0.1,1.7
				c0,0.2,0.1,0.9,0.1,0.9s-0.3,0.5-0.6,0.5c-0.3,0.1-0.9,0.2-1.1,0.1c-0.2-0.1-0.6-0.5-0.8-0.7c-0.1-0.1-0.2-0.5-0.2-0.5
				s-0.3-2-0.6-1.9c-0.2,0.1,0.5,2.1,0.5,2.1c-0.1,0.1-0.2,0.2-0.5,0.3c-0.2,0.1-0.8,0-1-0.2c-0.4-0.2-1.3-1.5-1.3-1.5
				s-0.3-0.7-0.5-1c0,0-0.2-0.1-0.2-0.1c-0.2,0.1,0.6,0.9,0.7,1c-0.1,0-0.3,0.2-0.5,0.2c-0.4,0-1.1-0.6-1.3-0.9
				c-0.4-0.4-1.1-1.3-1.3-1.9c-0.1-0.3-0.3-1.5-0.3-1.7c0,0,0-0.1,0-0.1c0-3.3,0.7-6.2,1-7.4c0.1-0.4,0.3-1,0.4-1.8
				c0.1-2.4,0-5.9,0-5.9l0-0.5v-0.1v-0.3h10.4c0,0-0.2,4.9-0.1,6.3c0,0.4,0.1,1.2,0.3,1.5c0.3,0.5,1.1,1.1,1.7,1.6
				c0.2,0.2,0.8,0,1.9,1.6c0.6,0.8,1.6,3.1,1.6,3.9c0,0.2,0,0.3,0,0.5c0,0.9-0.1,3.9-0.1,4.8c0,0.2-0.2,0.6-0.3,0.7
				c-0.3,0.4-1.2,1.1-1.6,1.5c0,0-1,1.3-1,1.3c0,0-0.1,0.1-0.1,0.1c-0.1,0-0.3,0.1-0.4,0C316.3,129.4,316.1,129.2,316,128.7z"/>
			<path class="st19" d="M312,125.1c0.2,0,0.1,1.2,0.1,1.7c0,0.4,0.1,1.8,0.1,1.8l-0.2-0.8c0,0-0.1-0.7-0.1-0.9
				C311.9,126.3,311.8,125.1,312,125.1z"/>
			<path class="st16" d="M309.2,127.3C309.2,127.3,309.2,127.3,309.2,127.3C309.2,127.3,309.2,127.3,309.2,127.3
				C309.3,127.2,309.3,127.3,309.2,127.3z"/>
			<path class="st16" d="M309.2,127.4L309.2,127.4C309.2,127.3,309.2,127.3,309.2,127.4C309.2,127.3,309.2,127.4,309.2,127.4z"/>
			<path class="st19" d="M308.7,125.3c0.3-0.1,0.6,1.9,0.6,1.9s0,0.1,0,0.1c0,0,0,0,0,0c0,0,0,0,0,0c0,0,0,0.1-0.1,0.1
				C309.2,127.4,308.5,125.3,308.7,125.3z"/>
			<polygon class="st20" points="306.4,126 306.4,126 306.4,126 			"/>
			<path class="st19" d="M305.6,125c0,0,0.2,0,0.2,0.1c0.2,0.2,0.5,1,0.5,1l0,0l0,0C306.2,125.9,305.5,125,305.6,125z"/>
			<path class="st19" d="M315.9,128c0-0.3,0.2-0.8,0.2-1.1c0.2-0.6,0.5-0.8,0.7-1.1c0.1-0.1,0.1-0.1,0.1-0.2c0-0.1,0-0.1,0-0.2
				c0-0.3,0-0.3-0.1-0.7c-0.1-0.7,0-1,0-1.4c-0.1-0.6-0.5-0.8-0.7-0.8c-0.3,0-0.6,1.1-0.7,2.2c0,0-0.4-2.7,0.1-3.4
				c0.5-0.7,1-0.5,1.3-0.1c0,0,0,0,0,0.1c0,0,0,0.1,0.1,0.2c0,0,0,0.1,0,0.1c0,0.2,0.1,0.3,0.2,0.2c0.1-0.1,0.5-0.2,0.4,0
				c0,0.3-0.4,0.3-0.4,0.6c0,0.2,0.3,0.2,0.4,0.2c0.3,0.2-0.2,0.3-0.3,0.4c-0.4,0.2-0.3,1.2-0.3,1.4c0.1,1,0.3,1.3,0.3,1.3
				c0,0,0,0,0,0c0,0,0,0,0,0l0,0c0.2,0.2,0.4,0.4,0.3,0.6c-0.1,0.1-0.3-0.1-0.5-0.1c0,0,0,0,0,0c-0.3,0-0.4,0.2-0.5,0.2
				c-0.5,0.8-0.7,1.6-0.7,1.8c0,0.1,0,0.2,0,0.3c0,0,0,0.1,0,0.1C315.9,128.5,315.9,128.3,315.9,128z"/>
		</g>
		<path class="st21" d="M345.1,190.9c0,0,44.4-9.9,52.2-21.7c1.8-2.7,0-13.1,0-13.1l-27.6-16.8l-56.4,9.8c0,0,2,21.1,2.5,21.5
			C316.3,170.9,345.1,190.9,345.1,190.9z"/>
		<g>
			<g>
				<path class="st22" d="M322.7,218.8c0,0-9.2,0-12.8,4.7c-4.8,6.3-0.8,12.6,8.3,11.5c10.9-1.2,24.2-13.8,24.2-13.8l1.9,1.3l9.1-6
					c0,0-3.4-10.8-9.1-12.8c-1.8-0.6-5.8,0.6-5.8,0.6L322.7,218.8z"/>
				<g>
					<path class="st23" d="M351.8,212.6c-1.1,0.8-7.6,5.9-9.8,7.7c-5.4,4.4-14.8,11.8-24.6,12.9c-4.6,0.5-8-0.9-9.5-3.4
						c0.5,3.6,4.3,6.1,10.3,5.4c10.9-1.2,24.2-13.8,24.2-13.8l1.9,1.3l9.1-6C353.4,216.6,352.8,214.8,351.8,212.6z"/>
				</g>
				<path class="st7" d="M317.2,229.2c-2,0.3-3.7,0-3.8-0.7c-0.1-0.7,1.6-0.3,3.7-0.6c2-0.3,3.6-1.1,3.7-0.4L317.2,229.2z"/>
				<path class="st24" d="M338.1,213l6.8,4.9l7-5.4c0,0-4.4-8.7-8-8.7C341.2,203.8,338.1,213,338.1,213z"/>
			</g>
			<polygon class="st22" points="354.8,222.1 352.3,245.8 360.8,244 367.5,225.5 			"/>
			<polygon class="st22" points="351.4,244 361.4,244 363.3,254.2 350.3,259.9 			"/>
			<path class="st22" d="M361.2,253.5c-6,0-10.9,2.6-10.9,5.9v3.5h21.8v-3.5C372.1,256.2,367.2,253.5,361.2,253.5z"/>
			<path class="st25" d="M309.7,154c0,0-6.8,9.1-8.5,12.1c-2.6,4.6-2.2,10.5,0,14.9c3.9,7.7,18.1,29.5,18.1,29.5s10.3,2,16.6-4.1
				c5.5-5.3,3.4-10.4,3.4-10.4l-13.2-18.5c5.5-3.7,18.9-15.7,18.9-15.7s6.7,10.9,6.5,30.6c-0.1,5.7,0.2,17.1-0.2,22.8
				c-0.2,3.1-1.4,12.2-1.4,12.2s11.8,5.4,16.1,6.2c1.7,0.3,7,0,7,0s5.1-23.4,6.4-31.2c1.3-8.3,3.2-24.8,3.8-33.1
				c0.7-9.6-0.2-38.4-0.2-38.4l-38-10.5l-22,15.8L309.7,154z"/>
			<path class="st26" d="M342.2,155.3c1.4,4.7-24.4,23.6-24.4,23.6c1.8,0.8,5.9,10.6,10.4,17.7c4.5,7.1,2.8,8.5,0.3,10.6l4,0.4
				c0,0,5.3-0.8,7.1-4.3c1.1-2-1.2-6.6-0.6-7.8l-12.8-18c5.5-3.7,18.9-15.7,18.9-15.7C344.4,159.8,342.2,155.3,342.2,155.3z"/>
			<g>
				<polygon class="st27" points="357.9,230.8 357.9,230.8 357.9,230.8 				"/>
				<path class="st26" d="M383,169.2c0.5-7.4,0.1-26.4-0.1-34.6l-7.7-1.2c0,0,0.7,17.8,0,23.7c-9.2,82.2-17.3,73.7-17.3,73.7l0,0
					l15.2,1.8c1-4.4,5.1-23.4,6.2-30.3C380.5,194.1,382.4,177.6,383,169.2z"/>
			</g>
			<path class="st28" d="M349.1,224.7c0,0,6.1,4.3,13.4,5.8c9.1,1.8,12.7,0.6,12.7,0.6l-0.5,10.9c0,0-6.7,1.7-16.4-0.4
				c-7.3-1.5-12-5.4-12-5.4L349.1,224.7z"/>
			<path class="st23" d="M350.3,260.4c0,0,3.8,0.7,11.2,0.7c8.3,0,10.6-0.7,10.6-0.7v2.5c0,0-2.6,0.7-10.6,0.7
				c-7.7,0-11.2-0.7-11.2-0.7V260.4z"/>
			<path class="st28" d="M317.3,209.1l4.8,9.6c0,0,7.5,1.3,13.9-3.5c8.7-6.7,8.3-11.3,8.3-11.3l-4.8-9.5c0,0,0.1,7.1-6.2,11.5
				C326.3,210.8,317.3,209.1,317.3,209.1z"/>
			<path class="st29" d="M338.3,195.1c0,0,0.4-0.3,0.5-0.4c0.6-0.4,0.6-0.2,0.6-0.2s1.3,7.6-7.1,12.5c-7.4,4.3-15,2.2-15,2.2
				s-0.2-0.1,0-0.6c0.1-0.2,0.2-0.4,0.2-0.4s6.6,1.5,13.5-2.2C339.6,201.3,338.3,195.1,338.3,195.1z"/>
			<g class="st30">
				<path class="st29" d="M344.2,203.8l-4.8-9.5c0,0,0.1,7.1-6.2,11.5c-1,0.7-2,1.3-3.1,1.7l0.4,0.1c0,0,7.1,6,7.9,5.3
					C344.6,207.6,344.2,203.8,344.2,203.8z"/>
			</g>
			<g>
				<path class="st31" d="M339.5,194.4c0,0,0-0.2-0.6,0.2c-0.2,0.1-0.5,0.4-0.5,0.4s1.2,6.3-7.2,10.8c-0.9,0.5-1.9,0.9-2.8,1.2l0,0
					l2.2,0.6c0.6-0.3,1.2-0.6,1.8-0.9C340.8,202,339.5,194.4,339.5,194.4z"/>
			</g>
			<path class="st29" d="M373.8,229.3c0,0,0.5,0.3,0.8,0.5c1,0.7,0.7,1.3,0.7,1.3s-5.5,1.6-14.2-0.5c-7.3-1.8-12-5.8-12-5.8
				s-0.2-0.3,0.1-0.4c0.5-0.4,1.1-0.4,1.1-0.4s3.6,3.9,11.1,5.4C370.9,231.2,373.8,229.3,373.8,229.3z"/>
			<g class="st30">
				<path class="st29" d="M374.8,241.9l0.5-10.9c0,0-3.6,1.2-12.7-0.6c-1.3-0.3-2.6-0.6-3.7-1v0.4l-2.7,11.2
					c0.7,0.2,1.4,0.4,2.2,0.6C368.1,243.6,374.8,241.9,374.8,241.9z"/>
			</g>
			<g>
				<path class="st31" d="M375.2,231c0,0,0.3-0.5-0.7-1.3c-0.2-0.2-0.8-0.5-0.8-0.5s-2.9,1.9-12.5,0c-0.9-0.2-1.8-0.4-2.5-0.6h0v1.3
					l0,0c0.7,0.2,1.5,0.5,2.3,0.7C369.8,232.7,375.2,231,375.2,231z"/>
			</g>
		</g>
		<path class="st26" d="M330,131c0,1.1-19.2,22.2-20.1,23.3c-1.2,1.5,9.7-1.2,22-8.7c2.1-1.3,17.7-12.2,20.5-12.2
			c2.6,0,8.9,13.3,12.7,13.3c1.8,0,5.5-3.7,7.2-4.7c0.7-0.4,6.2,17.8,10.6,14.4c1.6-1.2-2.7-90.7-2.7-90.7l-9.4-5.7
			c0,0-0.7,4.5-6.8,4.6c-6.7,0.2-8.2-2.9-8.2-2.9S330.2,111.4,330,131z"/>
		<path class="st28" d="M375.5,24.5c0,0-7.3-2.8-11.3-14.3c-1-3-10.7-4.1-13.8-3.1c-10,3.3-19.5,15.9-14.7,18.9
			c3.8,2.4,6.9,7.8,6.9,7.8L375.5,24.5z"/>
		<path class="st32" d="M378.5,32.5c0,0-7.3-2.8-11.3-14.3c-1-3-10.7-4.1-13.8-3.1c-10,3.3-19.5,15.9-14.7,18.9
			c3.8,2.4,6.9,7.8,6.9,7.8L378.5,32.5z"/>
		<path class="st33" d="M362.4,18.5l-3.2-11c-3.2-0.7-7-0.8-8.7-0.2c-3.3,1.1-6.5,3.2-9.2,5.6c2.4,3,8.8,11.6,8.8,11.6L362.4,18.5z"
			/>
		<path class="st7" d="M370.6,52.6c8-4.9,17.9-11.4,14.1-20.4c-0.5-1.2-2-3.5-2.9-4.6c-1.8-2.3-3.3-9.6-5.5-11.5
			c-2.8-2.5-15.4-0.2-19,0.8c-11.9,3.5-27.7,13.5-27.7,20.3c0,2.6,3.8,7.8,5.2,10.1c1,1.7,3.4,6.8,5.1,7.8c4,2.4,20.8,2.3,20.8,2.3
			S368.7,53.8,370.6,52.6z"/>
		<path class="st34" d="M371.4,54.4c8.1-4.9,18.1-12.9,14.3-22c-0.5-1.3-6.3-12.9-8.5-14.9c-2.9-2.5-15.6-0.3-19.2,0.9
			c-9.7,3-28.1,13.7-28.1,20.6c0,2.7,8.7,17.1,10.4,18.1c4.1,2.4,21,2.4,21,2.4S369.4,55.6,371.4,54.4z"/>
		<g class="st35">
			<path class="st36" d="M386,34.8c-0.3-1.2-7,0.1-7.6-0.9c-1.2-2.3-6.7-1.1-8.1-3c-1.9-2.5-5.8-7.7-8.4-7.3c-2.2,0.4-6,3.5-8,4.7
				c-1.3,0.8-4.3,2.1-5.3,3.5c-1.6,2.2-7.7,8.6-9.9,15.1c-1,3-2.1,5.3,1.1,9.8c1.3,1.8,2.2,2.3,3.4,3.3l3.6-1.3
				c4.6,0.3,14.6,0.8,14.6,0.8s8.1-3.8,10.1-5c3.1-1.9,6.4-4.2,9.2-6.8C383.7,44.2,387.3,39.9,386,34.8z"/>
		</g>
		<polygon class="st22" points="370.9,56.3 364.1,56.4 355.9,58.2 356,62.9 371.1,64 		"/>
		<g>
			<path class="st37" d="M372.4,25.3c0.1,2.1-1.5,3.9-3.6,4c-2.1,0.1-3.9-1.5-4-3.6c-0.1-2.1,1.5-3.9,3.6-4
				C370.5,21.6,372.3,23.2,372.4,25.3z"/>
			<path class="st37" d="M367.6,30.2c0.1,2.6,2.3,4.5,4.9,4.4c2.6-0.1,4.5-2.3,4.4-4.9c-0.1-2.6-2.3-4.5-4.9-4.4
				C369.5,25.5,367.5,27.7,367.6,30.2z"/>
			<path class="st37" d="M368.4,36.5c0.2,3.1,2.8,5.4,5.8,5.2c3.1-0.2,5.4-2.8,5.2-5.8c-0.2-3.1-2.8-5.4-5.8-5.2
				C370.6,30.8,368.3,33.4,368.4,36.5z"/>
			<path class="st37" d="M374.9,33.1c0.1,2.4,2.1,4.2,4.5,4.1c2.4-0.1,4.2-2.1,4.1-4.5c-0.1-2.4-2.1-4.2-4.5-4.1
				C376.6,28.7,374.8,30.7,374.9,33.1z"/>
			<path class="st37" d="M377.8,32.5c-0.1-1.2-0.7-2.3-1.5-3.1c0,0.2,0.1,0.4,0.1,0.6c0.1,2.4-1.7,4.4-4.1,4.5c-1.1,0.1-2.2-0.3-3-1
				c0.4,2,2.3,3.5,4.4,3.4C376.1,36.9,377.9,34.9,377.8,32.5z"/>
			<path class="st37" d="M366.7,27.3c-0.6,0.8-0.8,1.9-0.7,2.8c0.1-0.2,0.2-0.3,0.3-0.5c1.2-1.6,3.5-1.9,5-0.7
				c0.8,0.6,1.2,1.4,1.4,2.2c0.8-1.5,0.4-3.5-1-4.6C370.1,25.4,367.9,25.8,366.7,27.3z"/>
			<path class="st37" d="M370.5,25.7c0.1,1.7,1.5,3,3.2,2.9c1.7-0.1,3-1.5,2.9-3.2c-0.1-1.7-1.5-3-3.2-2.9
				C371.7,22.6,370.4,24,370.5,25.7z"/>
			<path class="st37" d="M374.6,27.2c0.1,1.4,1.3,2.5,2.7,2.5c1.4-0.1,2.5-1.3,2.5-2.7c-0.1-1.4-1.3-2.5-2.7-2.5
				C375.6,24.6,374.5,25.8,374.6,27.2z"/>
		</g>
		<g>
			<path class="st37" d="M342.4,34.2c1.1,1.8,3.5,2.3,5.3,1.2c1.8-1.1,2.3-3.5,1.2-5.3c-1.1-1.8-3.5-2.3-5.3-1.2
				C341.8,30,341.2,32.4,342.4,34.2z"/>
			<path class="st37" d="M349.1,35.4c1.4,2.2,0.7,5-1.5,6.4c-2.2,1.4-5,0.7-6.4-1.5c-1.4-2.2-0.7-5,1.5-6.4
				C344.9,32.6,347.7,33.3,349.1,35.4z"/>
			<path class="st37" d="M352,41c1.6,2.6,0.8,6-1.8,7.6c-2.6,1.6-6,0.8-7.6-1.8c-1.6-2.6-0.8-6,1.8-7.6
				C346.9,37.6,350.4,38.4,352,41z"/>
			<path class="st37" d="M346.1,37.2c1.4-1.4,3.6-1.4,5,0c0.2,0.2,0.4,0.5,0.6,0.8c0.1-1-0.3-2-1-2.7c-1.4-1.4-3.6-1.4-5,0
				c-1.2,1.1-1.4,2.9-0.6,4.2C345.1,38.6,345.4,37.8,346.1,37.2z"/>
			<path class="st37" d="M344.7,42c1.3,2,0.6,4.7-1.4,5.9c-2,1.3-4.7,0.6-5.9-1.4c-1.3-2-0.6-4.7,1.4-5.9
				C340.8,39.3,343.5,39.9,344.7,42z"/>
			<path class="st37" d="M344.1,33c0.9,1.4,0.5,3.3-1,4.2c-1.4,0.9-3.3,0.5-4.2-1c-0.9-1.4-0.5-3.3,1-4.2
				C341.3,31.1,343.2,31.6,344.1,33z"/>
			<path class="st37" d="M341.6,37c0.8,1.2,0.4,2.8-0.8,3.6c-1.2,0.8-2.8,0.4-3.6-0.8c-0.8-1.2-0.4-2.8,0.8-3.6
				C339.3,35.4,340.9,35.8,341.6,37z"/>
			<path class="st37" d="M350.3,41.3c-2.6,1.6-6,0.8-7.6-1.8c-0.3-0.4-0.5-0.9-0.6-1.4c-0.4,1.5-0.3,3.1,0.6,4.5
				c1.6,2.6,5,3.4,7.6,1.8c2.2-1.3,3.1-3.9,2.4-6.3C352.3,39.4,351.5,40.5,350.3,41.3z"/>
		</g>
		<polygon class="st38" points="369.6,60.3 363.2,65.7 356.7,60.3 356.7,47.2 369.6,47.2 		"/>
		<path class="st39" d="M369.6,54.4c0,0-0.5,5.4-6.4,5.4c-5.4,0-6.5-5.4-6.5-5.4v-4.1h12.8V54.4z"/>
		<path class="st28" d="M307.3,84.5c-3.1,4-2.4,15.7-4.1,20.5c-0.4,1.1-2,4-2,4l18.9-1.8l1.3-6.3l1.4-7.7c0,0,5.4-0.4,7.2-2
			c4.8-4.4,4.2-19,4.2-25.4C334.3,65.7,311.1,79.7,307.3,84.5z"/>
		<path class="st32" d="M333.5,129.1c0,1.9,0,10.9,2.9,10.9c1.5,0,14.1-10.9,16.9-10.9c2.6,0,10.4,14.4,12.1,15
			c2.1,0.9,8.2-10.4,17.6-9.5c18.2,1.9-2.6-72.5-2.6-72.5l-9.4-5.7c0,0-0.7,4.5-6.8,4.6c-6.7,0.2-8.2-2.9-8.2-2.9
			S333.6,109.5,333.5,129.1z"/>
		<g>
			<path class="st40" d="M360.9,87.9c-1.6,0-2.9,1.3-2.9,2.9c0,1.6,1.3,2.9,2.9,2.9s2.9-1.3,2.9-2.9
				C363.8,89.2,362.5,87.9,360.9,87.9z"/>
			<path class="st40" d="M358,111c-1.6,0-2.9,1.3-2.9,2.9c0,1.6,1.3,2.9,2.9,2.9c1.6,0,2.9-1.3,2.9-2.9
				C360.9,112.3,359.6,111,358,111z"/>
		</g>
		<path class="st28" d="M351.4,62.4c-5.5,0.3-10.6,1-14.2,1.9c-1,0.3-3.1,1.2-3.7,2.1c-1.7,2.6-0.7,9.3-1.4,12.3
			c-1,3.9-4.3,10.4-5.4,14.2c-2.7,9.9-2.4,31.3-6.8,40.7c-1.3,2.8-6,8.7-7.4,11.5c-1.2,2.5-2.7,8.8-2.7,8.8s19.1-8.7,23.4-14.2
			c8.2-10.4,13.6-37.7,16-50.8c1-5.2,1.8-21.2,1.8-21.2l0.5,0V62.4z"/>
		<path class="st28" d="M399.4,100.2c-0.1-6.5,3.9-20.5,0.5-26.1c-3.1-5.1-15.4-9.1-21.3-10.4c-1.3-0.3-2.9-0.6-4.6-0.8v3.2l3.6-0.3
			c0,0-3.2,37.3-2.5,49.7c0.5,8.5,2.3,30.8,8.6,36.5c11.3,10.3,13.7,17.2,13.7,17.2s4.1-7.7,4.8-16.3
			C403.2,139.7,399.5,113.3,399.4,100.2z"/>
		<path class="st28" d="M397.9,71.9c15,11.4,21.7,28.4,22.5,31.5c0.4,1.4,0.2,4.4,0,5.8c-0.9,5.2-6,18.7-6,18.7l-15.2-8.3
			c0,0-0.8-3.2-0.2-4c0.4-0.6,2.8-1.7,2.9-2.5c0.6-7.5,3.3-9.5,3.1-10c-0.7-1.7-6.1-0.3-7.2-1.8C393.7,96.1,392.6,67.9,397.9,71.9z"
			/>
		<g>
			<path class="st7" d="M370.7,33.1c1,3.2,4.5,6.9,4.2,10.1c-0.5,6.2-4.9,11.8-9.5,13.2c-4.4,1.3-11.1-1.2-14.9-5.8
				c-2.2-2.6-1.1-6.7-2.1-10.1c-2.8-9.4-0.2-15.9,6.8-18C362.1,20.3,367.8,23.7,370.7,33.1z"/>
			<path class="st41" d="M358.3,38.3c-0.4-1.8-2.4-8.4-5.8-7.2s-3.2,4.7-2.7,6.3c0.5,1.7,2,4.1,6.5,2.1
				C360.8,37.5,358.3,38.3,358.3,38.3z"/>
			<path class="st41" d="M362.6,37.6c-0.7-1.7-3.1-8.2,0.3-9.2c3.4-1.1,5.4,1.8,6,3.5s1.1,4.6-3.7,5.7
				C360.3,38.6,362.6,37.6,362.6,37.6z"/>
			<path class="st42" d="M367.4,34.6c0.2,0.8-0.2,1.7-1,1.9c-0.8,0.2-1.7-0.2-1.9-1c-0.2-0.8,0.2-1.7,1-1.9
				C366.3,33.3,367.2,33.8,367.4,34.6z"/>
			<path class="st42" d="M352.8,38.9c0.3,0.9,1.2,1.4,2,1.1c0.9-0.3,1.4-1.2,1.1-2c-0.3-0.9-1.2-1.4-2-1.1
				C353,37.1,352.5,38,352.8,38.9z"/>
			<path class="st7" d="M351.6,41.2c0.5-1.4,3.3-3,5.2-2.4c1.8,0.6,1.2,0.5-0.4,1.9C354.7,42,351.6,41.2,351.6,41.2z"/>
			<path class="st7" d="M369.8,36.3c-1.2-1-4.5-0.8-5.8,0.7c-1.3,1.4-0.8,1,1.4,1.4C367.5,38.6,369.8,36.3,369.8,36.3z"/>
			<g>
				<path class="st28" d="M365.1,40.1c0.7,2.3-0.6,4.6-2.8,5.3c-2.3,0.7-4.6-0.6-5.3-2.8c-0.7-2.3,0.6-4.6,2.8-5.3
					C362.1,36.6,364.5,37.8,365.1,40.1z"/>
			</g>
			<g>
				<path class="st42" d="M363.5,28.3c2-0.6,4.2,0.9,5.2,3.5c0-0.2-0.1-0.3-0.1-0.5c-0.8-2.8-3.2-4.6-5.3-4
					c-2.1,0.6-3.1,3.4-2.3,6.2c0,0.2,0.1,0.3,0.2,0.5C360.5,31.4,361.5,28.9,363.5,28.3z"/>
			</g>
			<g>
				<path class="st42" d="M352.2,31.7c-2,0.6-3,3.1-2.4,5.7c-0.1-0.2-0.1-0.3-0.2-0.5c-0.8-2.8,0.2-5.6,2.3-6.2
					c2.1-0.6,4.5,1.1,5.3,4c0,0.2,0.1,0.3,0.1,0.5C356.4,32.7,354.2,31.1,352.2,31.7z"/>
			</g>
			<g>
				<path class="st28" d="M363.1,48.5c-4.5,1.4-8.7,1.1-10.1-0.4c0,0,0,0.1-0.1,0.1c-0.4,1.1,2.9,1.9,4,2.3c1.6,0.6,3.8,2.6,6.9,1.7
					c3-0.9,3.9-3.4,4.9-4.7c0.9-1.2,3.9-4.3,2.7-5.1C371.2,44.5,367.8,47.1,363.1,48.5z"/>
				<path class="st29" d="M363.1,48.5c4.7-1.4,8.1-4,8.2-6.1c0,0,0,0,0,0c-1-0.7-2.6,3-3.8,3.5c-0.7,0.3-2.5,0-3.3,0.3
					c-0.5,0.1-1.4,0.8-1.9,1c-0.4,0.1-1.6,0.1-2,0.2c-0.8,0.2-2.1,1.1-2.9,1.3c-1.2,0.2-4-1.3-4.6-0.5
					C354.4,49.6,358.6,49.9,363.1,48.5z"/>
			</g>
		</g>
		<g>
			<path class="st29" d="M326.6,123.1c0.6-3.1,0.2-10.1,1-17.3c1.2-10.7,3.6-21.9,3.6-21.9s-1.8,2.4-5.8,3.8
				c-3.3,1.1-5.2,1.7-5.2,1.7s-1.6,8.7-4.2,17.1c-0.1,0.5-0.6,0.8-0.9,1.3l5.1-0.6c0,0,0.6-3.7,1-4.9c0.4-1.1,2.2-9.7,5.6-9.7
				c0,0.1-0.1,0.2-0.1,0.4c-2.7,9.9-2.4,31.3-6.8,40.7c-1.3,2.8-6,8.7-7.4,11.5c-0.8,1.7-1.7,5.1-2.3,7.1c0.8-1.4,2.6-4.5,5.3-8.1
				C320.1,137.6,324.3,135.4,326.6,123.1z"/>
		</g>
		<g>
			<path class="st29" d="M407.1,109.6c0.5-2.1,2.9-8.2,2.9-8.2s-4.1-1.1-7.6-6c-2.4-3.3-4.2-8.9-4.2-8.9s-2.6,12.6-3,16.9
				c-0.7,6.8-0.7,14.5,0,21.3c0.6,5.7-6.2,5.2-5.4,15.1c0.1,0.7,9,6.9,9.1,7.7c0.3,5.2,0.2,11.7-0.7,20.1c1.2-2.7,3.6-8.5,4.1-14.8
				c0.6-7.9-0.5-20.6-1.5-32.4l6,3.2l-0.8-3.5C406,120.3,406.5,112.2,407.1,109.6z M401.9,113.2c0,0.4-0.8,1-1.6,1.5
				c-0.4-4.7-0.7-9-0.8-12.6C403.6,102.1,402.5,105.7,401.9,113.2z"/>
		</g>
		<g>
			<g>
				<path class="st34" d="M320.2,118.1l1.9-10.6c0,0-1.5-2.9-8.6-3.6c-10.8-1-16.1,5.6-16.1,5.6l5.1,8.6c0,0,4.8-2.4,9.9-2.4
					C319.6,115.7,320.2,118.1,320.2,118.1z"/>
			</g>
			<path class="st43" d="M322.1,107.5c0,0,0.1-1.1-3-2.3c-1.5-0.6-3-0.9-3-0.9s-1.2,11.5-0.3,11.6c0.6,0.1,1.4,0.2,2.1,0.5
				c1.6,0.6,2.2,1.7,2.2,1.7L322.1,107.5z"/>
		</g>
		<g>
			<path class="st34" d="M363.7,89.4c0,1.6-1.3,2.9-2.9,2.9c-1.6,0-2.9-1.3-2.9-2.9c0-1.6,1.3-2.9,2.9-2.9
				C362.4,86.5,363.7,87.8,363.7,89.4z"/>
			<path class="st44" d="M362.1,89.4c0,0.7-0.6,1.3-1.3,1.3c-0.7,0-1.3-0.6-1.3-1.3s0.6-1.3,1.3-1.3
				C361.5,88.1,362.1,88.7,362.1,89.4z"/>
			<path class="st34" d="M360.8,112.5c0,1.6-1.3,2.9-2.9,2.9c-1.6,0-2.9-1.3-2.9-2.9c0-1.6,1.3-2.9,2.9-2.9
				C359.4,109.6,360.8,110.9,360.8,112.5z"/>
			<path class="st44" d="M359.2,112.5c0,0.7-0.6,1.3-1.3,1.3c-0.7,0-1.3-0.6-1.3-1.3c0-0.7,0.6-1.3,1.3-1.3
				C358.6,111.2,359.2,111.8,359.2,112.5z"/>
		</g>
		<path class="st40" d="M351.4,82.7c0,0,0,15.7-1.3,24.2c-3.3,22.5-15.1,31-15.1,31L351.4,82.7z"/>
		<path class="st45" d="M356,57.4c0,0-15.4,3.8-16.9,9.1c-0.7,2.4,4.3,5.9,3.6,8.3c-0.9,3.1-8.6,4-9.6,7.1
			c-1.7,4.9,4.3,16.7,4.4,21.9c0.1,3.9-3,11.4-3,15.3c0,19.1-11.8,28.2-11.8,28.2s10.8-3.6,16.6-16.8c5.2-11.8,9.8-37.5,12.5-50.2
			C353.1,74.6,356,57.4,356,57.4z"/>
		<path class="st7" d="M355.8,56.6c-1.6,0.4-15.9,4.1-17.4,9.7c-0.4,1.5,0.8,3.2,1.9,4.8c0.9,1.2,1.9,2.7,1.7,3.5
			c-0.4,1.2-2.4,2.2-4.4,3.1c-2.2,1-4.6,2.1-5.2,4c-1.1,3.2,0.6,8.5,2.3,13.7c1.1,3.3,2.1,6.5,2.1,8.5c0.1,1.9-0.7,4.8-1.5,7.6
			c-0.8,2.9-1.5,5.6-1.5,7.6c0,18.4-11.4,27.5-11.5,27.6c-4.5,3.4-12.6,6.4-12.6,6.4l-0.9,2.1c0,0,7.7-2.4,13.3-6.2
			c0.4-0.3,2.9-2,4.8-4.6c3.6-4.3,8.6-12.6,8.6-25.3c0-1.8,0.7-4.6,1.4-7.2c0.8-2.9,1.6-5.9,1.5-8.1c-0.1-2.2-1.1-5.5-2.2-8.9
			c-1.5-4.7-3.2-10.1-2.3-12.7c0.4-1.2,2.4-2.1,4.4-3.1c2.3-1.1,4.7-2.2,5.2-4.1c0.5-1.6-0.7-3.2-1.9-4.8c-0.9-1.2-1.9-2.6-1.7-3.5
			c1-3.6,10.4-6.9,15.1-8.3c0.3-0.1,0.6-0.2,0.8-0.3c0,0,0.8-0.1,0.8-0.2v-1.5L355.8,56.6z"/>
		<path class="st40" d="M373.1,81.8c0.5-2.4-0.3-6.5-0.3-6.5l-11.5-3.6c0,0-7.8,5.3-6.6,7c0.7,1,6.1-1.8,6.1-1.8l4.7,0.8
			c0,0,2.8,3.1,5.1,4.2c-1.3,5.7-2.8,15.7-2.6,23.9c0.4,19.1,6.5,31.1,6.5,31.1l2.3-1.1L373.1,81.8z"/>
		<path class="st45" d="M370.9,55.5c0,0,20.6,10.2,21.4,14.9c0.5,2.6-6.8,5.8-6.4,8.4c0.5,2.9,8.6,4.9,9.1,7.8
			c1,5.6-10.4,15-11.5,20.5c-0.9,4.4,0.4,13.5,0,18c-0.4,4.6-2.4,13.3-2.4,18c0,2.5,3.3,9.5,3.3,9.5s-2.9,0-7-9.8
			c-3.3-7.8-3.7-27.4-4.3-35.9c-0.8-11.1-1.9-33.4-2.2-44.5C370.8,60.8,370.9,55.5,370.9,55.5z"/>
		<path class="st7" d="M389.6,98.8c3.4-4.4,6.8-8.9,6.2-12.3c-0.3-1.8-2.6-3.1-4.9-4.4c-1.9-1.1-4-2.3-4.2-3.3
			c-0.1-0.9,1.6-2.3,2.9-3.5c1.9-1.6,3.7-3.2,3.4-4.9c-0.9-5-20-15-22.3-15.7c-0.3-0.1-1,0-1.3,0c0,0,0,1.7,0,1.8c0,0,1.3,0,1.3,0
			c0.2,0.2,0.5,0.2,0.8,0.4c7.9,4,19.4,10.8,19.9,13.8c0.2,0.9-1.5,2.3-2.9,3.5c-1.9,1.6-3.7,3.2-3.4,4.9c0.3,1.8,2.6,3.1,4.9,4.5
			c1.9,1.1,4,2.3,4.2,3.3c0.5,2.8-2.9,7.2-5.9,11.1c-2.6,3.4-5.1,6.6-5.6,9.2c-0.5,2.7-0.3,6.8-0.1,10.7c0.1,2.8,0.3,5.5,0.1,7.4
			c-0.2,1.9-0.6,4.5-1.1,7.2c-0.7,4-1.3,8-1.4,10.8c0,1.7,1.3,5,2.3,7.4c1.1,2.2,2,3,2.6,3.6c1,1,4.4,4.1,7.7,8.3
			c2.8,3.6,4.5,6.8,4.5,6.8s1-0.9,0.7-1.5c-0.6-1.6-3.6-5.2-4.1-5.9c-2.2-3-6.7-6.7-8.8-9.4c-1.3-1.7-3.2-7.3-3.2-9.2
			c0-2.7,0.7-6.7,1.3-10.6c0.5-2.8,0.9-5.4,1.1-7.4c0.2-2,0-4.7-0.1-7.6c-0.2-3.9-0.4-7.9,0.1-10.3
			C384.8,105.1,387.2,101.9,389.6,98.8z"/>
		<path class="st40" d="M389.4,74.7c0,0-0.1,12.2-0.4,12.2c-11.2,0-17.3-4.7-17.3-4.7l-0.2-4.3L389.4,74.7z"/>
		<path class="st40" d="M336.9,73.1c0,0,0.1,10.6,0.5,10.7c12.9,1.5,20.8-5.7,20.8-5.7l-3.5-1.9L336.9,73.1z"/>
		<g>
			<path class="st16" d="M397.5,142c0-0.1,0-0.1,0-0.1S397.5,141.9,397.5,142z"/>
			<path class="st16" d="M397.5,142L397.5,142L397.5,142z"/>
			<path class="st17" d="M400.6,142.5L400.6,142.5C400.6,142.5,400.6,142.5,400.6,142.5z"/>
			<path class="st18" d="M391,139.7C391.1,139.6,391.1,139.6,391,139.7c0.1-0.2,0.1-0.3,0.2-0.4c0.1-0.2,0.4-1,0.3-1.9
				c0-0.1,0.1-0.9,0.8-1.8c0.3-0.4,1.1-1.6,1.1-1.6l0,0c0.2-0.3,0.4-0.7,0.6-0.9c0.4-0.4,1.1-0.2,1.1,0.8c0,0.7-1,1.8-1.3,2.2
				c0,0-0.1,0.1-0.1,0.1c-0.2,0.4-0.4,0.9-0.6,1.3c-0.4,0.7-1.1,1.4-1.3,1.9c-0.1,0.4-0.2,1.2-0.1,1.6c0.1,0.3,0.7,0.9,1,1
				c0.4,0.1,1.2-0.2,1.5-0.4c0.2-0.1,0.6-0.6,0.6-0.6l-0.6,0.6c0,0,0.7-1.1,1-1.5c0.2-0.3,0.8-1.5,1-1.3c0.2,0.2-0.6,1.2-0.8,1.5
				c-0.1,0.2-0.6,0.7-0.6,0.7s0,0.5,0.2,0.8c0.2,0.2,0.6,0.6,0.9,0.7c0.3,0.1,0.8-0.1,1-0.2c0.1-0.1,0.4-0.3,0.4-0.3
				s1.3-1.5,1.5-1.3c0.1,0.1-1.5,1.5-1.5,1.5c0,0.1,0.1,0.3,0.2,0.5c0.2,0.2,0.7,0.4,0.9,0.4c0.5,0,1.9-0.6,1.9-0.6s0.7-0.4,0.9-0.5
				c0.1,0,0.2,0,0.2,0.1c0.1,0.2-1,0.5-1.2,0.5c0,0.1,0.2,0.4,0.3,0.4c0.4,0.2,1.2,0.1,1.6,0c0.6-0.1,1.6-0.5,2.1-0.9
				c0.3-0.2,1-1.1,1.2-1.3c0,0,0-0.1,0.1-0.1c1.8-2.8,2.7-5.6,3.1-6.8c0.1-0.4,0.3-1.1,0.6-1.7c1.2-2.1,3.2-5,3.2-5l0.3-0.4l0.1-0.1
				l0.2-0.3l-8.8-5.6c0,0-2.4,4.3-3.3,5.4c-0.2,0.3-0.7,0.9-1,1.1c-0.5,0.3-1.5,0.3-2.3,0.5c-0.2,0-0.7-0.4-2.4,0.3
				c-1,0.4-3,1.8-3.5,2.5c-0.1,0.1-0.2,0.3-0.3,0.4c-0.5,0.8-2,3.3-2.4,4.1c-0.1,0.2-0.2,0.6-0.1,0.8c0,0.6,0.5,1.6,0.6,2.2
				c0.1,0.4,0.1,1.6,0.1,1.6c0,0.1,0,0.1,0.1,0.1c0,0.1,0.2,0.2,0.3,0.2C390.4,140.1,390.7,140,391,139.7z"/>
			<path class="st19" d="M396.3,138.7c-0.2-0.1-0.7,1-1,1.3c-0.3,0.4-1,1.5-1,1.5l0.6-0.6c0,0,0.5-0.5,0.6-0.7
				C395.7,139.8,396.5,138.8,396.3,138.7z"/>
			<path class="st16" d="M397.5,142C397.5,142,397.5,142,397.5,142C397.5,142,397.5,142,397.5,142C397.5,142,397.5,142,397.5,142z"
				/>
			<path class="st16" d="M397.5,142.1L397.5,142.1c0,0,0-0.1,0-0.1C397.5,142.1,397.5,142.1,397.5,142.1z"/>
			<path class="st19" d="M399,140.6c-0.2-0.2-1.5,1.3-1.5,1.3s0,0.1,0,0.1c0,0,0,0,0,0l0,0c0,0,0,0.1,0,0.1
				C397.5,142.1,399.1,140.8,399,140.6z"/>
			<polygon class="st20" points="400.6,142.5 400.6,142.5 400.6,142.5 			"/>
			<path class="st19" d="M401.8,142c0,0-0.2-0.1-0.2-0.1c-0.3,0.1-0.9,0.5-0.9,0.5l0,0l0,0C400.8,142.4,401.9,142.1,401.8,142z"/>
			<path class="st19" d="M391.5,139.1c0.2-0.3,0.3-0.8,0.4-1c0.2-0.6,0-1,0-1.3c0-0.1,0-0.2,0-0.3c0-0.1,0.1-0.1,0.1-0.2
				c0.2-0.3,0.2-0.2,0.4-0.5c0.4-0.5,0.5-0.9,0.7-1.1c0.4-0.5,0.8-0.4,1-0.3c0.3,0.2-0.1,1.2-0.5,2.2c0,0,1.7-2.1,1.7-3
				c0-0.8-0.6-1-1-0.8c0,0,0,0-0.1,0c0,0-0.1,0.1-0.1,0.1c0,0,0,0-0.1,0.1c-0.1,0.1-0.2,0.2-0.3,0.1c0-0.1-0.3-0.4-0.4-0.2
				c-0.1,0.2,0.1,0.5,0,0.7c-0.1,0.2-0.4,0-0.5,0c-0.3,0,0,0.4,0,0.5c0.2,0.4-0.4,1.2-0.5,1.4c-0.6,0.8-0.9,0.9-1,0.9c0,0,0,0,0,0v0
				l0,0c-0.3,0-0.6,0.1-0.6,0.3c0,0.1,0.3,0.1,0.5,0.2l0,0c0.2,0.1,0.3,0.4,0.3,0.5c0,0.9-0.3,1.7-0.3,1.9c0,0.1-0.1,0.2-0.1,0.3
				c0,0,0,0.1,0,0.1C391.2,139.5,391.3,139.4,391.5,139.1z"/>
		</g>
		<g>
			<path class="st34" d="M393.3,128.4l5.5-10.9c0,0,1.1-1.5,6.9,0.7c7.7,2.9,12.8,11.5,12.8,11.5l-9.4,8.2c0,0-1.9-4-6.8-6.7
				C397.4,128.4,393.3,128.4,393.3,128.4z"/>
			<path class="st43" d="M406.1,118.4l-6.8,11.3c0,0-2.1-0.7-3.3-1c-1.2-0.3-2.8-0.3-2.8-0.3l5.5-10.9c0,0,0.4-0.8,3.1-0.4
				C403.9,117.5,406.1,118.4,406.1,118.4z"/>
		</g>
		<path class="st46" d="M383.5,32.6c-0.1-2.2-2-4-4.2-4.1c0.3-0.5,0.5-1,0.5-1.6c-0.1-1.4-1.3-2.5-2.7-2.5c-0.2,0-0.4,0-0.6,0.1
			c-0.4-1.3-1.7-2.2-3.1-2.1c-0.7,0-1.3,0.3-1.8,0.7c-0.7-0.9-1.9-1.5-3.2-1.5c-1.5,0.1-2.7,1-3.3,2.2c-1.2-1-2.6-1.6-4-1.9
			c-3.5,0.5-6.9,1.3-10.1,2.7c-0.1,0-0.1,0-0.2,0.1c-1.3,1.2-2.2,2.6-2.8,4.3c-1.2-1-3-1.2-4.4-0.3c-1,0.6-1.6,1.6-1.8,2.7
			c-0.7-0.1-1.3,0.1-1.9,0.4c-1.3,0.8-1.8,2.5-1.2,3.8c-0.2,0.1-0.4,0.2-0.6,0.3c-1.2,0.8-1.6,2.4-0.8,3.6c0.3,0.5,0.8,0.9,1.3,1.1
			c-1.8,1.3-2.3,3.8-1.1,5.7c0.2,0.3,0.4,0.5,0.6,0.8c0.7-0.5,1-1.5,0.8-2.4c-0.3-1.4,1.3-2.2,2.8-2.5c1.3,0.9,3.6,0.3,3.6-1.8
			c0-0.8,0.1-1.6,0.3-2.1c0.2-0.5,0.3-0.6,0.6-0.9c-0.3,0.2,0.4-0.1,0,0c0.4-0.1,0-0.1,0.5-0.1c1.2,0,1.9-0.9,2.1-1.8
			c2-2.5,5-4.3,8.3-5.6c2.1-0.6,4.3-1,6.5-1.1c1.8,0.2,3.6,0.6,5.4,1c0.1,0.4,0.3,0.8,0.6,1.1c0.9,0.9,2.2,0.8,3.2,0
			c0.6-0.5,1.8-1,2.5-0.4c0.3,0.3,0.7,0.4,1.1,0.5c0.1,0.6,0.4,1.1,1,1.4c0.9,0.5,2.1,0.4,2.8-0.4c0.4,0.3,0.4,0.5,0.7,0.8
			c0.1,0.2,0.2,0.3,0.3,0.5c-0.1-0.3,0.1,0.3,0.1,0.4c0.2,0.9,0.8,1.4,1.4,1.5C383.2,34.8,383.6,33.7,383.5,32.6z"/>
		<path class="st34" d="M365.5,20.8c2.3,0.3-4,4.2-9.9,6c-5.9,1.7-14,2.9-11.6,0.3c1.6-1.7,4.8-3.9,10.8-5.6
			C360.7,19.7,361.8,20.4,365.5,20.8z"/>
		<path class="st46" d="M398,71.9c-1.6-1.4-3.7-2.6-6.1-3.7c-4.4-5.3-19.1-12.9-21.1-13.6c-0.3-0.1-1,0-1.3,0c0,0,0,1.7,0,1.8
			c0,0,1.3,0,1.3,0c0,0,0,0,0,0c0,0,0,0.1,0,0.1c-0.1,0.5-1.1,4.4-6.8,4.6c-6.7,0.2-8.2-2.9-8.2-2.9l0,0v0h0c0,0,0.8-0.1,0.8-0.2
			v-1.5l-0.9,0.2c-1.4,0.3-11.6,3-15.8,7.1c-1,0.2-2,0.4-2.9,0.6c-0.7,0.2-2,0.7-2.9,1.4v0c0,0-5.3,3.2-11.3,7.1
			c23.9-15,24.3-8.7,29.5-6.8c5.2,1.9,12.2,4.3,17.9,2.4c5.7-1.9,21.2,0.8,28.2,6.2c2.8,2.2,4.9,3.2,6.1,3.3
			C402.7,75.9,400.4,73.8,398,71.9z"/>
		<g>
			<path class="st34" d="M338.8,56.5c0,0-3.4,7.3-3.4,10.2c0,1.4,0.7,4.6,1,6c0.6,2.8,0.3,10.1,0.3,10.1s11.1-0.5,14.5-2.1
				c1.9-0.9,6.9-5,6.9-5l0.1-11.2c0,0-8.7-5-11.8-6.2C344.6,57.7,338.8,56.5,338.8,56.5z"/>
			<path class="st34" d="M368.4,65.7c0,0,6.1-4,8.4-5c2.5-1.1,10.4-3.4,10.4-3.4s3,9.9,3.1,13.3c0.1,3.6-1.6,14.6-1.6,14.6
				s-11.3-1.7-15.3-4c-1.8-1-7-4.5-7-4.5L368.4,65.7z"/>
			<path class="st43" d="M366.2,68c0,0,13.1-7.3,14-5c0.5,1.3-10.8,5.4-10.3,9.2c0.3,1.9,6,4.3,4.7,5.4c-1.8,1.5-9.6-3.6-9.6-3.6
				L366.2,68z"/>
			<path class="st43" d="M358.4,66.2c0,0-11-4.4-11.7-2.8c-1.1,2.5,8,3.3,6.8,5.2c-0.6,0.9-2.6,0.7-7.1,3.2
				c-1.5,0.9-5.5,4.5-4.1,5.6c0.8,0.6,4.6-2.3,8.9-3.4c3.2-0.9,7.4-0.7,7.4-0.7L358.4,66.2z"/>
			<path class="st7" d="M358.3,64.6c0,0-0.9,4.2-1,6.9c-0.1,3.6,0.9,4.3,0.9,4.3l8.3,0.9c0,0,1.5-0.9,1.9-5.4
				c0.3-3.7,0.1-5.6,0.1-5.6L358.3,64.6z"/>
		</g>
		<path class="st47" d="M364,254c0,0-0.3-3.2-3-6.4c-1.9-2.2-6.1-4.7-7.2-5c-1.4-0.4-3.6-0.7-4.4,1.2c-0.6,1.6,1.4,2.9,2.5,3.3
			c5.3,1.7,7.5,0.8,8.6,0.7c0.9-0.1,4.6-4.6,8.8-3.2c1,0.3,1.9,1.2,1.5,2.3c-1.4,3.9-9.3,0.8-9.5,0.8c-0.5,0-3.1,6-3.7,7.3L364,254z
			"/>
	</g>
</g>
<g class="st0">
	<path class="st48" d="M482.6,619.7c0,9.5-112.5,17.3-251.3,17.3c-138.8,0-251.3-7.7-251.3-17.3c0-9.5,112.5-17.3,251.3-17.3
		C370.1,602.5,482.6,610.2,482.6,619.7z"/>
	<path class="st48" d="M474,608.2c0,9.5-108.7,17.3-242.7,17.3c-134,0-242.7-7.7-242.7-17.3c0-9.5,108.7-17.3,242.7-17.3
		C365.4,591,474,598.7,474,608.2z"/>
	<g class="st6">
		<path class="st49" d="M22,528.2c0,0-3.6,2.2-9.7,2.2c-5.6,0-10.2-2.2-10.2-2.2v39.4H22V528.2z"/>
		<path class="st49" d="M42,528.2c0,0-3.6,2.2-9.7,2.2c-5.6,0-10.2-2.2-10.2-2.2v39.4H42V528.2z"/>
		<path class="st49" d="M61.9,528.2c0,0-3.6,2.2-9.7,2.2c-5.6,0-10.2-2.2-10.2-2.2v39.4h19.9V528.2z"/>
		<path class="st49" d="M82.4,528.2c0,0-3.6,2.2-9.7,2.2c-5.6,0-10.2-2.2-10.2-2.2v39.4h19.9V528.2z"/>
		<g>
			<polygon class="st50" points="2,567.9 82.7,567.9 82.7,567.9 2,567.9 			"/>
			<polygon class="st51" points="2.7,575.7 2,567.9 82.7,567.9 82,575.7 			"/>
			<polygon class="st52" points="81.3,582.9 80.7,590.9 4,590.9 3.4,582.9 			"/>
			<polygon class="st53" points="82,575.7 81.3,583.2 81.3,583.4 3.4,583.4 3.3,583.2 2.7,575.7 			"/>
		</g>
		<rect x="40.7" y="568" class="st54" width="2.5" height="23.2"/>
		<rect x="20.9" y="568" class="st54" width="2.5" height="23.2"/>
		<polygon class="st54" points="3.4,591.3 5.8,591.3 2.8,568 0.3,568 		"/>
		<rect x="60.8" y="568" class="st54" width="2.5" height="23.2"/>
		<polygon class="st54" points="80.8,591.3 78.4,591.3 81.4,568 83.9,568 		"/>
		<rect x="-4.6" y="589.9" class="st54" width="87.2" height="2.8"/>
		<g>
			<path class="st55" d="M41.3,572.3c0,0.3,0.2,0.5,0.5,0.5c0.3,0,0.5-0.2,0.5-0.5s-0.2-0.5-0.5-0.5C41.5,571.8,41.3,572,41.3,572.3
				z"/>
			<path class="st55" d="M41.3,579.5c0,0.3,0.2,0.5,0.5,0.5c0.3,0,0.5-0.2,0.5-0.5c0-0.3-0.2-0.5-0.5-0.5
				C41.5,579,41.3,579.3,41.3,579.5z"/>
			<path class="st55" d="M41.3,587c0,0.3,0.2,0.5,0.5,0.5c0.3,0,0.5-0.2,0.5-0.5c0-0.3-0.2-0.5-0.5-0.5
				C41.5,586.4,41.3,586.7,41.3,587z"/>
		</g>
		<g>
			<path class="st55" d="M21.6,572.3c0,0.3,0.2,0.5,0.5,0.5c0.3,0,0.5-0.2,0.5-0.5s-0.2-0.5-0.5-0.5C21.9,571.8,21.6,572,21.6,572.3
				z"/>
			<path class="st55" d="M21.6,579.5c0,0.3,0.2,0.5,0.5,0.5c0.3,0,0.5-0.2,0.5-0.5c0-0.3-0.2-0.5-0.5-0.5
				C21.9,579,21.6,579.3,21.6,579.5z"/>
			<path class="st55" d="M21.6,587c0,0.3,0.2,0.5,0.5,0.5c0.3,0,0.5-0.2,0.5-0.5c0-0.3-0.2-0.5-0.5-0.5
				C21.9,586.4,21.6,586.7,21.6,587z"/>
		</g>
		<g>
			<path class="st55" d="M61.5,572.3c0,0.3,0.2,0.5,0.5,0.5s0.5-0.2,0.5-0.5s-0.2-0.5-0.5-0.5S61.5,572,61.5,572.3z"/>
			<path class="st55" d="M61.5,579.5c0,0.3,0.2,0.5,0.5,0.5s0.5-0.2,0.5-0.5c0-0.3-0.2-0.5-0.5-0.5S61.5,579.3,61.5,579.5z"/>
			<path class="st55" d="M61.5,587c0,0.3,0.2,0.5,0.5,0.5s0.5-0.2,0.5-0.5c0-0.3-0.2-0.5-0.5-0.5S61.5,586.7,61.5,587z"/>
		</g>
		<g>
			<path class="st55" d="M1.5,572.3c0,0.3,0.2,0.5,0.5,0.5c0.3,0,0.5-0.2,0.5-0.5s-0.2-0.5-0.5-0.5C1.8,571.8,1.5,572,1.5,572.3z"/>
			<path class="st55" d="M2.5,579.5c0,0.3,0.2,0.5,0.5,0.5c0.3,0,0.5-0.2,0.5-0.5c0-0.3-0.2-0.5-0.5-0.5
				C2.8,579,2.5,579.3,2.5,579.5z"/>
			<path class="st55" d="M3.4,587c0,0.3,0.2,0.5,0.5,0.5c0.3,0,0.5-0.2,0.5-0.5c0-0.3-0.2-0.5-0.5-0.5C3.6,586.4,3.4,586.7,3.4,587z
				"/>
		</g>
		<g>
			<path class="st55" d="M82.5,572.3c0,0.3-0.2,0.5-0.5,0.5c-0.3,0-0.5-0.2-0.5-0.5s0.2-0.5,0.5-0.5C82.3,571.8,82.5,572,82.5,572.3
				z"/>
			<path class="st55" d="M81.5,579.5c0,0.3-0.2,0.5-0.5,0.5c-0.3,0-0.5-0.2-0.5-0.5c0-0.3,0.2-0.5,0.5-0.5
				C81.2,579,81.5,579.3,81.5,579.5z"/>
			<path class="st55" d="M80.6,587c0,0.3-0.2,0.5-0.5,0.5c-0.3,0-0.5-0.2-0.5-0.5c0-0.3,0.2-0.5,0.5-0.5
				C80.4,586.4,80.6,586.7,80.6,587z"/>
		</g>
		<path class="st56" d="M60.8,528.6c0-0.7,0.6-1.2,1.2-1.2l0,0c0.7,0,1.2,0.6,1.2,1.2v39.2c0,0.7-0.6,1.2-1.2,1.2l0,0
			c-0.7,0-1.2-0.6-1.2-1.2V528.6z"/>
		<path class="st56" d="M81.4,528.6c0-0.7,0.6-1.2,1.2-1.2l0,0c0.7,0,1.2,0.6,1.2,1.2v39.2c0,0.7-0.6,1.2-1.2,1.2l0,0
			c-0.7,0-1.2-0.6-1.2-1.2V528.6z"/>
		<path class="st56" d="M40.4,528.6c0-0.7,0.6-1.2,1.2-1.2l0,0c0.7,0,1.2,0.6,1.2,1.2v39.2c0,0.7-0.6,1.2-1.2,1.2l0,0
			c-0.7,0-1.2-0.6-1.2-1.2V528.6z"/>
		<path class="st56" d="M21.1,528.6c0-0.7,0.6-1.2,1.2-1.2l0,0c0.7,0,1.2,0.6,1.2,1.2v39.2c0,0.7-0.6,1.2-1.2,1.2l0,0
			c-0.7,0-1.2-0.6-1.2-1.2V528.6z"/>
		<path class="st56" d="M0.6,528.6c0-0.7,0.6-1.2,1.2-1.2l0,0c0.7,0,1.2,0.6,1.2,1.2v39.2c0,0.7-0.6,1.2-1.2,1.2l0,0
			c-0.7,0-1.2-0.6-1.2-1.2V528.6z"/>
		<rect x="-1" y="566.5" class="st54" width="86.8" height="2.8"/>
		<g>
			<g>
				<rect x="61.1" y="577.5" class="st57" width="1.5" height="29.1"/>
				<rect x="47.3" y="591.3" class="st57" width="29.1" height="1.5"/>
				
					<rect x="61.1" y="577.5" transform="matrix(0.7073 -0.7069 0.7069 0.7073 -400.4146 217.0274)" class="st57" width="1.5" height="29.1"/>
				
					<rect x="47.3" y="591.3" transform="matrix(0.7071 -0.7071 0.7071 0.7071 -400.5183 217.1553)" class="st57" width="29.1" height="1.5"/>
			</g>
			<path class="st57" d="M46.5,592c0,8.5,6.9,15.4,15.4,15.4c8.5,0,15.4-6.9,15.4-15.4c0-8.5-6.9-15.4-15.4-15.4
				C53.4,576.7,46.5,583.5,46.5,592z M48.7,592c0-7.3,5.9-13.2,13.2-13.2c7.3,0,13.2,5.9,13.2,13.2c0,7.3-5.9,13.2-13.2,13.2
				C54.6,605.3,48.7,599.3,48.7,592z"/>
			<path class="st57" d="M57,592c0,2.7,2.2,4.9,4.9,4.9c2.7,0,4.9-2.2,4.9-4.9c0-2.7-2.2-4.9-4.9-4.9C59.2,587.2,57,589.4,57,592z"
				/>
			<path class="st56" d="M59.6,592c0,1.3,1,2.3,2.3,2.3c1.3,0,2.3-1,2.3-2.3c0-1.3-1-2.3-2.3-2.3C60.6,589.7,59.6,590.8,59.6,592z"
				/>
		</g>
		<g>
			<g>
				<rect x="21.3" y="577.5" class="st57" width="1.5" height="29.1"/>
				<rect x="7.5" y="591.3" class="st57" width="29.1" height="1.5"/>
				
					<rect x="21.3" y="577.5" transform="matrix(0.7071 -0.7071 0.7071 0.7071 -412.172 189.0209)" class="st57" width="1.5" height="29.1"/>
				
					<rect x="7.5" y="591.3" transform="matrix(0.7073 -0.7069 0.7069 0.7073 -412.0605 188.9008)" class="st57" width="29.1" height="1.5"/>
			</g>
			<path class="st57" d="M6.7,592c0,8.5,6.9,15.4,15.4,15.4s15.4-6.9,15.4-15.4c0-8.5-6.9-15.4-15.4-15.4S6.7,583.5,6.7,592z
				 M8.9,592c0-7.3,5.9-13.2,13.2-13.2s13.2,5.9,13.2,13.2c0,7.3-5.9,13.2-13.2,13.2S8.9,599.3,8.9,592z"/>
			<path class="st57" d="M17.2,592c0,2.7,2.2,4.9,4.9,4.9c2.7,0,4.9-2.2,4.9-4.9c0-2.7-2.2-4.9-4.9-4.9
				C19.4,587.2,17.2,589.4,17.2,592z"/>
			<path class="st56" d="M19.8,592c0,1.3,1,2.3,2.3,2.3c1.3,0,2.3-1,2.3-2.3c0-1.3-1-2.3-2.3-2.3C20.8,589.7,19.8,590.8,19.8,592z"
				/>
		</g>
		<path class="st54" d="M-11.2,591.3c0,2.1,1.7,3.8,3.8,3.8c2.1,0,3.8-1.7,3.8-3.8c0-2.1-1.7-3.8-3.8-3.8
			C-9.5,587.5-11.2,589.2-11.2,591.3z M-9.3,591.3c0-1.1,0.9-1.9,1.9-1.9c1.1,0,1.9,0.9,1.9,1.9c0,1.1-0.9,1.9-1.9,1.9
			C-8.4,593.2-9.3,592.4-9.3,591.3z"/>
	</g>
	<g class="st6">
		<g>
			<path class="st58" d="M248,361.5c0,0-23.4,35.2-66.3,74.7c-44.9,41.4-93,50.1-93,50.1H248h159.3c0,0-46.6-14-93-49.5
				C286.4,415.5,248,361.5,248,361.5z"/>
			<g>
				<path class="st59" d="M308.1,328.1v8.6c0,0,12.8,2.5,17.2,2.5c16.9,0,18.7-9.1,18.7-9.1c-5.2,1.1-4.6,1.6-10.6,1.6
					C323.9,331.8,315.6,327.4,308.1,328.1z"/>
				<polygon class="st60" points="308.1,328.1 313.2,333.9 308.1,336.7 				"/>
				<path class="st59" d="M275.2,327.4c0,0,9,0.7,19,5c9.3,4,19,1.5,19,1.5l-1.6,11.5c0,0-7.9,2.3-19.5,2.3
					c-8.4,0-16.9-3.4-16.9-3.4V327.4z"/>
				<polygon class="st60" points="281.4,331.6 275.2,327.4 275.2,335.7 				"/>
				<path class="st59" d="M247.9,331.8c0,0,7.3,1.7,15.6,1.7c9.2,0,17.9-1.7,17.9-1.7l-1.2,16.2c0,0-5.1,2.7-16.7,2.7
					c-8.4,0-15.6-2-15.6-2V331.8z"/>
			</g>
			<rect x="247.1" y="320.4" class="st61" width="1.9" height="43.4"/>
			<g>
				<polygon class="st58" points="65,609.4 211.2,609.4 260.4,539.5 277.5,552.7 284.8,486.4 100.9,486.4 90.8,538 				"/>
				<polygon class="st59" points="255.4,556.9 240.7,567.5 240.7,486.4 255.4,486.4 				"/>
			</g>
			<g>
				<polygon class="st58" points="277.5,609.4 428,609.4 395.3,486.4 277.5,486.4 				"/>
			</g>
			<g>
				<path class="st59" d="M407.4,486.7h-14.7c0,0-41.8-12.5-85.7-53.1C272,401.3,248,361.5,248,361.5s31.4,42.9,62.6,68.1
					C358.8,468.4,407.4,486.7,407.4,486.7z"/>
				<path class="st59" d="M373.2,486.7h-14.7c0,0-31.7-18.5-62.6-51.4c-29.5-31.4-47.9-73.7-47.9-73.7s17.1,35.1,53.9,72
					C333.9,465.5,373.2,486.7,373.2,486.7z"/>
				<path class="st59" d="M343.8,486.7H329c0,0-20.2-14.8-43.8-49.6C265.4,408,248,361.5,248,361.5s18.4,42.4,41.6,72.8
					C312,463.6,343.8,486.7,343.8,486.7z"/>
				<path class="st59" d="M314.3,486.7h-14.7c0,0-16.5-21.6-29.2-51.5c-7.5-17.9-22.4-73.6-22.4-73.6s9.7,34.5,29.9,72
					C292.6,460.7,314.3,486.7,314.3,486.7z"/>
				<path class="st59" d="M284.8,486.7h-14.7c0,0-5-18.9-12.6-57.3c-8-41.1-9.5-67.8-9.5-67.8s11.6,49.7,16.2,66.1
					C273.6,461.5,284.8,486.7,284.8,486.7z"/>
				<path class="st59" d="M88.7,486.4h14.7c0,0,41.8-12.5,85.7-53.1C224,401,248,361.2,248,361.2s-31.4,42.9-62.6,68.1
					C137.3,468.1,88.7,486.4,88.7,486.4z"/>
				<path class="st59" d="M122.8,486.7h14.7c0,0,31.7-18.5,62.6-51.4c29.5-31.4,47.9-73.7,47.9-73.7s-17.1,35.1-53.9,72
					C162.1,465.5,122.8,486.7,122.8,486.7z"/>
				<path class="st59" d="M152.3,486.7H167c0,0,20.2-14.8,43.8-49.6c19.8-29.1,37.2-75.6,37.2-75.6s-18.4,42.4-41.6,72.8
					C184.1,463.6,152.3,486.7,152.3,486.7z"/>
				<path class="st59" d="M181.7,486.7h14.7c0,0,16.5-21.6,29.2-51.5c7.5-17.9,22.4-73.6,22.4-73.6s-9.7,34.5-29.9,72
					C203.4,460.7,181.7,486.7,181.7,486.7z"/>
				<path class="st59" d="M211.2,486.7h14.7c0,0,5-18.9,12.6-57.3c8-41.1,9.5-67.8,9.5-67.8s-11.6,49.7-16.2,66.1
					C222.4,461.5,211.2,486.7,211.2,486.7z"/>
				<polygon class="st59" points="248,361.5 255.4,486.4 240.7,486.4 				"/>
			</g>
			<polygon class="st61" points="244.3,322.4 248.1,316.5 251.8,322.4 			"/>
			<g>
				<path class="st62" d="M103.3,486.2c0,34.4-34.2,123.3-34.2,123.3H46.5c0,0,27.2-31.9,52.2-123.3H103.3z"/>
				<path class="st62" d="M103.3,609.4h-21c0,0,21.8-50.2,41.7-123.3h6.7C130.6,513.7,103.3,609.4,103.3,609.4z"/>
				<path class="st62" d="M137.4,609.4h-19.5c0,0,16.3-68.4,31.3-123.3h8.8C158,506.8,137.4,609.4,137.4,609.4z"/>
				<path class="st62" d="M171.6,609.4h-18c0,0,10.9-86.7,20.9-123.3h10.9C185.3,500,171.6,609.4,171.6,609.4z"/>
				<path class="st62" d="M205.8,609.4h-16.6c0,0,5.4-105,10.4-123.3h13C212.7,493.1,205.8,609.4,205.8,609.4z"/>
				<rect x="224.9" y="486.2" class="st62" width="15.1" height="123.3"/>
			</g>
			<g>
				<path class="st62" d="M391.3,486.2c0,34.4,34.2,123.3,34.2,123.3H448c0,0-27.2-31.9-52.2-123.3H391.3z"/>
				<path class="st62" d="M391.3,609.4h21c0,0-21.8-50.2-41.7-123.3H364C364,513.7,391.3,609.4,391.3,609.4z"/>
				<path class="st62" d="M357.1,609.4h19.5c0,0-16.3-68.4-31.3-123.3h-8.8C336.6,506.8,357.1,609.4,357.1,609.4z"/>
				<path class="st62" d="M323,609.4h18c0,0-10.9-86.7-20.9-123.3h-10.9C309.3,500,323,609.4,323,609.4z"/>
				<path class="st62" d="M288.8,609.4h16.6c0,0-5.4-105-10.4-123.3h-13C281.9,493.1,288.8,609.4,288.8,609.4z"/>
				<rect x="254.6" y="486.2" class="st62" width="15.1" height="123.3"/>
			</g>
			<polygon class="st34" points="232.4,381.2 248.1,360.6 263.7,381.2 			"/>
			<path class="st63" d="M303,573.9c-14.7-24.9-30.7-73.7-30.7-73.7c-8.7-5.8-50.3-1.2-50.3-1.2c-4.7,34.7-48.2,110.6-48.2,110.6
				h35.6h79.2h35.6C324.2,609.6,317.7,598.7,303,573.9z"/>
			<path class="st59" d="M233.5,488.1c0,0-5.2,55.1-24.8,96.5c-11.2,23.5-14.6,26.7-14.6,26.7h-24c0,0,12.3-10.7,27-36.4
				c29.1-51,34.1-86.8,34.1-86.8H233.5z"/>
			<polygon class="st58" points="242.9,379.3 247.9,361.9 248.2,361.9 253.2,379.3 			"/>
			<path class="st64" d="M266.1,380c0,0.6-0.5,1.2-1.2,1.2h-33.8c-0.6,0-1.2-0.5-1.2-1.2l0,0c0-0.6,0.5-1.2,1.2-1.2h33.8
				C265.6,378.8,266.1,379.3,266.1,380L266.1,380z"/>
			<path class="st34" d="M227.5,486.2c0,0-6.1,55.1-29.2,96.5c-13.2,23.5-17.3,26.7-17.3,26.7h-28.4c0,0,14.5-10.7,31.9-36.4
				c34.3-51,40.2-86.8,40.2-86.8H227.5z"/>
			<path class="st59" d="M261,488.1c0,0,5.2,55.1,24.8,96.5c11.2,23.5,14.6,26.7,14.6,26.7h24c0,0-12.3-10.7-27-36.4
				c-29.1-51-34.1-86.8-34.1-86.8H261z"/>
			<path class="st65" d="M92.1,494.8v15.5c0,4.6,7,8.3,15.6,8.3c8.6,0,15.6-3.7,15.6-8.3c0,4.6,7,8.3,15.6,8.3
				c8.6,0,15.6-3.7,15.6-8.3c0,4.6,7,8.3,15.6,8.3c8.6,0,15.6-3.7,15.6-8.3c0,4.6,7,8.3,15.6,8.3c8.6,0,15.6-3.7,15.6-8.3
				c0,4.6,7,8.3,15.6,8.3c8.6,0,15.6-3.7,15.6-8.3c0,4.6,7,8.3,15.6,8.3c8.6,0,15.6-3.7,15.6-8.3c0,4.6,7,8.3,15.6,8.3
				c8.6,0,15.6-3.7,15.6-8.3c0,4.6,7,8.3,15.6,8.3c8.6,0,15.6-3.7,15.6-8.3c0,4.6,7,8.3,15.6,8.3c8.6,0,15.6-3.7,15.6-8.3
				c0,4.6,7,8.3,15.6,8.3c8.6,0,15.6-3.7,15.6-8.3v-15.5H92.1z"/>
			<path class="st34" d="M267.1,486.2c0,0,6.1,55.1,29.2,96.5c13.2,23.5,17.3,26.7,17.3,26.7H342c0,0-14.5-10.7-31.9-36.4
				c-34.3-51-40.2-86.8-40.2-86.8H267.1z"/>
			<path class="st34" d="M88.7,486.4v11.7c0,8.8,7.1,15.9,15.9,15.9c8.8,0,15.9-7.1,15.9-15.9c0,8.8,7.1,15.9,15.9,15.9
				c8.8,0,15.9-7.1,15.9-15.9c0,8.8,7.1,15.9,15.9,15.9c8.8,0,15.9-7.1,15.9-15.9c0,8.8,7.1,15.9,15.9,15.9
				c8.8,0,15.9-7.1,15.9-15.9c0,8.8,7.1,15.9,15.9,15.9c8.8,0,15.9-7.1,15.9-15.9c0,8.8,7.1,15.9,15.9,15.9
				c8.8,0,15.9-7.1,15.9-15.9c0,8.8,7.1,15.9,15.9,15.9c8.8,0,15.9-7.1,15.9-15.9c0,8.8,7.1,15.9,15.9,15.9
				c8.8,0,15.9-7.1,15.9-15.9c0,8.8,7.1,15.9,15.9,15.9c8.8,0,15.9-7.1,15.9-15.9c0,8.8,7.1,15.9,15.9,15.9
				c8.8,0,15.9-7.1,15.9-15.9v-11.7H88.7z"/>
			<path class="st64" d="M411.7,487.7c0,1.2-0.9,2.1-2.1,2.1H86c-1.2,0-2.1-0.9-2.1-2.1l0,0c0-1.2,0.9-2.1,2.1-2.1h323.5
				C410.7,485.6,411.7,486.5,411.7,487.7L411.7,487.7z"/>
			<polygon class="st66" points="281.4,331.8 280.2,348 274.4,347.7 278.6,345.5 273.4,344 278.3,341.7 274.4,340.3 278.7,337.6 
				274.5,335.1 			"/>
			<polygon class="st66" points="313.2,333.9 311.6,345.5 308.1,344.2 310.6,341.8 307.6,340.5 311,338.7 308.1,337.2 			"/>
			<path class="st7" d="M253.2,323.1c0,0.7-0.6,1.3-1.3,1.3h-7.8c-0.7,0-1.3-0.6-1.3-1.3l0,0c0-0.7,0.6-1.3,1.3-1.3h7.8
				C252.7,321.8,253.2,322.4,253.2,323.1L253.2,323.1z"/>
		</g>
		<ellipse class="st67" cx="247.8" cy="510.1" rx="43.3" ry="30.9"/>
		<g>
			<path class="st68" d="M469.6,607.4h-477c-6.9,0-12.5,5.6-12.5,12.5h502.1C482.1,613,476.5,607.4,469.6,607.4z"/>
		</g>
	</g>
</g>
<g>
	<path class="st69" d="M138.3,276.2c0,10.7-28.7,19.4-64.1,19.4c-35.4,0-64.1-8.7-64.1-19.4c0-10.7,28.7-19.4,64.1-19.4
		C109.6,256.8,138.3,265.5,138.3,276.2z"/>
	<g>
		<g>
			<g>
				<path class="st70" d="M124.6,213.5l-82.7,0l-12.2,62.1c0,9.9,23.6,18,53.5,18c30,0,53.5-8.1,53.5-18L124.6,213.5z"/>
				<path class="st9" d="M124.5,210.5H41.9L30,271.4c0,9.8,23.8,17.7,53.2,17.7s53.2-7.9,53.2-17.7L124.5,210.5z"/>
				<path class="st71" d="M124.7,211.3c0,7.6-18.6,13.8-41.5,13.8c-22.9,0-41.4-6.2-41.4-13.8c0-7.6,18.6-13.8,41.4-13.8
					C106.1,197.5,124.7,203.7,124.7,211.3z"/>
				<path class="st72" d="M53.7,218.8l-9.7,64.5c6.8,2.5,15.6,4.3,25.6,5.1l3.8-67.6C67.1,220.4,58.4,220.2,53.7,218.8z"/>
				<path class="st72" d="M112.4,218.1l9.7,65.2c-6.8,2.5-15.6,4.3-25.6,5.1l-3.8-68.3C98.9,219.6,107.6,219.4,112.4,218.1z"/>
			</g>
			<path class="st73" d="M30,271.4c0,6.4,10.3,12,25.8,15.1c0.1-0.1,0.2-0.1,0.2-0.1l25.7-61.6l-15.3-14.3H41.9L30,271.4z"/>
			<path class="st74" d="M121.5,208.5c0,3.1-17.2,5.7-38.5,5.7c-21.3,0-38.5-2.5-38.5-5.7c0-3.1,17.2-5.7,38.5-5.7
				C104.3,202.8,121.5,205.4,121.5,208.5z"/>
			<g>
				<path class="st75" d="M114.1,200.9c-3.4-4.5,6.9-10.2,11.3-21c4-9.9-2.7-16.6-8-16.8c-2.2-0.1-5.8,0.8-7.7-0.2
					c-5.6-2.9-3.9-21-3.9-21H81.8h-9.2H61.8c0,0,1.8,18.1-3.9,21c-1.9,1-5.6,0-7.7,0.2c-5.8,0.4-12,6.9-8,16.8
					c4.4,10.9,14.7,17.3,11.3,21.8c-2.2,2.9-6.3,5.2-4.9,5.5c0.6,0.1,1.4,1,2,1.1c2.7,0.6,8.4-0.9,11.1-1.1c3.5-0.3,12-0.7,16.7-0.9
					c8.6,0.2,23.7,0.7,27.3,0.9c2.8,0.2,8.4,1.7,11.1,1.1c0.6-0.1,1.4-1,2-1.1C120.4,206.8,116.3,203.8,114.1,200.9z"/>
				<path class="st76" d="M167.7,79.5c0,43.9-37.5,79.5-83.8,79.5C37.5,159.1,0,123.5,0,79.5C0,35.6,37.5,0,83.8,0
					C130.1,0,167.7,35.6,167.7,79.5z"/>
				<path class="st77" d="M115.2,92.6c0,28.9-14.7,35.1-32.9,35.1s-32.9-6.3-32.9-35.1c0-28.9,14.7-69.4,32.9-69.4
					S115.2,63.7,115.2,92.6z"/>
				<path class="st75" d="M109.4,83.6c0,23.8-12.1,29-27.1,29c-15,0-27.1-5.2-27.1-29c0-23.8,12.1-57.2,27.1-57.2
					C97.3,26.3,109.4,59.8,109.4,83.6z"/>
				<g>
					<path class="st75" d="M119.7,191c-0.8,0-1.5,0-2.3,0l-2.2,0v-6.7l2.2,0c10.5,0,22.4,0.1,29.8-7.1c5.8-5.6,7.6-14.6,9.1-21.9
						c1.1-5.5,2.8-11.1,7.3-14.4l4,5.4c-2.7,2-3.9,6.1-4.7,10.3c-1.7,8.2-3.7,18.3-10.9,25.4C143.2,190.5,130.4,191,119.7,191z"/>
				</g>
				<path class="st78" d="M180.7,131.6c0,0-6.3,1.5-8,9.4c-0.8,3.5,3,10.5-4.6,16.6c-5,4-13.2,0.4-15.2-2.8
					c-3-4.8-2.7-13.2,2.4-18.6C165.2,125.7,180.7,131.6,180.7,131.6z"/>
				<path class="st23" d="M77.2,49.7c0,1.9-1.5,3.4-3.4,3.4c-1.9,0-3.4-1.5-3.4-3.4c0-1.9,1.5-3.4,3.4-3.4
					C75.7,46.3,77.2,47.8,77.2,49.7z"/>
				<path class="st23" d="M95.3,49.7c0,1.9-1.5,3.4-3.4,3.4c-1.9,0-3.4-1.5-3.4-3.4c0-1.9,1.5-3.4,3.4-3.4
					C93.8,46.3,95.3,47.8,95.3,49.7z"/>
				<g>
					<path class="st23" d="M97.7,79.7c0-4.4-6.9-4.3-15.4-4.3c-8.5,0-15.4-0.1-15.4,4.3c0,4.4,6.9,11.6,15.4,11.6
						C90.8,91.3,97.7,84.1,97.7,79.7z"/>
					<path class="st23" d="M96.8,95.5c0,3.7-3,6.7-6.7,6.7c-3.6,0-6.6-2.9-6.6-6.6c0,0,0-0.1,0-0.1h0v-5.4h-1.3v5h0
						c0,0.1,0,0.3,0,0.4c0,0,0,0.1,0,0.1c-0.1,3.6-3,6.6-6.6,6.6c-3.7,0-6.7-3-6.7-6.7c0-0.1,0-0.2,0-0.3l-1.3-0.1
						c0,0.1,0,0.3,0,0.4c0,4.4,3.6,8,8,8c3.3,0,6.1-2,7.3-4.8c1.2,2.8,4.1,4.8,7.3,4.8c4.4,0,8-3.6,8-8H96.8z"/>
				</g>
				<g>
					<path class="st70" d="M83.8,163.6c-8.3,0-15,13.4-15,29.9c0,3.6,0.3,7.1,0.9,10.3c3.4,1.8,11.7,3.6,14,3.5
						c5.4,0.1,9-1.3,14.2-3.4c0.6-3.2,0.9-6.8,0.9-10.4C98.9,177,92.1,163.6,83.8,163.6z"/>
					<g class="st79">
						<path class="st77" d="M69.3,193.6c-0.3,2.4-0.5-2.6-0.5-0.1c0,3.6,0.3,7.1,0.9,10.3c3.4,1.8,11.7,3.6,14,3.5
							c5.4,0.1,9-1.3,14.2-3.4c0.6-3.2,0.9-6.8,0.9-10.4c0-2.6-0.2,2.3-0.5-0.1c-3.5,1-9.1,3-14.7,3
							C78.1,196.4,72.6,194.4,69.3,193.6z"/>
					</g>
					<path class="st80" d="M77.8,170.2c0.7,9.5,2,35.2,3.9,36.9c0,0-2.8,0.6-5.8-1.3C73,203.9,77.8,170.2,77.8,170.2z"/>
					<path class="st80" d="M89.9,170.2c-0.7,9.5-2,35.2-3.9,36.9c0,0,2.8,0.6,5.8-1.3C94.7,203.9,89.9,170.2,89.9,170.2z"/>
				</g>
				<g>
					<g>
						<rect x="67" y="164.8" class="st75" width="10.8" height="53.1"/>
					</g>
					<g>
						<rect x="89.8" y="164.8" class="st75" width="10.8" height="53.1"/>
					</g>
				</g>
				<g>
					<path class="st77" d="M130.6,46.4c0-6.4-5.2-11.6-11.6-11.6c-2.4,0-4.6,0.7-6.4,1.9l3,5.6c0.9-0.8,2.1-1.3,3.4-1.3
						c3,0,5.4,2.4,5.4,5.4c0,2.4-1.6,4.5-3.8,5.1l3,5.6C127.7,55.4,130.6,51.2,130.6,46.4z"/>
					<path class="st70" d="M124.4,46.4c0-3-2.4-5.4-5.4-5.4c-1.3,0-2.5,0.5-3.4,1.3l5,9.3C122.7,50.9,124.4,48.9,124.4,46.4z"/>
				</g>
				<g>
					<path class="st77" d="M34.1,46.4c0-6.4,5.2-11.6,11.6-11.6c2.4,0,4.6,0.7,6.4,1.9l-3,5.6C48.2,41.5,47,41,45.7,41
						c-3,0-5.4,2.4-5.4,5.4c0,2.4,1.6,4.5,3.8,5.1l-3,5.6C37,55.4,34.1,51.2,34.1,46.4z"/>
					<path class="st70" d="M40.3,46.4c0-3,2.4-5.4,5.4-5.4c1.3,0,2.5,0.5,3.4,1.3l-5,9.3C41.9,50.9,40.3,48.9,40.3,46.4z"/>
				</g>
				<path class="st80" d="M104.7,195.3c-0.4-19.2,7.5-21.2,4.3-23.1c-8.8-5.3-8.4,34.7-8.4,34.7l17,2.3
					C117.6,209.2,105.8,207.1,104.7,195.3z"/>
				<path class="st80" d="M62.9,195.3c0.4-19.2-7.5-21.2-4.3-23.1c8.8-5.3,8.3,34.7,8.3,34.7l-17,2.3
					C50,209.2,61.8,207.1,62.9,195.3z"/>
			</g>
		</g>
		<path class="st75" d="M63,196.8C62.9,196.8,62.9,196.7,63,196.8c0.1-1.6,0.1-3.4,0-5.6c-0.4-6.3-2.4-7.4-3.4-6.1
			c-0.3-0.4-0.5-0.6-0.9-0.4c-1.8,0.7-1.8,4.4-1.8,6.6c0,2.2,2,4,1,7.3c-0.4,1.3-0.8,3.2-1.3,5.2c-1.5,0.4-3.3,0.3-4.2,0.4
			c-1.7,0.1-3.3,0.1-5,0.3c-4.3,0.9-6.9,2.6-7.3,6.8c-0.2,2.1,0.4,4.3,1.7,4.9c-0.2,1.8,0.6,3.3,2,4.2c1.1,0.7,2.4,0.6,3.6,0.1
			c0.1,0.1,0.1,0.2,0.2,0.3c1,1.4,2.9,1.4,4.4,0.3c2.2-1.6,3.6-5.3,3.2-8.1c0.6-0.7,1.5-1.5,2.4-2.3c3.2-2.4,6.2-2.8,7.1-4.2
			C65.6,205,65,201.6,63,196.8z"/>
		<path class="st73" d="M77,221c-1.3,0-2.4,0.4-3.4,1.1c-0.9-0.7-2.1-1.1-3.4-1.1c-1.6,0-3,0.6-4.1,1.7c-1-1-2.5-1.7-4.1-1.7
			c-3.2,0-5.8,2.6-5.8,5.8c0,3.2,2.6,5.8,5.8,5.8c1.6,0,3-0.6,4.1-1.7c1,1,2.5,1.7,4.1,1.7c1.3,0,2.4-0.4,3.4-1.1
			c0.9,0.7,2.1,1.1,3.4,1.1c3.2,0,5.8-2.6,5.8-5.8C82.8,223.5,80.2,221,77,221z"/>
		<path class="st73" d="M90.6,221c1.3,0,2.4,0.4,3.4,1.1c0.9-0.7,2.1-1.1,3.4-1.1c1.6,0,3,0.6,4.1,1.7c1-1,2.5-1.7,4.1-1.7
			c3.2,0,5.8,2.6,5.8,5.8c0,3.2-2.6,5.8-5.8,5.8c-1.6,0-3-0.6-4.1-1.7c-1,1-2.5,1.7-4.1,1.7c-1.3,0-2.4-0.4-3.4-1.1
			c-0.9,0.7-2.1,1.1-3.4,1.1c-3.2,0-5.8-2.6-5.8-5.8C84.9,223.5,87.4,221,90.6,221z"/>
		<path class="st75" d="M104.7,196.8C104.7,196.8,104.7,196.7,104.7,196.8c-0.1-1.6-0.1-3.4,0-5.6c0.4-6.3,2.4-7.4,3.4-6.1
			c0.3-0.4,0.5-0.6,0.9-0.4c1.8,0.7,1.8,4.4,1.8,6.6c0,2.2-2,4-1,7.3c0.4,1.3,0.8,3.2,1.3,5.2c1.5,0.4,3.3,0.3,4.2,0.4
			c1.7,0.1,3.3,0.1,5,0.3c4.3,0.9,6.9,2.6,7.3,6.8c0.2,2.1-0.4,4.3-1.7,4.9c0.2,1.8-0.6,3.3-2,4.2c-1.1,0.7-2.4,0.6-3.6,0.1
			c-0.1,0.1-0.1,0.2-0.2,0.3c-1,1.4-2.9,1.4-4.4,0.3c-2.2-1.6-3.6-5.3-3.2-8.1c-0.6-0.7-1.5-1.5-2.4-2.3c-3.2-2.4-6.2-2.8-7.1-4.2
			C102.1,205,102.6,201.6,104.7,196.8z"/>
		<path class="st75" d="M77,218c-1.3,0-2.4,0.4-3.4,1.1c-0.9-0.7-2.1-1.1-3.4-1.1c-1.6,0-3,0.6-4.1,1.7c-1-1-2.5-1.7-4.1-1.7
			c-3.2,0-5.8,2.6-5.8,5.8c0,3.2,2.6,5.8,5.8,5.8c1.6,0,3-0.6,4.1-1.7c1,1,2.5,1.7,4.1,1.7c1.3,0,2.4-0.4,3.4-1.1
			c0.9,0.7,2.1,1.1,3.4,1.1c3.2,0,5.8-2.6,5.8-5.8C82.8,220.6,80.2,218,77,218z"/>
		<path class="st75" d="M90.6,218c1.3,0,2.4,0.4,3.4,1.1c0.9-0.7,2.1-1.1,3.4-1.1c1.6,0,3,0.6,4.1,1.7c1-1,2.5-1.7,4.1-1.7
			c3.2,0,5.8,2.6,5.8,5.8c0,3.2-2.6,5.8-5.8,5.8c-1.6,0-3-0.6-4.1-1.7c-1,1-2.5,1.7-4.1,1.7c-1.3,0-2.4-0.4-3.4-1.1
			c-0.9,0.7-2.1,1.1-3.4,1.1c-3.2,0-5.8-2.6-5.8-5.8C84.9,220.6,87.4,218,90.6,218z"/>
	</g>
	<path class="st75" d="M62.4,221.4c-0.4-1.9-1.7-2.9,0.4-3.4c2.1-0.5,4.1-3.1,4.4-6.1c0.2-3,10.4-2.2,10.6,0.5
		c0.1,2.7,1.2,5.6,0.6,7.7c-0.6,2.1-12.2,5.1-13.6,4.7C63.4,224.5,62.4,221.4,62.4,221.4z"/>
	<path class="st75" d="M105.2,221.4c0.4-1.9,1.7-2.9-0.4-3.4c-2.1-0.5-4.1-3.1-4.4-6.1c-0.2-3-10.4-2.2-10.6,0.5
		c-0.1,2.7-1.2,5.6-0.6,7.7c0.6,2.1,12.2,5.1,13.6,4.7S105.2,221.4,105.2,221.4z"/>
</g>
<g class="st0">
	<path class="st81" d="M-160.9,283.4c0,6.4-15.9,11.8-35.6,11.9c-19.7,0.1-35.7-4.9-35.8-11.4c0-6.4,15.9-11.8,35.6-11.9
		C-177,271.9-161,276.9-160.9,283.4z"/>
	<g class="st6">
		<g>
			<polygon class="st82" points="-163.9,45 -202.5,40.7 -177.7,-1.4 			"/>
			<path class="st76" d="M-159.1,160.2c-4,23.8-23.3,16.9-27.1,30.1c-2.9,10.2,4.3,30.3-3.2,38c-4.6,4.8-15,13.6-20,9.2
				c-1.7-1.5-3.2-3.8-2.2-7.6c0.7-2.7,5.6-9.4,6.8-12c5.8-12.1-6.8-43.5,2.7-53.3C-195.5,158-157.6,151.1-159.1,160.2z"/>
			<path class="st83" d="M-186.1,215.9c0.9,1,0.8,2.5-0.3,3.4l-10.6,9.1c-1,0.9-2.5,0.8-3.4-0.3l0,0c-0.9-1-0.8-2.5,0.3-3.4
				l10.6-9.1C-188.4,214.8-186.9,214.9-186.1,215.9L-186.1,215.9z"/>
			<path class="st84" d="M-143.1,50.5c0,5.9-5,10.6-11.2,10.6c-6.2,0-11.2-4.8-11.2-10.6c0-5.9,5-10.6,11.2-10.6
				C-148.1,39.8-143.1,44.6-143.1,50.5z"/>
			<path class="st85" d="M-148.9,50.4c0,2.8-2.4,5.1-5.4,5.1c-3,0-5.4-2.3-5.4-5.1c0-2.8,2.4-5.1,5.4-5.1
				C-151.3,45.3-148.9,47.6-148.9,50.4z"/>
			<path class="st84" d="M-200.8,43.6c0,5.9-5,10.6-11.2,10.6c-6.2,0-11.2-4.8-11.2-10.6c0-5.9,5-10.6,11.2-10.6
				C-205.8,33-200.8,37.8-200.8,43.6z"/>
			<path class="st85" d="M-206.6,43.6c0,2.8-2.4,5.1-5.4,5.1c-3,0-5.4-2.3-5.4-5.1c0-2.8,2.4-5.1,5.4-5.1
				C-209,38.5-206.6,40.8-206.6,43.6z"/>
			<g>
				<g>
					<rect x="-189.8" y="235.1" class="st86" width="2.9" height="48.4"/>
					<rect x="-212.6" y="257.9" class="st86" width="48.4" height="2.9"/>
					
						<rect x="-212.6" y="257.9" transform="matrix(0.7074 -0.7068 0.7068 0.7074 -238.4243 -57.2848)" class="st86" width="48.4" height="2.9"/>
					
						<rect x="-189.8" y="235.1" transform="matrix(0.7072 -0.707 0.707 0.7072 -238.494 -57.2738)" class="st86" width="2.9" height="48.4"/>
				</g>
				<path class="st87" d="M-188.4,223.6c-19.8,0-35.8,16-35.8,35.8c0,19.7,16,35.8,35.8,35.8c19.7,0,35.8-16,35.8-35.8
					C-152.6,239.6-168.7,223.6-188.4,223.6z M-188.4,286c-14.7,0-26.6-11.9-26.6-26.6c0-14.7,11.9-26.6,26.6-26.6
					c14.7,0,26.6,11.9,26.6,26.6C-161.8,274-173.7,286-188.4,286z"/>
				<path class="st86" d="M-188.4,232.7c-14.7,0-26.6,11.9-26.6,26.6c0,14.7,11.9,26.6,26.6,26.6c14.7,0,26.6-11.9,26.6-26.6
					C-161.8,244.6-173.7,232.7-188.4,232.7z M-188.4,281.2c-12.1,0-21.9-9.8-21.9-21.9c0-12.1,9.8-21.9,21.9-21.9
					c12.1,0,21.9,9.8,21.9,21.9C-166.5,271.4-176.3,281.2-188.4,281.2z"/>
				<rect x="-191.5" y="172" class="st86" width="6.3" height="84.1"/>
				<path class="st87" d="M-176.6,174.5c0,1.6-1.3,2.9-2.9,2.9h-17.7c-1.6,0-2.9-1.3-2.9-2.9l0,0c0-1.6,1.3-2.9,2.9-2.9h17.7
					C-177.9,171.5-176.6,172.9-176.6,174.5L-176.6,174.5z"/>
				<path class="st86" d="M-180.4,259.3c0,4.4-3.6,8-8,8c-4.4,0-8-3.6-8-8c0-4.4,3.6-8,8-8C-184,251.3-180.4,254.9-180.4,259.3z"/>
			</g>
			<path class="st84" d="M-152.2,67.2c0,17.9-15.2,32.4-34,32.4c-18.8,0-34-14.5-34-32.4c0-17.9,15.2-32.4,34-32.4
				C-167.5,34.9-152.2,49.4-152.2,67.2z"/>
			<path class="st84" d="M-152.1,134.7c0,26.6-15.2,38.2-34,38.2c-18.8,0-34-11.6-34-38.2c0-26.6,15.2-58.2,34-58.2
				C-167.4,76.5-152.1,108.1-152.1,134.7z"/>
			<path class="st84" d="M-166.6,85.9c0,0,42.6,39.5,46.1,58.1c0.4,2,0.4,4.5-1.2,6.2c-2,2.2-5.9,3.2-9.3,0.2
				c-1.5-1.3-2.3-3.9-4.3-3.7c-1.8,0.1-2.7,4.3-5,3.5c-3.4-1.2-1.3-7.6-2.7-10.8c-4.3-9.7-31.6-29.3-31.6-29.3l-4.1-10.4
				L-166.6,85.9z"/>
			<path class="st84" d="M-204.9,111.3c0,0-55.6-34.8-59.2-50.3c-0.5-2.2-0.6-4.4,0.9-6.5c1.5-2,4.5-3.8,8-1.8
				c1.7,1,4.7,5.7,6.7,5.2c1.8-0.5,1.6-6.2,4.1-6.2c4.4,0,2.5,8.6,5.1,11.9c6.6,8.4,37.2,22.6,37.2,22.6l6.3,9.4L-204.9,111.3z"/>
			<path class="st88" d="M-179.8,135.7c-0.7,17.5-10.6,24.9-22.5,24.6c-11.9-0.3-21.2-8.2-20.5-25.8c0.7-17.5,12.3-36,24.1-35.7
				C-186.9,99.1-179.1,118.1-179.8,135.7z"/>
			<path class="st85" d="M-168.6,67.2c-0.2-5.8-8.2-8.1-17.9-7.8c-9.7,0.3-17.6,3.1-17.3,8.9c0.2,5.8,8.3,12.4,18.1,12.1
				C-176.1,80.2-168.4,73-168.6,67.2z"/>
			<path class="st23" d="M-182,59.7c-0.1-1.4-2-1.9-4.3-1.9c-2.3,0.1-4.2,0.7-4.2,2.1c0.1,1.4,2,3,4.4,2.9
				C-183.8,62.8-182,61.1-182,59.7z"/>
			<path class="st84" d="M-171.9,168.6c-2.2,6.1-36.1,2-32.8,7.7c3.3,5.6,9.1,19.3,6.8,28.3c-1.3,5.2-11.5,14.4-17.1,13.5
				c-2.8-0.4-4.9-2.5-5.2-5.2c-0.5-4,3.8-8.8,3.4-12.8c-0.8-9.2-15-19.7-16.6-28.8c-1.2-7.3,0-14.6,19.1-23.9
				c17.7-8.6,37.9-10.8,43.3-7.2C-162.8,145.7-169.9,163-171.9,168.6z"/>
			<g>
				<path class="st23" d="M-193.9,54c0,1.5-1.2,2.6-2.8,2.6c-1.5,0-2.8-1.2-2.8-2.6c0-1.5,1.2-2.6,2.8-2.6
					C-195.2,51.4-193.9,52.5-193.9,54z"/>
				<path class="st23" d="M-174.2,54c0,1.5-1.2,2.6-2.8,2.6c-1.5,0-2.8-1.2-2.8-2.6c0-1.5,1.2-2.6,2.8-2.6
					C-175.4,51.4-174.2,52.5-174.2,54z"/>
			</g>
			<path class="st23" d="M-175.9,65.3c0,2.6-2.2,4.6-4.9,4.6c-2.7,0-4.8-2-4.9-4.6c0,0,0,0,0-0.1h0v-3.8h-1V65h0c0,0.1,0,0.2,0,0.3
				c0,0,0,0,0,0.1c0,2.5-2.2,4.6-4.9,4.6c-2.7,0-4.9-2.1-4.9-4.6c0-0.1,0-0.2,0-0.2l-1,0c0,0.1,0,0.2,0,0.3c0,3.1,2.6,5.6,5.9,5.6
				c2.4,0,4.5-1.4,5.4-3.3c0.9,2,3,3.3,5.4,3.3c3.2,0,5.9-2.5,5.9-5.6L-175.9,65.3z"/>
			
				<rect x="-195.7" y="202.3" transform="matrix(0.7734 -0.6339 0.6339 0.7734 -177.8904 -75.1712)" class="st86" width="3.2" height="17.9"/>
			<path class="st83" d="M-190.8,218.2c0,1.3,1.1,2.4,2.4,2.4c1.3,0,2.4-1.1,2.4-2.4c0-1.3-1.1-2.4-2.4-2.4
				C-189.7,215.8-190.8,216.9-190.8,218.2z"/>
			<path class="st88" d="M-251.9,62c0,2.6-2.1,4-4.8,4c-2.6,0-4.4-1.4-4.4-4c0-2.6,3.2-5.1,5.8-5.1C-252.7,56.9-251.9,59.5-251.9,62
				z"/>
			<path class="st58" d="M-192.5,31c0,1.1,1,2.1,2.2,2.1c1.2,0,2.2-0.9,2.2-2.1c0-1.1-1-2.1-2.2-2.1C-191.5,29-192.5,29.9-192.5,31z
				"/>
			<path class="st58" d="M-183.3,26.9c0,1.1,1,2.1,2.2,2.1c1.2,0,2.2-0.9,2.2-2.1c0-1.1-1-2.1-2.2-2.1
				C-182.3,24.8-183.3,25.8-183.3,26.9z"/>
			<path class="st58" d="M-175.5,33.8c0,1.1,1,2.1,2.2,2.1c1.2,0,2.2-0.9,2.2-2.1c0-1.1-1-2.1-2.2-2.1
				C-174.5,31.7-175.5,32.7-175.5,33.8z"/>
			<path class="st58" d="M-177.1,19.7c0,1.1,1,2.1,2.2,2.1c1.2,0,2.2-0.9,2.2-2.1c0-1.1-1-2.1-2.2-2.1
				C-176.1,17.6-177.1,18.5-177.1,19.7z"/>
			<path class="st58" d="M-187.5,18.2c0,1.1,1,2.1,2.2,2.1c1.2,0,2.2-0.9,2.2-2.1c0-1.1-1-2.1-2.2-2.1
				C-186.6,16.1-187.5,17-187.5,18.2z"/>
			<path class="st58" d="M-181.3,10c0,1.1,1,2.1,2.2,2.1c1.2,0,2.2-0.9,2.2-2.1c0-1.1-1-2.1-2.2-2.1C-180.3,7.9-181.3,8.9-181.3,10z
				"/>
			<path class="st89" d="M-191.8,88.8c-12.5-2.6-22.3-7.3-27-12.1c0.2,0.5,0.2,1,0.5,1.5c3.3,5.4,13.4,10.8,26.2,13.5
				c12.6,2.6,24.2,2,29.8-1.4c1-0.6,1.4-1.3,2-2C-166.4,91.3-178.3,91.6-191.8,88.8z"/>
			<g>
				<g>
					<path class="st89" d="M-185.3,97.6c-2.9,1.2-11.1-5.9-11.1-5.9l1-3.7c0,0,10.8-2.6,12.8-0.3C-181,89.7-182.8,96.6-185.3,97.6z"
						/>
					<path class="st89" d="M-208.8,92c2,2.4,12.8-0.3,12.8-0.3l1-3.7c0,0-8.2-7.1-11.1-5.9C-208.6,83.1-210.5,90-208.8,92z"/>
				</g>
				<path class="st89" d="M-192.4,90.6c-0.5,1.7-2.3,2.8-4.1,2.3c-1.8-0.4-2.9-2.2-2.5-3.9c0.4-1.7,2.3-2.8,4.1-2.3
					C-193.1,87.2-192,88.9-192.4,90.6z"/>
			</g>
		</g>
	</g>
</g>
<g class="st0">
	<g class="st6">
		<path class="st90" d="M-231.1,498.7l-4.6-0.7c0,0,0,0.2-0.1,0.7c-0.1,0.4-0.1,1.1-0.3,1.9c-0.1,0.4-0.2,0.8-0.3,1.2l-0.1,0.2l0,0
			c0,0,0,0,0,0l0.2,0.1c0.1,0.1,0.3,0.2,0.4,0.3l0.2,0.2c-0.3-0.3,0.8,0.7-0.8-0.6l-0.1-0.1l-0.1-0.1l-0.5-0.5c0,0-0.1-0.1-0.1-0.1
			l0,0l-0.1,0.1c-0.1,0.1-0.1,0.1-0.1,0.2c-0.1,0.2-0.1,0.2-0.1,0.2c0-0.1,0.1-0.1,0.2-0.2c0,0,0.1-0.1,0.1-0.1
			c-0.1,0.1-0.1,0.2-0.2,0.2c-0.2,0.3-0.3,0.8-0.3,1.5c0.1,1.2,0.4,2.9,0.5,3.2c0.4,2.7,0.2,6-1,9.2c-1.2,3.1-3.7,6.1-7.2,7.2
			c-0.8,0.4-1.8,0.5-2.7,0.7c-0.9,0.1-1.9,0.2-2.8,0.2c-1.8,0-3.7-0.3-5.1-1.1c-1.4-0.8-2.1-2.3-2.1-3.8c0-1.5,0.6-3,1.4-4.1
			c0.4-0.5,0.9-1,1.4-1.2c0.5-0.3,1-0.3,1.5-0.2c0.5,0.1,0.9,0.3,1.1,0.7c0.2,0.4,0.3,0.8,0.3,1.1c0,0.8-0.3,1.4-0.4,1.8
			c-0.2,0.4-0.3,0.6-0.3,0.6s0.1-0.2,0.3-0.6c0.2-0.4,0.5-1,0.6-1.9c0.1-0.4,0-0.9-0.2-1.3c-0.2-0.5-0.7-0.8-1.3-0.9
			c-0.6-0.1-1.3-0.2-1.9,0.1c-0.6,0.2-1.3,0.7-1.8,1.3c-1,1.1-1.8,2.7-2,4.5c-0.1,0.9,0.1,1.9,0.5,2.8c0.4,0.9,1.1,1.7,1.9,2.3
			c1.7,1.2,3.8,1.6,5.8,1.7c1,0.1,2.1,0,3.1,0c1-0.2,2.1-0.2,3.1-0.6c1-0.2,2-0.7,3-1.2l1.4-0.9c0.5-0.3,0.8-0.7,1.3-1
			c1.6-1.5,2.8-3.2,3.7-5.1c0.9-1.8,1.4-3.7,1.7-5.6c0.3-1.8,0.4-3.6,0.3-5.2c0-0.2,0-0.4,0-0.6l0-0.2l0,0l0-0.1c0-0.1,0-0.1,0-0.2
			c0,0,0-0.1,0-0.1c0-0.1,0.1,0.1,0.1,0.1c0,0,0,0,0.1,0c0,0,0,0,0.1,0c0.1-0.1,0.2-0.2,0.3-0.3c0.4-0.6,0.5-0.9,0.7-1.2
			c0.2-0.6,0.4-1.2,0.5-1.6c0.2-0.9,0.4-1.6,0.5-2.1C-231.2,499-231.1,498.7-231.1,498.7z"/>
	</g>
	<g class="st6">
		<g>
			<path class="st9" d="M-230.8,617.6l8.8-25.9l100.4,0l8.8,25.9c0.1,0.5,0.2,1,0.2,1.6c0,4.9-4.8,6.6-6.8,7.3
				c-3,1.1-7.2,2-12.5,2.8c-10.7,1.6-24.8,2.5-39.8,2.5c-15,0-29.2-0.9-39.8-2.5c-5.3-0.8-9.5-1.7-12.5-2.8c-2-0.7-6.8-2.4-6.8-7.3
				C-230.9,618.6-230.9,618.1-230.8,617.6z"/>
			<g>
				<path class="st91" d="M-161.5,591.7l1.2,39.9c-3.7,0.1-7.6,0.2-11.4,0.2c-11.5,0-22.4-0.5-31.7-1.5l3.4-38.6L-161.5,591.7z"/>
			</g>
			<g>
				<path class="st11" d="M-171.8,605c12.8,0,24.9-0.8,34-2.4c4.5-0.8,8.1-1.7,10.7-2.7c1.7-0.7,5.8-2.3,5.8-7c0-4.7-4.1-6.3-5.8-7
					c-2.5-1-6.1-1.9-10.7-2.7c-9.1-1.5-21.2-2.4-34-2.4c-12.8,0-24.9,0.8-34,2.4c-4.5,0.8-8.1,1.7-10.7,2.7c-1.7,0.7-5.8,2.3-5.8,7
					c0,4.7,4.1,6.3,5.8,7c2.5,1,6.1,1.9,10.7,2.7C-196.7,604.1-184.6,605-171.8,605z"/>
				<path class="st12" d="M-171.8,603.8c12.8,0,24.8-0.8,33.8-2.4c4.5-0.8,8.1-1.7,10.6-2.7c1.7-0.7,5.8-2.3,5.8-7
					c0-4.7-4.1-6.3-5.8-7c-2.5-1-6.1-1.9-10.6-2.7c-9.1-1.5-21.1-2.4-33.8-2.4c-12.8,0-24.8,0.8-33.8,2.4c-4.5,0.8-8.1,1.7-10.6,2.7
					c-1.7,0.7-5.8,2.3-5.8,7c0,4.7,4.1,6.3,5.8,7c2.5,1,6.1,1.9,10.6,2.7C-196.6,602.9-184.6,603.8-171.8,603.8z"/>
				<path class="st12" d="M-216.2,584.8c2.5-1,6.1-1.9,10.6-2.7c9.1-1.5,21.1-2.4,33.8-2.4c12.8,0,24.8,0.8,33.8,2.4
					c4.5,0.8,8.1,1.7,10.6,2.7c1.5,0.6,4.8,1.9,5.6,5.4c-0.8,3.4-4.1,4.8-5.6,5.4c-2.5,1-6.1,1.9-10.6,2.7
					c-9.1,1.5-21.1,2.4-33.8,2.4c-12.8,0-24.8-0.8-33.8-2.4c-4.5-0.8-8.1-1.7-10.6-2.7c-1.5-0.6-4.8-1.9-5.6-5.4
					C-221,586.7-217.7,585.4-216.2,584.8z"/>
				<path class="st92" d="M-219.1,590.5c0,4.4,21.2,8,47.3,8c26.1,0,47.3-3.6,47.3-8c0-4.4-21.2-8-47.3-8
					C-197.9,582.5-219.1,586.1-219.1,590.5z"/>
				<g>
					<path class="st8" d="M-218.6,591.7c-0.4-0.4-0.6-0.8-0.6-1.2c0-4.4,21.2-8,47.3-8c26.1,0,47.3,3.6,47.3,8
						c0,0.4-0.2,0.8-0.6,1.2c-3.5-3.8-23.1-6.8-46.8-6.8C-195.4,585-215,587.9-218.6,591.7z"/>
				</g>
			</g>
		</g>
		<path class="st93" d="M-136.1,591.2c0,2.2-15.5,3.9-34.5,3.9c-19.1,0-34.5-1.7-34.5-3.9s15.4-3.9,34.5-3.9
			C-151.5,587.3-136.1,589-136.1,591.2z"/>
	</g>
	<g class="st6">
		<path class="st90" d="M-93.9,465.7c-7.3,41.8-11.4,65.3-44.9,87.6c-34.7,23.1-111.1-2.5-97.5-72.3c10.2-52.2,64.1-56.2,85.2-63.3
			c0,0,24.2-29.3,46.7-29.9c19.4-0.6,48.8-0.4,46.6-23.1c-1.7-16.8-5.4-15.7-8.1-16.5c-2.8-0.9-1.7-2.6,0.5-3.4
			c1.2-0.4,3.4,1.4,4.7,0.6c1.3-0.8,2.3-2.5,3.3-3.7c1-1.2,2.8-0.6,2.6-0.8c-1-0.7,9,10.2,9.9,29.7c1,20.5-2.6,35.3-19.5,59.8
			C-81.4,454.8-91.5,451.8-93.9,465.7z"/>
		<path class="st94" d="M-60.8,345.3c-1.3,0.8-3.5-1-4.7-0.6c-2.3,0.8-3.3,2.5-0.5,3.4c1.5,0.4,3.3,0.3,4.9,3c3-1.1,6.2-2.6,9.4-4.9
			c-1.7-3.2-3.2-5-3.3-5.3c-0.3,0-1.7-0.3-2.5,0.7C-58.5,342.8-59.5,344.5-60.8,345.3z"/>
		<path class="st95" d="M-45.8,386.7c-6,36.7-48.7,55.3-52.7,62c-4,6.7,3.3,12.7,2.7,26c0,0.7-0.1,1.4-0.1,2c0.6-3.5,1.3-7.2,1.9-11
			c2.4-13.9,12.5-10.9,29.4-35.3c13-18.9,18.2-32.1,19.3-46.6C-45.4,384.7-45.6,385.6-45.8,386.7z"/>
		<path class="st94" d="M-125.4,413.2c-2.8-1.8,1.5-5.8-2.3-6.5c-4.9-0.9-24.6-1.5-21.6,17c3.3,20.8,12.3,57.9,32.7,47.8
			c25.5-12.6-16.3-55.8-6.2-51.8L-125.4,413.2z"/>
		<path class="st90" d="M-123.7,403.6c-2.6-1.3-3.8-2.3-7.2-2.7c-4.4-0.4-21.8,0.7-17.7,16.7c4.6,18,15.6,50,32.8,39.4
			c21.4-13.2-15-51.1-5.7-48.5L-123.7,403.6z"/>
		<path class="st96" d="M-125,408.4c0.2,0.1,0.4,0.2,0.6,0.3c0.3,11.1,11.6,20.7,14.1,31.4c-4.2,3.2-8.2,12-15.5,8.3
			c-6.5-3.3-15.7-30.9-13.5-36C-137.4,408-132.3,406.5-125,408.4z"/>
		<g>
			<g>
				<path class="st97" d="M-65.3,422.3l-0.5-12.1c0,0,0.4,0,1.2,0.1c0.8,0.1,2,0.2,3.3,0.1c2.7-0.1,6.3-0.9,9.6-3
					c3.3-2,6-5.3,7.7-8.1c0.8-1.4,1.4-2.6,1.8-3.5c0.4-0.9,0.6-1.4,0.6-1.4s0,0.5,0,1.5c-0.1,1-0.2,2.4-0.6,4
					c-0.7,3.3-2.2,7.9-5.4,11.8c-3,4-7.6,7.1-11.3,8.5c-1.9,0.8-3.5,1.2-4.6,1.5C-64.7,422.1-65.3,422.3-65.3,422.3z"/>
			</g>
		</g>
		<path class="st90" d="M-108.6,498.1c0.9,16.2,5.2,10.2,0,21.9c-5.2,11.8-27.3,45.9-32.5,59.7c-2,5.2-2.5,10.6-5.9,12.1
			c-5.6,2.6-13.5,1-15.2-0.2c-3-2-1.8-9.1-1.5-14c1.3-20.5,8.3-31.3,7.9-34.9C-156.3,539.2-108.6,498.1-108.6,498.1z"/>
		<path class="st90" d="M-233.3,498.5c-0.9,16.2-5.2,10.2,0,21.9c5.2,11.8,27.3,45.9,32.5,59.7c2,5.2,2.5,10.6,5.9,12.1
			c5.6,2.6,13.5,1,15.2-0.2c3-2,1.8-9.1,1.5-14c-1.3-20.5-8.3-31.3-7.9-34.9C-185.6,539.6-233.3,498.5-233.3,498.5z"/>
	</g>
	<g class="st6">
		<path class="st98" d="M-55,340.9C-55,340.9-55,340.9-55,340.9C-55.1,340.9-55.1,340.9-55,340.9z"/>
		<path class="st95" d="M-236.4,481c0.9-4.5,2.1-8.6,3.5-12.4c-12.4,67.4,54,80.9,90,71.9c36-9,43.5-48.5,46-59
			c0-0.2,0.1-0.3,0.1-0.5c-3.6,19.4-7.6,34.4-16.3,47.5c-8.4,15.1-23.9,40-28.1,51.2c-2,5.2-2.5,10.6-5.9,12.1
			c-5.6,2.6-13.5,1-15.2-0.2c-3-2-1.8-9.1-1.5-14c0.4-6.5,1.4-12,2.5-16.6c-6.3,0.8-13,0.6-19.7-0.5c1.2,4.8,2.3,10.6,2.8,17.5
			c0.3,4.9,1.5,12-1.5,14c-1.7,1.1-9.6,2.8-15.2,0.2c-3.4-1.6-4-6.9-5.9-12.1c-3.7-9.8-15.9-29.8-24.5-44.8
			C-235.6,522.1-240.8,504-236.4,481z"/>
	</g>
	<g class="st6">
		<g>
			
				<ellipse transform="matrix(0.1196 -0.9928 0.9928 0.1196 -374.2831 199.5761)" class="st89" cx="-74.6" cy="310.8" rx="36.1" ry="36.1"/>
			<g>
				<path class="st99" d="M-43.7,291.8l-0.6-0.9c-1.8-2.6-1.9-2.8-3.2-4.2c-2.2-2.4-2.4-2.5-4-3.9c-2.6-2-2.9-2.2-4.9-3.4l-0.4-0.2
					c6.9,3.9,8.7,15.6,3.9,29.7c0.1,0.1,0.2,0.2,0.3,0.3C-44.6,301.6-41.6,295.2-43.7,291.8L-43.7,291.8z"/>
				<path class="st99" d="M-80.1,274.8l-2.5,0.5c-3.5,0.9-4,1.1-6.7,2.2c-3.2,1.6-3.5,1.7-5.7,3.2c-2.8,2.1-2.9,2.2-4.5,3.6
					c9.8-7.9,32,4.1,45.7,24.6c0.1-0.1,0.2-0.2,0.4-0.2c0,0,0,0,0,0C-57.1,284.6-69.9,273.3-80.1,274.8L-80.1,274.8z"/>
				<path class="st99" d="M-109.1,299.8c-0.2,0.7-0.5,1.7-0.7,2.5c-0.6,3-0.6,3-0.8,4.6c-0.2,3.1-0.2,3.1-0.2,4.6
					c0.1,1,0.1,2.4,0.3,3.5c0.1,0.5,2.4,0.6,7.1,0.5c11.6-0.4,33.5-2.9,49.3-5.5c0-0.2,0-0.4,0-0.5c-15-7.3-36.2-12.7-47.8-12.3
					C-106.2,297.2-108.6,298.2-109.1,299.8L-109.1,299.8z"/>
				<path class="st99" d="M-104.4,331c0.8,1.1,1.8,2.4,2.7,3.4c2.2,2.4,2.4,2.5,4,3.9c2.6,2,2.9,2.2,4.9,3.4c0.8,0.4,1.8,1,2.6,1.4
					c1.6,0.8,3.4,1.1,5.5,1.1c11.6-0.4,25.4-15.3,31.2-33.5c-0.1-0.1-0.3-0.2-0.3-0.3c-12.2,12.5-31.2,22.8-42.8,23.3
					C-100.6,333.8-103.1,332.8-104.4,331L-104.4,331z"/>
				<path class="st99" d="M-66.3,345.7c3.6-1,3.9-1.1,6.4-2.1c3.2-1.6,3.5-1.7,5.7-3.2c2.8-2.1,3-2.2,4.7-3.8l1.3-1.3
					c4.2-4.5,2.8-13.9-4.5-24.6c-0.1,0.1-0.2,0.2-0.4,0.2C-50.3,333.4-58.5,343.7-66.3,345.7L-66.3,345.7z"/>
				<path class="st99" d="M-39.6,319.6l0.2-0.7c0.6-3,0.6-3,0.8-4.6c0.2-3.1,0.2-3.1,0.2-4.6c-0.2-3.1-0.2-3.2-0.4-4.7
					c0.2,0.9-4.5,2.6-13.5,4.7c0,0.1,0,0.3,0,0.5C-43.5,313.9-39,317.3-39.6,319.6L-39.6,319.6z"/>
			</g>
		</g>
		<path class="st100" d="M-108.1,297.4c-7.4,18.5,1.5,39.6,20,47c18.5,7.4,39.6-1.5,47-20c7.4-18.5-1.5-39.6-20-47
			C-79.6,269.9-100.7,278.8-108.1,297.4z M-103,294.5c5.5-13.6,20.9-20.1,34.4-14.7s20.1,20.9,14.7,34.4
			c-5.5,13.6-20.9,20.1-34.4,14.7C-101.8,323.5-108.4,308-103,294.5z"/>
	</g>
	<circle class="st101" cx="-103.4" cy="399.5" r="2"/>
	<g class="st102">
		<path class="st103" d="M-55,340.9C-55.1,340.9-55.1,340.9-55,340.9C-55,340.9-55,340.9-55,340.9z"/>
	</g>
	<path class="st104" d="M-119.5,451c4.3-4,2.3-2.3,5.3-6.7c3-4.3,1-10.7-2.3-17.3c-3.3-6.7,4.7-5.3,7.3,0.3c2.7,5.7,6.7,10.7,5,14.3
		c-1.7,3.7-7.7,6.3-8.7,8.7C-113.8,452.7-119.5,451-119.5,451z"/>
	<path class="st104" d="M-124.4,408.6c-11.7,6.7,13.8,37.4,1.3,40.9c0,0-6,6.5,1.5,5s15.5-0.5,14-13s1-15.5-2-22
		S-124.4,408.6-124.4,408.6z"/>
</g>
</svg>
